<?xml version="1.0" encoding="UTF-8"?>
<svg id="Layer_1" data-name="Layer 1" xmlns="http://www.w3.org/2000/svg" viewBox="0 0 750 420.08">
  <defs>
    <style>
      .cls-1, .cls-2, .cls-3, .cls-4, .cls-5, .cls-6, .cls-7, .cls-8, .cls-9 {
        fill: none;
      }

      .cls-2, .cls-10, .cls-11 {
        opacity: .3;
      }

      .cls-3, .cls-12 {
        opacity: .4;
      }

      .cls-4, .cls-13 {
        opacity: .5;
      }

      .cls-5, .cls-14 {
        opacity: .9;
      }

      .cls-6 {
        stroke-width: .75px;
      }

      .cls-6, .cls-7, .cls-8, .cls-9 {
        stroke-linecap: round;
        stroke-linejoin: round;
      }

      .cls-6, .cls-9 {
        stroke: #263238;
      }

      .cls-15 {
        fill: #ebebeb;
      }

      .cls-16 {
        fill: #f0f0f0;
      }

      .cls-17 {
        fill: #e6e6e6;
      }

      .cls-18 {
        fill: #f5f5f5;
      }

      .cls-19 {
        fill: #eec1bb;
      }

      .cls-20 {
        fill: #e9b376;
      }

      .cls-21, .cls-10, .cls-22, .cls-23, .cls-13 {
        fill: #fff;
      }

      .cls-24 {
        fill: #b97964;
      }

      .cls-25 {
        fill: #a24e3f;
      }

      .cls-26 {
        fill: #d58745;
      }

      .cls-27 {
        fill: #d4827d;
      }

      .cls-28 {
        fill: #dc5753;
      }

      .cls-29 {
        fill: #e0e0e0;
      }

      .cls-30 {
        fill: #407bff;
      }

      .cls-31, .cls-14 {
        fill: #2c5797;
      }

      .cls-32 {
        fill: #263238;
      }

      .cls-10, .cls-22, .cls-23, .cls-14, .cls-13, .cls-7, .cls-11, .cls-33, .cls-12 {
        isolation: isolate;
      }

      .cls-22 {
        opacity: .7;
      }

      .cls-23 {
        opacity: .8;
      }

      .cls-7 {
        stroke: #000;
      }

      .cls-7, .cls-8, .cls-9 {
        stroke-width: .5px;
      }

      .cls-7, .cls-33 {
        opacity: .2;
      }

      .cls-8 {
        stroke: #407bff;
      }
    </style>
  </defs>
  <g id="Background_complete" data-name="Background complete">
    <g>
      <rect class="cls-17" x="567.81" y="17.86" width="56.75" height="106.99"/>
      <rect class="cls-16" x="555.11" y="17.86" width="66.66" height="106.99"/>
      <rect class="cls-21" x="565.24" y="27.37" width="46.37" height="87.98"/>
      <rect class="cls-15" x="579.99" y="53.61" width="18.03" height="34.2"/>
    </g>
    <g>
      <rect class="cls-17" x="123.76" y="17.86" width="56.75" height="106.99"/>
      <rect class="cls-16" x="111.06" y="17.86" width="66.66" height="106.99"/>
      <rect class="cls-21" x="121.2" y="27.37" width="46.37" height="87.98"/>
      <rect class="cls-15" x="135.94" y="53.61" width="18.03" height="34.2"/>
    </g>
    <g>
      <g>
        <g>
          <g>
            <path class="cls-29" d="m673.73,275h-180.75c-3.23,0-5.86-2.63-5.86-5.86V5.86c0-3.23,2.63-5.86,5.86-5.86h180.75c3.23,0,5.86,2.63,5.86,5.86v263.27c0,3.23-2.63,5.86-5.86,5.86h0ZM492.99.25c-3.09,0-5.61,2.52-5.61,5.61v263.27c0,3.09,2.52,5.61,5.61,5.61h180.75c3.09,0,5.61-2.52,5.61-5.61V5.86c0-3.09-2.52-5.61-5.61-5.61h-180.75Z"/>
            <path class="cls-29" d="m465.31,275h-180.75c-3.23,0-5.86-2.63-5.86-5.86V5.86c0-3.23,2.63-5.86,5.86-5.86h180.75c3.23,0,5.86,2.63,5.86,5.86v263.27c0,3.23-2.63,5.86-5.86,5.86h0ZM284.56.25c-3.09,0-5.61,2.52-5.61,5.61v263.27c0,3.09,2.52,5.61,5.61,5.61h180.75c3.09,0,5.61-2.52,5.61-5.61V5.86c0-3.09-2.52-5.61-5.61-5.61h-180.75Z"/>
          </g>
          <path class="cls-29" d="m257.01,275H76.27c-3.23,0-5.86-2.63-5.86-5.86V5.86c0-3.23,2.63-5.86,5.86-5.86h180.75c3.23,0,5.86,2.63,5.86,5.86v263.27c0,3.23-2.63,5.86-5.86,5.86h0ZM76.27.25c-3.09,0-5.61,2.52-5.61,5.61v263.27c0,3.09,2.52,5.61,5.61,5.61h180.75c3.09,0,5.61-2.52,5.61-5.61V5.86c0-3.09-2.52-5.61-5.61-5.61H76.27Z"/>
        </g>
        <rect class="cls-29" y="336.07" width="750" height=".12"/>
      </g>
      <g>
        <rect class="cls-15" x="653.63" y="365.44" width="55.73" height=".42"/>
        <rect class="cls-15" x="495.04" y="370.01" width="14.63" height=".42"/>
        <rect class="cls-15" x="40.64" y="352.65" width="72.67" height=".42"/>
        <rect class="cls-15" x="128.3" y="352.65" width="10.66" height=".42"/>
        <rect class="cls-15" x="173.59" y="359.75" width="157.61" height=".42"/>
      </g>
    </g>
    <path class="cls-15" d="m238.48,63.9c-2.51,3.82-4.19,8.01-5.09,12.34l-6.89.65v13.34l6.89.65c.9,4.32,2.58,8.52,5.09,12.34l-4.4,5.31,9.43,9.43,5.31-4.4c3.82,2.51,8.01,4.19,12.34,5.09l.65,6.89h13.34l.65-6.89c4.32-.9,8.52-2.58,12.34-5.09l5.31,4.4,9.43-9.43-4.4-5.31c2.51-3.82,4.19-8.01,5.09-12.34l6.89-.65v-13.34l-6.89-.65c-.9-4.32-2.58-8.52-5.09-12.33l4.4-5.31-9.43-9.43-5.31,4.4c-3.82-2.51-8.01-4.19-12.34-5.09l-.65-6.89h-13.34l-.65,6.89c-4.32.9-8.52,2.58-12.33,5.09l-5.31-4.4-9.43,9.43,4.4,5.31h0Zm42.77,6.88c7.05,7.05,7.05,18.49,0,25.54s-18.49,7.05-25.54,0c-7.05-7.05-7.05-18.49,0-25.54,7.05-7.05,18.49-7.05,25.54,0Z"/>
    <path class="cls-15" d="m264.51,224.81c-1.25,1.91-2.1,4-2.54,6.17l-3.44.32v6.67l3.44.32c.45,2.16,1.29,4.26,2.54,6.17l-2.2,2.66,4.71,4.71,2.66-2.2c1.91,1.25,4,2.1,6.16,2.54l.32,3.44h6.67l.32-3.44c2.16-.45,4.26-1.29,6.17-2.54l2.66,2.2,4.71-4.71-2.2-2.66c1.25-1.91,2.1-4,2.54-6.17l3.44-.32v-6.67l-3.44-.32c-.45-2.16-1.29-4.26-2.54-6.16l2.2-2.66-4.71-4.71-2.66,2.2c-1.91-1.25-4-2.1-6.16-2.54l-.32-3.44h-6.67l-.32,3.44c-2.16.45-4.26,1.29-6.16,2.54l-2.66-2.2-4.71,4.71,2.2,2.66h-.01Zm21.38,3.44c3.52,3.52,3.52,9.24,0,12.76s-9.24,3.52-12.76,0-3.52-9.24,0-12.76c3.52-3.52,9.24-3.52,12.76,0Z"/>
    <path class="cls-15" d="m74.46,155.22c-1.98,3.01-3.31,6.32-4.02,9.74l-5.44.51v10.53l5.44.51c.71,3.41,2.04,6.72,4.02,9.74l-3.47,4.19,7.45,7.45,4.19-3.47c3.01,1.98,6.32,3.31,9.74,4.02l.51,5.44h10.53l.51-5.44c3.41-.71,6.72-2.04,9.74-4.02l4.19,3.47,7.45-7.45-3.47-4.19c1.98-3.01,3.31-6.32,4.02-9.74l5.44-.51v-10.53l-5.44-.51c-.71-3.41-2.04-6.72-4.02-9.74l3.47-4.2-7.45-7.45-4.19,3.47c-3.01-1.98-6.32-3.31-9.74-4.02l-.51-5.44h-10.53l-.51,5.44c-3.41.71-6.72,2.04-9.74,4.02l-4.2-3.47-7.45,7.45,3.47,4.2h0Zm33.76,5.43c5.57,5.57,5.57,14.59,0,20.16s-14.59,5.57-20.16,0-5.57-14.59,0-20.16,14.59-5.57,20.16,0Z"/>
    <path class="cls-15" d="m646.89,133.7c-.93,1.41-1.55,2.96-1.88,4.56l-2.55.24v4.93l2.55.24c.33,1.6.95,3.15,1.88,4.56l-1.63,1.96,3.49,3.49,1.96-1.63c1.41.93,2.96,1.55,4.56,1.88l.24,2.55h4.93l.24-2.55c1.6-.33,3.15-.95,4.56-1.88l1.96,1.63,3.49-3.49-1.63-1.96c.93-1.41,1.55-2.96,1.88-4.56l2.54-.24v-4.93l-2.54-.24c-.33-1.6-.95-3.15-1.88-4.56l1.63-1.96-3.49-3.49-1.96,1.63c-1.41-.93-2.96-1.55-4.56-1.88l-.24-2.55h-4.93l-.24,2.55c-1.6.33-3.15.95-4.56,1.88l-1.96-1.63-3.49,3.49,1.63,1.96Zm15.8,2.54c2.61,2.61,2.61,6.83,0,9.44s-6.83,2.61-9.44,0-2.61-6.83,0-9.44,6.83-2.61,9.44,0Z"/>
    <path class="cls-18" d="m458.94,72.06c-.93,1.41-1.55,2.96-1.88,4.56l-2.54.24v4.93l2.55.24c.33,1.6.95,3.15,1.88,4.56l-1.63,1.96,3.49,3.49,1.96-1.63c1.41.93,2.96,1.55,4.56,1.88l.24,2.55h4.93l.24-2.55c1.6-.33,3.15-.95,4.56-1.88l1.96,1.63,3.49-3.49-1.63-1.96c.93-1.41,1.55-2.96,1.88-4.56l2.54-.24v-4.93l-2.54-.24c-.33-1.6-.95-3.15-1.88-4.56l1.63-1.96-3.49-3.49-1.96,1.63c-1.41-.93-2.96-1.55-4.56-1.88l-.24-2.55h-4.93l-.24,2.55c-1.6.33-3.15.95-4.56,1.88l-1.96-1.63-3.49,3.49,1.63,1.96h0Zm15.8,2.54c2.61,2.61,2.61,6.83,0,9.44s-6.83,2.61-9.44,0-2.61-6.83,0-9.44,6.83-2.61,9.44,0Z"/>
    <path class="cls-18" d="m129.08,213.52c-.93,1.41-1.55,2.96-1.88,4.56l-2.55.24v4.93l2.55.24c.33,1.6.95,3.15,1.88,4.56l-1.63,1.96,3.49,3.49,1.96-1.63c1.41.93,2.96,1.55,4.56,1.88l.24,2.55h4.93l.24-2.55c1.6-.33,3.15-.95,4.56-1.88l1.96,1.63,3.49-3.49-1.63-1.96c.93-1.41,1.55-2.96,1.88-4.56l2.54-.24v-4.93l-2.54-.24c-.33-1.6-.95-3.15-1.88-4.56l1.63-1.96-3.49-3.49-1.96,1.63c-1.41-.93-2.96-1.55-4.56-1.88l-.24-2.55h-4.93l-.24,2.55c-1.6.33-3.15.95-4.56,1.88l-1.96-1.63-3.49,3.49,1.63,1.96Zm15.8,2.54c2.61,2.61,2.61,6.83,0,9.44s-6.83,2.61-9.44,0-2.61-6.83,0-9.44,6.83-2.61,9.44,0Z"/>
    <path class="cls-15" d="m574.99,153.58c-1.59,2.42-2.66,5.09-3.23,7.83l-4.37.41v8.47l4.37.41c.57,2.75,1.64,5.41,3.23,7.83l-2.79,3.37,5.99,5.99,3.37-2.79c2.42,1.59,5.09,2.66,7.83,3.23l.41,4.37h8.47l.41-4.37c2.75-.57,5.41-1.64,7.83-3.23l3.37,2.79,5.99-5.99-2.79-3.37c1.59-2.42,2.66-5.09,3.23-7.83l4.37-.41v-8.47l-4.37-.41c-.57-2.75-1.64-5.41-3.23-7.83l2.79-3.37-5.99-5.99-3.37,2.79c-2.42-1.59-5.09-2.66-7.83-3.23l-.41-4.37h-8.47l-.41,4.37c-2.75.57-5.41,1.64-7.83,3.23l-3.37-2.79-5.99,5.99,2.79,3.37Zm27.16,4.37c4.48,4.48,4.48,11.74,0,16.22s-11.74,4.48-16.22,0-4.48-11.74,0-16.22,11.74-4.48,16.22,0Z"/>
    <path class="cls-15" d="m406.64,201.08c-1.6,2.44-2.68,5.13-3.26,7.89l-4.41.42v8.54l4.41.42c.57,2.77,1.65,5.45,3.26,7.89l-2.82,3.4,6.04,6.04,3.4-2.82c2.44,1.6,5.13,2.68,7.89,3.26l.41,4.41h8.54l.42-4.41c2.77-.57,5.45-1.65,7.89-3.26l3.4,2.82,6.04-6.04-2.82-3.4c1.6-2.44,2.68-5.13,3.26-7.89l4.41-.42v-8.54l-4.41-.42c-.57-2.77-1.65-5.45-3.26-7.89l2.82-3.4-6.04-6.04-3.4,2.82c-2.44-1.6-5.13-2.68-7.89-3.26l-.42-4.41h-8.54l-.41,4.41c-2.77.57-5.45,1.65-7.89,3.26l-3.4-2.82-6.04,6.04,2.82,3.4Zm27.37,4.41c4.51,4.51,4.51,11.83,0,16.34s-11.83,4.51-16.34,0-4.51-11.83,0-16.34,11.83-4.51,16.34,0Z"/>
    <path class="cls-15" d="m431.66,281.54c-2.69,4.1-4.5,8.6-5.47,13.25l-7.4.7v14.33l7.4.7c.96,4.64,2.77,9.15,5.47,13.25l-4.73,5.71,10.13,10.13,5.71-4.72c4.1,2.69,8.6,4.5,13.25,5.47l.7,7.4h14.33l.7-7.4c4.64-.96,9.15-2.78,13.25-5.47l5.71,4.72,10.13-10.13-4.72-5.71c2.69-4.1,4.5-8.6,5.47-13.25l7.4-.7v-14.33l-7.4-.7c-.96-4.64-2.78-9.15-5.47-13.25l4.72-5.71-10.13-10.13-5.71,4.72c-4.1-2.69-8.6-4.5-13.25-5.47l-.7-7.4h-14.33l-.7,7.4c-4.64.96-9.15,2.77-13.25,5.47l-5.71-4.73-10.13,10.13,4.73,5.71h0Zm45.93,7.39c7.57,7.57,7.57,19.85,0,27.43-7.57,7.57-19.85,7.57-27.43,0s-7.57-19.85,0-27.43c7.57-7.57,19.85-7.57,27.43,0Z"/>
  </g>
  <g id="Shadow">
    <path class="cls-18" d="m700.51,401.05c0,3.39-141.26,6.13-315.51,6.13s-315.51-2.75-315.51-6.13,141.26-6.13,315.51-6.13,315.51,2.75,315.51,6.13Z"/>
  </g>
  <g id="Speech_Bubble_2" data-name="Speech Bubble 2">
    <g>
      <g>
        <path class="cls-31" d="m635.18,188.49c11.11-6.35,25.26-2.5,31.61,8.61s2.5,25.26-8.61,31.61c-8.57,4.9-18.95,3.7-26.16-2.2l-6.87,1.08,1.63-7.17c-.07-.11-.14-.21-.21-.32-6.35-11.11-2.5-25.26,8.61-31.61Z"/>
        <path class="cls-8" d="m639.29,183.35c-7.4,1.42-13.91,6.81-16.68,13.81"/>
        <path class="cls-8" d="m621.45,200.42c-.5,1.03-.79,2.17-.83,3.32"/>
      </g>
      <polygon class="cls-21" points="643.96 217.35 634.18 208.43 637.29 205.02 643.85 211 654.75 200.36 657.97 203.67 643.96 217.35"/>
    </g>
  </g>
  <g id="Speech_Bubble_1" data-name="Speech Bubble 1">
    <g>
      <g>
        <path class="cls-31" d="m396.58,40.57c11.67-6.78,26.62-2.82,33.4,8.85s2.82,26.62-8.85,33.4c-9.01,5.23-19.96,4.04-27.61-2.13l-7.24,1.19,1.67-7.57c-.07-.12-.15-.22-.22-.34-6.78-11.67-2.82-26.62,8.85-33.4Z"/>
        <path class="cls-8" d="m430.02,43.79c-4.75-6.37-12.85-10.08-20.78-9.51"/>
        <path class="cls-8" d="m405.62,34.68c-1.21,0-2.42.25-3.53.73"/>
      </g>
      <g>
        <rect class="cls-21" x="396.62" y="58.18" width="22.83" height="5.71"/>
        <polygon class="cls-21" points="417.34 67 417.34 55.47 422.96 61.23 417.34 67"/>
      </g>
    </g>
  </g>
  <g id="Character_3" data-name="Character 3">
    <g>
      <g>
        <path class="cls-19" d="m546.08,185.71s-.61,10.47-5.72,28.83c-3.21,11.34-7.1,22.48-11.66,33.35-2.55,6.14-5.48,12.66-8.84,19.52-1.51,3.12-3.13,6.29-4.83,9.54-1.96,55.55-33.13,112.02-33.13,112.02-1.73.89-7.76-.08-7.72-1.84,4.62-7.33,13.7-78.51,19.56-112.27.36-4.59.89-9.45,1.54-14.59,1.71-13.63,4.25-28.45,6.75-41.49,3.87-20.54,7.56-36.64,7.56-36.64l10.27,1,26.24,2.58h-.02Z"/>
        <path class="cls-32" d="m481.55,400.94h-1.75l-.5-2.21-5.94,2.7h-15.05s-2.39-2.4,4.76-4.31c.35-.1.69-.23,1.01-.39,3.82-1.8,9.24-7.84,9.24-7.84h8.25c.25.38.48.78.67,1.2.9,1.78,2.46,5.64-.7,10.85h0Z"/>
        <path class="cls-19" d="m482.25,390.07h0c-1.08-1.21-6.03,4.12-9.66,5.94-3.24,1.61-6.88,2.32-8.5.69,3.82-1.8,10.62-10.19,10.62-10.19l5.83.59s1.34,2.2,1.71,2.98h0Z"/>
      </g>
      <g>
        <path class="cls-19" d="m558.33,262.61h0c-.83,5.97-1.89,12.37-3.2,19.18,11.13,37.15-11.77,109.67-11.77,109.67-3.87.77-7.3.27-9.04-1.04,4.32-21.85,1.21-78.66-2.15-112.6-.3-3.08-.67-6.46-1.08-10.08-.69-6.13-1.51-12.88-2.39-19.85-1.48-11.67-3.14-23.96-4.64-34.85-1.84-13.16-3.43-24.29-4.25-29.89-.34-2.46-.54-3.85-.54-3.85l32.15,3.48s8.18,9.16,9.45,37.79c.42,14.06-.43,28.13-2.54,42.04h0Z"/>
        <path class="cls-32" d="m544.16,400.94h-1.8l-.5-2.21-5.92,2.7h-15.03s-2.39-2.4,4.78-4.31c.35-.1.69-.23,1.01-.39,3.81-1.8,9.24-7.84,9.24-7.84h8.25c.25.39.47.79.67,1.2.9,1.78,2.42,5.64-.7,10.85h0Z"/>
        <path class="cls-19" d="m544.86,390.07h0c-1.09-1.21-6.05,4.12-9.68,5.94-3.24,1.61-6.88,2.32-8.49.69,3.81-1.8,9.81-9.61,9.81-9.61h6.63s1.34,2.2,1.73,2.98h0Z"/>
      </g>
      <g>
        <path class="cls-32" d="m566.77,104.98c-1.65-1.43-4.32-.88-6.59-1.15-3.45-.41-6.22-2.89-7.71-5.72-1.48-2.82-1.91-5.99-2.44-9.07-.53-3.09-1.21-6.25-3.1-8.87s-6.45-5.87-9.76-3.88l-4.43,6.87c2.66,8.05,4.83,16.23,6.48,24.5.74,3.69,1.47,7.6,4.15,10.47,2.62,2.82,6.78,4.19,10.86,4.45,2.07.13,4.21,0,6.09-.77,1.89-.77,3.5-2.25,3.92-4.07s-.59-3.93-2.51-4.63c1.85-.78,3.78-1.62,5.02-3.09,1.24-1.47,1.5-3.77.03-5.05h-.01Z"/>
        <g>
          <path class="cls-32" d="m503.26,70.79c-5.07,4.9-5.71,10.74-4.9,14.74,1.7,5.28,4.28,8.77,6.7,13.77l8.58-34.3c-3.23,1.28-4.87.86-10.38,5.79Z"/>
          <path class="cls-32" d="m518.55,64.79c9.89.2,19.83,8.47,20.6,16.5.78,8.03-7.12,18.39-8.6,19.02l-4.69,1.72s5.17-11.95,3.02-15.15-3.7-3.23-3.7-3.23l-6.64-18.87h.01Z"/>
          <path class="cls-32" d="m510.15,66.69c5.15-3.64,11.23-1.56,14.83,0,4.06,2.35,6.93,6.32,7.88,10.91.79,4.32,1.74,9.55-.47,12.27-1.23,1.57-3.06,2.55-5.05,2.7l-24.93-15.81c1.68-3.96,4.34-7.43,7.73-10.08h0Z"/>
          <g>
            <path class="cls-19" d="m520.2,125.14c1.95,1.39,3.34.56,5.37-.74,12.18-7.06,7.17-12.65,7.17-12.65-3-2.45-3.74-5.9-3.8-11.35-.01-.16-.03-.31-.06-.47-.14-.7-.49-1.35-1.01-1.85-1.38-1.39-3.63-1.41-5.02-.03h0l-5.53,2.73h0v.26c.51,2.9,1,5.13,1.3,6.9,0,.22.08.44.1.65h0c0,.22.05.45.09.66.3,2.45-3.15,6.75-4.66,7.89-.91.76-.56,3.31,6.05,8h0Z"/>
            <path class="cls-33" d="m517.33,100.71h0c.01.09.01.18,0,.27.51,2.9,1,5.13,1.3,6.9.05.21.08.43.1.65h0c.03.23.04.46.04.69h0c4.21-2.01,7.71-5.27,10.02-9.33h0c-.13-.69-.46-1.34-.95-1.84-1.37-1.41-3.61-1.45-5.02-.09l-5.48,2.76h0Z"/>
            <path class="cls-19" d="m529.7,79.43c1.59,10.02,2.49,14.21-1.27,20.49-5.66,9.44-18,9.44-22.54.15-4.01-8.38-5.99-23.31,2.58-29.61,8.57-6.29,19.62-1.07,21.22,8.96h.01Z"/>
            <path class="cls-19" d="m535.67,87.17c-.62,2.34-2.17,4.12-3.78,5.03-2.43,1.36-4.92-2.47-4.73-5.33.16-2.57,2.31-4.82,4.99-5,2.64-.17,4.24,2.63,3.53,5.3h-.01Z"/>
            <path class="cls-7" d="m530.02,88.14c-.19-.95.01-1.97.55-2.78s1.4-1.39,2.35-1.58"/>
            <g>
              <g>
                <path class="cls-32" d="m517.48,86.1c.23,1.06-.1,2.07-.74,2.25-.64.19-1.36-.51-1.59-1.57-.23-1.06.1-2.07.74-2.25.64-.19,1.36.51,1.59,1.57Z"/>
                <path class="cls-32" d="m507.75,88.7c.22,1.02-.11,2.01-.76,2.2-.64.19-1.35-.49-1.57-1.51-.22-1.02.11-2.01.76-2.2.64-.19,1.35.49,1.57,1.51Z"/>
                <path class="cls-32" d="m518.56,81.91c-.12.05-.26.05-.38-.02-1.9-1-3.48-.04-3.49-.03-.23.14-.53.07-.66-.17-.13-.24-.04-.56.2-.7.08-.05,2.06-1.25,4.42-.02.23.12.32.43.19.69-.06.12-.16.21-.28.26h0Z"/>
                <path class="cls-32" d="m503.14,84.64c-.11,0-.21-.06-.28-.15-.15-.2-.12-.51.07-.7,1.91-1.88,3.84-1.37,3.92-1.34.23.06.35.33.28.6-.08.27-.33.43-.56.37-.08-.02-1.58-.39-3.1,1.1-.1.1-.22.14-.33.13h0Z"/>
                <path class="cls-27" d="m510.27,87.5s-.54,4.11-1.66,6.88c-.2.48.15,1.02.67,1.07,1.34.12,2.65-.67,2.65-.67l-1.67-7.27h.01Z"/>
              </g>
              <path class="cls-32" d="m516.28,84.47l-2.41.08s1.69,1.35,2.41-.08Z"/>
              <path class="cls-32" d="m506.42,87.15l-2.41.08s1.69,1.35,2.41-.08Z"/>
            </g>
          </g>
          <path class="cls-32" d="m526.69,82.5s-6.89-5.47-8.08-11.01c0,0-21.22-.81-16.13,16.45,0,0-7.18-14.42,9.03-19.94s23.61,15.61,17.44,24.57c-.04-.07,2.01-6.64-2.26-10.07h0Z"/>
          <path class="cls-32" d="m504.33,71.55c-1.81,2.5-2.77,5.52-2.76,8.61.4,2.17,3.64,3.2,3.64,3.2l2.75-5.39.76,4.16c5.79-1.73,8.64-5.49,9.84-10.38l-4.37-5.28s-8.2,3.03-9.85,5.09h-.01Z"/>
        </g>
        <path class="cls-9" d="m516.07,96.57c.66.11,1.37-.12,1.86-.59.48-.47.72-1.17.63-1.84"/>
        <path class="cls-33" d="m535.84,93.32s7.48-9.28,1.62-17.18c0,0,4.31,2.97,3.49,8.09-.64,4.02-2.4,7.28-5.12,9.09h.01Z"/>
      </g>
      <path class="cls-33" d="m558.33,262.61h0c-8.8,2.97-17.96,4.7-27.24,5.13-.69-6.13-1.51-12.88-2.39-19.85-2.55,6.14-5.48,12.66-8.84,19.52-8.58-.78-16.93-3.2-24.59-7.13,1.71-13.63,4.25-28.45,6.75-41.49,3.41-2,7.09-3.49,10.93-4.41,3.65-.88,7.39-1.33,11.15-1.35,5.47-.03,10.93.48,16.3,1.5,6.98,1.31,13.8,3.33,20.37,6.05.45,14.06-.37,28.13-2.44,42.04h0Z"/>
      <path class="cls-32" d="m508.95,179.3h42.69l1.16,5.51s15.68,21.7,7.73,75.82c0,0-34.35,3.97-66.7-2.97,0,0,7.26-55.6,14.85-73.76l.27-4.6h0Z"/>
      <g>
        <path class="cls-14" d="m549.48,162.51l3.04,22.7-46.8-1.89c-.12-4.88,4.23-17.82,3.72-21.36-1.42-4.37-8.61-10.97-10.52-16.25-2.04-7.33,2.17-27.5,3.55-28.14,1.67-.77,3.74-.7,5.02-1.27,4.97-1.17,16.27-5.21,21.33-5.83.98-.09,1.95-.27,2.92-.38,0,0,19.15-.92,19.99,6.87.08.43-4.56,20.87-2.25,45.55h0Z"/>
        <polygon class="cls-33" points="549.11 157.7 548.73 151.48 541.64 132.17 547.2 154.9 529.59 161.07 549.11 157.7"/>
        <path class="cls-33" d="m528.73,177.96c.63-.08,6.18-6.12,6.18-6.12l15.9.6-.77-5.75c.47-.37-18.57.5-18.57.5l-2.74,5.93v4.84Z"/>
        <path class="cls-31" d="m544.51,111.9c.82.1,4.15-1.78,10.16,5.93,6.01,7.72,12.74,37.14,13.12,41.43.48,5.45-3.15,8.14-6.77,8.74-10.87,1.79-30.93,2.16-30.93,2.16v-9.24l20.01-4.53s-11.36-27.34-9.57-34.39c1.79-7.04,3.97-10.1,3.97-10.1h.01Z"/>
      </g>
      <path class="cls-19" d="m535.51,110.07c-1.45,7.86-7.32,14.02-15.06,16.01-2.71.65-5.75-.85-7.89-2.63-2.17-1.81-3.62-4.35-4.08-7.14,9.42-3.71,17.95-6.9,27.02-6.24h.01Z"/>
      <path class="cls-33" d="m550.1,156.39s3.25-.18,4.63,1.59c0,0-.83-3.4-5.08-2.68l.45,1.1h0Z"/>
    </g>
    <g>
      <path class="cls-30" d="m523.62,215.68v-103.04h-102.89v41.17c1.86.71,7.96,1.18,9.81.48,3.25-1.21,1.13-4.95,4.26-6.43,4.63-2.18,10.39.89,12.81,5.39,1.88,3.49,2.23,5.32,2.06,8.34.17,3.02-.18,4.85-2.06,8.34-2.42,4.5-8.19,7.57-12.81,5.39-3.14-1.48-.59-5.13-3.83-6.34-1.85-.69-8.38-.32-10.24.39v46.29h46.01c.05,1-.06,2.01-.41,2.96-1.21,3.25-4.66,5.18-6.14,8.32-2.18,4.63.89,10.39,5.39,12.81,3.49,1.88,5.32,2.23,8.34,2.06,3.02.17,4.85-.18,8.34-2.06,4.5-2.42,7.57-8.19,5.39-12.81-1.48-3.14-4.93-5.07-6.14-8.32-.36-.95-.47-1.96-.41-2.96h42.52v.02Z"/>
      <g>
        <path class="cls-30" d="m528.73,215.68v-103.04h-102.89v41.17c1.86.71,3.91.88,5.76.19,3.25-1.21,5.18-4.66,8.31-6.14,4.63-2.18,10.39.89,12.81,5.39,1.88,3.49,2.23,5.32,2.06,8.34.17,3.02-.18,4.85-2.06,8.34-2.42,4.5-8.19,7.57-12.81,5.39-3.14-1.48-5.07-4.93-8.31-6.14-1.85-.69-3.89-.51-5.76.19v46.29h46.01c.05,1-.06,2.01-.41,2.96-1.21,3.25-4.66,5.18-6.14,8.32-2.18,4.63.89,10.39,5.39,12.81,3.49,1.88,5.32,2.23,8.34,2.06,3.02.17,4.85-.18,8.34-2.06,4.5-2.42,7.57-8.19,5.39-12.81-1.48-3.14-4.93-5.07-6.14-8.32-.36-.95-.47-1.96-.41-2.96h42.52v.02Z"/>
        <g class="cls-2">
          <path class="cls-21" d="m528.73,215.68v-103.04h-102.89v41.17c1.86.71,3.91.88,5.76.19,3.25-1.21,5.18-4.66,8.31-6.14,4.63-2.18,10.39.89,12.81,5.39,1.88,3.49,2.23,5.32,2.06,8.34.17,3.02-.18,4.85-2.06,8.34-2.42,4.5-8.19,7.57-12.81,5.39-3.14-1.48-5.07-4.93-8.31-6.14-1.85-.69-3.89-.51-5.76.19v46.29h46.01c.05,1-.06,2.01-.41,2.96-1.21,3.25-4.66,5.18-6.14,8.32-2.18,4.63.89,10.39,5.39,12.81,3.49,1.88,5.32,2.23,8.34,2.06,3.02.17,4.85-.18,8.34-2.06,4.5-2.42,7.57-8.19,5.39-12.81-1.48-3.14-4.93-5.07-6.14-8.32-.36-.95-.47-1.96-.41-2.96h42.52v.02Z"/>
        </g>
        <g>
          <path class="cls-19" d="m528.73,162.73s-6.91,1.73-7.66,3.35c-.76,1.62,1.8,1.5,1.8,1.5,0,0-2.8.31-2.83,1.52-.04,1.45,2.64,1.31,2.64,1.31,0,0-2.28.35-2.23,1.42.05,1.12,3.08,1.17,3.08,1.17,0,0-1.56.55-1.1,1.28s6.89.97,8.78-.23,1.9-9.47,1.53-11.28c-.37-1.8-1.74-2.78-4-5.52v5.48h-.01Z"/>
          <path class="cls-33" d="m522.87,167.71h.01l4.86-.77c.07,0,.11-.08.1-.15-.01-.07-.07-.13-.14-.12l-4.86.77c-.07,0-.11.08-.1.15,0,.07.06.12.12.12h.01Z"/>
          <path class="cls-33" d="m522.82,170.53h0l4.73-.37c.07,0,.11-.07.11-.14s-.05-.12-.13-.13l-4.73.37c-.07,0-.11.07-.11.14s.06.13.13.13Z"/>
          <path class="cls-33" d="m523.69,173.12l3.52-.18c.07,0,.12-.07.11-.14,0-.07-.06-.13-.13-.13l-3.52.18c-.07,0-.12.07-.11.14,0,.07.06.13.13.13Z"/>
        </g>
      </g>
      <g>
        <path class="cls-19" d="m449.75,160s7.4,2.07,8.15,3.69c.76,1.63-1.8,1.5-1.8,1.5,0,0,2.8.31,2.83,1.52.04,1.45-2.64,1.31-2.64,1.31,0,0,2.28.35,2.23,1.42-.05,1.12-3.08,1.17-3.08,1.17,0,0,1.56.55,1.1,1.28s-6.89.97-8.78-.24c-1.89-1.2-1.9-9.47-1.53-11.28.37-1.8.52-1.51,2.79-4.25l.41,1.53c.11.42.19.84.22,1.27l.09,1.06v.02Z"/>
        <path class="cls-33" d="m456.1,165.33h-.01l-4.86-.77c-.07,0-.11-.08-.1-.15.01-.07.07-.13.14-.12l4.86.77c.07,0,.11.08.1.15,0,.07-.06.12-.12.12h-.01Z"/>
        <path class="cls-33" d="m456.15,168.14h0l-4.73-.37c-.07,0-.11-.07-.11-.14s.05-.12.13-.13l4.73.37c.07,0,.11.07.11.14s-.06.13-.13.13Z"/>
        <path class="cls-33" d="m455.28,170.74l-3.52-.18c-.07,0-.12-.07-.11-.14,0-.07.06-.13.13-.13l3.52.18c.07,0,.12.07.11.14,0,.07-.06.13-.13.13Z"/>
      </g>
    </g>
  </g>
  <g id="Character_2" data-name="Character 2">
    <g>
      <g>
        <polygon class="cls-19" points="298.18 389.42 308.39 390.42 315.94 364.56 300.4 362.87 298.18 389.42"/>
        <g>
          <path class="cls-32" d="m309.87,385.91h-3.65c-.82,0-1.59.42-2.08,1.08-2.1,2.87-3.68,1.79-5.97-.91-1.45-.17-1.85,1.5-1.96,1.95l-2.73,9.91c-.24.83.24,1.69,1.07,1.93.15.04.3.06.45.06h28.89c4.59,0,5.55-4.63,3.65-5.06-8.51-1.88-14.54-4.38-17.17-6.86-.49-.43.01-.76-.52-2.1h.02Z"/>
          <path class="cls-30" d="m317.78,388.73c.38-.28.61-.72.62-1.19.03-.25-.08-.5-.3-.64-1.14-.81-5.7,1.32-6.21,1.57-.06.02-.1.07-.12.12-.04.11.02.22.12.26,1.12.27,2.27.41,3.42.44.86.08,1.73-.11,2.48-.56h-.01Zm.04-1.49c.09.06.14.17.12.27-.02.34-.18.66-.45.87-1.04.77-3.54.44-4.88.19,1.89-.83,4.58-1.77,5.21-1.33h0Z"/>
          <path class="cls-30" d="m312.05,388.89c1.37-.57,4.24-2.82,4.08-4.01-.02-.25-.2-.55-.82-.63-2.5-.29-3.57,4.2-3.57,4.39-.02.08,0,.16.06.21.05.01.1.01.14,0l.11.04h0Zm3.18-4.27c.46.05.46.21.46.27.13.73-1.95,2.59-3.44,3.38.31-1.05,1.23-3.67,2.81-3.67h.17v.02Z"/>
          <path class="cls-8" d="m312.4,388.72c-1.26.17-2.42.92-3.1,1.99"/>
          <path class="cls-8" d="m314.67,390.43c-1.26.17-2.42.92-3.1,1.99"/>
          <path class="cls-8" d="m317.49,391.86c-1.26.17-2.42.92-3.1,1.99"/>
        </g>
        <polygon class="cls-11" points="311.95 378.23 311.03 381.4 299.01 379.55 299.22 376.95 311.95 378.23"/>
      </g>
      <g>
        <polygon class="cls-19" points="357.63 389.42 367.84 390.42 375.38 364.56 359.85 362.87 357.63 389.42"/>
        <g>
          <path class="cls-32" d="m369.32,385.91h-3.65c-.83,0-1.59.42-2.08,1.08-2.1,2.87-3.68,1.79-5.97-.91-1.45-.17-1.85,1.5-1.96,1.95l-2.73,9.91c-.24.83.24,1.69,1.07,1.93.15.04.3.06.45.06h28.89c4.59,0,5.55-4.63,3.65-5.06-8.51-1.88-14.54-4.38-17.17-6.86-.49-.43.01-.76-.52-2.1h.02Z"/>
          <path class="cls-30" d="m377.23,388.73c.38-.28.61-.72.62-1.19.03-.25-.08-.5-.3-.64-1.14-.81-5.7,1.32-6.21,1.57-.06.02-.1.07-.12.12-.04.11.02.22.12.26,1.12.27,2.26.41,3.42.44.86.08,1.73-.11,2.48-.56h-.01Zm.04-1.49c.09.06.14.17.12.27-.02.34-.18.66-.45.87-1.04.77-3.53.44-4.88.19,1.89-.83,4.58-1.77,5.21-1.33h0Z"/>
          <path class="cls-30" d="m371.49,388.89c1.37-.57,4.24-2.82,4.08-4.01-.02-.25-.2-.55-.82-.63-2.5-.29-3.57,4.2-3.57,4.39-.02.08,0,.16.06.21.05.01.1.01.14,0l.11.04h0Zm3.18-4.27c.46.05.46.21.46.27.13.73-1.95,2.59-3.44,3.38.31-1.05,1.23-3.67,2.81-3.67h.17v.02Z"/>
          <path class="cls-8" d="m371.85,388.72c-1.26.17-2.42.92-3.1,1.99"/>
          <path class="cls-8" d="m374.11,390.43c-1.26.17-2.42.92-3.1,1.99"/>
          <path class="cls-8" d="m376.93,391.86c-1.26.17-2.42.92-3.1,1.99"/>
        </g>
        <polygon class="cls-11" points="371.4 378.23 370.47 381.4 358.45 379.55 358.67 376.95 371.4 378.23"/>
      </g>
      <g>
        <g>
          <path class="cls-30" d="m379.45,194.58s8.46,37.38,12.5,69.93c1.23,9.92,1.46,23.19-.71,32.96l-16.31,81.1-20.53-2.06c3.23-34.98,7.72-78.12,9.01-96.47-4.52-21.51-14.14-47.55-23.6-73.44l39.64-12.03h0Z"/>
          <g class="cls-5">
            <path class="cls-31" d="m379.45,194.58s8.46,37.38,12.5,69.93c1.23,9.92,1.46,23.19-.71,32.96l-16.31,81.1-20.53-2.06c3.23-34.98,7.72-78.12,9.01-96.47-4.52-21.51-14.14-47.55-23.6-73.44l39.64-12.03h0Z"/>
          </g>
          <path class="cls-30" d="m312,286.58c.46-2.02,1.21-6.13,2.12-11.55-.03,0-.06-.01-.08-.02.67-7.17,1.9-40.41,4.17-61.61,1.74-13.51,5.19-22.64,8.67-27.12.18-.23.34-.44.49-.62.58-.72.93-1.12.93-1.12.66.17,1.32.32,1.97.46.24.05.49.11.73.16,24.54,5.13,46.13-1.32,46.13-1.32,2.26,5.58,3.95,17.47,5.59,29.81-2.57,2.82-13.83,6.47-26.75,8.89l-3.68,16.67c-1.94,10.33-4.43,20.47-6.54,29.59l-2.21,9.99c-.13.66-.27,1.31-.39,1.94-1.12,5.75-27.8,98.32-27.8,98.32l-17.38-1.02s7.76-64.07,14.05-91.47l-.02.02Z"/>
          <path class="cls-14" d="m312,286.58c.46-2.02,1.21-6.13,2.12-11.55-.03,0-.06-.01-.08-.02.67-7.17,1.9-40.41,4.17-61.61,1.74-13.51,5.19-22.64,8.67-27.12.18-.23.34-.44.49-.62.58-.72.93-1.12.93-1.12.66.17,1.32.32,1.97.46.24.05.49.11.73.16,24.54,5.13,46.13-1.32,46.13-1.32,2.26,5.58,3.95,17.47,5.59,29.81-2.57,2.82-13.83,6.47-26.75,8.89l-3.68,16.67c-1.94,10.33-4.43,20.47-6.54,29.59l-2.21,9.99c-.13.66-.27,1.31-.39,1.94-1.12,5.75-27.8,98.32-27.8,98.32l-17.38-1.02s7.76-64.07,14.05-91.47l-.02.02Z"/>
        </g>
        <path class="cls-33" d="m352.04,240.75c-.07.34,7.96-28.84,7.96-28.84,0,0,6.76,26.05-3.53,42.35l-4.44-13.51h.01Z"/>
      </g>
      <g>
        <path class="cls-19" d="m334.76,109.09s4.08,3.14,9.34,7.67c1.09.94,2.3,1.76,3.58,2.44,3.44,1.83,6.58,2.88,7.43,1.22.19-.37.33-.76.44-1.18.72-2.78.43-6.69-1.82-8.48-2.53-2.02-3.76-3.74-3.3-6.47.24-1.55.8-3.15,1.45-4.7l-1.99-2.33-10.43-10.53c.26,7.03.79,18.55-4.7,22.36Z"/>
        <path class="cls-33" d="m350.35,104.88c-2.87-1.7-6.02-4.66-5.64-8.03.17-1.42.47-2.77.82-3.63l5.83,7.71c-.48,1.24-.65,2.07-1,3.95h0Z"/>
        <path class="cls-19" d="m336.51,75.43c.98,10.72,1.17,15.26,6.7,20.88,8.32,8.45,21.12,5.61,23.32-5.01,1.98-9.56.04-25.48-10.48-29.99-10.37-4.44-20.53,3.4-19.55,14.12h0Z"/>
        <path class="cls-32" d="m349.86,78.81c.06,1,.67,1.83,1.38,1.84.7.01,1.23-.79,1.17-1.79s-.67-1.83-1.38-1.84c-.7-.01-1.23.79-1.18,1.79h0Z"/>
        <path class="cls-32" d="m360.97,78.66c.06.97.67,1.77,1.37,1.79.7.01,1.23-.76,1.17-1.73s-.67-1.77-1.37-1.79c-.7-.01-1.23.76-1.17,1.73Z"/>
        <path class="cls-32" d="m348.16,74.97c.14.02.28-.02.38-.12,1.65-1.53,3.51-.99,3.53-.99.28.08.55-.08.62-.36.06-.28-.11-.58-.39-.66-.1-.03-2.43-.7-4.48,1.19-.2.19-.21.52,0,.75.1.11.22.17.35.18h0Z"/>
        <path class="cls-32" d="m364.4,74.44c.13.03.26.01.38-.06.24-.15.3-.47.14-.73-1.6-2.54-3.99-2.69-4.09-2.7-.29-.01-.51.21-.51.5s.24.54.52.56c.09,0,1.94.15,3.22,2.17.08.13.21.22.34.25h0Z"/>
        <path class="cls-32" d="m341.08,82.15s3.31-5,1.94-14.73c-.23-1.63.8-3.18,2.42-3.49,4.62-.9,10.81-6.73,18.35,4.85,0,0-3.6-13.88-24.66-8.29-18.74,4.97-5.91,20.86-3.98,22.49s5.92-.84,5.92-.84h0Z"/>
        <path class="cls-19" d="m333.27,84.17c1.27,2.2,3.32,3.58,5.21,4.05,2.84.71,4.3-3.85,3.33-6.69-.87-2.56-3.66-4.25-6.42-3.69-2.72.55-3.57,3.82-2.12,6.33h0Z"/>
        <g>
          <path class="cls-32" d="m358.26,89.13c-.87,1.34-1.92,3.95-1.92,3.95-.25-.05-.51-.1-.76-.17-3.41-.8-4.73-2.3-5.16-3.71-.23-.78-.19-1.54-.07-2.14.13-.7.38-1.16.38-1.16,1.56,1.5,4.68,2.49,6.37,2.95.71.2,1.16.29,1.16.29h0Z"/>
          <path class="cls-21" d="m357.11,88.84l-.6,1.15c-3.21-.76-5.37-1.73-6.15-2.94.13-.7.38-1.16.38-1.16,1.56,1.5,4.68,2.49,6.37,2.95Z"/>
          <path class="cls-28" d="m355.59,92.9c-3.41-.8-4.73-2.3-5.16-3.71,1.15.32,2.51.83,3.61,1.64.85.62,1.3,1.37,1.55,2.08h0Z"/>
        </g>
        <path class="cls-27" d="m358.09,78.36s1.68,4.01,3.57,6.51c.33.44.13,1.08-.39,1.26-1.32.49-2.87.05-2.87.05,0,0-.31-7.82-.31-7.82Z"/>
        <path class="cls-32" d="m350.82,77l2.46-.58s-1.35,1.83-2.46.58Z"/>
        <path class="cls-32" d="m361.88,76.95l2.46-.58s-1.35,1.83-2.46.58Z"/>
        <path class="cls-32" d="m365.67,73.32s6.49-7.68,2.16-14.01c-1.63-2.38-4.62-2.73-7.25-3.9-6.09-2.68-11.02-3.22-18.78,4.39-8.08,7.92-9.54,10.59-.63,20.34,0,0-.96-1.28,2.33-4.18,3.29-2.9,6.93-5.48,5.17-8.3,0,0,2.74,1.06,2.94,3.66l4.82-1.32s-.21-1.86-1.48-3.73c0,0,2.5,1.47,3.31,3.63l4.17.78s-.61-3.82-1.79-5.2c0,0,3.82,3.93,5.05,7.81l-.02.03Z"/>
      </g>
      <path class="cls-7" d="m339.64,83.85c-.09-1.01-.56-1.98-1.29-2.68-.74-.7-1.73-1.12-2.75-1.16"/>
      <g>
        <g>
          <path class="cls-32" d="m390.59,172.79c-.6-.46-1.18-.98-1.71-1.54-.46-.48-.77-1.09-.66-1.09-.02-.07-.05-.14-.08-.2l-.19-.45-.47-1.2c-.32-.86-.62-1.8-.92-2.75-.63-1.89-1.23-3.86-1.81-5.85-1.17-3.98-2.29-8.01-3.42-12.06l-2.08-8.48c-.3-1.37-.77-3.38-1.39-5.66h0c-1.69-6.23-4.51-14.54-8.2-17.84-5.72-4.38-9.38,1.02-11.74,6.64-2.26,5.39,3.32,20.13,3.32,20.13l6.8-.49c.86,3.14,1.76,6.25,2.65,9.44,1.16,4.15,2.54,8.23,3.92,12.31.7,2.05,1.43,4.09,2.23,6.15.47,1.05.9,2.08,1.38,3.17.23.54.5,1.11.79,1.68l.51.95c.21.4.45.78.72,1.14,1.01,1.3,2.25,2.35,3.64,3.08,1.07.6,2.2,1.07,3.37,1.4,2.12.61,4.31.88,6.5.78l1.23-5.94c-1.46-1.09-3.08-2.23-4.39-3.31h0Z"/>
          <path class="cls-13" d="m390.59,172.79c-.6-.46-1.18-.98-1.71-1.54-.46-.48-.77-1.09-.66-1.09-.02-.07-.05-.14-.08-.2l-.19-.45-.47-1.2c-.32-.86-.62-1.8-.92-2.75-.63-1.89-1.23-3.86-1.81-5.85-1.17-3.98-2.29-8.01-3.42-12.06l-2.08-8.48c-.3-1.37-.77-3.38-1.39-5.66h0c-1.69-6.23-4.51-14.54-8.2-17.84-5.72-4.38-9.38,1.02-11.74,6.64-2.26,5.39,3.32,20.13,3.32,20.13l6.8-.49c.86,3.14,1.76,6.25,2.65,9.44,1.16,4.15,2.54,8.23,3.92,12.31.7,2.05,1.43,4.09,2.23,6.15.47,1.05.9,2.08,1.38,3.17.23.54.5,1.11.79,1.68l.51.95c.21.4.45.78.72,1.14,1.01,1.3,2.25,2.35,3.64,3.08,1.07.6,2.2,1.07,3.37,1.4,2.12.61,4.31.88,6.5.78l1.23-5.94c-1.46-1.09-3.08-2.23-4.39-3.31h0Z"/>
          <g class="cls-2">
            <path class="cls-1" d="m370.92,125.23c1.15,1.96,1.54,3.08,2.26,5.34.72,2.26,1.54,14.47-2.59,18.08v-8.47c.15-5.19.17-9.77.32-14.96h0Z"/>
          </g>
          <path class="cls-32" d="m320.21,140.68l-6.38-21.77c4.04-6.03,24.02-10.66,24.02-10.66l10.24,3.59,2.92-2.87s5.06,1.13,9.39,2.54c5.78,1.89,8.91,3.4,10.29,6.61,0,0,2.41,7.11.96,21.76-.4,4.03.05,24.97,1.18,31.89l6.81,21.57c-24.05,18.73-57.73,1.24-57.73,1.24,1.08-3.31,4.68-13.46,5.17-16.7-.35-4.12.14-10.48-1.61-17.71-.34-1.39-4.69-18.15-5.28-19.51l.02.02Z"/>
          <path class="cls-13" d="m320.21,140.68l-6.38-21.77c4.04-6.03,24.02-10.66,24.02-10.66l10.24,3.59,2.92-2.87s5.06,1.13,9.39,2.54c5.78,1.89,8.91,3.4,10.29,6.61,0,0,2.41,7.11.96,21.76-.4,4.03.05,24.97,1.18,31.89l6.81,21.57c-24.05,18.73-57.73,1.24-57.73,1.24,1.08-3.31,4.68-13.46,5.17-16.7-.35-4.12.14-10.48-1.61-17.71-.34-1.39-4.69-18.15-5.28-19.51l.02.02Z"/>
        </g>
        <path class="cls-30" d="m393.29,164.12c.75-9.06,7.73-16.36,16.75-17.5l-1.85,3.08,3.52-2.09-16.15,20.26-2.28-3.74h.01Z"/>
        <path class="cls-23" d="m393.29,164.12c.75-9.06,7.73-16.36,16.75-17.5l-1.85,3.08,3.52-2.09-16.15,20.26-2.28-3.74h.01Z"/>
        <path class="cls-30" d="m367.98,147.49l5.55-.17,26.58,9.01-24.23,37.01-23.84-5.95c-1.36-.38-2.16-1.78-1.78-3.14.06-.2.14-.4.24-.58l9.63-17.41c.19-.34.19-.76,0-1.11l-1.31-2.32c-.27-.48-.27-1.06,0-1.54l6.46-12.11c.55-.99,1.56-1.63,2.69-1.69h.01Z"/>
        <polygon class="cls-30" points="400.11 156.34 415.25 146.61 390.36 183.59 375.89 193.34 400.11 156.34"/>
        <polygon class="cls-33" points="400.11 156.34 415.25 146.61 390.36 183.59 375.89 193.34 400.11 156.34"/>
        <g>
          <path class="cls-19" d="m397.14,173.53s-5.88-1.54-7.17-.53.48,1.97.48,1.97c0,0-2.02-.91-2.63.06-.73,1.17,1.13,2.16,1.13,2.16,0,0-1.69-.66-2.18.23-.51.93,1.49,2.23,1.49,2.23,0,0-1.31-.2-1.36.58s4.14,3.65,5.99,3.45c1.85-.19,5.86-6.92,6.48-8.54.63-1.62.56-2.88-.63-4.01l-1.61,2.4h0Z"/>
          <path class="cls-33" d="m390.38,175.08h0l3.63,1.39s.11-.02.14-.08c.03-.06.01-.13-.04-.15l-3.63-1.39s-.11.02-.14.08c-.03.06-.02.12.03.15h.01Z"/>
          <path class="cls-33" d="m388.98,177.35h0l3.34,1.66s.11,0,.14-.07c.03-.06.02-.12-.03-.16l-3.34-1.66s-.11,0-.14.07c-.03.06-.02.13.02.16h.01Z"/>
          <path class="cls-33" d="m388.31,179.82l2.44,1.32s.11,0,.14-.07c.03-.06.02-.13-.02-.16l-2.44-1.32s-.11,0-.14.07-.02.13.02.16Z"/>
        </g>
        <polygon class="cls-32" points="354.78 109.89 350.34 105.59 348.09 111.84 338.22 103.98 333.22 109.47 345.61 118.1 348.09 112.62 354.78 117.64 354.78 109.89"/>
        <path class="cls-11" d="m354.78,109.89c.31.48,0,7.75,0,7.75l-6.7-5.02-2.48,5.48-11.9-8.21,12.18,10.61,2.2-6.44,7.47,6.44s-.77-10.61-.77-10.61Z"/>
        <path class="cls-11" d="m361.12,143.6l-34.12,32.87v-6.5s30.71-28.13,31.08-28.17,3.03,1.8,3.03,1.8h.01Z"/>
        <polygon class="cls-11" points="329.08 146.21 325.38 130.96 324.65 148.65 329.08 146.21"/>
      </g>
      <path class="cls-30" d="m335.2,87.94c0,1.13.92,2.05,2.05,2.05s2.05-.92,2.05-2.05-.92-2.05-2.05-2.05-2.05.92-2.05,2.05Z"/>
      <g>
        <g>
          <path class="cls-32" d="m313.82,118.91s-4.61,4.49-6.17,19.81c-1.11,11-3.93,34.71,4.61,37.76,8.55,3.05,45.81-32.59,45.81-32.59l-6.05-10.39-27.39,15.15s2.79-25.12-2.03-27.41-8.79-2.33-8.79-2.33h.01Z"/>
          <path class="cls-13" d="m313.82,118.91s-4.61,4.49-6.17,19.81c-1.11,11-3.93,34.71,4.61,37.76,8.55,3.05,45.81-32.59,45.81-32.59l-6.05-10.39-27.39,15.15s2.79-25.12-2.03-27.41-8.79-2.33-8.79-2.33h.01Z"/>
        </g>
        <path class="cls-19" d="m354.38,132.73s3.6-7.2,5.3-7.52c1.71-.32,3.08.25,3.08.25,0,0,11.62-6.85,12.39-5.04.42.97-2.16,3.12-7.7,6.28,0,0,3.19,1.17,1.9,3.04,0,0,2.35,1.08,1.1,3.41,0,0,1.08,2.06-.28,3.38s-7.74,4.95-11.44,5.49c-3.7.54-5.85-6.64-5.85-6.64l1.49-2.65h.01Z"/>
      </g>
    </g>
  </g>
  <g id="Puzzle">
    <g>
      <path class="cls-30" d="m393.63,338.45c3.14,1.48,5.07,4.93,8.32,6.14,1.82.68,3.83.52,5.67-.16v-46.33h-44.34c-.06-1,.06-2.01.41-2.96,1.21-3.25,4.66-5.18,6.14-8.31,2.18-4.63-.89-10.39-5.39-12.81-3.49-1.88-5.32-2.23-8.34-2.06-3.02-.17-4.85.18-8.34,2.06-4.5,2.42-7.57,8.19-5.39,12.81,1.48,3.14,4.93,5.07,6.14,8.31.36.95.47,1.96.42,2.96h-44.34v103.04h103.04v-41.2c-1.84-.68-3.85-.84-5.67-.16-3.25,1.21-5.19,4.64-8.32,6.14-4.16,2-10.37-.9-12.81-5.39-1.9-3.48-2.23-5.32-2.06-8.34-.17-3.02.18-4.85,2.06-8.34,2.42-4.5,8.19-7.57,12.81-5.39h-.01Z"/>
      <path class="cls-12" d="m393.63,338.45c3.14,1.48,5.07,4.93,8.32,6.14,1.82.68,3.83.52,5.67-.16v-46.33h-44.34c-.06-1,.06-2.01.41-2.96,1.21-3.25,4.66-5.18,6.14-8.31,2.18-4.63-.89-10.39-5.39-12.81-3.49-1.88-5.32-2.23-8.34-2.06-3.02-.17-4.85.18-8.34,2.06-4.5,2.42-7.57,8.19-5.39,12.81,1.48,3.14,4.93,5.07,6.14,8.31.36.95.47,1.96.42,2.96h-44.34v103.04h103.04v-41.2c-1.84-.68-3.85-.84-5.67-.16-3.25,1.21-5.19,4.64-8.32,6.14-4.16,2-10.37-.9-12.81-5.39-1.9-3.48-2.23-5.32-2.06-8.34-.17-3.02.18-4.85,2.06-8.34,2.42-4.5,8.19-7.57,12.81-5.39h-.01Z"/>
      <path class="cls-30" d="m398.68,338.45c3.14,1.48,5.07,4.93,8.32,6.14,1.82.68,3.83.52,5.67-.16v-46.33h-44.34c-.05-1,.06-2.01.41-2.96,1.21-3.25,4.66-5.18,6.14-8.31,2.18-4.63-.89-10.39-5.39-12.81-3.49-1.88-5.32-2.23-8.34-2.06-3.02-.17-4.85.18-8.34,2.06-4.5,2.42-7.57,8.19-5.39,12.81,1.48,3.14,4.93,5.07,6.14,8.31.36.95.47,1.96.42,2.96h-44.34v103.04h103.04v-41.2c-1.84-.68-3.85-.84-5.67-.16-3.25,1.21-5.19,4.64-8.32,6.14-4.16,2-10.37-.9-12.81-5.39-1.9-3.48-2.23-5.32-2.06-8.34-.17-3.02.18-4.85,2.06-8.34,2.42-4.5,8.19-7.57,12.81-5.39h-.01Z"/>
    </g>
    <path class="cls-12" d="m395.56,366.63s3.57,6.39,9.7,5.86c6.13-.53,7.41-3.2,7.41-3.2l-.08-8.79-13.67,5.24c-.94.77-2.07,1.04-3.35.89h-.01Z"/>
  </g>
  <g id="Character_4" data-name="Character 4">
    <g>
      <g>
        <path class="cls-31" d="m522.44,312.24l35.22-13.53,20.33-19.71c.56-.65,6.46-10.82,6.46-10.82l9.98,21.37s-24.81,24.93-33.9,27.83c-7.34,2.35-33.35,8.72-33.35,8.72l-4.74-13.86h0Z"/>
        <path class="cls-12" d="m544.03,321.88s4.25-16.65,13.74-20.11,21.76,1.97,21.41,2.2c-.35.23-10.63,9.8-10.98,9.92-.26.09-13.33,4.69-20.09,6.93l-4.08,1.06h0Z"/>
      </g>
      <g>
        <g>
          <path class="cls-32" d="m480.09,298.63c-.05,1,.06,2.01.41,2.96,1.21,3.25,4.66,5.18,6.14,8.32,2.18,4.63-.89,10.39-5.39,12.81-3.49,1.88-5.32,2.23-8.34,2.06-3.02.17-4.85-.18-8.34-2.06-4.5-2.42-7.57-8.19-5.39-12.81,1.48-3.14,4.93-5.07,6.14-8.32.36-.95.47-1.96.42-2.96h-45.93v46.29c-1.87.71-3.91.88-5.76.19-3.25-1.21-5.18-4.66-8.32-6.14-4.63-2.18-10.39.89-12.81,5.39-1.88,3.49-2.23,5.32-2.06,8.34-.17,3.02.18,4.85,2.06,8.34,2.42,4.5,8.19,7.57,12.81,5.39,3.14-1.48,5.07-4.93,8.32-6.14,1.85-.69,3.89-.51,5.76.19v41.17l102.68.46v-103.04l-42.4-.46v.02Z"/>
          <g class="cls-3">
            <path class="cls-1" d="m480.09,298.63c-.05,1,.06,2.01.41,2.96,1.21,3.25,4.66,5.18,6.14,8.32,2.18,4.63-.89,10.39-5.39,12.81-3.49,1.88-5.32,2.23-8.34,2.06-3.02.17-4.85-.18-8.34-2.06-4.5-2.42-7.57-8.19-5.39-12.81,1.48-3.14,4.93-5.07,6.14-8.32.36-.95.47-1.96.42-2.96h-45.93v46.29c-1.87.71-3.91.88-5.76.19-3.25-1.21-5.18-4.66-8.32-6.14-4.63-2.18-10.39.89-12.81,5.39-1.88,3.49-2.23,5.32-2.06,8.34-.17,3.02.18,4.85,2.06,8.34,2.42,4.5,8.19,7.57,12.81,5.39,3.14-1.48,5.07-4.93,8.32-6.14,1.85-.69,3.89-.51,5.76.19v41.17l102.68.46v-103.04l-42.4-.46v.02Z"/>
          </g>
        </g>
        <path class="cls-32" d="m484.63,298.63c-.05,1,.06,2.01.41,2.96,1.21,3.25,4.66,5.18,6.14,8.32,2.18,4.63-.89,10.39-5.39,12.81-3.49,1.88-5.32,2.23-8.34,2.06-3.02.17-4.85-.18-8.34-2.06-4.5-2.42-7.57-8.19-5.39-12.81,1.48-3.14,4.93-5.07,6.14-8.32.36-.95.47-1.96.42-2.96h-45.93v46.29c-1.87.71-3.91.88-5.76.19-3.25-1.21-5.18-4.66-8.32-6.14-4.63-2.18-10.39.89-12.81,5.39-1.88,3.49-2.23,5.32-2.06,8.34-.17,3.02.18,4.85,2.06,8.34,2.42,4.5,8.19,7.57,12.81,5.39,3.14-1.48,5.07-4.93,8.32-6.14,1.85-.69,3.89-.51,5.76.19v41.17l102.68.46v-103.04l-42.4-.46v.02Z"/>
      </g>
      <g>
        <g>
          <path class="cls-20" d="m556.96,368.09l16.15-.98c-2.58,14.23-5.24,23.46-4.11,30.76l-6.51,4.35-6.03-5.93s-1.11-11.63.5-28.21h0Z"/>
          <g>
            <g>
              <path class="cls-30" d="m555.49,386.31l5.87.07c2.84,4.92,4.8,3.76,7.81.29,1.7-.18,2.14,1.78,2.27,2.31l3.05,11.64c.27.97-.31,1.98-1.28,2.24-.17.05-.35.07-.53.06-5.18-.06-7.63-.09-14.09-.17l-19.73-.23c-5.38-.06-6.43-5.5-4.21-5.97,9.99-2.08,17.07-4.93,20.19-7.79.58-.5,0-.89.63-2.45h.02Z"/>
              <path class="cls-9" d="m552.49,389.57c1.47.22,2.82,1.11,3.6,2.38"/>
              <path class="cls-9" d="m549.82,391.54c1.47.22,2.82,1.11,3.6,2.38"/>
              <path class="cls-9" d="m546.5,393.18c1.47.22,2.82,1.11,3.6,2.38"/>
            </g>
            <path class="cls-22" d="m573.22,402.86c-.17.05-.35.07-.53.06-5.18-.06-7.63-.09-14.08-.17l-19.73-.23c-2.91-.03-4.54-1.64-5.09-3.18.82.02,40.02.78,40.54.61l.21.87c.14.9-.41,1.79-1.31,2.04h0Z"/>
          </g>
        </g>
        <path class="cls-32" d="m618.81,325.25s-44.11-22.78-52.7-23.43-16.8,4-18.44,21.79c-1.64,17.78,1.64,63.52,1.64,63.52l23.79.41,2.95-52.98s36.85,26.92,37.94,26.64c1.09-.27,15.48-.92,15.48-.92l-10.67-35.02h.01Z"/>
        <path class="cls-10" d="m618.81,325.25s-44.11-22.78-52.7-23.43-16.8,4-18.44,21.79c-1.64,17.78,1.64,63.52,1.64,63.52l23.79.41,2.95-52.98s36.85,26.92,37.94,26.64c1.09-.27,15.48-.92,15.48-.92l-10.67-35.02h.01Z"/>
        <path class="cls-12" d="m574.71,359.33s-19.44,6.81-19.65,22.84,16.94,12.98,16.94,12.98l2.71-35.82Z"/>
      </g>
      <g>
        <g>
          <path class="cls-20" d="m635.69,401.1l-4.37-15.9c15.29-1.65,25.5,2.11,32.6-1.25l6.4,5.33-4.23,7.93s-11.27,3.83-30.4,3.88h0Z"/>
          <g>
            <g>
              <path class="cls-30" d="m656.21,401.21l-1.7-6c4.16-4.38,2.38-6.03-2.06-8.05-.7-1.68,1.17-2.72,1.67-3.01l10.95-6.62c.91-.56,2.11-.28,2.67.63.1.16.18.34.22.52,1.5,5.3,2.21,7.81,4.08,14.41l5.71,20.18c1.56,5.5-3.67,8.21-4.82,6.09-5.13-9.55-10.18-15.92-14.03-18.23-.68-.44-.9.27-2.69.09h0Z"/>
              <path class="cls-9" d="m660.44,403.29c-.22-1.56.28-3.21,1.34-4.38"/>
              <path class="cls-9" d="m663.25,405.43c-.22-1.56.28-3.21,1.34-4.38"/>
              <path class="cls-9" d="m665.92,408.32c-.22-1.56.28-3.21,1.34-4.38"/>
            </g>
            <path class="cls-22" d="m667.74,378.15c.1.16.18.34.22.52,1.5,5.3,2.21,7.81,4.08,14.41l5.71,20.18c.84,2.98-.3,5.13-1.71,6.14-.23-.84-11.27-41.03-11.59-41.51l.82-.47c.88-.41,1.95-.12,2.47.73h0Z"/>
          </g>
        </g>
        <path class="cls-32" d="m667.15,333.94l1.91,9.61s4.91,19.07-1.97,28.65c-6.57,9.15-16.27,10.78-16.27,10.78l1.99,18.39-1.99,1.24s-12.69,0-38.66-1.19c-24.67-1.13-45.88-2.31-50.26-9.97s-5.39-11.38,1.77-20.52c6.47-8.26,55.73-20.42,57.44-20.92l-.69-4.2-.8-2.97,47.52-8.92v.02Z"/>
        <path class="cls-10" d="m667.15,333.94l1.91,9.61s4.91,19.07-1.97,28.65c-6.57,9.15-16.27,10.78-16.27,10.78l1.99,18.39-1.99,1.24s-12.69,0-38.66-1.19c-24.67-1.13-45.88-2.31-50.26-9.97s-5.39-11.38,1.77-20.52c6.47-8.26,55.73-20.42,57.44-20.92l-.69-4.2-.8-2.97,47.52-8.92v.02Z"/>
        <path class="cls-12" d="m650.82,382.98c-1.51.4-55.02-1.33-55.02-1.33,0,0,15.81,2.71,27.51,3.7,11.7.99,27.51-2.37,27.51-2.37h0Z"/>
        <path class="cls-12" d="m621.11,350.03l30.81-5.37s-22.21-.36-30.81,5.37Z"/>
      </g>
      <g>
        <path class="cls-20" d="m542.57,328.21s-2.57-3.96-6.4-4.72c-3.83-.77-6.68-2.4-9.56-2.77s-.27,2.55,1.44,3.83c1.71,1.27,3.63,2.74,2.46,3.86-1.16,1.13-14.67,4.55-16.11,6.3s.92,1.88.92,1.88c0,0-3.26.92-3.25,2.31,0,.36.6,1.2,2.15,1.01,3.49-.42,10.77-1.68,10.77-1.68-.42.06-9.29,2.26-10.58,2.76-1.68.66-2.14,1.82-1.73,2.78.59,1.37,11.68-.98,12.21-.75,0,0-6.43,1.14-7.04,2.96s3.47,1.33,6.99.2c3.23-1.03,9.83-2.2,13.01-3.56,3.92-1.68,6.17-3.69,6.26-7.68.08-4-1.55-6.73-1.55-6.73h0Z"/>
        <polygon class="cls-20" points="538.34 328.12 548.21 324.18 551.61 334.85 540.05 338.98 538.34 328.12"/>
      </g>
      <g>
        <g>
          <g>
            <g>
              <path class="cls-20" d="m609.91,254.31s-2.68-6.05-2.11-18.03c0,0-.66-.13-.66-.14.07-1.67.2-3.24.35-4.6v-.05l-13.06,13.14c1.22,3.5,1.59,10.73,1.52,13.83,0,0-.67,5.76,6.43,4.3,5.19-1.06,7.53-8.45,7.53-8.45h0Z"/>
              <path class="cls-33" d="m595.37,249.72l8.34-4.1c-.14,2.93-1.79,6.77-7.87,8.5,0,0-.12-3.22-.48-4.4h0Z"/>
            </g>
            <g>
              <path class="cls-20" d="m605.83,224.02c1.29,9.96,2.22,15.55-1.8,21.52-6.04,8.98-18.78,6.87-23.03-2.54-3.83-8.46-5.3-23.33,3.62-29.02,8.79-5.6,19.92.07,21.21,10.03h0Z"/>
              <path class="cls-32" d="m601.99,210c-4.61-5.4-13.2-.67-16.46,2.83-.49.52,8.34,3.02,7.82,2.93l2.79,2.31c.36-.16,1.1,3.27,1.73,6.23.58,2.72,1.88,5.23,3.78,7.27,1.59,1.71,3.72,3.75,6.12,5.41,3.11-2.34,2.16-8.36,2.56-12.13.59-5.62.46-16.14-8.34-14.86h0Z"/>
              <path class="cls-20" d="m611.29,231.47c-.3,2.69-1.82,4.97-3.58,6.32-2.66,2.03-4.37-.98-4.69-4.13-.29-2.84-.13-6.4,3.05-7.18,3.13-.77,5.57,1.92,5.23,5h0Z"/>
              <path class="cls-32" d="m592.28,229.57c.19,1.01-.18,1.92-.85,2.04-.66.12-1.35-.6-1.55-1.61-.19-1.01.18-1.92.84-2.04.66-.12,1.35.6,1.55,1.61h0Z"/>
              <path class="cls-32" d="m582.44,231.67c.19,1.01-.18,1.92-.84,2.04-.66.12-1.35-.6-1.55-1.61-.19-1.01.18-1.92.85-2.04s1.35.6,1.55,1.61h0Z"/>
              <path class="cls-26" d="m585.54,230.49s-2.23,5.62-2.86,7.86c1.65,1,3.95-.05,3.95-.05l-1.09-7.8h0Z"/>
              <path class="cls-32" d="m593.83,224.35c-.14.09-.32.11-.49.02-1.92-.98-3.47-.13-3.48-.12-.23.13-.53.05-.66-.18-.13-.23-.05-.52.18-.65.08-.05,2.02-1.11,4.4.1.24.12.33.41.21.64-.04.08-.1.14-.16.18h0Z"/>
              <path class="cls-6" d="m590.56,240.87c1.64-.3,2.75-1.36,3.78-2.82"/>
            </g>
            <path class="cls-7" d="m608.52,229.19c-.51-.51-1.36-.57-2.02-.27s-1.13.9-1.44,1.56c-.37.78-.54,1.66-.47,2.53"/>
          </g>
          <path class="cls-32" d="m577.26,228.26c-.09,0-.18-.03-.26-.09-.22-.15-.27-.45-.13-.67,1.5-2.18,3.71-2.12,3.81-2.13.26,0,.47.23.47.5s-.22.47-.49.46c-.09,0-1.79-.03-3,1.72-.09.14-.25.21-.4.21h0Z"/>
        </g>
        <path class="cls-32" d="m601.99,210s-6.13-7.58-16.74-5.08c-8.53,2.01-12.98,8.25-13.15,14.22-.07,2.57.5,4.48,1.17,5.82.51,1.01,1.97.86,2.29-.22.09-.31.2-.61.33-.91.03.07.07.13.11.2.62,1.04,2.27.66,2.3-.55,0-.38.05-.77.13-1.14,0,0,.01.02.02.03.57.91,1.99.64,2.22-.42,1-4.64,6.66-8.13,11.77-6.05l3.69,2.19c4.23-2.47,5.85-8.08,5.85-8.08h.01Z"/>
      </g>
      <polygon class="cls-12" points="617.91 343.14 617.33 347.04 600.12 352.22 604.09 354.76 621.11 350.03 621.82 342.45 617.91 343.14"/>
      <g>
        <g>
          <path class="cls-31" d="m630.76,255.54c-7.72-4.95-21.34-2.6-21.34-2.6l-24.97,15.24,17.08,40.14s7.13,17.07,10.97,28.44c.95,2.82,2.77,6.75,5.72,6.36l47.43-8.57c2.32-.42,3.78-2.73,3.15-5-4.58-16.54-31.12-69.56-38.04-74h0Z"/>
          <path class="cls-12" d="m635.22,277.86s-7.6,14.31-20.95,26.78c-5.39,5.04-9.13,12.3-9.13,12.3l-3.35-8.55,33.42-30.54h.01Z"/>
        </g>
        <path class="cls-31" d="m611.71,266.84l-32.33,40.32-37.96,17.23,3.78,15.71s30.78-8.3,43.15-16.01c12.37-7.71,32.76-29.27,32.76-29.27,0,0,17.79-14.27,16.94-25.82-.85-11.55-17.78-14.24-26.34-2.16Z"/>
        <path class="cls-30" d="m594.16,262.26s1.2-6.16,1.78-5.91,6.36,3.72,6.36,3.72l6.46-9.68,3.88,2.57-8.93,18.51-9.56-9.2h0Z"/>
        <polygon class="cls-12" points="591.32 288.1 583.86 277.86 589.88 293.89 592.82 290.77 613.41 264.74 591.32 288.1"/>
        <path class="cls-12" d="m594.16,262.26c.33.12,5.68,3.73,5.39,3.79s2.25-4.32,2.25-4.32l5.68,2.16,4.66-11.28-4.59,12.99-5.38-2.6-2.63,4.76-5.39-5.5h.01Z"/>
      </g>
    </g>
  </g>
  <g id="Character_1" data-name="Character 1">
    <g>
      <g>
        <g>
          <path class="cls-32" d="m225.72,185.61c.05-1-.06-2.01-.41-2.96-1.21-3.25-4.66-5.18-6.14-8.32-2.18-4.63.89-10.39,5.39-12.81,3.49-1.88,5.32-2.23,8.34-2.06,3.02-.17,4.85.18,8.34,2.06,4.5,2.42,7.57,8.19,5.39,12.81-1.48,3.14-4.93,5.07-6.14,8.32-.36.95-.47,1.96-.41,2.96h45.93v-46.29c1.87-.71,3.91-.89,5.76-.19,3.25,1.21,5.18,4.66,8.32,6.14,4.63,2.18,10.39-.89,12.81-5.39,1.88-3.49,2.23-5.32,2.06-8.34.17-3.02-.18-4.85-2.06-8.34-2.42-4.5-8.19-7.57-12.81-5.39-3.14,1.48-5.07,4.93-8.32,6.14-1.85.69-3.89.51-5.76-.19v-41.17l-102.68-.46v103.04l42.4.46v-.02Z"/>
          <g class="cls-3">
            <path class="cls-1" d="m225.72,185.61c.05-1-.06-2.01-.41-2.96-1.21-3.25-4.66-5.18-6.14-8.32-2.18-4.63.89-10.39,5.39-12.81,3.49-1.88,5.32-2.23,8.34-2.06,3.02-.17,4.85.18,8.34,2.06,4.5,2.42,7.57,8.19,5.39,12.81-1.48,3.14-4.93,5.07-6.14,8.32-.36.95-.47,1.96-.41,2.96h45.93v-46.29c1.87-.71,3.91-.89,5.76-.19,3.25,1.21,5.18,4.66,8.32,6.14,4.63,2.18,10.39-.89,12.81-5.39,1.88-3.49,2.23-5.32,2.06-8.34.17-3.02-.18-4.85-2.06-8.34-2.42-4.5-8.19-7.57-12.81-5.39-3.14,1.48-5.07,4.93-8.32,6.14-1.85.69-3.89.51-5.76-.19v-41.17l-102.68-.46v103.04l42.4.46v-.02Z"/>
          </g>
        </g>
        <path class="cls-32" d="m228.84,185.61c.05-1-.06-2.01-.41-2.96-1.21-3.25-4.66-5.18-6.14-8.32-2.18-4.63.89-10.39,5.39-12.81,3.49-1.88,5.32-2.23,8.34-2.06,3.02-.17,4.85.18,8.34,2.06,4.5,2.42,7.57,8.19,5.39,12.81-1.48,3.14-4.93,5.07-6.14,8.32-.36.95-.47,1.96-.42,2.96h45.93v-46.29c1.87-.71,3.91-.89,5.76-.19,3.25,1.21,5.18,4.66,8.32,6.14,4.63,2.18,10.39-.89,12.81-5.39,1.88-3.49,2.23-5.32,2.06-8.34.17-3.02-.18-4.85-2.06-8.34-2.42-4.5-8.19-7.57-12.81-5.39-3.14,1.48-5.07,4.93-8.32,6.14-1.85.69-3.89.51-5.76-.19v-41.17l-102.68-.46v103.04l42.4.46v-.02Z"/>
      </g>
      <g>
        <path class="cls-24" d="m160.56,130.46s-7.5,26.56-2.7,31.19c4.8,4.62,21.58,1.54,20.72,1.2s4.28-32.29,4.62-31.13-22.65-1.26-22.65-1.26h0Z"/>
        <g>
          <path class="cls-24" d="m169.89,370.31l-.02,23.05,10.7.83,3.76-21.65c-4.89-3.53-9.71-4.38-14.44-2.23h0Z"/>
          <path class="cls-32" d="m169.77,390.95c-1.05,3.04-1.12,15.49-1.12,15.49l22.68.03c1.35-4.5-.74-7.57-3.38-7.98-1.14-.17-2.47-1.44-3.45-2.54,0-.14-1.39-7.06-2.25-7.39,0,0-.59-.72-1.09,0s-.94,3.05-.94,3.05c-3.54-4.76-7.01-4.12-10.44-.66h-.01Z"/>
          <path class="cls-21" d="m169.5,394.56c2.56-1.02,5.31-.63,7.55,1.07.39.3.76-.4.37-.69-2.38-1.81-5.39-2.24-8.12-1.15-.44.18-.25.95.2.77h0Z"/>
          <path class="cls-21" d="m191.27,404.64h0l-22.35-.03c-.2,0-.37-.18-.37-.4s.17-.4.37-.4h0l22.35.03c.2,0,.37.18.37.4s-.17.4-.37.4Z"/>
        </g>
        <g>
          <path class="cls-24" d="m216.06,367.3l-.03,26.01,10.3.85,5.06-24.35c-4.13-3.33-8.93-4.96-15.33-2.51Z"/>
          <path class="cls-32" d="m215.56,391c-1.05,3.04-1.12,15.49-1.12,15.49l26.06.03c1.35-4.5-1.47-7.17-4.11-7.58-1.14-.17-5.12-1.85-6.09-2.95,0-.14-1.39-7.06-2.25-7.39,0,0-.59-.72-1.09,0s-.94,3.05-.94,3.05c-3.54-4.76-7.01-4.12-10.44-.66h-.02Z"/>
          <path class="cls-21" d="m215.29,394.61c2.56-1.02,5.31-.63,7.55,1.07.39.3.76-.4.37-.69-2.38-1.81-5.39-2.24-8.12-1.15-.44.18-.25.95.2.77h0Z"/>
          <path class="cls-21" d="m240.5,404.7h0l-25.79-.03c-.2,0-.37-.18-.37-.4s.17-.4.37-.4h0l25.79.03c.2,0,.37.18.37.4s-.17.4-.37.4Z"/>
        </g>
        <g>
          <path class="cls-32" d="m165.46,381.66l22.8,1.21c5.12-16.58,10.17-76.03,10.69-93.87.62-21.32,8.26-74.84,1.51-85.98s-37.29-2.27-37.29-2.27c0,0,3.81,65.17,2.28,85.95-1.32,18.01-3.36,70.96,0,94.96h0Z"/>
          <polygon class="cls-30" points="190.72 376.87 189.24 384.49 164.53 383.69 163.62 376.37 190.72 376.87"/>
          <path class="cls-32" d="m211,381.66l22.6,1.21c2.75-18.35,13.81-85.19,12.9-98-1.11-15.64-14.2-83.33-19.07-88.55-4.87-5.22-40.51,8.31-40.51,8.31,0,0,14.65,58.21,26.2,83.39,2.4,5.23-3.98,71.31-2.12,93.64h0Z"/>
          <polygon class="cls-30" points="236.19 377.44 235.03 384.49 209.91 382.88 209.4 375.5 236.19 377.44"/>
          <polygon class="cls-11" points="201.18 255.96 194.54 233.78 182.76 229.93 191.97 237.07 199.37 277.51 201.18 255.96"/>
        </g>
        <g>
          <g>
            <path class="cls-32" d="m213.88,59.46c0,.96.42,1.68,1.02,1.78s1.16-.71,1.21-1.68-.4-1.68-1.01-1.78c-.6-.1-1.11.76-1.23,1.68h0Z"/>
            <path class="cls-25" d="m214.27,59.33c.34,3.09,1.1,6.11,2.27,8.98-1.51.56-3.2.42-4.6-.37,0,0,2.33-8.61,2.33-8.61Z"/>
            <path class="cls-32" d="m212.15,56.39c-.12,0-.25-.02-.35-.08-.22-.21-.22-.57,0-.78h0c1.12-1.4,2.85-2.16,4.63-2.05.3.03.51.29.49.58h0c-.05.3-.32.51-.62.49h0c-1.42-.06-2.77.56-3.64,1.68-.13.14-.32.2-.5.17h-.01Z"/>
          </g>
          <g>
            <path class="cls-24" d="m214.28,72.18c-.13.51-.28,1.01-.46,1.51-1.03,2.82-2.9,5.27-5.36,7.02-.62.45-1.28.85-1.96,1.19-5.37,2.83-12,1.79-16.22-2.53-5.43-5.39-5.29-11.61-5.9-22.14-.16-2.26.21-4.53,1.1-6.63,3.11-7.36,11.7-10.84,19.18-7.78h0c10.47,4.21,11.91,19.87,9.63,29.37h-.01Z"/>
            <path class="cls-33" d="m208.42,80.71c-.62.45-1.28.85-1.96,1.19-3.64,1.91-7.95,2.09-11.74.51.48-1.27,1.13-2.47,1.92-3.57,4.03-.5,8.12.15,11.78,1.88h0Z"/>
            <path class="cls-24" d="m186.85,94.37c5.29,4.72,18.22,2.98,18.22,2.98,0,0,8.07-2.18,6.37-4.65-4.74-.77-7.05-2.95-8.01-5.75-.51-1.73-.68-3.54-.48-5.34.08-1,.21-1.99.4-2.98l-15.99-11.64c2.09,7.68,4.65,21.81-.52,27.38h.01Z"/>
            <path class="cls-32" d="m208.42,62.59l2.31.85-1.15-4.64s3.38-5.07,0-9.47c0,0,9.33-2.79,4.06-7.61-1.96-1.8-4.4,0-10.84-2.75-3.49-1.51-14.43-1.62-14.97,2.75,0,0-7.88,0-8.73,13.18-.5,7.82,2.55,15.45,8.34,20.84,0,0,9.51,2.21,14.18-1.55,4.67-3.75,6.79-11.61,6.79-11.61h.01Z"/>
            <path class="cls-24" d="m202.33,63.34c.41,2.01,1.71,3.73,3.56,4.68,2.18.91,3.62-2.1,3.3-5.27-.3-2.81-1.78-6.77-4.11-6.24s-3.51,3.99-2.75,6.83Z"/>
          </g>
        </g>
        <g>
          <path class="cls-30" d="m170.6,91.84s-3.71,1.13-5.56,1.81c-3.85,1.41-6.39,5.7-7.79,9.91-3.41,10.29-8.91,34.64-8.91,34.64l19.97,4.2,10.65-22.95-8.37-27.61h0Z"/>
          <path class="cls-13" d="m170.6,91.84s-5.34.99-8.16,3.32c-2.14,1.77-3.85,4.34-5.19,8.4-3.41,10.29-8.91,34.64-8.91,34.64l19.97,4.2,10.65-22.95-8.37-27.61h.01Z"/>
          <path class="cls-30" d="m218.97,93.02c-5.89-.63-24.01-4.73-48.37-1.18l-5.7,90.07s-.73,13.78-2.89,25.61c24.76,10.63,54.04,7.59,70.6-1.35-.19.38-.73-9.45-1.58-23.85-1.5-25.37-3.95-64.93-7.11-87.83-.09-.57-4.36-1.41-4.95-1.47h0Z"/>
          <g class="cls-4">
            <path class="cls-21" d="m218.97,93.02c-5.89-.63-24.01-4.73-48.37-1.18l-5.7,90.07s-.73,13.78-2.89,25.61c24.76,10.63,54.04,7.59,70.6-1.35-.19.38-.73-9.45-1.58-23.85-1.5-25.37-3.95-64.93-7.11-87.83-.09-.57-4.36-1.41-4.95-1.47h0Z"/>
          </g>
          <g>
            <path class="cls-30" d="m186.58,90.9c.7-2.09,1.68-3.57,2.94-4.42l13.57,1.05,6.36,4.19s-22.87-.82-22.87-.82Z"/>
            <path class="cls-13" d="m186.58,90.9c.7-2.09,1.68-3.57,2.94-4.42l13.57,1.05,6.36,4.19s-22.87-.82-22.87-.82Z"/>
          </g>
          <path class="cls-33" d="m218.34,121.05c2.17,10.14,5.3,30.03,11.19,36.96l-1.4-20.13-9.79-16.84h0Z"/>
          <polygon class="cls-33" points="167.04 142.11 167.56 116.1 162.1 140.87 167.04 142.11"/>
        </g>
        <g>
          <path class="cls-24" d="m228.74,129.07c-.76.29,13.93,33.34,19.91,33.64s34.06-12.48,34.06-12.48l-6.3-7.52-21.22,1.22-10.83-23.04-15.62,8.19h0Z"/>
          <g>
            <path class="cls-30" d="m221.35,94.15c-7.62,5.03-11.39,16.42,9.03,51.6l22.06-13.47c-4.46-8.23-9.19-14.22-14.44-26.14-10.59-15.25-16.65-11.99-16.65-11.99Z"/>
            <path class="cls-13" d="m221.35,94.15c-7.62,5.03-11.39,16.42,9.03,51.6l22.06-13.47c-4.46-8.23-9.19-14.22-14.44-26.14-10.59-15.25-16.65-11.99-16.65-11.99Z"/>
          </g>
          <path class="cls-24" d="m292.6,142.49c0-1.93-.59-4.03-1.63-4.09s-6.59,0-6.59,0h0c0-1.56,2.92-3.26,1.97-4.32-1.24-1.39-8.43,4.54-8.88,5.75-.89,2.37-1.34,2.97-1.34,2.97l3.8,8.72s7.03,4.63,8.66,3,1.48-3.38,1.48-3.38c0,0,1.63-2.26,1.48-3.75-.15-1.48,1.04-2.97,1.04-4.9h0Z"/>
        </g>
      </g>
    </g>
  </g>
  <g>
    <path class="cls-30" d="m313.5,296.33l-2.5,103.01,102.86,2.5,1-41.16c-1.84-.75-7.93-1.37-9.8-.72-3.28,1.13-1.25,4.92-4.41,6.32-4.68,2.07-10.37-1.14-12.68-5.7-1.79-3.53-2.1-5.37-1.86-8.39-.1-3.02.3-4.84,2.26-8.29,2.53-4.44,8.37-7.37,12.94-5.08,3.1,1.56.47,5.14,3.67,6.43,1.83.73,8.37.52,10.25-.14l1.12-46.28-46-1.12c-.03-1,.11-2.01.48-2.95,1.29-3.22,4.78-5.07,6.34-8.17,2.29-4.58-.64-10.41-5.08-12.94-3.44-1.96-5.26-2.36-8.29-2.26-3.01-.24-4.85.06-8.39,1.86-4.56,2.31-7.77,8-5.7,12.68,1.4,3.18,4.81,5.19,5.94,8.47.34.96.42,1.97.34,2.97l-42.51-1.03v-.02Z"/>
    <g>
      <path class="cls-30" d="m308.39,296.21l-2.5,103.01,102.86,2.5,1-41.16c-1.84-.75-3.89-.97-5.75-.33-3.28,1.13-5.29,4.53-8.46,5.94-4.68,2.07-10.37-1.14-12.68-5.7-1.79-3.53-2.1-5.37-1.86-8.39-.1-3.02.3-4.84,2.26-8.29,2.53-4.44,8.37-7.37,12.94-5.08,3.1,1.56,4.95,5.05,8.16,6.34,1.83.73,3.88.6,5.76-.05l1.12-46.28-46-1.12c-.03-1,.11-2.01.48-2.95,1.29-3.22,4.78-5.07,6.34-8.17,2.29-4.58-.64-10.41-5.08-12.94-3.44-1.96-5.26-2.36-8.29-2.26-3.01-.24-4.85.06-8.39,1.86-4.56,2.31-7.77,8-5.7,12.68,1.4,3.18,4.81,5.19,5.94,8.47.34.96.42,1.97.34,2.97l-42.51-1.03v-.02Z"/>
      <g class="cls-2">
        <path class="cls-21" d="m308.39,296.21l-2.5,103.01,102.86,2.5,1-41.16c-1.84-.75-3.89-.97-5.75-.33-3.28,1.13-5.29,4.53-8.46,5.94-4.68,2.07-10.37-1.14-12.68-5.7-1.79-3.53-2.1-5.37-1.86-8.39-.1-3.02.3-4.84,2.26-8.29,2.53-4.44,8.37-7.37,12.94-5.08,3.1,1.56,4.95,5.05,8.16,6.34,1.83.73,3.88.6,5.76-.05l1.12-46.28-46-1.12c-.03-1,.11-2.01.48-2.95,1.29-3.22,4.78-5.07,6.34-8.17,2.29-4.58-.64-10.41-5.08-12.94-3.44-1.96-5.26-2.36-8.29-2.26-3.01-.24-4.85.06-8.39,1.86-4.56,2.31-7.77,8-5.7,12.68,1.4,3.18,4.81,5.19,5.94,8.47.34.96.42,1.97.34,2.97l-42.51-1.03v-.02Z"/>
      </g>
    </g>
  </g>
</svg>