<?xml version="1.0" encoding="UTF-8"?>
<!DOCTYPE svg PUBLIC "-//W3C//DTD SVG 1.1//EN" "http://www.w3.org/Graphics/SVG/1.1/DTD/svg11.dtd">
<svg xmlns="http://www.w3.org/2000/svg" version="1.1" width="2303px" height="1783px" style="shape-rendering:geometricPrecision; text-rendering:geometricPrecision; image-rendering:optimizeQuality; fill-rule:evenodd; clip-rule:evenodd" xmlns:xlink="http://www.w3.org/1999/xlink">
<g><path style="opacity:0.98" fill="#aac2e5" d="M 1587.5,-0.5 C 1591.5,-0.5 1595.5,-0.5 1599.5,-0.5C 1626.48,5.1598 1641.15,21.8265 1643.5,49.5C 1640.5,79.8333 1623.83,96.5 1593.5,99.5C 1568.38,98.1983 1552.22,85.5317 1545,61.5C 1540.59,37.7268 1548.42,19.2268 1568.5,6C 1574.59,2.73801 1580.92,0.571339 1587.5,-0.5 Z"/></g>
<g><path style="opacity:0.746" fill="#e06c25" d="M 961.5,498.5 C 961.5,499.167 961.5,499.833 961.5,500.5C 955.15,507.358 949.317,514.691 944,522.5C 943.329,523.252 942.496,523.586 941.5,523.5C 905.863,497.009 870.196,470.509 834.5,444C 764.834,443.5 695.167,443.333 625.5,443.5C 632.031,391.889 615.698,349.389 576.5,316C 563.908,306.705 550.241,299.538 535.5,294.5C 644.167,294.667 752.834,294.5 861.5,294C 862.833,292.333 862.833,290.667 861.5,289C 708.833,288.333 556.167,288.333 403.5,289C 402.944,289.383 402.611,289.883 402.5,290.5C 362.33,290.832 322.33,290.499 282.5,289.5C 282.333,244.499 282.5,199.499 283,154.5C 288.163,100.308 314.663,60.4742 362.5,35C 378.974,27.2145 396.307,22.5478 414.5,21C 557.833,20.3333 701.167,20.3333 844.5,21C 900.883,27.4015 941.05,56.2348 965,107.5C 971.343,122.878 975.009,138.878 976,155.5C 976.167,181 976.333,206.5 976.5,232C 976.619,261.187 976.119,290.354 975,319.5C 970.001,352.833 955.501,381.167 931.5,404.5C 941.706,435.784 951.706,467.117 961.5,498.5 Z"/></g>
<g><path style="opacity:0.985" fill="#aac2e5" d="M 1733.5,69.5 C 1764.87,66.0937 1787.37,78.427 1801,106.5C 1810.91,137.405 1802.74,162.238 1776.5,181C 1742.91,197.129 1715.08,190.296 1693,160.5C 1680.17,135.561 1682.17,111.894 1699,89.5C 1708.54,79.3191 1720.04,72.6525 1733.5,69.5 Z"/></g>
<g><path style="opacity:0.986" fill="#aac2e5" d="M 1583.5,105.5 C 1632.84,104.003 1661.17,127.67 1668.5,176.5C 1618.5,176.5 1568.5,176.5 1518.5,176.5C 1521.03,153.277 1531.03,134.11 1548.5,119C 1559.16,111.619 1570.82,107.119 1583.5,105.5 Z"/></g>
<g><path style="opacity:1" fill="#180c03" d="M 403.5,168.5 C 555.834,168.333 708.167,168.5 860.5,169C 862.602,170.733 862.935,172.733 861.5,175C 708.833,175.667 556.167,175.667 403.5,175C 402.232,172.837 402.232,170.67 403.5,168.5 Z"/></g>
<g><path style="opacity:0.998" fill="#000000" d="M 1476.5,259.5 C 1545.4,320.657 1594.23,395.324 1623,483.5C 1643.56,546.31 1650.89,610.643 1645,676.5C 1640.35,717.785 1627.35,756.118 1606,791.5C 1594.3,808.885 1581.64,825.552 1568,841.5C 1564.57,845.439 1560.74,848.772 1556.5,851.5C 1551.55,850.671 1546.55,850.337 1541.5,850.5C 1535.36,844.533 1529.03,838.699 1522.5,833C 1511.53,824.852 1500.2,817.352 1488.5,810.5C 1493.43,804.397 1498.59,798.397 1504,792.5C 1504.67,791.833 1504.67,791.167 1504,790.5C 1491.17,776.333 1478.33,762.167 1465.5,748C 1456.41,742.08 1448.41,734.913 1441.5,726.5C 1424.06,703.868 1414.06,678.201 1411.5,649.5C 1454.89,645.726 1483.05,623.059 1496,581.5C 1503.88,537.263 1488.88,503.263 1451,479.5C 1461.9,371.472 1421.73,288.972 1330.5,232C 1274.41,199.509 1215.41,192.842 1153.5,212C 1150.26,213.786 1146.93,215.286 1143.5,216.5C 1174.97,194.73 1209.97,182.563 1248.5,180C 1334.73,178.239 1410.73,204.739 1476.5,259.5 Z"/></g>
<g><path style="opacity:0.99" fill="#aac1e5" d="M 1824.5,244.5 C 1823.11,246.951 1822.27,249.618 1822,252.5C 1820.73,262.879 1819.23,273.213 1817.5,283.5C 1763.17,283.5 1708.83,283.5 1654.5,283.5C 1662.73,223.427 1697.07,194.927 1757.5,198C 1788.22,201.672 1810.55,217.172 1824.5,244.5 Z"/></g>
<g><path style="opacity:1" fill="#d7e2f5" d="M 1411.5,649.5 C 1387.74,650.971 1367.08,643.804 1349.5,628C 1348.25,627.26 1347.25,627.427 1346.5,628.5C 1320.05,637.564 1293.71,646.897 1267.5,656.5C 1247.08,663.538 1226.75,670.872 1206.5,678.5C 1205.69,686.47 1202.03,692.637 1195.5,697C 1185.73,700.018 1175.73,701.851 1165.5,702.5C 1152.65,701.153 1145.65,693.986 1144.5,681C 1145.37,671.266 1150.37,664.599 1159.5,661C 1169.38,658.555 1179.38,657.555 1189.5,658C 1192.97,658.65 1195.97,660.15 1198.5,662.5C 1214.68,656.668 1230.68,650.668 1246.5,644.5C 1276.34,634.497 1306.01,623.997 1335.5,613C 1319.15,589.406 1314.15,563.572 1320.5,535.5C 1325.74,518.665 1334.74,504.331 1347.5,492.5C 1368.04,474.432 1392.04,466.765 1419.5,469.5C 1420.57,470.434 1421.9,470.768 1423.5,470.5C 1423.83,462.316 1423.49,454.316 1422.5,446.5C 1418.64,359.57 1379.98,293.404 1306.5,248C 1246.16,216.328 1183.83,211.828 1119.5,234.5C 1125.62,226.093 1133.62,220.093 1143.5,216.5C 1146.93,215.286 1150.26,213.786 1153.5,212C 1215.41,192.842 1274.41,199.509 1330.5,232C 1421.73,288.972 1461.9,371.472 1451,479.5C 1488.88,503.263 1503.88,537.263 1496,581.5C 1483.05,623.059 1454.89,645.726 1411.5,649.5 Z"/></g>
<g><path style="opacity:0.999" fill="#000000" d="M 1422.5,446.5 C 1422.5,454.167 1422.5,461.833 1422.5,469.5C 1421.5,469.5 1420.5,469.5 1419.5,469.5C 1392.04,466.765 1368.04,474.432 1347.5,492.5C 1342.34,458.58 1336.84,424.58 1331,390.5C 1318.86,364.843 1298.69,354.01 1270.5,358C 1265.17,359.163 1260.17,361.163 1255.5,364C 1204.69,407.397 1146.02,434.064 1079.5,444C 1075.85,444.499 1072.18,444.665 1068.5,444.5C 1068.63,447.925 1067.97,448.258 1066.5,445.5C 1059.58,445.812 1052.74,445.479 1046,444.5C 1043.1,433.664 1041.27,422.664 1040.5,411.5C 1041.04,340.769 1067.37,281.769 1119.5,234.5C 1183.83,211.828 1246.16,216.328 1306.5,248C 1379.98,293.404 1418.64,359.57 1422.5,446.5 Z"/></g>
<g><path style="opacity:0.989" fill="#010102" d="M 2097.5,779.5 C 2092.26,811.053 2087.6,842.72 2083.5,874.5C 2082.22,881.447 2081.22,888.447 2080.5,895.5C 2076.7,906.244 2069.03,911.244 2057.5,910.5C 2038.52,907.725 2019.52,905.058 2000.5,902.5C 1918.04,889.599 1835.37,877.099 1752.5,865C 1737.26,862.041 1731.42,852.875 1735,837.5C 1757.62,687.553 1779.79,537.553 1801.5,387.5C 1806.62,352.766 1811.96,318.1 1817.5,283.5C 1819.23,273.213 1820.73,262.879 1822,252.5C 1822.27,249.618 1823.11,246.951 1824.5,244.5C 1828.02,238.185 1833.52,234.851 1841,234.5C 1944.81,250.162 2048.64,265.662 2152.5,281C 2164.85,284.514 2170.01,292.681 2168,305.5C 2144.45,463.503 2120.95,621.503 2097.5,779.5 Z"/></g>
<g><path style="opacity:0.998" fill="#aac1e5" d="M 1476.5,259.5 C 1598.71,268.144 1707.04,310.811 1801.5,387.5C 1779.79,537.553 1757.62,687.553 1735,837.5C 1731.42,852.875 1737.26,862.041 1752.5,865C 1835.37,877.099 1918.04,889.599 2000.5,902.5C 1988.55,993.173 1961.05,1078.84 1918,1159.5C 1905.82,1182.56 1892.65,1204.89 1878.5,1226.5C 1822.47,1147.13 1764.97,1068.8 1706,991.5C 1675.3,951.695 1641.47,914.529 1604.5,880C 1590.33,867.312 1574.33,857.812 1556.5,851.5C 1560.74,848.772 1564.57,845.439 1568,841.5C 1581.64,825.552 1594.3,808.885 1606,791.5C 1627.35,756.118 1640.35,717.785 1645,676.5C 1650.89,610.643 1643.56,546.31 1623,483.5C 1594.23,395.324 1545.4,320.657 1476.5,259.5 Z"/></g>
<g><path style="opacity:1" fill="#8babf5" d="M 1841.5,261.5 C 1942.53,276.087 2043.53,290.92 2144.5,306C 2145.52,306.519 2146.18,307.353 2146.5,308.5C 2118.14,499.852 2089.64,691.186 2061,882.5C 2059.82,883.684 2058.32,884.351 2056.5,884.5C 1956.17,869.406 1855.84,854.406 1755.5,839.5C 1783.85,646.779 1812.51,454.112 1841.5,261.5 Z"/></g>
<g><path style="opacity:1" fill="#020204" d="M 535.5,294.5 C 527.56,293.017 519.56,291.85 511.5,291C 475.168,290.5 438.835,290.333 402.5,290.5C 402.611,289.883 402.944,289.383 403.5,289C 556.167,288.333 708.833,288.333 861.5,289C 862.833,290.667 862.833,292.333 861.5,294C 752.834,294.5 644.167,294.667 535.5,294.5 Z"/></g>
<g><path style="opacity:0.996" fill="#7690ed" d="M 282.5,289.5 C 322.33,290.499 362.33,290.832 402.5,290.5C 438.835,290.333 475.168,290.5 511.5,291C 519.56,291.85 527.56,293.017 535.5,294.5C 550.241,299.538 563.908,306.705 576.5,316C 615.698,349.389 632.031,391.889 625.5,443.5C 625.667,477.502 625.5,511.502 625,545.5C 617.485,599.674 587.985,635.841 536.5,654C 526.68,656.748 516.68,658.415 506.5,659C 385.833,659.333 265.167,659.667 144.5,660C 103.345,691.077 62.0119,721.91 20.5,752.5C 20.1667,752.167 19.8333,751.833 19.5,751.5C 33.134,710.098 46.4673,668.598 59.5,627C 41.8056,609.123 29.6389,587.957 23,563.5C 21.5664,556.898 20.5664,550.232 20,543.5C 19.3333,497.5 19.3333,451.5 20,405.5C 24.7751,360.079 46.9418,326.246 86.5,304C 103.741,295.106 122.074,290.44 141.5,290C 188.499,289.5 235.499,289.333 282.5,289.5 Z"/></g>
<g><path style="opacity:1" fill="#2a2b2c" d="M 1870.5,332.5 C 1946.13,343.805 2021.8,354.972 2097.5,366C 2098.58,367.726 2098.74,369.559 2098,371.5C 2097.28,372.059 2096.44,372.392 2095.5,372.5C 2020.9,360.914 1946.23,349.748 1871.5,339C 1867.9,337.359 1867.57,335.193 1870.5,332.5 Z"/></g>
<g><path style="opacity:1" fill="#c97067" d="M 1347.5,492.5 C 1334.74,504.331 1325.74,518.665 1320.5,535.5C 1287.27,522.764 1259.44,530.097 1237,557.5C 1222.01,582.253 1221.68,607.253 1236,632.5C 1239.34,636.668 1242.84,640.668 1246.5,644.5C 1230.68,650.668 1214.68,656.668 1198.5,662.5C 1195.97,660.15 1192.97,658.65 1189.5,658C 1179.38,657.555 1169.38,658.555 1159.5,661C 1150.37,664.599 1145.37,671.266 1144.5,681C 1145.65,693.986 1152.65,701.153 1165.5,702.5C 1175.73,701.851 1185.73,700.018 1195.5,697C 1202.03,692.637 1205.69,686.47 1206.5,678.5C 1226.75,670.872 1247.08,663.538 1267.5,656.5C 1297.27,667.014 1322.77,660.348 1344,636.5C 1345.5,634.167 1347,631.833 1348.5,629.5C 1348.04,628.702 1347.38,628.369 1346.5,628.5C 1347.25,627.427 1348.25,627.26 1349.5,628C 1367.08,643.804 1387.74,650.971 1411.5,649.5C 1414.06,678.201 1424.06,703.868 1441.5,726.5C 1383.2,792.475 1324.86,858.475 1266.5,924.5C 1265.83,924.5 1265.17,924.5 1264.5,924.5C 1251.94,879.249 1238.6,834.249 1224.5,789.5C 1259.85,779.825 1291.52,763.325 1319.5,740C 1329.77,731.734 1339.44,722.734 1348.5,713C 1288.75,741.771 1226.08,750.438 1160.5,739C 1124.34,728.84 1098.5,706.674 1083,672.5C 1078.46,661.392 1074.63,650.059 1071.5,638.5C 1095.2,622.072 1105.04,599.406 1101,570.5C 1096.41,548.334 1083.91,532.334 1063.5,522.5C 1062.83,528.319 1062.17,533.986 1061.5,539.5C 1061.98,510.728 1063.98,482.061 1067.5,453.5C 1066.9,450.86 1066.57,448.193 1066.5,445.5C 1067.97,448.258 1068.63,447.925 1068.5,444.5C 1072.18,444.665 1075.85,444.499 1079.5,444C 1146.02,434.064 1204.69,407.397 1255.5,364C 1260.17,361.163 1265.17,359.163 1270.5,358C 1298.69,354.01 1318.86,364.843 1331,390.5C 1336.84,424.58 1342.34,458.58 1347.5,492.5 Z"/></g>
<g><path style="opacity:1" fill="#292a2b" d="M 1862.5,379.5 C 1938.57,390.153 2014.57,401.32 2090.5,413C 2092.27,416.111 2091.44,417.944 2088,418.5C 2013.14,407.52 1938.31,396.353 1863.5,385C 1862.59,383.301 1862.26,381.467 1862.5,379.5 Z"/></g>
<g><path style="opacity:0.998" fill="#aac1e5" d="M 1040.5,411.5 C 1041.27,422.664 1043.1,433.664 1046,444.5C 1052.74,445.479 1059.58,445.812 1066.5,445.5C 1066.57,448.193 1066.9,450.86 1067.5,453.5C 1063.98,482.061 1061.98,510.728 1061.5,539.5C 1061.5,541.167 1061.5,542.833 1061.5,544.5C 1049.99,585.539 1033.49,624.539 1012,661.5C 1000.92,680.001 989.584,698.334 978,716.5C 959.39,749.821 952.057,785.487 956,823.5C 962.77,861.88 980.604,894.047 1009.5,920C 1038.26,945.05 1071.26,962.217 1108.5,971.5C 1043.58,1038.7 979.581,1106.7 916.5,1175.5C 800.936,1116.88 685.269,1058.55 569.5,1000.5C 569.799,995.74 567.799,994.406 563.5,996.5C 548.115,988.724 532.615,981.058 517,973.5C 514.822,976.537 512.655,979.537 510.5,982.5C 468.044,964.785 424.044,953.452 378.5,948.5C 420.114,885.718 474.447,837.218 541.5,803C 553.714,797.06 566.047,791.393 578.5,786C 606.841,775.413 635.508,765.747 664.5,757C 741.777,729.631 807.61,685.465 862,624.5C 889.711,592.047 916.211,558.714 941.5,524.5C 942.552,524.351 943.552,524.517 944.5,525C 955.014,532.758 965.347,540.758 975.5,549C 976.332,549.688 976.998,549.521 977.5,548.5C 972.332,532.329 966.998,516.329 961.5,500.5C 961.5,499.833 961.5,499.167 961.5,498.5C 985.304,467.355 1011.64,438.355 1040.5,411.5 Z"/></g>
<g><path style="opacity:1" fill="#000000" d="M 117.5,419.5 C 251.167,419.333 384.834,419.5 518.5,420C 519.833,421.667 519.833,423.333 518.5,425C 385.167,425.667 251.833,425.667 118.5,425C 116.17,423.512 115.836,421.679 117.5,419.5 Z"/></g>
<g><path style="opacity:1" fill="#292a2b" d="M 1856.5,425.5 C 1932.19,436.47 2007.85,447.637 2083.5,459C 2085.53,460.396 2085.86,462.062 2084.5,464C 2081.17,464.667 2077.83,464.667 2074.5,464C 2001.55,453.198 1928.72,442.032 1856,430.5C 1855.36,428.735 1855.53,427.068 1856.5,425.5 Z"/></g>
<g><path style="opacity:1" fill="#4c5057" d="M 1422.5,446.5 C 1423.49,454.316 1423.83,462.316 1423.5,470.5C 1421.9,470.768 1420.57,470.434 1419.5,469.5C 1420.5,469.5 1421.5,469.5 1422.5,469.5C 1422.5,461.833 1422.5,454.167 1422.5,446.5 Z"/></g>
<g><path style="opacity:1" fill="#060302" d="M 1098.5,455.5 C 1108.55,454.46 1117.05,457.46 1124,464.5C 1126.65,469.536 1125.15,472.703 1119.5,474C 1109.83,474.667 1100.17,474.667 1090.5,474C 1085.24,471.644 1084.07,467.81 1087,462.5C 1090.26,459.048 1094.09,456.715 1098.5,455.5 Z"/></g>
<g><path style="opacity:1" fill="#070303" d="M 1225.5,462.5 C 1233.21,461.665 1240.54,462.831 1247.5,466C 1252.92,468.669 1254.58,472.836 1252.5,478.5C 1247.64,480.944 1242.48,481.944 1237,481.5C 1230.48,481.298 1223.98,480.798 1217.5,480C 1213.43,475.156 1213.77,470.49 1218.5,466C 1220.93,464.787 1223.26,463.621 1225.5,462.5 Z"/></g>
<g><path style="opacity:1" fill="#2a2a2c" d="M 1849.5,471.5 C 1924.78,482.993 2000.11,494.16 2075.5,505C 2078.99,506.478 2079.33,508.478 2076.5,511C 2000.85,500.251 1925.19,489.251 1849.5,478C 1848.23,475.837 1848.23,473.67 1849.5,471.5 Z"/></g>
<g><path style="opacity:1" fill="#0b0b0c" d="M 1401.5,489.5 C 1441.68,489.538 1466.85,508.872 1477,547.5C 1480.54,581.595 1467.37,606.762 1437.5,623C 1407.4,634.678 1380.56,629.511 1357,607.5C 1339.52,586.564 1334.52,562.898 1342,536.5C 1352.93,509.387 1372.76,493.72 1401.5,489.5 Z"/></g>
<g><path style="opacity:1" fill="#0b0505" d="M 1097.5,493.5 C 1108.8,492.544 1118.3,496.21 1126,504.5C 1126.72,507.125 1125.72,508.792 1123,509.5C 1119.84,507.014 1116.68,504.514 1113.5,502C 1103.02,497.496 1093.68,499.162 1085.5,507C 1079.85,506.364 1079.18,504.031 1083.5,500C 1087.88,496.975 1092.54,494.808 1097.5,493.5 Z"/></g>
<g><path style="opacity:1" fill="#d8e3f6" d="M 1398.5,496.5 C 1436.79,494.378 1460.96,511.711 1471,548.5C 1473.84,586.673 1457.01,611.173 1420.5,622C 1382.41,625.872 1357.58,609.705 1346,573.5C 1340.98,539.196 1354.15,514.696 1385.5,500C 1389.97,498.88 1394.31,497.714 1398.5,496.5 Z"/></g>
<g><path style="opacity:1" fill="#d28357" d="M 961.5,500.5 C 966.998,516.329 972.332,532.329 977.5,548.5C 976.998,549.521 976.332,549.688 975.5,549C 965.347,540.758 955.014,532.758 944.5,525C 943.552,524.517 942.552,524.351 941.5,524.5C 941.5,524.167 941.5,523.833 941.5,523.5C 942.496,523.586 943.329,523.252 944,522.5C 949.317,514.691 955.15,507.358 961.5,500.5 Z"/></g>
<g><path style="opacity:1" fill="#0d0706" d="M 1226.5,499.5 C 1237.47,498.767 1246.64,502.433 1254,510.5C 1255.17,514.667 1253.67,516.167 1249.5,515C 1242.14,506.625 1233.14,504.291 1222.5,508C 1219.5,509.166 1216.83,510.833 1214.5,513C 1211.76,514.08 1210.1,513.246 1209.5,510.5C 1209.53,508.971 1210.2,507.804 1211.5,507C 1216.31,503.927 1221.31,501.427 1226.5,499.5 Z"/></g>
<g><path style="opacity:1" fill="#060302" d="M 1099.5,504.5 C 1106.42,503.875 1110.92,506.875 1113,513.5C 1114.05,521.663 1113.38,529.663 1111,537.5C 1105,545.5 1099,545.5 1093,537.5C 1089.73,529.182 1089.73,520.849 1093,512.5C 1094.48,509.172 1096.65,506.506 1099.5,504.5 Z"/></g>
<g><path style="opacity:1" fill="#040202" d="M 1227.5,511.5 C 1236.21,510.046 1241.05,513.713 1242,522.5C 1243.57,531.027 1242.24,539.027 1238,546.5C 1227.93,552.149 1221.93,549.149 1220,537.5C 1217.59,527.259 1220.09,518.592 1227.5,511.5 Z"/></g>
<g><path style="opacity:1" fill="#292a2b" d="M 1842.5,518.5 C 1918.51,529.525 1994.51,540.692 2070.5,552C 2071.83,553.667 2071.83,555.333 2070.5,557C 2067.83,557.667 2065.17,557.667 2062.5,557C 1989.18,545.907 1915.85,534.907 1842.5,524C 1841.25,522.172 1841.25,520.339 1842.5,518.5 Z"/></g>
<g><path style="opacity:1" fill="#0a0504" d="M 1157.5,519.5 C 1160.13,519.293 1161.79,520.46 1162.5,523C 1159.73,540.057 1151.89,554.223 1139,565.5C 1134.46,575.985 1137.96,581.818 1149.5,583C 1150.83,584.667 1150.83,586.333 1149.5,588C 1140.11,589.388 1133.95,585.555 1131,576.5C 1129.83,571.023 1130.83,566.023 1134,561.5C 1139.41,556.759 1144.08,551.426 1148,545.5C 1151.87,537.051 1155.04,528.384 1157.5,519.5 Z"/></g>
<g><path style="opacity:1" fill="#c35752" d="M 1071.5,638.5 C 1063.96,607.676 1060.62,576.343 1061.5,544.5C 1061.5,542.833 1061.5,541.167 1061.5,539.5C 1062.17,533.986 1062.83,528.319 1063.5,522.5C 1083.91,532.334 1096.41,548.334 1101,570.5C 1105.04,599.406 1095.2,622.072 1071.5,638.5 Z"/></g>
<g><path style="opacity:1" fill="#000000" d="M 118.5,523.5 C 251.834,523.333 385.167,523.5 518.5,524C 519.833,525.667 519.833,527.333 518.5,529C 384.833,529.667 251.167,529.667 117.5,529C 116.243,526.924 116.576,525.09 118.5,523.5 Z"/></g>
<g><path style="opacity:1" fill="#c45853" d="M 1320.5,535.5 C 1314.15,563.572 1319.15,589.406 1335.5,613C 1306.01,623.997 1276.34,634.497 1246.5,644.5C 1242.84,640.668 1239.34,636.668 1236,632.5C 1221.68,607.253 1222.01,582.253 1237,557.5C 1259.44,530.097 1287.27,522.764 1320.5,535.5 Z"/></g>
<g><path style="opacity:1" fill="#000000" d="M 1061.5,544.5 C 1060.62,576.343 1063.96,607.676 1071.5,638.5C 1074.63,650.059 1078.46,661.392 1083,672.5C 1098.5,706.674 1124.34,728.84 1160.5,739C 1226.08,750.438 1288.75,741.771 1348.5,713C 1339.44,722.734 1329.77,731.734 1319.5,740C 1291.52,763.325 1259.85,779.825 1224.5,789.5C 1223.63,785.02 1222.3,780.687 1220.5,776.5C 1206.89,794.878 1193.89,813.711 1181.5,833C 1190.28,843.454 1199.45,853.62 1209,863.5C 1210.29,865.055 1210.96,866.721 1211,868.5C 1175.94,902.062 1141.77,936.396 1108.5,971.5C 1071.26,962.217 1038.26,945.05 1009.5,920C 980.604,894.047 962.77,861.88 956,823.5C 952.057,785.487 959.39,749.821 978,716.5C 989.584,698.334 1000.92,680.001 1012,661.5C 1033.49,624.539 1049.99,585.539 1061.5,544.5 Z"/></g>
<g><path style="opacity:1" fill="#292a2b" d="M 1835.5,564.5 C 1911.14,575.747 1986.81,586.914 2062.5,598C 2064.53,599.396 2064.86,601.062 2063.5,603C 2060.5,603.667 2057.5,603.667 2054.5,603C 1981.41,592.558 1908.41,581.558 1835.5,570C 1834.25,568.172 1834.25,566.339 1835.5,564.5 Z"/></g>
<g><path style="opacity:1" fill="#0d0605" d="M 1200.5,607.5 C 1207.68,607.898 1208.35,610.398 1202.5,615C 1183.97,628.38 1163.63,632.047 1141.5,626C 1137.51,623.561 1137.51,621.394 1141.5,619.5C 1159.27,624.809 1176.27,622.976 1192.5,614C 1195.42,612.054 1198.09,609.887 1200.5,607.5 Z"/></g>
<g><path style="opacity:1" fill="#292a2b" d="M 1828.5,611.5 C 1904.58,622.081 1980.58,633.248 2056.5,645C 2058.27,648.111 2057.44,649.944 2054,650.5C 1979.15,639.463 1904.31,628.296 1829.5,617C 1827.37,615.444 1827.03,613.611 1828.5,611.5 Z"/></g>
<g><path style="opacity:1" fill="#c45a55" d="M 1346.5,628.5 C 1347.38,628.369 1348.04,628.702 1348.5,629.5C 1347,631.833 1345.5,634.167 1344,636.5C 1322.77,660.348 1297.27,667.014 1267.5,656.5C 1293.71,646.897 1320.05,637.564 1346.5,628.5 Z"/></g>
<g><path style="opacity:1" fill="#292a2b" d="M 1821.5,657.5 C 1897.54,668.339 1973.54,679.506 2049.5,691C 2051.43,694.79 2050.26,696.623 2046,696.5C 1970.87,685.652 1895.87,674.319 1821,662.5C 1820.36,660.735 1820.53,659.068 1821.5,657.5 Z"/></g>
<g><path style="opacity:1" fill="#fefefe" d="M 1441.5,726.5 C 1448.41,734.913 1456.41,742.08 1465.5,748C 1478.33,762.167 1491.17,776.333 1504,790.5C 1504.67,791.167 1504.67,791.833 1504,792.5C 1498.59,798.397 1493.43,804.397 1488.5,810.5C 1456.57,848.935 1424.41,887.269 1392,925.5C 1391.62,924.944 1391.12,924.611 1390.5,924.5C 1385.78,919.423 1381.28,914.09 1377,908.5C 1374.58,905.568 1371.74,903.235 1368.5,901.5C 1351.87,905.715 1335.2,909.715 1318.5,913.5C 1301.57,917.753 1284.57,921.753 1267.5,925.5C 1266.89,925.376 1266.56,925.043 1266.5,924.5C 1324.86,858.475 1383.2,792.475 1441.5,726.5 Z"/></g>
<g><path style="opacity:1" fill="#fefefe" d="M 1836.5,730.5 C 1852.89,731.723 1869.23,733.556 1885.5,736C 1925.48,742.164 1965.48,748.164 2005.5,754C 2026.77,761.361 2035.6,776.194 2032,798.5C 2026.53,815.304 2015.03,823.971 1997.5,824.5C 1942.7,817.653 1888.03,809.82 1833.5,801C 1814.08,793.014 1805.92,778.514 1809,757.5C 1813.45,743.545 1822.62,734.545 1836.5,730.5 Z"/></g>
<g><path style="opacity:0.986" fill="#aac1e5" d="M 2083.5,874.5 C 2087.6,842.72 2092.26,811.053 2097.5,779.5C 2128.34,772.835 2150.17,783.835 2163,812.5C 2170.37,841.417 2161.2,863.25 2135.5,878C 2117.56,884.89 2100.23,883.723 2083.5,874.5 Z"/></g>
<g><path style="opacity:1" fill="#d8e4f7" d="M 1488.5,810.5 C 1500.2,817.352 1511.53,824.852 1522.5,833C 1529.03,838.699 1535.36,844.533 1541.5,850.5C 1516.53,856.953 1497.37,871.286 1484,893.5C 1467.35,923.773 1461.35,956.106 1466,990.5C 1468.82,1015.45 1474.32,1039.79 1482.5,1063.5C 1482.57,1066.43 1483.23,1069.09 1484.5,1071.5C 1502.68,1152.51 1532.02,1229.18 1572.5,1301.5C 1518.83,1301.5 1465.17,1301.5 1411.5,1301.5C 1411.5,1312.17 1411.5,1322.83 1411.5,1333.5C 1411.5,1333.83 1411.5,1334.17 1411.5,1334.5C 1400.96,1370.82 1390.96,1407.32 1381.5,1444C 1382.38,1458.46 1389.05,1469.13 1401.5,1476C 1404.73,1477.2 1408.06,1477.7 1411.5,1477.5C 1411.5,1525.17 1411.5,1572.83 1411.5,1620.5C 1365.91,1637.81 1319.24,1651.47 1271.5,1661.5C 1246.2,1540.48 1231.03,1418.15 1226,1294.5C 1222.48,1199.87 1228.48,1105.87 1244,1012.5C 1249.58,982.932 1256.08,953.598 1263.5,924.5C 1263.83,924.5 1264.17,924.5 1264.5,924.5C 1265.17,924.5 1265.83,924.5 1266.5,924.5C 1266.56,925.043 1266.89,925.376 1267.5,925.5C 1284.57,921.753 1301.57,917.753 1318.5,913.5C 1341.46,917.856 1364.63,921.856 1388,925.5C 1389.07,925.472 1389.9,925.139 1390.5,924.5C 1391.12,924.611 1391.62,924.944 1392,925.5C 1424.41,887.269 1456.57,848.935 1488.5,810.5 Z"/></g>
<g><path style="opacity:1" fill="#fefefe" d="M 1541.5,850.5 C 1546.55,850.337 1551.55,850.671 1556.5,851.5C 1574.33,857.812 1590.33,867.312 1604.5,880C 1641.47,914.529 1675.3,951.695 1706,991.5C 1764.97,1068.8 1822.47,1147.13 1878.5,1226.5C 1870.6,1239.28 1862.44,1251.95 1854,1264.5C 1844.92,1276.73 1836.09,1289.06 1827.5,1301.5C 1761.47,1302.83 1695.47,1302.83 1629.5,1301.5C 1629.5,1300.83 1629.17,1300.5 1628.5,1300.5C 1577.15,1240.86 1533.98,1175.52 1499,1104.5C 1494.2,1093.26 1489.7,1081.93 1485.5,1070.5C 1484.68,1068.01 1483.68,1065.68 1482.5,1063.5C 1474.32,1039.79 1468.82,1015.45 1466,990.5C 1461.35,956.106 1467.35,923.773 1484,893.5C 1497.37,871.286 1516.53,856.953 1541.5,850.5 Z"/></g>
<g><path style="opacity:1" fill="#d8e4f7" d="M 1260.5,920.5 C 1259.5,920.47 1258.84,920.97 1258.5,922C 1230.58,1027.46 1217.58,1134.8 1219.5,1244C 1219.86,1351.27 1229.03,1457.77 1247,1563.5C 1252.98,1596.55 1259.14,1629.55 1265.5,1662.5C 1219.12,1672.46 1172.12,1678.79 1124.5,1681.5C 1112.33,1627.84 1100.17,1574.17 1088,1520.5C 1078.04,1469.89 1068.54,1419.22 1059.5,1368.5C 1053.17,1330.03 1048.34,1291.37 1045,1252.5C 1040.85,1154.76 1064.35,1064.42 1115.5,981.5C 1142.02,938.923 1174.85,901.589 1214,869.5C 1229.06,886.993 1244.56,903.993 1260.5,920.5 Z"/></g>
<g><path style="opacity:0.976" fill="#aac1e5" d="M 2057.5,910.5 C 2069.03,911.244 2076.7,906.244 2080.5,895.5C 2105.29,886.609 2129.62,887.776 2153.5,899C 2177.05,914.774 2190.05,936.94 2192.5,965.5C 2139.5,965.5 2086.5,965.5 2033.5,965.5C 2035.82,944.548 2043.82,926.215 2057.5,910.5 Z"/></g>
<g><path style="opacity:1" fill="#080808" d="M 1390.5,924.5 C 1389.9,925.139 1389.07,925.472 1388,925.5C 1364.63,921.856 1341.46,917.856 1318.5,913.5C 1335.2,909.715 1351.87,905.715 1368.5,901.5C 1371.74,903.235 1374.58,905.568 1377,908.5C 1381.28,914.09 1385.78,919.423 1390.5,924.5 Z"/></g>
<g><path style="opacity:1" fill="#fefefe" d="M 1224.5,789.5 C 1238.6,834.249 1251.94,879.249 1264.5,924.5C 1264.17,924.5 1263.83,924.5 1263.5,924.5C 1262.5,923.167 1261.5,921.833 1260.5,920.5C 1244.56,903.993 1229.06,886.993 1214,869.5C 1174.85,901.589 1142.02,938.923 1115.5,981.5C 1043.31,1068.03 1007.31,1168.03 1007.5,1281.5C 1007.14,1317.2 1010.47,1352.53 1017.5,1387.5C 1017.74,1389.47 1017.41,1391.3 1016.5,1393C 997.044,1402.15 976.711,1408.49 955.5,1412C 945.455,1412.83 935.455,1412.5 925.5,1411C 916.197,1408.52 907.197,1405.18 898.5,1401C 849.021,1374.77 800.688,1346.77 753.5,1317C 702.997,1285.25 652.664,1253.25 602.5,1221C 566.424,1197.64 530.757,1173.81 495.5,1149.5C 519.385,1099.4 544.051,1049.73 569.5,1000.5C 685.269,1058.55 800.936,1116.88 916.5,1175.5C 979.581,1106.7 1043.58,1038.7 1108.5,971.5C 1141.77,936.396 1175.94,902.062 1211,868.5C 1210.96,866.721 1210.29,865.055 1209,863.5C 1199.45,853.62 1190.28,843.454 1181.5,833C 1193.89,813.711 1206.89,794.878 1220.5,776.5C 1222.3,780.687 1223.63,785.02 1224.5,789.5 Z"/></g>
<g><path style="opacity:1" fill="#0b0b0c" d="M 1260.5,920.5 C 1261.5,921.833 1262.5,923.167 1263.5,924.5C 1256.08,953.598 1249.58,982.932 1244,1012.5C 1228.48,1105.87 1222.48,1199.87 1226,1294.5C 1231.03,1418.15 1246.2,1540.48 1271.5,1661.5C 1269.56,1662.15 1267.56,1662.48 1265.5,1662.5C 1259.14,1629.55 1252.98,1596.55 1247,1563.5C 1229.03,1457.77 1219.86,1351.27 1219.5,1244C 1217.58,1134.8 1230.58,1027.46 1258.5,922C 1258.84,920.97 1259.5,920.47 1260.5,920.5 Z"/></g>
<g><path style="opacity:1" fill="#030404" d="M 1212.5,937.5 C 1229.29,937.073 1234.79,944.739 1229,960.5C 1219.81,968.036 1211.81,967.036 1205,957.5C 1201.66,948.527 1204.16,941.86 1212.5,937.5 Z"/></g>
<g><path style="opacity:0.993" fill="#ca7168" d="M 378.5,948.5 C 424.044,953.452 468.044,964.785 510.5,982.5C 494.046,1016.74 477.046,1050.74 459.5,1084.5C 415.096,1087.95 371.096,1085.29 327.5,1076.5C 293.483,1069.15 262.483,1055.32 234.5,1035C 227.968,1028.8 221.801,1022.3 216,1015.5C 211.864,1009.77 210.197,1003.43 211,996.5C 213.933,991.278 218.433,988.445 224.5,988C 267.508,985.44 310.175,988.273 352.5,996.5C 358.301,998.075 364.301,998.909 370.5,999C 364.894,997.185 359.227,995.685 353.5,994.5C 332.415,987.523 312.082,978.689 292.5,968C 283.596,960.28 284.93,954.947 296.5,952C 312.126,948.462 327.959,946.628 344,946.5C 355.496,947.264 366.996,947.93 378.5,948.5 Z"/></g>
<g><path style="opacity:1" fill="#fdfdfd" d="M 563.5,996.5 C 539.344,1046.81 514.677,1096.81 489.5,1146.5C 473.933,1136.89 458.933,1126.56 444.5,1115.5C 449.252,1105 454.252,1094.66 459.5,1084.5C 477.046,1050.74 494.046,1016.74 510.5,982.5C 512.655,979.537 514.822,976.537 517,973.5C 532.615,981.058 548.115,988.724 563.5,996.5 Z"/></g>
<g><path style="opacity:1" fill="#020202" d="M 1115.5,981.5 C 1064.35,1064.42 1040.85,1154.76 1045,1252.5C 1048.34,1291.37 1053.17,1330.03 1059.5,1368.5C 1046.64,1377.17 1033.14,1384.84 1019,1391.5C 1018.79,1389.94 1018.29,1388.61 1017.5,1387.5C 1010.47,1352.53 1007.14,1317.2 1007.5,1281.5C 1007.31,1168.03 1043.31,1068.03 1115.5,981.5 Z"/></g>
<g><path style="opacity:0.953" fill="#b1b6d3" d="M 353.5,994.5 C 359.227,995.685 364.894,997.185 370.5,999C 364.301,998.909 358.301,998.075 352.5,996.5C 352.833,995.833 353.167,995.167 353.5,994.5 Z"/></g>
<g><path style="opacity:1" fill="#0a0a0b" d="M 569.5,1000.5 C 544.051,1049.73 519.385,1099.4 495.5,1149.5C 491.542,1152.67 489.542,1151.67 489.5,1146.5C 514.677,1096.81 539.344,1046.81 563.5,996.5C 567.799,994.406 569.799,995.74 569.5,1000.5 Z"/></g>
<g><path style="opacity:0.989" fill="#fefefe" d="M 2302.5,1132.5 C 2302.5,1140.5 2302.5,1148.5 2302.5,1156.5C 2292.7,1214.13 2259.03,1248.63 2201.5,1260C 2142.68,1264.35 2101.18,1239.85 2077,1186.5C 2059.52,1131.88 2072.69,1086.38 2116.5,1050C 2157.76,1022.79 2200.43,1020.46 2244.5,1043C 2278.05,1063.61 2297.39,1093.44 2302.5,1132.5 Z"/></g>
<g><path style="opacity:0.981" fill="#aac2e5" d="M 67.5,1063.5 C 97.0175,1062.54 115.517,1076.21 123,1104.5C 125.591,1136.85 111.091,1156.35 79.5,1163C 50.9143,1164.07 32.7477,1150.9 25,1123.5C 21.9572,1091.08 36.1239,1071.08 67.5,1063.5 Z"/></g>
<g><path style="opacity:1" fill="#7a94f0" d="M 2205.5,1065.5 C 2210.07,1082.58 2214.07,1099.92 2217.5,1117.5C 2233.57,1125.2 2249.9,1132.37 2266.5,1139C 2251.83,1148.34 2236.83,1157.17 2221.5,1165.5C 2218.99,1183.43 2216.99,1201.43 2215.5,1219.5C 2202.35,1208.19 2189.35,1196.69 2176.5,1185C 2174.83,1184.33 2173.17,1184.33 2171.5,1185C 2156.19,1188.61 2140.85,1192.11 2125.5,1195.5C 2124.83,1195.17 2124.17,1194.83 2123.5,1194.5C 2130.92,1178.83 2137.92,1163 2144.5,1147C 2135.9,1131.65 2126.9,1116.48 2117.5,1101.5C 2118,1101.17 2118.5,1100.83 2119,1100.5C 2136.41,1103.18 2153.91,1104.68 2171.5,1105C 2183.42,1092.26 2194.75,1079.09 2205.5,1065.5 Z"/></g>
<g><path style="opacity:1" fill="#71747a" d="M 1482.5,1063.5 C 1483.68,1065.68 1484.68,1068.01 1485.5,1070.5C 1484.83,1070.5 1484.5,1070.83 1484.5,1071.5C 1483.23,1069.09 1482.57,1066.43 1482.5,1063.5 Z"/></g>
<g><path style="opacity:1" fill="#020202" d="M 1485.5,1070.5 C 1489.7,1081.93 1494.2,1093.26 1499,1104.5C 1533.98,1175.52 1577.15,1240.86 1628.5,1300.5C 1610.34,1301.5 1592.01,1301.83 1573.5,1301.5C 1573.17,1301.5 1572.83,1301.5 1572.5,1301.5C 1532.02,1229.18 1502.68,1152.51 1484.5,1071.5C 1484.5,1070.83 1484.83,1070.5 1485.5,1070.5 Z"/></g>
<g><path style="opacity:0.998" fill="#abc2e5" d="M 327.5,1076.5 C 371.096,1085.29 415.096,1087.95 459.5,1084.5C 454.252,1094.66 449.252,1105 444.5,1115.5C 458.933,1126.56 473.933,1136.89 489.5,1146.5C 489.542,1151.67 491.542,1152.67 495.5,1149.5C 530.757,1173.81 566.424,1197.64 602.5,1221C 652.664,1253.25 702.997,1285.25 753.5,1317C 800.688,1346.77 849.021,1374.77 898.5,1401C 907.197,1405.18 916.197,1408.52 925.5,1411C 935.455,1412.5 945.455,1412.83 955.5,1412C 976.711,1408.49 997.044,1402.15 1016.5,1393C 1017.41,1391.3 1017.74,1389.47 1017.5,1387.5C 1018.29,1388.61 1018.79,1389.94 1019,1391.5C 1033.14,1384.84 1046.64,1377.17 1059.5,1368.5C 1068.54,1419.22 1078.04,1469.89 1088,1520.5C 1100.17,1574.17 1112.33,1627.84 1124.5,1681.5C 1044.7,1685.58 965.704,1679.58 887.5,1663.5C 896.894,1620.37 906.227,1577.2 915.5,1534C 915.316,1532.62 914.649,1531.79 913.5,1531.5C 915.109,1530.23 916.942,1529.23 919,1528.5C 920.238,1525.07 919.071,1523.41 915.5,1523.5C 916.209,1522.6 917.209,1522.26 918.5,1522.5C 919.258,1516.97 920.258,1511.47 921.5,1506C 921.095,1505.05 920.428,1504.39 919.5,1504C 861.276,1491.92 803.276,1479.42 745.5,1466.5C 733.164,1419.19 719.831,1371.86 705.5,1324.5C 708.672,1320.84 708.005,1318.5 703.5,1317.5C 701.207,1309.91 699.207,1302.25 697.5,1294.5C 598.65,1321.93 499.983,1349.93 401.5,1378.5C 367.88,1330.2 344.38,1277.2 331,1219.5C 321.064,1172.04 319.897,1124.37 327.5,1076.5 Z"/></g>
<g><path style="opacity:1" fill="#060607" d="M 1177.5,1085.5 C 1193.15,1086.14 1198.32,1093.81 1193,1108.5C 1187.44,1114.92 1180.94,1116.09 1173.5,1112C 1167.94,1107.42 1166.11,1101.59 1168,1094.5C 1170.41,1090.59 1173.57,1087.59 1177.5,1085.5 Z"/></g>
<g><path style="opacity:1" fill="#0c0c0d" d="M 1291.5,1124.5 C 1344.82,1130.07 1398.15,1135.57 1451.5,1141C 1452.76,1143.21 1453.43,1145.71 1453.5,1148.5C 1451.78,1165.84 1449.94,1183.18 1448,1200.5C 1446.47,1201.72 1444.64,1202.39 1442.5,1202.5C 1390.11,1197.48 1337.78,1191.98 1285.5,1186C 1284.37,1181.92 1284.2,1177.75 1285,1173.5C 1286.6,1157.83 1288.27,1142.16 1290,1126.5C 1290.72,1125.96 1291.22,1125.29 1291.5,1124.5 Z"/></g>
<g><path style="opacity:1" fill="#d7e3f6" d="M 1295.5,1131.5 C 1346.15,1136.63 1396.82,1141.63 1447.5,1146.5C 1445.83,1163.17 1444.17,1179.83 1442.5,1196.5C 1391.84,1191.07 1341.17,1185.74 1290.5,1180.5C 1292.36,1164.19 1294.03,1147.86 1295.5,1131.5 Z"/></g>
<g><path style="opacity:0.987" fill="#aac2e5" d="M 228.5,1143.5 C 268.19,1143.7 292.69,1163.03 302,1201.5C 305.321,1236.71 291.155,1261.87 259.5,1277C 223.636,1288.05 195.136,1278.21 174,1247.5C 159.042,1216.1 163.209,1187.6 186.5,1162C 198.64,1151.46 212.64,1145.29 228.5,1143.5 Z"/></g>
<g><path style="opacity:0.987" fill="#aac2e5" d="M -0.5,1240.5 C -0.5,1238.17 -0.5,1235.83 -0.5,1233.5C 14.4265,1178.69 49.4265,1159.19 104.5,1175C 125.988,1185.44 139.821,1202.27 146,1225.5C 147.416,1230.41 148.249,1235.41 148.5,1240.5C 98.8333,1240.5 49.1667,1240.5 -0.5,1240.5 Z"/></g>
<g><path style="opacity:1" fill="#0c0c0c" d="M 920.5,1190.5 C 932.361,1194.52 942.527,1201.18 951,1210.5C 972.876,1238.82 985.71,1270.65 989.5,1306C 987.633,1306.71 986.133,1306.21 985,1304.5C 979.136,1271.79 966.469,1242.12 947,1215.5C 941.037,1209.69 934.704,1204.36 928,1199.5C 938.775,1228.29 939.108,1257.29 929,1286.5C 928.049,1291.48 925.716,1292.48 922,1289.5C 923.963,1282.26 925.963,1274.93 928,1267.5C 932.639,1241.84 929.473,1217.18 918.5,1193.5C 918.942,1192.26 919.609,1191.26 920.5,1190.5 Z"/></g>
<g><path style="opacity:1" fill="#040405" d="M 1176.5,1234.5 C 1190.01,1233.84 1196.18,1240.18 1195,1253.5C 1190.85,1261.34 1184.35,1264.17 1175.5,1262C 1168.16,1257.46 1165.66,1250.96 1168,1242.5C 1170.16,1239.02 1172.99,1236.36 1176.5,1234.5 Z"/></g>
<g><path style="opacity:0.984" fill="#aac2e5" d="M 224.5,1290.5 C 279.692,1288.22 315.858,1313.22 333,1365.5C 335.209,1373.38 336.709,1381.38 337.5,1389.5C 268.5,1389.5 199.5,1389.5 130.5,1389.5C 133.52,1358.29 146.52,1332.13 169.5,1311C 186.005,1299.07 204.339,1292.24 224.5,1290.5 Z"/></g>
<g><path style="opacity:0.998" fill="#e696b2" d="M 703.5,1317.5 C 670.818,1356.85 638.485,1396.52 606.5,1436.5C 579.16,1431.02 551.827,1425.35 524.5,1419.5C 524.737,1420.79 524.404,1421.79 523.5,1422.5C 523.67,1421.18 523.337,1420.01 522.5,1419C 519.141,1418.23 515.808,1417.4 512.5,1416.5C 502.086,1459.97 492.42,1503.64 483.5,1547.5C 394.11,1517.7 304.776,1487.7 215.5,1457.5C 213.71,1450.13 211.71,1442.79 209.5,1435.5C 209.818,1434.35 210.484,1433.52 211.5,1433C 274.822,1414.73 338.156,1396.56 401.5,1378.5C 499.983,1349.93 598.65,1321.93 697.5,1294.5C 699.207,1302.25 701.207,1309.91 703.5,1317.5 Z"/></g>
<g><path style="opacity:1" fill="#526274" d="M 1628.5,1300.5 C 1629.17,1300.5 1629.5,1300.83 1629.5,1301.5C 1610.83,1302.83 1592.17,1302.83 1573.5,1301.5C 1592.01,1301.83 1610.34,1301.5 1628.5,1300.5 Z"/></g>
<g><path style="opacity:0.994" fill="#a2c3e8" d="M 1572.5,1301.5 C 1572.83,1301.5 1573.17,1301.5 1573.5,1301.5C 1592.17,1302.83 1610.83,1302.83 1629.5,1301.5C 1695.47,1302.83 1761.47,1302.83 1827.5,1301.5C 1911.17,1301.5 1994.83,1301.5 2078.5,1301.5C 2078.5,1312.17 2078.5,1322.83 2078.5,1333.5C 2059.99,1333.17 2041.66,1333.5 2023.5,1334.5C 2004.74,1333.18 1986.07,1333.18 1967.5,1334.5C 1948.91,1333.51 1930.24,1333.18 1911.5,1333.5C 1892.99,1333.17 1874.66,1333.5 1856.5,1334.5C 1837.91,1333.51 1819.24,1333.18 1800.5,1333.5C 1781.66,1333.17 1762.99,1333.5 1744.5,1334.5C 1726.17,1334.5 1707.83,1334.5 1689.5,1334.5C 1671.01,1333.5 1652.34,1333.17 1633.5,1333.5C 1615.17,1333.5 1596.83,1333.5 1578.5,1333.5C 1559.66,1333.17 1540.99,1333.5 1522.5,1334.5C 1504.17,1334.5 1485.83,1334.5 1467.5,1334.5C 1449.01,1333.5 1430.34,1333.17 1411.5,1333.5C 1411.5,1322.83 1411.5,1312.17 1411.5,1301.5C 1465.17,1301.5 1518.83,1301.5 1572.5,1301.5 Z"/></g>
<g><path style="opacity:1" fill="#0b0708" d="M 703.5,1317.5 C 708.005,1318.5 708.672,1320.84 705.5,1324.5C 675.818,1360.02 646.652,1396.02 618,1432.5C 616.223,1434.79 614.056,1436.46 611.5,1437.5C 609.585,1437.78 607.919,1437.45 606.5,1436.5C 638.485,1396.52 670.818,1356.85 703.5,1317.5 Z"/></g>
<g><path style="opacity:1" fill="#e696b2" d="M 705.5,1324.5 C 719.831,1371.86 733.164,1419.19 745.5,1466.5C 700.556,1457.58 655.889,1447.91 611.5,1437.5C 614.056,1436.46 616.223,1434.79 618,1432.5C 646.652,1396.02 675.818,1360.02 705.5,1324.5 Z"/></g>
<g><path style="opacity:1" fill="#c89a88" d="M 1411.5,1334.5 C 1411.5,1334.17 1411.5,1333.83 1411.5,1333.5C 1430.34,1333.17 1449.01,1333.5 1467.5,1334.5C 1467.67,1335.49 1467.34,1336.16 1466.5,1336.5C 1448.53,1334.51 1430.2,1333.85 1411.5,1334.5 Z"/></g>
<g><path style="opacity:1" fill="#c89a87" d="M 1578.5,1333.5 C 1578.5,1333.83 1578.5,1334.17 1578.5,1334.5C 1559.76,1334.18 1541.09,1334.51 1522.5,1335.5C 1522.5,1335.17 1522.5,1334.83 1522.5,1334.5C 1540.99,1333.5 1559.66,1333.17 1578.5,1333.5 Z"/></g>
<g><path style="opacity:1" fill="#c3947f" d="M 1633.5,1333.5 C 1652.34,1333.17 1671.01,1333.5 1689.5,1334.5C 1671.17,1334.5 1652.83,1334.5 1634.5,1334.5C 1634.74,1335.79 1634.4,1336.79 1633.5,1337.5C 1633.5,1336.17 1633.5,1334.83 1633.5,1333.5 Z"/></g>
<g><path style="opacity:1" fill="#e06c26" d="M 1411.5,1334.5 C 1430.2,1333.85 1448.53,1334.51 1466.5,1336.5C 1458.71,1371.88 1450.71,1407.21 1442.5,1442.5C 1441.2,1453.87 1436.54,1463.7 1428.5,1472C 1423.5,1475.83 1417.83,1477.67 1411.5,1477.5C 1408.06,1477.7 1404.73,1477.2 1401.5,1476C 1389.05,1469.13 1382.38,1458.46 1381.5,1444C 1390.96,1407.32 1400.96,1370.82 1411.5,1334.5 Z"/></g>
<g><path style="opacity:1" fill="#7790ed" d="M 1467.5,1334.5 C 1485.83,1334.5 1504.17,1334.5 1522.5,1334.5C 1522.5,1334.83 1522.5,1335.17 1522.5,1335.5C 1516.14,1371.58 1509.48,1407.58 1502.5,1443.5C 1482.5,1443.5 1462.5,1443.5 1442.5,1443.5C 1442.5,1443.17 1442.5,1442.83 1442.5,1442.5C 1450.71,1407.21 1458.71,1371.88 1466.5,1336.5C 1467.34,1336.16 1467.67,1335.49 1467.5,1334.5 Z"/></g>
<g><path style="opacity:1" fill="#e06c25" d="M 1578.5,1334.5 C 1573.4,1370.8 1568.4,1407.13 1563.5,1443.5C 1563.5,1443.83 1563.5,1444.17 1563.5,1444.5C 1561.97,1452.24 1559.14,1459.57 1555,1466.5C 1545.57,1477.69 1534.07,1480.52 1520.5,1475C 1509.77,1468.04 1503.77,1458.2 1502.5,1445.5C 1502.5,1444.83 1502.5,1444.17 1502.5,1443.5C 1509.48,1407.58 1516.14,1371.58 1522.5,1335.5C 1541.09,1334.51 1559.76,1334.18 1578.5,1334.5 Z"/></g>
<g><path style="opacity:1" fill="#7790ed" d="M 1578.5,1333.5 C 1596.83,1333.5 1615.17,1333.5 1633.5,1333.5C 1633.5,1334.83 1633.5,1336.17 1633.5,1337.5C 1630.55,1371.84 1627.55,1406.17 1624.5,1440.5C 1623.6,1441.21 1623.26,1442.21 1623.5,1443.5C 1603.5,1443.5 1583.5,1443.5 1563.5,1443.5C 1568.4,1407.13 1573.4,1370.8 1578.5,1334.5C 1578.5,1334.17 1578.5,1333.83 1578.5,1333.5 Z"/></g>
<g><path style="opacity:1" fill="#e06c25" d="M 1689.5,1334.5 C 1687.68,1370.82 1686.01,1407.16 1684.5,1443.5C 1684.5,1444.5 1684.5,1445.5 1684.5,1446.5C 1682.54,1455.58 1678.54,1463.75 1672.5,1471C 1655.84,1481.7 1641.68,1479.2 1630,1463.5C 1626,1456.35 1624.17,1448.68 1624.5,1440.5C 1627.55,1406.17 1630.55,1371.84 1633.5,1337.5C 1634.4,1336.79 1634.74,1335.79 1634.5,1334.5C 1652.83,1334.5 1671.17,1334.5 1689.5,1334.5 Z"/></g>
<g><path style="opacity:1" fill="#7790ed" d="M 1689.5,1334.5 C 1707.83,1334.5 1726.17,1334.5 1744.5,1334.5C 1744.5,1370.83 1744.5,1407.17 1744.5,1443.5C 1724.5,1443.5 1704.5,1443.5 1684.5,1443.5C 1686.01,1407.16 1687.68,1370.82 1689.5,1334.5 Z"/></g>
<g><path style="opacity:1" fill="#e06c25" d="M 1800.5,1334.5 C 1802.53,1370.48 1804.2,1406.48 1805.5,1442.5C 1805.5,1443.83 1805.5,1445.17 1805.5,1446.5C 1803.81,1454.39 1800.64,1461.72 1796,1468.5C 1784.94,1478.55 1772.77,1480.05 1759.5,1473C 1751.57,1466.31 1746.91,1457.81 1745.5,1447.5C 1745.5,1409.83 1745.5,1372.17 1745.5,1334.5C 1763.83,1334.5 1782.17,1334.5 1800.5,1334.5 Z"/></g>
<g><path style="opacity:1" fill="#7791ed" d="M 1800.5,1333.5 C 1819.24,1333.18 1837.91,1333.51 1856.5,1334.5C 1859.96,1369.46 1862.96,1404.46 1865.5,1439.5C 1865.5,1440.83 1865.5,1442.17 1865.5,1443.5C 1845.42,1443.82 1825.42,1443.49 1805.5,1442.5C 1804.2,1406.48 1802.53,1370.48 1800.5,1334.5C 1800.5,1334.17 1800.5,1333.83 1800.5,1333.5 Z"/></g>
<g><path style="opacity:1" fill="#e06c26" d="M 1911.5,1333.5 C 1916.79,1369.45 1921.79,1405.45 1926.5,1441.5C 1926.36,1455.96 1920.36,1467.13 1908.5,1475C 1890.62,1481.14 1877.79,1475.64 1870,1458.5C 1867.68,1452.21 1866.18,1445.88 1865.5,1439.5C 1862.96,1404.46 1859.96,1369.46 1856.5,1334.5C 1874.66,1333.5 1892.99,1333.17 1911.5,1333.5 Z"/></g>
<g><path style="opacity:1" fill="#7791ed" d="M 1911.5,1333.5 C 1930.24,1333.18 1948.91,1333.51 1967.5,1334.5C 1974.16,1369.43 1980.49,1404.43 1986.5,1439.5C 1986.5,1440.83 1986.5,1442.17 1986.5,1443.5C 1966.83,1443.5 1947.17,1443.5 1927.5,1443.5C 1927.67,1442.51 1927.34,1441.84 1926.5,1441.5C 1921.79,1405.45 1916.79,1369.45 1911.5,1333.5 Z"/></g>
<g><path style="opacity:1" fill="#e06c26" d="M 2023.5,1334.5 C 2031.5,1370.5 2039.5,1406.5 2047.5,1442.5C 2047.58,1456.79 2041.58,1467.62 2029.5,1475C 2012.82,1480.78 2000.32,1475.94 1992,1460.5C 1990.19,1455.9 1988.69,1451.24 1987.5,1446.5C 1987.8,1443.94 1987.47,1441.61 1986.5,1439.5C 1980.49,1404.43 1974.16,1369.43 1967.5,1334.5C 1986.07,1333.18 2004.74,1333.18 2023.5,1334.5 Z"/></g>
<g><path style="opacity:0.992" fill="#7791ed" d="M 2078.5,1333.5 C 2088.83,1370.17 2099.17,1406.83 2109.5,1443.5C 2089.17,1443.5 2068.83,1443.5 2048.5,1443.5C 2048.5,1442.83 2048.17,1442.5 2047.5,1442.5C 2039.5,1406.5 2031.5,1370.5 2023.5,1334.5C 2041.66,1333.5 2059.99,1333.17 2078.5,1333.5 Z"/></g>
<g><path style="opacity:1" fill="#040404" d="M 1175.5,1383.5 C 1192.43,1382.25 1198.26,1389.58 1193,1405.5C 1184.53,1413.78 1176.53,1413.44 1169,1404.5C 1165.34,1395.53 1167.51,1388.53 1175.5,1383.5 Z"/></g>
<g><path style="opacity:1" fill="#b1919d" d="M 1800.5,1333.5 C 1800.5,1333.83 1800.5,1334.17 1800.5,1334.5C 1782.17,1334.5 1763.83,1334.5 1745.5,1334.5C 1745.5,1372.17 1745.5,1409.83 1745.5,1447.5C 1745.17,1447.5 1744.83,1447.5 1744.5,1447.5C 1744.5,1446.17 1744.5,1444.83 1744.5,1443.5C 1744.5,1407.17 1744.5,1370.83 1744.5,1334.5C 1762.99,1333.5 1781.66,1333.17 1800.5,1333.5 Z"/></g>
<g><path style="opacity:0.999" fill="#090708" d="M 523.5,1422.5 C 522.223,1427.49 521.39,1432.49 521,1437.5C 577.378,1497.71 633.545,1558.04 689.5,1618.5C 764.859,1586.82 840.192,1555.15 915.5,1523.5C 919.071,1523.41 920.238,1525.07 919,1528.5C 916.942,1529.23 915.109,1530.23 913.5,1531.5C 852.058,1556.47 791.058,1582.31 730.5,1609C 775.698,1659.03 821.698,1708.19 868.5,1756.5C 869.028,1757.72 869.695,1758.89 870.5,1760C 869.663,1761.01 869.33,1762.18 869.5,1763.5C 868.5,1763.5 867.5,1763.5 866.5,1763.5C 863.944,1762.46 861.777,1760.79 860,1758.5C 815.201,1709.37 770.034,1660.53 724.5,1612C 723.167,1611.33 721.833,1611.33 720.5,1612C 709.753,1616.41 699.086,1620.91 688.5,1625.5C 678.901,1616.73 669.734,1607.4 661,1597.5C 597.161,1625.05 532.994,1651.72 468.5,1677.5C 467.295,1683.52 465.962,1689.52 464.5,1695.5C 464.709,1696.09 465.043,1696.59 465.5,1697C 487.147,1701.1 508.48,1705.93 529.5,1711.5C 507.449,1717.29 485.449,1723.29 463.5,1729.5C 457.899,1728.12 452.232,1726.95 446.5,1726C 445.903,1724.94 445.57,1723.77 445.5,1722.5C 457.691,1667.04 469.691,1611.54 481.5,1556C 481.355,1555.23 481.022,1554.56 480.5,1554C 475.385,1552.46 470.385,1550.63 465.5,1548.5C 410.731,1616.38 355.731,1684.05 300.5,1751.5C 296.086,1749.84 295.419,1747.18 298.5,1743.5C 351.934,1678.16 405.267,1612.66 458.5,1547C 378.346,1518.92 298.013,1491.42 217.5,1464.5C 213.216,1463.02 212.549,1460.69 215.5,1457.5C 304.776,1487.7 394.11,1517.7 483.5,1547.5C 492.42,1503.64 502.086,1459.97 512.5,1416.5C 515.808,1417.4 519.141,1418.23 522.5,1419C 523.337,1420.01 523.67,1421.18 523.5,1422.5 Z"/></g>
<g><path style="opacity:1" fill="#fefefe" d="M 606.5,1436.5 C 607.919,1437.45 609.585,1437.78 611.5,1437.5C 655.889,1447.91 700.556,1457.58 745.5,1466.5C 803.276,1479.42 861.276,1491.92 919.5,1504C 920.428,1504.39 921.095,1505.05 921.5,1506C 920.258,1511.47 919.258,1516.97 918.5,1522.5C 917.209,1522.26 916.209,1522.6 915.5,1523.5C 840.192,1555.15 764.859,1586.82 689.5,1618.5C 633.545,1558.04 577.378,1497.71 521,1437.5C 521.39,1432.49 522.223,1427.49 523.5,1422.5C 524.404,1421.79 524.737,1420.79 524.5,1419.5C 551.827,1425.35 579.16,1431.02 606.5,1436.5 Z"/></g>
<g><path style="opacity:1" fill="#8cacf6" d="M 1986.5,1439.5 C 1987.47,1441.61 1987.8,1443.94 1987.5,1446.5C 1985.81,1454.39 1982.64,1461.73 1978,1468.5C 1964.61,1480.09 1950.94,1480.43 1937,1469.5C 1931.16,1461.82 1928,1453.15 1927.5,1443.5C 1947.17,1443.5 1966.83,1443.5 1986.5,1443.5C 1986.5,1442.17 1986.5,1440.83 1986.5,1439.5 Z"/></g>
<g><path style="opacity:0.986" fill="#8cacf6" d="M 2048.5,1443.5 C 2068.83,1443.5 2089.17,1443.5 2109.5,1443.5C 2108.06,1452.99 2104.56,1461.65 2099,1469.5C 2093.43,1475.37 2086.6,1478.03 2078.5,1477.5C 2063.46,1476.31 2053.96,1468.31 2050,1453.5C 2048.96,1450.24 2048.46,1446.91 2048.5,1443.5 Z"/></g>
<g><path style="opacity:1" fill="#fdfdfd" d="M 518.5,1444.5 C 564.817,1493.49 610.817,1542.82 656.5,1592.5C 594.979,1618.76 533.312,1644.76 471.5,1670.5C 471.167,1669.83 470.833,1669.17 470.5,1668.5C 486.636,1593.82 502.636,1519.15 518.5,1444.5 Z"/></g>
<g><path style="opacity:1" fill="#a2c2e7" d="M 1865.5,1439.5 C 1866.18,1445.88 1867.68,1452.21 1870,1458.5C 1877.79,1475.64 1890.62,1481.14 1908.5,1475C 1920.36,1467.13 1926.36,1455.96 1926.5,1441.5C 1927.34,1441.84 1927.67,1442.51 1927.5,1443.5C 1928,1453.15 1931.16,1461.82 1937,1469.5C 1950.94,1480.43 1964.61,1480.09 1978,1468.5C 1982.64,1461.73 1985.81,1454.39 1987.5,1446.5C 1988.69,1451.24 1990.19,1455.9 1992,1460.5C 2000.32,1475.94 2012.82,1480.78 2029.5,1475C 2041.58,1467.62 2047.58,1456.79 2047.5,1442.5C 2048.17,1442.5 2048.5,1442.83 2048.5,1443.5C 2048.46,1446.91 2048.96,1450.24 2050,1453.5C 2053.96,1468.31 2063.46,1476.31 2078.5,1477.5C 2078.5,1565.17 2078.5,1652.83 2078.5,1740.5C 1983.83,1740.5 1889.17,1740.5 1794.5,1740.5C 1794.5,1697.83 1794.5,1655.17 1794.5,1612.5C 1794.5,1608.5 1794.5,1604.5 1794.5,1600.5C 1761.5,1600.5 1728.5,1600.5 1695.5,1600.5C 1694.5,1646.66 1694.17,1693 1694.5,1739.5C 1600.17,1739.5 1505.83,1739.5 1411.5,1739.5C 1411.5,1699.83 1411.5,1660.17 1411.5,1620.5C 1411.5,1572.83 1411.5,1525.17 1411.5,1477.5C 1417.83,1477.67 1423.5,1475.83 1428.5,1472C 1436.54,1463.7 1441.2,1453.87 1442.5,1442.5C 1442.5,1442.83 1442.5,1443.17 1442.5,1443.5C 1442.8,1457.95 1449.14,1468.78 1461.5,1476C 1477.95,1480.53 1490.11,1475.36 1498,1460.5C 1499.82,1455.55 1501.32,1450.55 1502.5,1445.5C 1503.77,1458.2 1509.77,1468.04 1520.5,1475C 1534.07,1480.52 1545.57,1477.69 1555,1466.5C 1559.14,1459.57 1561.97,1452.24 1563.5,1444.5C 1564.01,1459.04 1570.68,1469.54 1583.5,1476C 1595.9,1480.04 1606.4,1477.21 1615,1467.5C 1619.93,1460.21 1622.76,1452.21 1623.5,1443.5C 1623.26,1442.21 1623.6,1441.21 1624.5,1440.5C 1624.17,1448.68 1626,1456.35 1630,1463.5C 1641.68,1479.2 1655.84,1481.7 1672.5,1471C 1678.54,1463.75 1682.54,1455.58 1684.5,1446.5C 1689.65,1473.54 1704.98,1482.37 1730.5,1473C 1738.45,1466.27 1743.11,1457.77 1744.5,1447.5C 1744.83,1447.5 1745.17,1447.5 1745.5,1447.5C 1746.91,1457.81 1751.57,1466.31 1759.5,1473C 1772.77,1480.05 1784.94,1478.55 1796,1468.5C 1800.64,1461.72 1803.81,1454.39 1805.5,1446.5C 1807.09,1459.87 1813.76,1469.7 1825.5,1476C 1846.31,1480.5 1859.48,1472.33 1865,1451.5C 1865.5,1448.85 1865.66,1446.19 1865.5,1443.5C 1865.5,1442.17 1865.5,1440.83 1865.5,1439.5 Z"/></g>
<g><path style="opacity:1" fill="#8cacf6" d="M 1805.5,1442.5 C 1825.42,1443.49 1845.42,1443.82 1865.5,1443.5C 1865.66,1446.19 1865.5,1448.85 1865,1451.5C 1859.48,1472.33 1846.31,1480.5 1825.5,1476C 1813.76,1469.7 1807.09,1459.87 1805.5,1446.5C 1805.5,1445.17 1805.5,1443.83 1805.5,1442.5 Z"/></g>
<g><path style="opacity:1" fill="#8cacf6" d="M 1684.5,1443.5 C 1704.5,1443.5 1724.5,1443.5 1744.5,1443.5C 1744.5,1444.83 1744.5,1446.17 1744.5,1447.5C 1743.11,1457.77 1738.45,1466.27 1730.5,1473C 1704.98,1482.37 1689.65,1473.54 1684.5,1446.5C 1684.5,1445.5 1684.5,1444.5 1684.5,1443.5 Z"/></g>
<g><path style="opacity:1" fill="#8cacf6" d="M 1563.5,1443.5 C 1583.5,1443.5 1603.5,1443.5 1623.5,1443.5C 1622.76,1452.21 1619.93,1460.21 1615,1467.5C 1606.4,1477.21 1595.9,1480.04 1583.5,1476C 1570.68,1469.54 1564.01,1459.04 1563.5,1444.5C 1563.5,1444.17 1563.5,1443.83 1563.5,1443.5 Z"/></g>
<g><path style="opacity:1" fill="#8cacf6" d="M 1442.5,1443.5 C 1462.5,1443.5 1482.5,1443.5 1502.5,1443.5C 1502.5,1444.17 1502.5,1444.83 1502.5,1445.5C 1501.32,1450.55 1499.82,1455.55 1498,1460.5C 1490.11,1475.36 1477.95,1480.53 1461.5,1476C 1449.14,1468.78 1442.8,1457.95 1442.5,1443.5 Z"/></g>
<g><path style="opacity:0.996" fill="#e696b2" d="M 217.5,1464.5 C 298.013,1491.42 378.346,1518.92 458.5,1547C 405.267,1612.66 351.934,1678.16 298.5,1743.5C 271.362,1650.63 244.362,1557.63 217.5,1464.5 Z"/></g>
<g><path style="opacity:1" fill="#fefffe" d="M 1896.5,1552.5 C 1795.5,1552.5 1694.5,1552.5 1593.5,1552.5C 1593.5,1534.17 1593.5,1515.83 1593.5,1497.5C 1694.5,1497.5 1795.5,1497.5 1896.5,1497.5C 1896.5,1515.83 1896.5,1534.17 1896.5,1552.5 Z"/></g>
<g><path style="opacity:0.998" fill="#fefefe" d="M 913.5,1531.5 C 914.649,1531.79 915.316,1532.62 915.5,1534C 906.227,1577.2 896.894,1620.37 887.5,1663.5C 881.038,1694.48 874.705,1725.48 868.5,1756.5C 821.698,1708.19 775.698,1659.03 730.5,1609C 791.058,1582.31 852.058,1556.47 913.5,1531.5 Z"/></g>
<g><path style="opacity:1" fill="#030303" d="M 1199.5,1531.5 C 1213.87,1531.69 1219.37,1538.69 1216,1552.5C 1211.53,1559.08 1205.36,1561.25 1197.5,1559C 1190.72,1554.67 1188.22,1548.5 1190,1540.5C 1192.41,1536.59 1195.57,1533.59 1199.5,1531.5 Z"/></g>
<g><path style="opacity:0.995" fill="#e696b2" d="M 463.5,1729.5 C 411.43,1745.07 359.097,1760.07 306.5,1774.5C 304.656,1766.79 302.656,1759.12 300.5,1751.5C 355.731,1684.05 410.731,1616.38 465.5,1548.5C 470.385,1550.63 475.385,1552.46 480.5,1554C 481.022,1554.56 481.355,1555.23 481.5,1556C 469.691,1611.54 457.691,1667.04 445.5,1722.5C 445.57,1723.77 445.903,1724.94 446.5,1726C 452.232,1726.95 457.899,1728.12 463.5,1729.5 Z"/></g>
<g><path style="opacity:1" fill="#080808" d="M 1593.5,1552.5 C 1694.5,1552.5 1795.5,1552.5 1896.5,1552.5C 1896.5,1555.83 1896.5,1559.17 1896.5,1562.5C 1795.5,1562.5 1694.5,1562.5 1593.5,1562.5C 1593.5,1559.17 1593.5,1555.83 1593.5,1552.5 Z"/></g>
<g><path style="opacity:1" fill="#97b6e9" d="M 1467.5,1590.5 C 1523.17,1589.17 1578.83,1589.17 1634.5,1590.5C 1608.17,1590.5 1581.83,1590.5 1555.5,1590.5C 1552.5,1590.5 1549.5,1590.5 1546.5,1590.5C 1546.5,1627.17 1546.5,1663.83 1546.5,1700.5C 1546.17,1700.5 1545.83,1700.5 1545.5,1700.5C 1545.5,1663.83 1545.5,1627.17 1545.5,1590.5C 1519.5,1590.5 1493.5,1590.5 1467.5,1590.5 Z"/></g>
<g><path style="opacity:1" fill="#94b2ea" d="M 1855.5,1590.5 C 1911.17,1589.17 1966.83,1589.17 2022.5,1590.5C 1996.5,1590.5 1970.5,1590.5 1944.5,1590.5C 1944.5,1627.17 1944.5,1663.83 1944.5,1700.5C 1944.17,1700.5 1943.83,1700.5 1943.5,1700.5C 1943.5,1663.83 1943.5,1627.17 1943.5,1590.5C 1940.5,1590.5 1937.5,1590.5 1934.5,1590.5C 1908.17,1590.5 1881.83,1590.5 1855.5,1590.5 Z"/></g>
<g><path style="opacity:1" fill="#7791ee" d="M 1467.5,1590.5 C 1493.5,1590.5 1519.5,1590.5 1545.5,1590.5C 1545.5,1627.17 1545.5,1663.83 1545.5,1700.5C 1519.5,1700.5 1493.5,1700.5 1467.5,1700.5C 1467.5,1663.83 1467.5,1627.17 1467.5,1590.5 Z"/></g>
<g><path style="opacity:1" fill="#a1c3e7" d="M 1555.5,1590.5 C 1555.5,1627.17 1555.5,1663.83 1555.5,1700.5C 1552.5,1700.5 1549.5,1700.5 1546.5,1700.5C 1546.5,1663.83 1546.5,1627.17 1546.5,1590.5C 1549.5,1590.5 1552.5,1590.5 1555.5,1590.5 Z"/></g>
<g><path style="opacity:1" fill="#7791ed" d="M 1555.5,1590.5 C 1581.83,1590.5 1608.17,1590.5 1634.5,1590.5C 1634.5,1627.17 1634.5,1663.83 1634.5,1700.5C 1634.17,1700.5 1633.83,1700.5 1633.5,1700.5C 1607.5,1700.5 1581.5,1700.5 1555.5,1700.5C 1555.5,1663.83 1555.5,1627.17 1555.5,1590.5 Z"/></g>
<g><path style="opacity:1" fill="#7791ed" d="M 1855.5,1590.5 C 1881.83,1590.5 1908.17,1590.5 1934.5,1590.5C 1934.5,1627.17 1934.5,1663.83 1934.5,1700.5C 1908.5,1700.5 1882.5,1700.5 1856.5,1700.5C 1856.17,1700.5 1855.83,1700.5 1855.5,1700.5C 1855.5,1663.83 1855.5,1627.17 1855.5,1590.5 Z"/></g>
<g><path style="opacity:1" fill="#a1c3e7" d="M 1934.5,1590.5 C 1937.5,1590.5 1940.5,1590.5 1943.5,1590.5C 1943.5,1627.17 1943.5,1663.83 1943.5,1700.5C 1940.5,1700.5 1937.5,1700.5 1934.5,1700.5C 1934.5,1663.83 1934.5,1627.17 1934.5,1590.5 Z"/></g>
<g><path style="opacity:1" fill="#7791ee" d="M 2022.5,1590.5 C 2022.5,1627.17 2022.5,1663.83 2022.5,1700.5C 1996.5,1700.5 1970.5,1700.5 1944.5,1700.5C 1944.5,1663.83 1944.5,1627.17 1944.5,1590.5C 1970.5,1590.5 1996.5,1590.5 2022.5,1590.5 Z"/></g>
<g><path style="opacity:0.995" fill="#fefefe" d="M 866.5,1763.5 C 865.01,1769.79 863.677,1776.13 862.5,1782.5C 861.5,1782.5 860.5,1782.5 859.5,1782.5C 749.745,1758.23 639.745,1734.57 529.5,1711.5C 508.48,1705.93 487.147,1701.1 465.5,1697C 465.043,1696.59 464.709,1696.09 464.5,1695.5C 465.962,1689.52 467.295,1683.52 468.5,1677.5C 532.994,1651.72 597.161,1625.05 661,1597.5C 669.734,1607.4 678.901,1616.73 688.5,1625.5C 699.086,1620.91 709.753,1616.41 720.5,1612C 721.833,1611.33 723.167,1611.33 724.5,1612C 770.034,1660.53 815.201,1709.37 860,1758.5C 861.777,1760.79 863.944,1762.46 866.5,1763.5 Z"/></g>
<g><path style="opacity:1" fill="#000000" d="M 1695.5,1600.5 C 1728.5,1600.5 1761.5,1600.5 1794.5,1600.5C 1794.5,1604.5 1794.5,1608.5 1794.5,1612.5C 1761.5,1612.5 1728.5,1612.5 1695.5,1612.5C 1695.5,1608.5 1695.5,1604.5 1695.5,1600.5 Z"/></g>
<g><path style="opacity:1" fill="#d08155" d="M 1695.5,1612.5 C 1728.5,1612.5 1761.5,1612.5 1794.5,1612.5C 1794.5,1655.17 1794.5,1697.83 1794.5,1740.5C 1794.5,1751.5 1794.5,1762.5 1794.5,1773.5C 1761.17,1773.5 1727.83,1773.5 1694.5,1773.5C 1694.5,1762.5 1694.5,1751.5 1694.5,1740.5C 1695.5,1698 1695.83,1655.34 1695.5,1612.5 Z"/></g>
<g><path style="opacity:1" fill="#000000" d="M 1856.5,1700.5 C 1882.5,1700.5 1908.5,1700.5 1934.5,1700.5C 1937.5,1700.5 1940.5,1700.5 1943.5,1700.5C 1943.83,1700.5 1944.17,1700.5 1944.5,1700.5C 1970.5,1700.5 1996.5,1700.5 2022.5,1700.5C 2022.5,1704.5 2022.5,1708.5 2022.5,1712.5C 1967.17,1712.5 1911.83,1712.5 1856.5,1712.5C 1856.5,1708.5 1856.5,1704.5 1856.5,1700.5 Z"/></g>
<g><path style="opacity:1" fill="#22293e" d="M 1467.5,1700.5 C 1467.5,1704.5 1467.5,1708.5 1467.5,1712.5C 1522.83,1712.5 1578.17,1712.5 1633.5,1712.5C 1633.5,1708.5 1633.5,1704.5 1633.5,1700.5C 1633.83,1700.5 1634.17,1700.5 1634.5,1700.5C 1634.5,1704.83 1634.5,1709.17 1634.5,1713.5C 1578.5,1713.5 1522.5,1713.5 1466.5,1713.5C 1466.18,1708.97 1466.52,1704.63 1467.5,1700.5 Z"/></g>
<g><path style="opacity:1" fill="#000000" d="M 1467.5,1700.5 C 1493.5,1700.5 1519.5,1700.5 1545.5,1700.5C 1545.83,1700.5 1546.17,1700.5 1546.5,1700.5C 1549.5,1700.5 1552.5,1700.5 1555.5,1700.5C 1581.5,1700.5 1607.5,1700.5 1633.5,1700.5C 1633.5,1704.5 1633.5,1708.5 1633.5,1712.5C 1578.17,1712.5 1522.83,1712.5 1467.5,1712.5C 1467.5,1708.5 1467.5,1704.5 1467.5,1700.5 Z"/></g>
<g><path style="opacity:1" fill="#20273b" d="M 1855.5,1700.5 C 1855.83,1700.5 1856.17,1700.5 1856.5,1700.5C 1856.5,1704.5 1856.5,1708.5 1856.5,1712.5C 1911.83,1712.5 1967.17,1712.5 2022.5,1712.5C 1967,1713.5 1911.34,1713.83 1855.5,1713.5C 1855.5,1709.17 1855.5,1704.83 1855.5,1700.5 Z"/></g>
<g><path style="opacity:1" fill="#8894a8" d="M 1695.5,1600.5 C 1695.5,1604.5 1695.5,1608.5 1695.5,1612.5C 1695.83,1655.34 1695.5,1698 1694.5,1740.5C 1600.17,1740.5 1505.83,1740.5 1411.5,1740.5C 1411.5,1740.17 1411.5,1739.83 1411.5,1739.5C 1505.83,1739.5 1600.17,1739.5 1694.5,1739.5C 1694.17,1693 1694.5,1646.66 1695.5,1600.5 Z"/></g>
<g><path style="opacity:1" fill="#000000" d="M 1411.5,1740.5 C 1505.83,1740.5 1600.17,1740.5 1694.5,1740.5C 1694.5,1751.5 1694.5,1762.5 1694.5,1773.5C 1600.17,1773.5 1505.83,1773.5 1411.5,1773.5C 1411.5,1762.5 1411.5,1751.5 1411.5,1740.5 Z"/></g>
<g><path style="opacity:1" fill="#000000" d="M 1794.5,1740.5 C 1889.17,1740.5 1983.83,1740.5 2078.5,1740.5C 2078.5,1751.5 2078.5,1762.5 2078.5,1773.5C 1983.83,1773.5 1889.17,1773.5 1794.5,1773.5C 1794.5,1762.5 1794.5,1751.5 1794.5,1740.5 Z"/></g>
</svg>
