<?xml version="1.0" standalone="no"?>
<!DOCTYPE svg PUBLIC "-//W3C//DTD SVG 20010904//EN"
 "http://www.w3.org/TR/2001/REC-SVG-20010904/DTD/svg10.dtd">
<svg version="1.0" xmlns="http://www.w3.org/2000/svg"
 width="64.000000pt" height="64.000000pt" viewBox="0 0 64.000000 64.000000"
 preserveAspectRatio="xMidYMid meet">

<g transform="translate(0.000000,64.000000) scale(0.100000,-0.100000)"
fill="#000000" stroke="none">
<path d="M16 618 c-13 -19 -16 -57 -16 -220 0 -237 1 -238 100 -238 38 0 70
-6 85 -16 18 -12 28 -13 44 -5 28 16 35 14 46 -11 14 -31 78 -33 83 -3 7 36
21 39 43 9 13 -16 46 -53 76 -81 60 -60 90 -67 128 -28 33 32 31 57 -6 100
-23 26 -27 35 -15 35 9 0 25 9 36 20 19 19 20 33 20 218 0 163 -3 201 -16 220
-15 22 -17 22 -304 22 -287 0 -289 0 -304 -22z m592 -50 l3 -38 -290 0 -291 0
0 33 c0 19 3 37 7 40 4 4 133 6 287 5 l281 -3 3 -37z m0 -220 l-3 -153 -43 -3
c-33 -2 -52 3 -78 20 -19 13 -34 26 -34 29 0 3 12 11 26 17 36 17 31 71 -8 90
-25 11 -26 15 -16 38 10 21 8 28 -10 47 -19 19 -26 20 -52 10 -29 -11 -32 -10
-42 13 -12 25 -48 41 -68 29 -6 -4 -15 -18 -21 -32 -8 -21 -13 -24 -40 -18
-22 5 -36 2 -50 -11 -20 -18 -25 -49 -9 -59 17 -11 11 -25 -16 -35 -22 -9 -25
-15 -22 -47 2 -30 8 -39 25 -41 12 -2 24 -9 27 -17 9 -24 -20 -36 -81 -33
l-58 3 -3 153 -3 152 291 0 291 0 -3 -152z m-285 92 c7 -28 47 -42 68 -24 14
13 18 12 29 -1 10 -12 10 -18 1 -29 -16 -20 2 -54 35 -66 31 -12 31 -28 -1
-40 -24 -9 -27 -15 -29 -70 -1 -20 -6 -24 -24 -23 -33 4 -62 -14 -62 -37 0
-13 -7 -20 -20 -20 -11 0 -20 7 -20 15 0 23 -50 39 -74 25 -24 -15 -42 1 -28
26 14 25 -4 61 -34 68 -29 8 -31 32 -3 41 28 9 46 50 30 69 -18 21 -4 37 24
30 30 -8 65 12 65 36 0 27 36 26 43 0z m157 -258 c0 -16 -39 -44 -50 -37 -8 5
-6 13 6 26 17 19 44 26 44 11z m82 -59 c39 -38 46 -61 26 -81 -22 -22 -54 -12
-93 28 l-39 40 24 25 c13 14 28 25 34 25 6 0 27 -17 48 -37z"/>
<path d="M65 570 c3 -5 10 -10 16 -10 5 0 9 5 9 10 0 6 -7 10 -16 10 -8 0 -12
-4 -9 -10z"/>
<path d="M120 570 c0 -5 4 -10 9 -10 6 0 13 5 16 10 3 6 -1 10 -9 10 -9 0 -16
-4 -16 -10z"/>
<path d="M170 570 c0 -5 7 -10 15 -10 8 0 15 5 15 10 0 6 -7 10 -15 10 -8 0
-15 -4 -15 -10z"/>
<path d="M385 570 c3 -5 46 -10 96 -10 53 0 89 4 89 10 0 6 -39 10 -96 10 -61
0 -93 -4 -89 -10z"/>
<path d="M259 375 c-33 -18 -53 -64 -44 -104 15 -68 111 -96 160 -47 34 34 40
68 20 109 -25 54 -82 71 -136 42z m101 -35 c29 -29 26 -74 -6 -99 -34 -26 -54
-26 -88 0 -30 24 -34 63 -10 97 20 29 76 30 104 2z"/>
</g>
</svg>
