<svg width="15" height="16" viewBox="0 0 15 16" fill="none" xmlns="http://www.w3.org/2000/svg">
<rect width="15" height="16" fill="#E5E5E5"/>
<g clip-path="url(#clip0)">
<rect width="1440" height="900" transform="translate(-631 -542)" fill="white"/>
<g clip-path="url(#clip1)">
<rect width="1440" height="1024" transform="translate(-631 -542)" fill="#E9EDF5"/>
<rect x="-306" y="-382" width="1091" height="702" rx="5" fill="white"/>
<path d="M-36.93 -0.702C-36.93 0.184667 -37.252 0.88 -37.896 1.384C-38.54 1.888 -39.422 2.14 -40.542 2.14C-41.0833 2.14 -41.5967 2.09333 -42.082 2C-42.558 1.916 -42.964 1.79 -43.3 1.622V0.194C-42.9267 0.362 -42.488 0.516 -41.984 0.656C-41.48 0.786667 -40.9667 0.852 -40.444 0.852C-39.772 0.852 -39.268 0.721333 -38.932 0.46C-38.596 0.198667 -38.428 -0.151333 -38.428 -0.59C-38.428 -0.898 -38.5073 -1.15467 -38.666 -1.36C-38.8153 -1.57467 -39.0533 -1.77067 -39.38 -1.948C-39.7067 -2.12533 -40.136 -2.32133 -40.668 -2.536C-41.1627 -2.72267 -41.6013 -2.942 -41.984 -3.194C-42.3573 -3.446 -42.6513 -3.75867 -42.866 -4.132C-43.0807 -4.50533 -43.188 -4.96267 -43.188 -5.504C-43.188 -6.32533 -42.8893 -6.96933 -42.292 -7.436C-41.6947 -7.90267 -40.9107 -8.136 -39.94 -8.136C-39.3987 -8.136 -38.8993 -8.08 -38.442 -7.968C-37.9753 -7.86533 -37.532 -7.72067 -37.112 -7.534L-37.588 -6.288C-37.9707 -6.44667 -38.3627 -6.57733 -38.764 -6.68C-39.156 -6.78267 -39.562 -6.834 -39.982 -6.834C-40.5327 -6.834 -40.9527 -6.71267 -41.242 -6.47C-41.5313 -6.22733 -41.676 -5.91 -41.676 -5.518C-41.676 -5.21 -41.606 -4.94867 -41.466 -4.734C-41.326 -4.52867 -41.102 -4.342 -40.794 -4.174C-40.486 -4.006 -40.08 -3.81933 -39.576 -3.614C-39.016 -3.39 -38.54 -3.152 -38.148 -2.9C-37.7467 -2.65733 -37.4433 -2.35867 -37.238 -2.004C-37.0327 -1.65867 -36.93 -1.22467 -36.93 -0.702ZM-28.6447 -5.546V2H-29.8347L-30.0447 1.006H-30.1147C-30.3574 1.398 -30.6934 1.68733 -31.1227 1.874C-31.5521 2.05133 -32.0047 2.14 -32.4807 2.14C-33.3674 2.14 -34.0441 1.92067 -34.5107 1.482C-34.9774 1.04333 -35.2107 0.348 -35.2107 -0.604V-5.546H-33.7127V-0.828C-33.7127 0.338667 -33.2041 0.922 -32.1867 0.922C-31.4121 0.922 -30.8754 0.693333 -30.5767 0.236C-30.2781 -0.221333 -30.1287 -0.874667 -30.1287 -1.724V-5.546H-28.6447ZM-24.8384 -8.64V-6.078C-24.8384 -5.77 -24.8477 -5.476 -24.8664 -5.196C-24.885 -4.916 -24.899 -4.70133 -24.9084 -4.552H-24.8384C-24.633 -4.86933 -24.3484 -5.13533 -23.9844 -5.35C-23.611 -5.56467 -23.135 -5.672 -22.5564 -5.672C-21.651 -5.672 -20.923 -5.34533 -20.3724 -4.692C-19.8124 -4.03867 -19.5324 -3.068 -19.5324 -1.78C-19.5324 -0.482667 -19.8124 0.497333 -20.3724 1.16C-20.9324 1.81333 -21.665 2.14 -22.5704 2.14C-23.1584 2.14 -23.6344 2.03733 -23.9984 1.832C-24.353 1.61733 -24.633 1.36533 -24.8384 1.076H-24.9504L-25.2304 2H-26.3224V-8.64H-24.8384ZM-22.9064 -4.468C-23.6344 -4.468 -24.1384 -4.25333 -24.4184 -3.824C-24.6984 -3.404 -24.8384 -2.75533 -24.8384 -1.878V-1.766C-24.8384 -0.898 -24.703 -0.230667 -24.4324 0.236C-24.1524 0.693333 -23.6344 0.922 -22.8784 0.922C-22.281 0.922 -21.8284 0.688667 -21.5204 0.222C-21.2124 -0.244667 -21.0584 -0.916667 -21.0584 -1.794C-21.0584 -3.57667 -21.6744 -4.468 -22.9064 -4.468ZM-18.2847 -1.122V-2.382H-14.8127V-1.122H-18.2847ZM-6.73102 2L-7.79502 -0.884H-11.659L-12.723 2H-14.291L-10.497 -8.038H-8.92902L-5.14901 2H-6.73102ZM-8.21502 -2.2L-9.22302 -5.014C-9.25102 -5.11667 -9.30235 -5.27067 -9.37702 -5.476C-9.44235 -5.68133 -9.50768 -5.896 -9.57302 -6.12C-9.63835 -6.344 -9.68968 -6.526 -9.72702 -6.666C-9.80168 -6.37667 -9.88568 -6.06867 -9.97902 -5.742C-10.0723 -5.41533 -10.147 -5.17267 -10.203 -5.014L-11.211 -2.2H-8.21502ZM-1.37886 2.14C-2.28419 2.14 -3.01686 1.81333 -3.57686 1.16C-4.12753 0.506667 -4.40286 -0.464 -4.40286 -1.752C-4.40286 -3.04933 -4.12286 -4.02933 -3.56286 -4.692C-3.00286 -5.35467 -2.26553 -5.686 -1.35086 -5.686C-0.781526 -5.686 -0.314859 -5.57867 0.0491407 -5.364C0.413141 -5.14933 0.707141 -4.888 0.931141 -4.58H1.01514C0.996474 -4.70133 0.973141 -4.888 0.945141 -5.14C0.917141 -5.392 0.903141 -5.616 0.903141 -5.812V-8.64H2.38714V2H1.22514L0.973141 0.992H0.903141C0.688474 1.31867 0.399141 1.594 0.0351409 1.818C-0.328859 2.03267 -0.800193 2.14 -1.37886 2.14ZM-1.02886 0.922C-0.300859 0.922 0.212474 0.721333 0.511141 0.32C0.809808 -0.0906667 0.959141 -0.702 0.959141 -1.514V-1.738C0.959141 -2.61533 0.814474 -3.28733 0.525141 -3.754C0.245141 -4.23 -0.277526 -4.468 -1.04286 -4.468C-1.64953 -4.468 -2.10686 -4.22067 -2.41486 -3.726C-2.72286 -3.24067 -2.87686 -2.57333 -2.87686 -1.724C-2.87686 -0.874667 -2.72286 -0.221333 -2.41486 0.236C-2.10686 0.693333 -1.64486 0.922 -1.02886 0.922ZM13.1688 -5.686C14.0181 -5.686 14.6574 -5.46667 15.0868 -5.028C15.5161 -4.58933 15.7308 -3.88467 15.7308 -2.914V2H14.2468V-2.718C14.2468 -3.88467 13.7754 -4.468 12.8328 -4.468C12.1608 -4.468 11.6801 -4.258 11.3908 -3.838C11.1014 -3.42733 10.9568 -2.83467 10.9568 -2.06V2H9.48678V-2.718C9.48678 -3.88467 9.01078 -4.468 8.05878 -4.468C7.34945 -4.468 6.85945 -4.23933 6.58878 -3.782C6.32745 -3.32467 6.19678 -2.66667 6.19678 -1.808V2H4.71278V-5.546H5.88878L6.09878 -4.538H6.18278C6.40678 -4.93 6.71945 -5.21933 7.12078 -5.406C7.52211 -5.59267 7.94678 -5.686 8.39478 -5.686C9.56145 -5.686 10.3268 -5.28 10.6908 -4.468H10.8028C11.0454 -4.888 11.3814 -5.196 11.8108 -5.392C12.2401 -5.588 12.6928 -5.686 13.1688 -5.686ZM18.7578 -8.416C18.9818 -8.416 19.1778 -8.35067 19.3458 -8.22C19.5138 -8.08933 19.5978 -7.87 19.5978 -7.562C19.5978 -7.26333 19.5138 -7.044 19.3458 -6.904C19.1778 -6.77333 18.9818 -6.708 18.7578 -6.708C18.5152 -6.708 18.3098 -6.77333 18.1418 -6.904C17.9832 -7.044 17.9038 -7.26333 17.9038 -7.562C17.9038 -7.87 17.9832 -8.08933 18.1418 -8.22C18.3098 -8.35067 18.5152 -8.416 18.7578 -8.416ZM19.4858 -5.546V2H18.0018V-5.546H19.4858ZM25.6383 -5.686C26.5156 -5.686 27.1876 -5.46667 27.6543 -5.028C28.121 -4.58933 28.3543 -3.88467 28.3543 -2.914V2H26.8843V-2.704C26.8843 -3.88 26.3663 -4.468 25.3303 -4.468C24.5556 -4.468 24.0236 -4.23933 23.7343 -3.782C23.445 -3.32467 23.3003 -2.66667 23.3003 -1.808V2H21.8163V-5.546H22.9923L23.2023 -4.538H23.2863C23.529 -4.93 23.8603 -5.21933 24.2803 -5.406C24.7096 -5.59267 25.1623 -5.686 25.6383 -5.686Z" fill="#7B889A"/>
</g>
<rect opacity="0.8" x="-631" y="-542" width="1440" height="900" fill="black"/>
<g filter="url(#filter0_d)">
<rect x="-203" y="-502" width="585" height="777" rx="5" fill="white"/>
</g>
<path opacity="0.8" d="M-170 -72C-170 -74.7614 -167.761 -77 -165 -77H355C357.761 -77 360 -74.7614 360 -72V37C360 39.7614 357.761 42 355 42H-165C-167.761 42 -170 39.7614 -170 37V-72Z" fill="#F6F6F6"/>
<rect opacity="0.05" x="-32" y="-13" width="311" height="40" rx="5" fill="#1E2350"/>
<path d="M14 7.5632L7.8539 13.8056C7.10095 14.5704 6.07974 15 5.01492 15C3.9501 15 2.92889 14.5704 2.17594 13.8056C1.423 13.0409 1 12.0037 1 10.9222C1 9.84064 1.423 8.80342 2.17594 8.03868L8.32204 1.79625C8.82401 1.28642 9.50481 1 10.2147 1C10.9246 1 11.6054 1.28642 12.1073 1.79625C12.6093 2.30608 12.8913 2.99756 12.8913 3.71856C12.8913 4.43957 12.6093 5.13105 12.1073 5.64088L5.95456 11.8833C5.70358 12.1382 5.36317 12.2814 5.00823 12.2814C4.65329 12.2814 4.31289 12.1382 4.06191 11.8833C3.81093 11.6284 3.66993 11.2827 3.66993 10.9222C3.66993 10.5616 3.81093 10.2159 4.06191 9.961L9.73986 4.20084" stroke="#1E2350" stroke-width="1.2" stroke-linecap="round" stroke-linejoin="round"/>
</g>
<defs>
<filter id="filter0_d" x="-207" y="-502" width="593" height="785" filterUnits="userSpaceOnUse" color-interpolation-filters="sRGB">
<feFlood flood-opacity="0" result="BackgroundImageFix"/>
<feColorMatrix in="SourceAlpha" type="matrix" values="0 0 0 0 0 0 0 0 0 0 0 0 0 0 0 0 0 0 127 0"/>
<feOffset dy="4"/>
<feGaussianBlur stdDeviation="2"/>
<feColorMatrix type="matrix" values="0 0 0 0 0 0 0 0 0 0 0 0 0 0 0 0 0 0 0.25 0"/>
<feBlend mode="normal" in2="BackgroundImageFix" result="effect1_dropShadow"/>
<feBlend mode="normal" in="SourceGraphic" in2="effect1_dropShadow" result="shape"/>
</filter>
<clipPath id="clip0">
<rect width="1440" height="900" fill="white" transform="translate(-631 -542)"/>
</clipPath>
<clipPath id="clip1">
<rect width="1440" height="1024" fill="white" transform="translate(-631 -542)"/>
</clipPath>
</defs>
</svg>
