<svg width="17" height="14" viewBox="0 0 17 14" fill="none" xmlns="http://www.w3.org/2000/svg">
<rect width="17" height="14" fill="#E5E5E5"/>
<g clip-path="url(#clip0)">
<rect width="1440" height="900" transform="translate(-477 -483)" fill="white"/>
<g clip-path="url(#clip1)">
<rect width="1440" height="1024" transform="translate(-477 -483)" fill="#E9EDF5"/>
<rect x="-152" y="-323" width="1091" height="702" rx="5" fill="white"/>
<rect opacity="0.2" x="-152" y="-196" width="1091" height="216" rx="5" fill="#E9EDF5"/>
</g>
<rect opacity="0.8" x="-477" y="-483" width="1440" height="900" fill="black"/>
<g filter="url(#filter0_d)">
<rect x="-49" y="-443" width="585" height="777" rx="5" fill="white"/>
</g>
<path opacity="0.8" d="M-16 -13C-16 -15.7614 -13.7614 -18 -11 -18H509C511.761 -18 514 -15.7614 514 -13V96C514 98.7614 511.761 101 509 101H-11C-13.7614 101 -16 98.7614 -16 96V-13Z" fill="#F6F6F6"/>
<path d="M11.6667 13V11.6667C11.6667 10.9594 11.3857 10.2811 10.8856 9.78105C10.3855 9.28095 9.70724 9 9 9H3.66667C2.95942 9 2.28115 9.28095 1.78105 9.78105C1.28095 10.2811 1 10.9594 1 11.6667V13" stroke="#403F3F" stroke-width="1.5" stroke-linecap="round" stroke-linejoin="round"/>
<path d="M6.33329 6.33333C7.80605 6.33333 8.99996 5.13943 8.99996 3.66667C8.99996 2.19391 7.80605 1 6.33329 1C4.86053 1 3.66663 2.19391 3.66663 3.66667C3.66663 5.13943 4.86053 6.33333 6.33329 6.33333Z" stroke="#403F3F" stroke-width="1.5" stroke-linecap="round" stroke-linejoin="round"/>
<path d="M15.6666 13V11.6667C15.6662 11.0758 15.4695 10.5019 15.1075 10.0349C14.7455 9.56791 14.2387 9.23438 13.6666 9.08667" stroke="#403F3F" stroke-width="1.5" stroke-linecap="round" stroke-linejoin="round"/>
<path d="M11 1.08667C11.5736 1.23354 12.082 1.56714 12.4451 2.03488C12.8082 2.50262 13.0052 3.07789 13.0052 3.67C13.0052 4.26212 12.8082 4.83739 12.4451 5.30513C12.082 5.77287 11.5736 6.10647 11 6.25334" stroke="#403F3F" stroke-width="1.5" stroke-linecap="round" stroke-linejoin="round"/>
</g>
<defs>
<filter id="filter0_d" x="-53" y="-443" width="593" height="785" filterUnits="userSpaceOnUse" color-interpolation-filters="sRGB">
<feFlood flood-opacity="0" result="BackgroundImageFix"/>
<feColorMatrix in="SourceAlpha" type="matrix" values="0 0 0 0 0 0 0 0 0 0 0 0 0 0 0 0 0 0 127 0"/>
<feOffset dy="4"/>
<feGaussianBlur stdDeviation="2"/>
<feColorMatrix type="matrix" values="0 0 0 0 0 0 0 0 0 0 0 0 0 0 0 0 0 0 0.25 0"/>
<feBlend mode="normal" in2="BackgroundImageFix" result="effect1_dropShadow"/>
<feBlend mode="normal" in="SourceGraphic" in2="effect1_dropShadow" result="shape"/>
</filter>
<clipPath id="clip0">
<rect width="1440" height="900" fill="white" transform="translate(-477 -483)"/>
</clipPath>
<clipPath id="clip1">
<rect width="1440" height="1024" fill="white" transform="translate(-477 -483)"/>
</clipPath>
</defs>
</svg>
