<svg width="24" height="24" viewBox="0 0 24 24" fill="none" xmlns="http://www.w3.org/2000/svg">
<rect width="24" height="24" fill="#E5E5E5"/>
<g clip-path="url(#clip0)">
<rect width="1440" height="900" transform="translate(-366 -417)" fill="white"/>
<rect opacity="0.8" x="-366" y="-417" width="1440" height="900" fill="black"/>
<g filter="url(#filter0_d)">
<rect x="-41" y="-377" width="790" height="688" rx="5" fill="white"/>
</g>
<path opacity="0.8" d="M-16 -69C-16 -71.7614 -13.7614 -74 -11 -74H334C336.761 -74 339 -71.7614 339 -69V113C339 115.761 336.761 118 334 118H-11C-13.7614 118 -16 115.761 -16 113V-69Z" fill="#F6F6F6"/>
<circle cx="12" cy="12" r="12" fill="#E9EDF5"/>
<path d="M12.8957 9.824C12.1997 9.824 11.6677 10.084 11.2997 10.604C10.9317 11.124 10.7477 11.836 10.7477 12.74C10.7477 13.652 10.9157 14.36 11.2517 14.864C11.5957 15.36 12.1437 15.608 12.8957 15.608C13.2477 15.608 13.5957 15.568 13.9397 15.488C14.2917 15.408 14.6717 15.296 15.0797 15.152V16.676C14.7037 16.828 14.3317 16.94 13.9637 17.012C13.5957 17.084 13.1837 17.12 12.7277 17.12C11.8477 17.12 11.1197 16.94 10.5437 16.58C9.97569 16.212 9.55569 15.7 9.28369 15.044C9.01169 14.38 8.87569 13.608 8.87569 12.728C8.87569 11.864 9.03169 11.1 9.34369 10.436C9.65569 9.772 10.1077 9.252 10.6997 8.876C11.2997 8.5 12.0317 8.312 12.8957 8.312C13.3197 8.312 13.7437 8.368 14.1677 8.48C14.5997 8.584 15.0117 8.728 15.4037 8.912L14.8157 10.388C14.4957 10.236 14.1717 10.104 13.8437 9.992C13.5237 9.88 13.2077 9.824 12.8957 9.824Z" fill="#403F3F"/>
</g>
<defs>
<filter id="filter0_d" x="-45" y="-377" width="798" height="696" filterUnits="userSpaceOnUse" color-interpolation-filters="sRGB">
<feFlood flood-opacity="0" result="BackgroundImageFix"/>
<feColorMatrix in="SourceAlpha" type="matrix" values="0 0 0 0 0 0 0 0 0 0 0 0 0 0 0 0 0 0 127 0"/>
<feOffset dy="4"/>
<feGaussianBlur stdDeviation="2"/>
<feColorMatrix type="matrix" values="0 0 0 0 0 0 0 0 0 0 0 0 0 0 0 0 0 0 0.25 0"/>
<feBlend mode="normal" in2="BackgroundImageFix" result="effect1_dropShadow"/>
<feBlend mode="normal" in="SourceGraphic" in2="effect1_dropShadow" result="shape"/>
</filter>
<clipPath id="clip0">
<rect width="1440" height="900" fill="white" transform="translate(-366 -417)"/>
</clipPath>
</defs>
</svg>
