<svg width="12" height="15" viewBox="0 0 12 15" fill="none" xmlns="http://www.w3.org/2000/svg">
<path d="M10.6666 3.66667V13C10.6666 13.3536 10.5261 13.6928 10.2761 13.9428C10.026 14.1929 9.68687 14.3333 9.33325 14.3333H2.66659C2.31296 14.3333 1.97382 14.1929 1.72378 13.9428C1.47373 13.6928 1.33325 13.3536 1.33325 13V3.66667H10.6666ZM3.33325 3.66667V2.33333C3.33325 1.97971 3.47373 1.64057 3.72378 1.39052C3.97382 1.14048 4.31296 1 4.66659 1H7.33325C7.68687 1 8.02601 1.14048 8.27606 1.39052C8.52611 1.64057 8.66659 1.97971 8.66659 2.33333V3.66667" fill="#FF4020" fill-opacity="0.15"/>
<path d="M3.33325 3.66667V2.33333C3.33325 1.97971 3.47373 1.64057 3.72378 1.39052C3.97383 1.14048 4.31296 1 4.66659 1H7.33325C7.68687 1 8.02601 1.14048 8.27606 1.39052C8.52611 1.64057 8.66659 1.97971 8.66659 2.33333V3.66667M10.6666 3.66667V13C10.6666 13.3536 10.5261 13.6928 10.2761 13.9428C10.026 14.1929 9.68687 14.3333 9.33325 14.3333H2.66659C2.31296 14.3333 1.97382 14.1929 1.72378 13.9428C1.47373 13.6928 1.33325 13.3536 1.33325 13V3.66667H10.6666Z" stroke="#FF4020" stroke-width="1.2" stroke-linecap="round" stroke-linejoin="round"/>
</svg>
