<svg width="14" height="14" viewBox="0 0 14 14" fill="none" xmlns="http://www.w3.org/2000/svg">
<rect width="14" height="14" fill="#E5E5E5"/>
<g clip-path="url(#clip0)">
<rect width="1440" height="900" transform="translate(-30 -394)" fill="white"/>
<g clip-path="url(#clip1)">
<rect width="1440" height="1024" transform="translate(-30 -394)" fill="#E9EDF5"/>
<path d="M-31 -394H265V506H-31V-394Z" fill="#1E2350"/>
<g opacity="0.6">
<path d="M13 9C13 9.35362 12.8595 9.69276 12.6095 9.94281C12.3594 10.1929 12.0203 10.3333 11.6667 10.3333H3.66667L1 13V2.33333C1 1.97971 1.14048 1.64057 1.39052 1.39052C1.64057 1.14048 1.97971 1 2.33333 1H11.6667C12.0203 1 12.3594 1.14048 12.6095 1.39052C12.8595 1.64057 13 1.97971 13 2.33333V9Z" stroke="white" stroke-width="1.5" stroke-linecap="round" stroke-linejoin="round"/>
</g>
</g>
</g>
<defs>
<clipPath id="clip0">
<rect width="1440" height="900" fill="white" transform="translate(-30 -394)"/>
</clipPath>
<clipPath id="clip1">
<rect width="1440" height="1024" fill="white" transform="translate(-30 -394)"/>
</clipPath>
</defs>
</svg>
