<svg width="16" height="16" viewBox="0 0 16 16" fill="none" xmlns="http://www.w3.org/2000/svg">
<rect width="16" height="16" fill="#E5E5E5"/>
<g clip-path="url(#clip0)">
<rect width="1440" height="900" transform="translate(-366 -233)" fill="white"/>
<g clip-path="url(#clip1)">
<rect width="1440" height="1024" transform="translate(-366 -233)" fill="#E9EDF5"/>
<rect x="-41" y="-73" width="1091" height="702" rx="5" fill="white"/>
</g>
<rect opacity="0.8" x="-366" y="-233" width="1440" height="900" fill="black"/>
<g filter="url(#filter0_d)">
<rect x="-41" y="-193" width="780" height="519" rx="5" fill="white"/>
</g>
<mask id="mask0" mask-type="alpha" maskUnits="userSpaceOnUse" x="-41" y="-193" width="780" height="275">
<rect x="-41" y="-193" width="780" height="275" fill="#F6F6F6"/>
</mask>
<g mask="url(#mask0)">
<rect x="-41" y="-193" width="780" height="304" fill="url(#paint0_linear)"/>
</g>
<path opacity="0.8" d="M-16 -12C-16 -14.7614 -13.7614 -17 -11 -17H709C711.761 -17 714 -14.7614 714 -12V92C714 94.7614 711.761 97 709 97H-11C-13.7614 97 -16 94.7614 -16 92V-12Z" fill="#F6F6F6"/>
<path d="M7.99992 14.6666C11.6818 14.6666 14.6666 11.6819 14.6666 7.99998C14.6666 4.31808 11.6818 1.33331 7.99992 1.33331C4.31802 1.33331 1.33325 4.31808 1.33325 7.99998C1.33325 11.6819 4.31802 14.6666 7.99992 14.6666Z" stroke="#403F3F" stroke-width="1.5" stroke-linecap="round" stroke-linejoin="round"/>
<path d="M8 10.6667V8" stroke="#403F3F" stroke-width="1.5" stroke-linecap="round" stroke-linejoin="round"/>
<path d="M8 5.33331H8.00667" stroke="#403F3F" stroke-width="1.5" stroke-linecap="round" stroke-linejoin="round"/>
</g>
<defs>
<filter id="filter0_d" x="-45" y="-193" width="788" height="527" filterUnits="userSpaceOnUse" color-interpolation-filters="sRGB">
<feFlood flood-opacity="0" result="BackgroundImageFix"/>
<feColorMatrix in="SourceAlpha" type="matrix" values="0 0 0 0 0 0 0 0 0 0 0 0 0 0 0 0 0 0 127 0"/>
<feOffset dy="4"/>
<feGaussianBlur stdDeviation="2"/>
<feColorMatrix type="matrix" values="0 0 0 0 0 0 0 0 0 0 0 0 0 0 0 0 0 0 0.25 0"/>
<feBlend mode="normal" in2="BackgroundImageFix" result="effect1_dropShadow"/>
<feBlend mode="normal" in="SourceGraphic" in2="effect1_dropShadow" result="shape"/>
</filter>
<linearGradient id="paint0_linear" x1="349" y1="-193" x2="349" y2="111" gradientUnits="userSpaceOnUse">
<stop offset="0.196068" stop-color="white" stop-opacity="0"/>
<stop offset="0.800143" stop-color="white"/>
</linearGradient>
<clipPath id="clip0">
<rect width="1440" height="900" fill="white" transform="translate(-366 -233)"/>
</clipPath>
<clipPath id="clip1">
<rect width="1440" height="1024" fill="white" transform="translate(-366 -233)"/>
</clipPath>
</defs>
</svg>
