<?xml version="1.0" encoding="utf-8"?>
<!-- Generator: Adobe Illustrator 27.7.0, SVG Export Plug-In . SVG Version: 6.00 Build 0)  -->
<svg version="1.1" id="Layer_1" xmlns="http://www.w3.org/2000/svg" xmlns:xlink="http://www.w3.org/1999/xlink" x="0px" y="0px"
	 viewBox="0 0 952 619" style="enable-background:new 0 0 952 619;" xml:space="preserve">
<style type="text/css">
	.st0{opacity:0.35;fill:#2D5898;}
	.st1{fill:#D2D8DA;}
	.st2{fill:#E7ECEE;}
	.st3{fill:#FFFFFF;}
	.st4{fill:#E3F4FD;}
	.st5{fill:#CBD0D2;}
	.st6{fill:#1E234F;}
	.st7{fill:#1D4B8A;}
	.st8{fill:#FFF3C5;}
	.st9{fill:#FCB74E;}
	.st10{fill:#4D7DBF;}
	.st11{fill:#F1F0F0;}
	.st12{fill:none;stroke:#1D4B8A;stroke-width:4.3884;stroke-linecap:round;stroke-miterlimit:10;}
	.st13{fill:#282E68;}
	.st14{fill:#9B5B2D;}
	.st15{fill:#F4B399;}
	.st16{fill:#FBC6B2;}
	.st17{fill:#9DCAEC;}
	.st18{fill:#6275B8;}
	.st19{opacity:0.75;fill:#EF4733;}
	.st20{fill:#AF7B57;}
	.st21{fill:#312013;}
	.st22{fill:none;stroke:#9B5B2D;stroke-width:0.6305;stroke-linecap:round;stroke-miterlimit:10;}
	.st23{fill:#122129;}
	.st24{fill:#63448F;}
	.st25{fill:none;stroke:#282E68;stroke-width:1.2609;stroke-miterlimit:10;}
	.st26{fill:#FEF6D9;}
	.st27{opacity:0.8;fill:#EF4733;}
	.st28{fill:#FDDDD0;}
	.st29{fill:none;stroke:#F4B399;stroke-width:0.6647;stroke-linecap:round;stroke-miterlimit:10;}
	.st30{fill:#837972;}
	.st31{fill:#EF4733;}
	.st32{fill:#415AA8;}
	.st33{fill:#4B6EA2;}
	.st34{fill:none;stroke:#F4B399;stroke-width:0.7748;stroke-linecap:round;stroke-miterlimit:10;}
	.st35{fill:none;stroke:#F4B399;stroke-width:0.5165;stroke-linecap:round;stroke-miterlimit:10;}
</style>
<path class="st0" d="M755.25,253.68c0,0,46.2-105.17,17.15-178.3C743.34,2.26,632.69,0.72,596.42,47.68
	c-36.27,46.95-141.68,63.12-179.03,25.4c-37.35-37.72-166.5-22.88-161.19,59.76c5.31,82.64,14.71,157.94-37.94,172.39
	c-52.65,14.44-124.55,112.17-87.61,194.4s207.98,44.95,263.71,75.52c55.72,30.57,310.73,70.25,360.56-64.02
	C804.76,376.86,721.74,350.39,755.25,253.68z"/>
<g>
	<path class="st1" d="M566.6,487.54H401.33c-5.26,0-9.57-4.3-9.57-9.57v-84.4c0-5.26,4.3-9.57,9.57-9.57H566.6
		c5.26,0,9.57,4.3,9.57,9.57v84.4C576.17,483.24,571.87,487.54,566.6,487.54z"/>
	<path class="st2" d="M657.59,426.13H306.85c-5.26,0-9.57-4.3-9.57-9.57v-216.5c0-5.26,4.3-9.57,9.57-9.57h350.74
		c5.26,0,9.57,4.3,9.57,9.57v216.5C667.15,421.83,662.85,426.13,657.59,426.13z"/>
	<path class="st2" d="M657.59,426.13H306.85c-5.26,0-9.57-4.3-9.57-9.57v-216.5c0-5.26,4.3-9.57,9.57-9.57h350.74
		c5.26,0,9.57,4.3,9.57,9.57v216.5C667.15,421.83,662.85,426.13,657.59,426.13z"/>
	
		<rect x="399.88" y="129.85" transform="matrix(-1.836970e-16 1 -1 -1.836970e-16 776.0319 -188.4031)" class="st3" width="164.67" height="327.92"/>
	<path class="st1" d="M493.33,402.57c0,6.14-4.98,11.11-11.11,11.11c-6.14,0-11.11-4.98-11.11-11.11c0-6.14,4.98-11.11,11.11-11.11
		C488.35,391.46,493.33,396.43,493.33,402.57z"/>
	<path class="st4" d="M541.24,229.77H331.79c-3.14,0-5.71-2.57-5.71-5.71l0,0c0-3.14,2.57-5.71,5.71-5.71h209.45
		c3.14,0,5.71,2.57,5.71,5.71l0,0C546.95,227.2,544.38,229.77,541.24,229.77z"/>
	<path class="st4" d="M503.63,237.39H327.98c-1.05,0-1.9-0.86-1.9-1.9l0,0c0-1.05,0.86-1.9,1.9-1.9h175.65c1.05,0,1.9,0.86,1.9,1.9
		l0,0C505.54,236.53,504.68,237.39,503.63,237.39z"/>
	<path class="st4" d="M503.63,355.52H327.98c-1.05,0-1.9-0.86-1.9-1.9l0,0c0-1.05,0.86-1.9,1.9-1.9h175.65c1.05,0,1.9,0.86,1.9,1.9
		l0,0C505.54,354.66,504.68,355.52,503.63,355.52z"/>
	<path class="st4" d="M503.63,363.46H327.98c-1.05,0-1.9-0.86-1.9-1.9l0,0c0-1.05,0.86-1.9,1.9-1.9h175.65c1.05,0,1.9,0.86,1.9,1.9
		l0,0C505.54,362.6,504.68,363.46,503.63,363.46z"/>
	<path class="st4" d="M537.39,345.22H335.64c-5.26,0-9.57-4.3-9.57-9.57v-83.46c0-5.26,4.3-9.57,9.57-9.57h201.74
		c5.26,0,9.57,4.3,9.57,9.57v83.46C546.95,340.92,542.65,345.22,537.39,345.22z"/>
	<path class="st4" d="M635.02,229.77h-68.07c-3.14,0-5.71-2.57-5.71-5.71l0,0c0-3.14,2.57-5.71,5.71-5.71h68.07
		c3.14,0,5.71,2.57,5.71,5.71l0,0C640.73,227.2,638.16,229.77,635.02,229.77z"/>
	<path class="st4" d="M638.82,237.39h-75.69c-1.05,0-1.9-0.86-1.9-1.9l0,0c0-1.05,0.86-1.9,1.9-1.9h75.69c1.05,0,1.9,0.86,1.9,1.9
		l0,0C640.73,236.53,639.87,237.39,638.82,237.39z"/>
	<path class="st4" d="M627.72,272.62h-53.47c-7.16,0-13.01-5.86-13.01-13.01l0,0c0-7.16,5.86-13.01,13.01-13.01h53.47
		c7.16,0,13.01,5.86,13.01,13.01l0,0C640.73,266.76,634.87,272.62,627.72,272.62z"/>
	<path class="st4" d="M629.3,342.63h-56.63c-6.29,0-11.43-5.15-11.43-11.43v-38.96c0-6.29,5.15-11.43,11.43-11.43h56.63
		c6.29,0,11.43,5.15,11.43,11.43v38.96C640.73,337.48,635.58,342.63,629.3,342.63z"/>
	<path class="st5" d="M597.58,487.54h-227.4c-4.23,0-7.69-3.46-7.69-7.69l0,0c0-4.23,3.46-7.69,7.69-7.69h227.4
		c4.23,0,7.69,3.46,7.69,7.69l0,0C605.27,484.08,601.81,487.54,597.58,487.54z"/>
</g>
<g>
	<polygon class="st6" points="267.55,243.83 263.29,239.11 289.98,177.2 364.51,160.14 365.99,164.13 	"/>
	<path class="st7" d="M321.5,206.35l-53.94,37.48c0,0,25.58-62.32,26.97-62.34c1.39-0.03,71.46-17.36,71.46-17.36L321.5,206.35z"/>
	<path class="st6" d="M287.3,224.98c0,0,12.23-44.39,53.39-50.57l10.57,13.61c0,0-18.35,3.17-27.25,25.06
		c0,0-20.02,5.68-26.14,22.13L287.3,224.98z"/>
	<path class="st6" d="M267.05,230.39v56.18c0,0,2.73,1.11,2.73-1.39c0-2.5,0-54.79,0-54.79H267.05z"/>
	<path class="st6" d="M268.53,288.75L268.53,288.75c-0.96,0-1.74-0.78-1.74-1.74l0,0c0-0.96,0.78-1.74,1.74-1.74l0,0
		c0.96,0,1.74,0.78,1.74,1.74l0,0C270.27,287.97,269.48,288.75,268.53,288.75z"/>
	<path class="st6" d="M268.05,285.9c-0.42-0.12-3.61,6.84-1.95,9.06c1.67,2.22,1.67,2.22,1.67,2.22l0.28-1.11
		c0,0,0.89,2.78,0.86,3.34c0,0,4.09-5.84,1.36-11.96L268.05,285.9z"/>
</g>
<g>
	<path class="st6" d="M664.98,491.07v-14.24c0-4.21,3.41-7.62,7.62-7.62h115.03c4.21,0,7.62,3.41,7.62,7.62v14.24H664.98z"/>
	<path class="st6" d="M680.71,474.41v-6.76c0-3.54,2.87-6.4,6.4-6.4h88.58c3.54,0,6.4,2.87,6.4,6.4v4.78L680.71,474.41z"/>
	<path class="st6" d="M754.46,480.14h-45.34c-5.98,0-10.87-4.89-10.87-10.87v-16.39c0-5.98,4.89-10.87,10.87-10.87h45.34
		c5.98,0,10.87,4.89,10.87,10.87v16.39C765.32,475.25,760.43,480.14,754.46,480.14z"/>
	<path class="st7" d="M698.47,458.38h14.26c9.57,0,17.52-7.15,18.85-16.36h-14.26C707.75,442.02,699.79,449.17,698.47,458.38z"/>
	<g>
		<polygon class="st6" points="756.24,441.67 745.13,437.83 788.78,311.56 720.22,201.1 642.56,191.34 644.02,179.68 727.25,190.14 
			801.72,310.11 		"/>
	</g>
	<polygon class="st7" points="749.33,435.12 792.97,308.86 724.41,198.4 646.76,188.64 647.82,180.16 644.02,179.68 642.56,191.34 
		720.22,201.1 788.78,311.56 745.13,437.83 756.24,441.67 757.52,437.96 	"/>
	<path class="st8" d="M632.69,267.15L632.69,267.15c-10.13,0-18.41-8.28-18.41-18.41v-3.29c0-10.12,8.28-18.41,18.41-18.41l0,0
		c10.12,0,18.41,8.28,18.41,18.41v3.29C651.1,258.87,642.81,267.15,632.69,267.15z"/>
	<path class="st9" d="M632.69,227.05c-10.13,0-18.41,8.28-18.41,18.41v3.29c0,3.02,0.75,5.86,2.05,8.38
		c3.06-5.94,9.25-10.03,16.36-10.03c7.11,0,13.29,4.09,16.36,10.03c1.3-2.52,2.05-5.37,2.05-8.38v-3.29
		C651.1,235.33,642.81,227.05,632.69,227.05z"/>
	<path class="st6" d="M652.48,211.26c0.07-0.69,0.11-1.4,0.11-2.11v-27.84c0-11.12-9.09-20.21-20.21-20.21
		c-11.12,0-20.21,9.09-20.21,20.21v27.84c0,0.71,0.04,1.42,0.11,2.11c-10.76,4.7-18.32,15.46-18.32,27.89v0.2
		c0,3.32,2.69,6.02,6.02,6.02h64.8c3.32,0,6.02-2.69,6.02-6.02v-0.2C670.81,226.71,663.24,215.96,652.48,211.26z"/>
	<path class="st7" d="M652.48,211.26c0.07-0.69,0.11-1.4,0.11-2.11v-27.84c0-10.17-7.62-18.62-17.42-19.99
		c-2.67,3.43-4.29,7.72-4.29,12.38v27.84c0,0.71,0.04,1.42,0.11,2.11c-10.76,4.7-18.32,15.46-18.32,27.89v0.2
		c0,3.32,2.69,6.02,6.02,6.02h52.06C670.21,225.92,662.83,215.78,652.48,211.26z"/>
	<path class="st10" d="M645.54,208.72L645.54,208.72c-1.24,0-2.25-1.01-2.25-2.25v-29.51c0-1.24,1.01-2.25,2.25-2.25l0,0
		c1.24,0,2.25,1.01,2.25,2.25v29.51C647.79,207.71,646.78,208.72,645.54,208.72z"/>
	<path class="st10" d="M635.79,234.14h-4.8c-1.16,0-2.1-0.95-2.1-2.1l0,0c0-1.16,0.95-2.1,2.1-2.1h4.8c1.16,0,2.1,0.95,2.1,2.1l0,0
		C637.89,233.19,636.94,234.14,635.79,234.14z"/>
	<path class="st10" d="M662.38,234.14h-14.74c-1.16,0-2.1-0.95-2.1-2.1l0,0c0-1.16,0.95-2.1,2.1-2.1h14.74c1.16,0,2.1,0.95,2.1,2.1
		l0,0C664.48,233.19,663.54,234.14,662.38,234.14z"/>
	<path class="st7" d="M723.57,210.85L723.57,210.85c-8.38,0-15.23-6.85-15.23-15.23v0c0-8.38,6.85-15.23,15.23-15.23l0,0
		c8.38,0,15.23,6.85,15.23,15.23v0C738.8,204,731.94,210.85,723.57,210.85z"/>
	<path class="st6" d="M729.03,205.16L729.03,205.16c-6.92,0-12.59-5.66-12.59-12.59l0,0c0-5.68,3.81-10.5,9-12.06
		c-0.61-0.08-1.24-0.13-1.87-0.13l0,0c-8.38,0-15.23,6.85-15.23,15.23c0,8.38,6.85,15.23,15.23,15.23l0,0
		c6.12,0,11.41-3.67,13.83-8.91C735.17,203.94,732.24,205.16,729.03,205.16z"/>
	<path class="st10" d="M729.53,193.11L729.53,193.11c-1.76,0-3.2-1.44-3.2-3.2v-1.2c0-1.76,1.44-3.2,3.2-3.2l0,0
		c1.76,0,3.2,1.44,3.2,3.2v1.2C732.74,191.67,731.3,193.11,729.53,193.11z"/>
	<path class="st7" d="M794.36,326.72L794.36,326.72c-8.38,0-15.23-6.85-15.23-15.23l0,0c0-8.38,6.85-15.23,15.23-15.23l0,0
		c8.38,0,15.23,6.85,15.23,15.23l0,0C809.59,319.86,802.74,326.72,794.36,326.72z"/>
	<path class="st6" d="M799.32,320.56c-6.92,0-12.59-5.66-12.59-12.59v0c0-5.29,3.32-9.84,7.97-11.69c-0.11,0-0.22-0.02-0.34-0.02h0
		c-8.38,0-15.23,6.85-15.23,15.23c0,8.38,6.85,15.23,15.23,15.23h0c6.75,0,12.5-4.45,14.49-10.56
		C806.54,318.84,803.12,320.56,799.32,320.56z"/>
	<path class="st10" d="M799.24,311.85L799.24,311.85c-2.56,0-4.65-2.09-4.65-4.65l0,0c0-2.56,2.09-4.65,4.65-4.65l0,0
		c2.56,0,4.65,2.09,4.65,4.65l0,0C803.9,309.75,801.8,311.85,799.24,311.85z"/>
	<path class="st7" d="M750.69,454.98L750.69,454.98c-8.38,0-15.23-6.85-15.23-15.23l0,0c0-8.38,6.85-15.23,15.23-15.23l0,0
		c8.38,0,15.23,6.85,15.23,15.23l0,0C765.91,448.12,759.06,454.98,750.69,454.98z"/>
	<path class="st6" d="M759.69,447.15c-8.38,0-15.23-6.85-15.23-15.23c0-2.39,0.57-4.65,1.57-6.67c-6.11,1.98-10.57,7.74-10.57,14.49
		c0,8.38,6.85,15.23,15.23,15.23l0,0c5.99,0,11.18-3.51,13.66-8.56C762.88,446.89,761.31,447.15,759.69,447.15z"/>
	<path class="st10" d="M756.75,437.04L756.75,437.04c-2.15,0-3.9-1.76-3.9-3.9l0,0c0-2.15,1.76-3.9,3.9-3.9l0,0
		c2.15,0,3.9,1.76,3.9,3.9l0,0C760.65,435.28,758.89,437.04,756.75,437.04z"/>
	<path class="st7" d="M772.83,465.85v-4.6h-85.71c-3.54,0-6.4,2.87-6.4,6.4l0,0L772.83,465.85z"/>
	<path class="st7" d="M782.9,476.83v-7.62H672.6c-4.21,0-7.62,3.41-7.62,7.62l0,0H782.9z"/>
	<path class="st3" d="M636.85,263.55h-10.81c-0.91,0-1.65-0.74-1.65-1.65v-3.12c0-0.91,0.74-1.65,1.65-1.65h10.81
		c0.91,0,1.65,0.74,1.65,1.65v3.12C638.5,262.81,637.76,263.55,636.85,263.55z"/>
</g>
<g>
	<path class="st11" d="M588.44,490.08h-142.4V464.4h135.08c4.03,0,7.32,3.29,7.32,7.32V490.08z"/>
	<path class="st11" d="M584.23,490.08h142.4V464.4H591.55c-4.03,0-7.32,3.29-7.32,7.32V490.08z"/>
	<path class="st12" d="M446.08,490.08h124.99c0,0,21.04,11.78,32.81,0h125.31"/>
</g>
<g>
	<path class="st13" d="M647.42,522.56c0,0,3.15,15.08,6.33,18.49c3.18,3.41,8.43,11.73,3.67,16.78c-4.76,5.05-15.6-5.94-18.39-10.66
		c-2.79-4.72-8.13-14.17-12.65-18.34c-4.52-4.17,7.27-17.24,7.27-17.24S647.7,500.72,647.42,522.56z"/>
	<path class="st13" d="M602.36,521.26c0,0,5.49,14.39,9.17,17.26c3.68,2.87,10.17,10.25,6.27,15.99c-3.9,5.74-16.34-3.4-19.85-7.63
		c-3.5-4.22-10.26-12.71-15.39-16.12c-5.12-3.41,4.46-18.17,4.46-18.17S599.2,499.66,602.36,521.26z"/>
	<path class="st14" d="M646.25,503.41c0,0-1.5,13.56-3.57,15.91c-2.07,2.35-13.52,1.81-9.08-20.76
		C638.05,475.98,646.25,503.41,646.25,503.41z"/>
	<path class="st15" d="M661.78,369.57c0,0,12.35,19.23,11.91,28.27c-0.44,9.04-17.83,3.89-18.62,2.18
		c-0.8-1.7-8.96-17.83-7.27-23.72C649.49,370.41,658.38,366.28,661.78,369.57z"/>
	<path class="st16" d="M673.75,396.02c0,0-8.19-15.09-23.97-8.52c-15.78,6.56-30.32,10.29-30.29,12.97
		c0.03,2.68,2.25,8.01,6.97,7.96C631.18,408.38,677.97,411.92,673.75,396.02z"/>
	<path class="st17" d="M629.35,338.88c0,0,16.84,0.19,25.42,10.97c8.59,10.78,12.38,21.77,15.58,24.17
		c3.2,2.4,10.64,27.71,4.66,31.37c-5.98,3.65-24.93-1.07-25.63-7.8c-0.7-6.73-8.26-17.38-8.26-17.38s-8.72-5.67-9.41-10.83
		S623.19,337.96,629.35,338.88z"/>
	<path class="st17" d="M675.46,398.68c0,0-5.21-12.93-12.93-12.84c-7.72,0.09-13.2-0.85-16.94,1.97s-29.53,4.48-25.59,15.23
		c3.94,10.75,15.62,6.64,20.13,6.13c4.51-0.5,28.69,1.79,35.33-9.69"/>
	<path class="st18" d="M641.52,423.89c0,0,26.87,39.6-20.97,40.01c-37.54,0.32-45.67-13.5-44.79-17.77
		c0.88-4.28,4.38-25.45,4.38-25.45L641.52,423.89z"/>
	<path class="st14" d="M622.42,328.96c0,0-0.45,9.12,0,10.76c0.45,1.63-4.2,30.21-13.62,30.21c-7.68,0-14.29-26.71-14.51-30.21
		c-0.22-3.5,2.68-14.66,2.68-14.66S622.42,318.21,622.42,328.96z"/>
	<path class="st15" d="M559.43,381.53c0,0-6.99,21.1-4.43,32.91c2.55,11.81,17.76,8.03,18.14,5.59c0.38-2.44,4.55-25.69,1.51-33.04
		C571.61,379.64,561.97,376.36,559.43,381.53z"/>
	<path class="st19" d="M598.98,350.11c0,0,9.93,12.19,9.58,17.5c-0.35,5.31,2.67,77.31,2.48,82.67
		c-0.19,5.36-33.79-0.45-34.98-11.16c-1.19-10.72,3.7-66.73,0.89-71.51c-8.41-14.31,1.77-17.56,15.23-26.23
		C592.18,341.39,594.21,349.92,598.98,350.11z"/>
	<path class="st14" d="M588.99,305.53c0,0-4.3-10.35-6.31-8.47c-2.01,1.88-0.13,16.38,5.63,16.27
		C594.07,313.23,588.99,305.53,588.99,305.53z"/>
	<path class="st14" d="M629.32,305.53c0,0,4.3-10.35,6.31-8.47c2.01,1.88,0.13,16.38-5.63,16.27
		C624.24,313.23,629.32,305.53,629.32,305.53z"/>
	<path class="st19" d="M617.96,350.98c0,0-9.93,12.19-9.58,17.5c0.35,5.31-0.2,76.44-0.01,81.8c0.19,5.36,31.96,2.87,33.15-7.84
		c1.19-10.72-2.73-68.55-1.54-73.95c1.19-5.41,0.72-18.43-12.73-27.1C627.25,341.39,622.72,350.79,617.96,350.98z"/>
	<path class="st20" d="M631.8,294.92c0,0,0.6,23.92-2.08,29.02c-2.68,5.1-8.19,11.74-17.12,14.13c-8.93,2.39-20.24-9.7-22.47-12.64
		c-2.23-2.95-4.32-25.15-2.98-30.51C588.49,289.56,623.31,282.86,631.8,294.92z"/>
	<path class="st21" d="M605.53,313.75l0.13-2.9c0,0-7.79-0.8-9.44-0.42c-1.66,0.39-3.45,2.31-3.06,2.82
		c0.38,0.51,3.76-1.79,5.07-1.03C599.53,312.98,605.53,313.75,605.53,313.75z"/>
	<path class="st21" d="M615.14,313.22l-0.22-2.89c0,0,7.76-1.05,9.42-0.72c1.67,0.33,3.52,2.2,3.15,2.71
		c-0.37,0.52-3.82-1.67-5.1-0.87C621.11,312.25,615.14,313.22,615.14,313.22z"/>
	<path class="st22" d="M613.79,312.08l-2.08,3.26c0,0,1.19,9.2,1.04,9.94c-0.15,0.74-2.05,2.08-3.41,2.08
		c-1.36,0-3.74-0.92-3.74-0.92"/>
	<path class="st21" d="M617.06,314.79c0,0.5,0.81,0.9,1.81,0.9c1,0,1.81-0.4,1.81-0.9c0-0.5-0.81-0.9-1.81-0.9
		C617.87,313.89,617.06,314.29,617.06,314.79z"/>
	<path class="st21" d="M599.96,315.34c0,0.5,0.81,0.9,1.81,0.9c1,0,1.81-0.4,1.81-0.9c0-0.5-0.81-0.9-1.81-0.9
		C600.77,314.44,599.96,314.84,599.96,315.34z"/>
	<path class="st22" d="M615.95,328.96c0,0-4.09,3.57-12.37,0.89"/>
	<path class="st23" d="M635.87,420.14c0,0,5.13-34.95,3.41-36.88c-1.72-1.93-43.96-0.48-46.56,0c-2.6,0.48,6.65,40.82,6.92,42.42
		c0.27,1.6,32.46-1.3,34.15-2.03C635.49,422.92,635.58,422.17,635.87,420.14z"/>
	<path class="st16" d="M554.76,415.54c0,0,4.42-9.17,21.2-5.95c16.78,3.23,31.78,3.92,32.3,6.55c0.52,2.63-0.04,6.68-4.67,7.59
		C598.95,424.64,553.85,431.96,554.76,415.54z"/>
	<path class="st20" d="M599.96,417.48c0,0-2.1-5.68,1.81-8.31c3.91-2.63,9.26-6.87,10.16-7.54c0.89-0.67,4.3,3.8,0,6.03
		c-4.3,2.22-2.01,3.35-2.01,3.35s8.42-1.66,9.57-1.83c1.15-0.18,14.36-6.07,14.22-3.3c-0.14,2.77-3.7,3.65-3.7,3.65
		s8.92-2.63,8.48-0.79c-0.44,1.83-4.78,4.51-4.78,4.51s2.36,3.35,0,4.24c-2.36,0.89-9.39,5.8-16.25,6.25
		c-6.87,0.45-10.84-0.22-13.88,0C600.54,423.95,599.96,417.48,599.96,417.48z"/>
	<path class="st13" d="M628.67,428.46c0,0,21.24-9.8,31.96-3.28c10.72,6.52,12.13,43.08-28.78,38.72
		C590.95,459.54,621.61,430.98,628.67,428.46z"/>
	<path class="st13" d="M614.06,442.12c0,0,12.76-16.74,0.53-17.74c-21.85-1.78-34.38,3.99-38.54,14.74
		c-5.07,13.12,3.87,24.78,18.22,27.01C613.69,469.13,622.39,457.87,614.06,442.12z"/>
	<path class="st7" d="M655.25,423.42c0,0,15.67,0.35,11.53,23.08c-4.48,24.62-15.3,64.69-18.34,64.17
		c-3.04-0.52-14.38,7.17-15.45-8.42c-1.06-15.4,6.25-33.94,4.95-52.63c-1.3-18.69,15.91-25.49,15.91-25.49L655.25,423.42z"/>
	<path class="st24" d="M631.81,309.57c-0.55,0.28-0.77,0.95-0.49,1.51c0.28,0.55,0.95,0.77,1.51,0.49c0.55-0.28,0.77-0.95,0.49-1.51
		C633.04,309.5,632.36,309.29,631.81,309.57z"/>
	
		<rect x="614.6" y="312.23" transform="matrix(-1 -1.224647e-16 1.224647e-16 -1 1242.4615 630.6783)" class="st25" width="13.27" height="6.21"/>
	
		<rect x="592.75" y="312.23" transform="matrix(-1 -1.224647e-16 1.224647e-16 -1 1198.7625 630.6783)" class="st25" width="13.27" height="6.21"/>
	<path class="st25" d="M614.6,315.34c0,0-4.1-3.5-8.58,0"/>
	<polyline class="st25" points="592.47,315.69 589.24,315.69 585.73,299.95 	"/>
	<polyline class="st25" points="627.82,314.79 630.85,314.44 635.11,299.55 	"/>
	<path class="st17" d="M592.76,341.39c0,0-24.05,9.22-28.13,18.52c-4.08,9.3-6.41,14.72-7.96,18.98
		c-1.55,4.26-6.12,17.45-5.29,24.42c0.83,6.96-0.33,13.69,2.85,15.5c3.18,1.81,20.36,2.43,21.56-4.01
		c1.2-6.44-1.24-16.31,1.89-22.54c6.73-13.36-0.61-30.41,1.71-35.05C581.73,352.54,592.76,341.39,592.76,341.39z"/>
	<path class="st17" d="M552.98,411.6c0,0-0.95,1.62,6.2-1.58c7.15-3.2,9.41-3.39,12.61-2.45c3.2,0.94,9.73,3.76,14.94,2.45
		c5.21-1.32,10.43,0.82,10.36,2.95c-0.07,2.13,1.58,13.99,0,14.09c-1.58,0.09-3.01-1.02-7.85,1.7c-4.84,2.72-31.95-2.28-34.5-6.23
		C552.19,418.57,552.98,411.6,552.98,411.6z"/>
	<path class="st26" d="M596.41,411.6h2.97c0,0,8.36,10.52,4.98,12.28c-3.39,1.76-10.08,2.26-10.08,2.26L596.41,411.6z"/>
	<path class="st17" d="M594.93,334.16c0,0-1.43,12.99,5.04,16c6.46,3.01,10.92,10.33,9.8,13.28c-1.12,2.95,2.05,3.75-1.21,4.18
		c-3.26,0.43-1.56-8.98-9.84-10.68c-8.28-1.69-15.47-6.5-14.98-10.31c0.49-3.81,5.37-9.55,5.37-9.55S593.59,331.89,594.93,334.16z"
		/>
	<path class="st17" d="M622.23,335.17c0,0,2.94-1.09,5.02,0.88c0,0,4.54,2.52,5.07,6.21c0.54,3.69-2.74,9.79-6.13,11.11
		c-3.39,1.32-15.05,10.12-16.43,12.62c-1.39,2.51-1.98-3.4,0.54-6.22c2.52-2.82,1.54-5.7,6.93-9.16
		C622.62,347.15,622.05,338.82,622.23,335.17z"/>
	<path class="st14" d="M601.66,503.41c0,0-1.5,13.56-3.57,15.91c-2.07,2.35-13.52,1.81-9.08-20.76
		C593.46,475.98,601.66,503.41,601.66,503.41z"/>
	<path class="st7" d="M610.66,423.42c0,0,15.67,0.35,11.53,23.08c-4.48,24.62-15.3,64.69-18.34,64.17
		c-3.04-0.52-14.38,7.17-15.45-8.42c-1.06-15.4,6.25-33.94,4.95-52.63c-1.3-18.69,15.91-25.49,15.91-25.49L610.66,423.42z"/>
	<path class="st21" d="M583.97,295.04c0,0.46,0.24,0.85,0.59,1.1c-0.12,0.21-0.22,0.44-0.22,0.7c0,0.34,0.13,0.63,0.33,0.87
		c-0.2,0.24-0.33,0.54-0.33,0.87c0,0.47,0.25,0.86,0.61,1.11c-0.22,0.24-0.36,0.56-0.36,0.91c0,0.42,0.2,0.78,0.49,1.03
		c-0.07,0.17-0.12,0.35-0.12,0.55c0,0.51,0.29,0.93,0.7,1.17c-0.19,0.24-0.32,0.53-0.32,0.85c0,0.59,0.37,1.08,0.89,1.28
		c-0.05,0.07-0.12,0.14-0.15,0.22c-0.3,0.69,0.01,1.49,0.69,1.8c0.07,0.35,0.28,0.67,0.63,0.82c0.57,0.25,1.23-0.01,1.47-0.58
		c0.08-0.19,0.09-0.39,0.06-0.58c0.13-0.02,0.25-0.02,0.38-0.07c1.11-0.44,1.66-1.69,1.23-2.8c-0.09-0.24-0.24-0.44-0.4-0.63
		c0.51-0.59,0.71-1.42,0.4-2.19c-0.07-0.17-0.18-0.3-0.29-0.44c0.03-0.01,0.07,0,0.11-0.02c0.75-0.29,1.22-0.97,1.32-1.72
		c0.57,0.77,1.57,1.12,2.5,0.76c0.25-0.1,0.46-0.25,0.65-0.42c0.02,0.05,0.01,0.1,0.03,0.15c0.44,1.11,1.69,1.66,2.8,1.23
		c0.19-0.07,0.34-0.2,0.5-0.32c0.55,0.85,1.6,1.26,2.58,0.87c0.33-0.13,0.59-0.34,0.8-0.58c0,0.01,0,0.02,0.01,0.03
		c0.44,1.11,1.69,1.66,2.8,1.23c0.37-0.14,0.64-0.39,0.87-0.68c0.5,0.97,1.64,1.45,2.69,1.05c0.5-0.19,0.85-0.56,1.09-1
		c0.58,0.68,1.54,0.98,2.42,0.63c0.33-0.13,0.59-0.34,0.81-0.59c0.59,0.66,1.53,0.93,2.39,0.59c0.33-0.13,0.59-0.34,0.8-0.58
		c0.58,0.43,1.33,0.59,2.05,0.31c0.57-0.22,0.99-0.67,1.21-1.2c0.34,0.23,0.73,0.4,1.18,0.4c1.06,0,1.9-0.78,2.09-1.78
		c0.38,0.34,0.88,0.57,1.43,0.57c0.75,0,1.37-0.4,1.76-0.97c0.31,0.18,0.65,0.3,1.04,0.3c0.11,0,0.2-0.05,0.3-0.06
		c0.05,0.48,0.23,0.96,0.61,1.33c0.18,0.18,0.4,0.3,0.62,0.41c-0.22,0.75-0.06,1.58,0.53,2.16c0.13,0.13,0.29,0.2,0.44,0.29
		c-0.03,0.02-0.06,0.03-0.09,0.06c-0.84,0.85-0.82,2.22,0.03,3.06c0.46,0.45,1.07,0.64,1.67,0.59c0.72,2.93,1.35,5.17,1.51,4.93
		c0.09-0.14,0.21-0.64,0.34-1.34c0.38,0.19,0.83,0.23,1.23,0.02c0.68-0.34,0.95-1.17,0.6-1.85c-0.04-0.08-0.11-0.14-0.17-0.21
		c0.51-0.23,0.85-0.74,0.81-1.33c-0.02-0.33-0.17-0.61-0.37-0.83c0.39-0.26,0.66-0.7,0.63-1.21c-0.01-0.2-0.07-0.38-0.15-0.54
		c0.28-0.27,0.46-0.64,0.43-1.06c-0.02-0.35-0.18-0.66-0.42-0.89c0.34-0.27,0.57-0.68,0.54-1.15c-0.02-0.34-0.17-0.62-0.39-0.85
		c0.18-0.25,0.3-0.55,0.28-0.89c-0.02-0.26-0.12-0.48-0.26-0.68c0.33-0.27,0.55-0.67,0.53-1.13c-0.02-0.26-0.12-0.49-0.26-0.69
		c0.27-0.27,0.43-0.63,0.4-1.04c-0.03-0.54-0.38-0.98-0.85-1.18c0.28-0.56,0.44-1.19,0.4-1.86c-0.04-0.74-0.31-1.42-0.72-1.97
		c-0.01-0.34-0.07-0.66-0.17-0.97c0.05-0.25,0.08-0.51,0.07-0.78c-0.07-1.24-0.89-2.26-1.98-2.66c-0.09-2.12-1.45-3.89-3.35-4.58
		c-0.04-2.06-1.72-3.72-3.79-3.72c-0.05,0-0.09,0.01-0.13,0.01c-0.18-0.88-0.6-1.73-1.29-2.42c-1.41-1.41-3.48-1.73-5.2-0.99
		c-0.28-1.23-1.32-2.16-2.63-2.16c-0.35,0-0.68,0.08-0.99,0.2c-0.54-0.61-1.31-1.01-2.19-1.01c-0.85,0-1.6,0.37-2.14,0.95
		c-0.94-0.95-2.24-1.54-3.68-1.54c-1.82,0-3.41,0.94-4.33,2.35c-0.66-0.71-1.58-1.16-2.62-1.16c-1.47,0-2.73,0.89-3.29,2.16
		c-0.48,0.07-0.89,0.37-1.08,0.81c-0.04,0-0.07-0.01-0.11-0.01c-1.55,0-2.92,0.79-3.72,2c-0.14-0.03-0.27-0.08-0.42-0.08
		c-0.82,0-1.5,0.47-1.86,1.15c-1.74,0.39-3.04,1.94-3.04,3.8c0,0.33,0.06,0.65,0.13,0.96c-1.17,0.42-2.02,1.53-2.02,2.84
		c0,0.49,0.13,0.94,0.33,1.35c-0.57,0.65-0.93,1.49-0.93,2.42c0,0.67,0.19,1.29,0.51,1.83c-0.45,0.22-0.77,0.68-0.77,1.22
		c0,0.41,0.18,0.76,0.46,1.01C584.07,294.55,583.97,294.78,583.97,295.04z M591.29,297.74c-0.06-0.08-0.09-0.17-0.15-0.24
		c0.09-0.05,0.17-0.1,0.24-0.16C591.34,297.47,591.31,297.61,591.29,297.74z"/>
</g>
<g>
	<path class="st15" d="M239.33,203.38c0,0,15.32-18.32,16.66-20.52s-16.96-40.47-14.4-44.27c2.56-3.8,7.51-4.62,7.93-2.8
		c0.42,1.82,24.44,52.11,23.62,53.86c-0.83,1.75-20.36,29.21-24.18,31.81C245.14,224.05,233.58,210.3,239.33,203.38z"/>
	<path class="st27" d="M224.67,210.46c0,0,6.29-13.33,16.35-20.96c10.06-7.62,5.87-7.75,10.06-7.62c4.19,0.13-7.41-5.76-8.65-15.87
		c-1.24-10.11-4.44-21.23-2.97-21.12c1.47,0.11,8.07-6.53,12.53-6.93c4.46-0.41,10.39,18.23,13.21,21.62s14.97,23.15,13.55,31.06
		c-1.41,7.91-21.48,39.85-31.21,44.35C237.8,239.48,224.67,210.46,224.67,210.46z"/>
	<path class="st28" d="M231.88,124.6c0,0-3.06-2.03-4.53-4.15c-1.46-2.12-6.68-4.33-7.33-5.47c-0.65-1.14,0.06-1.94,2.36-1.41
		c2.3,0.53,6,2.88,6.97,3.54c0.97,0.66,6.31,6.39,6.31,6.39S233.82,126.07,231.88,124.6z"/>
	<path class="st28" d="M232.7,122.3c0,0-3.06-2.03-4.53-4.15c-1.46-2.12-6.68-4.33-7.33-5.47c-0.65-1.14,0.06-1.94,2.36-1.41
		c2.3,0.53,6,2.88,6.97,3.54c0.97,0.66,6.31,6.39,6.31,6.39S234.64,123.77,232.7,122.3z"/>
	<path class="st28" d="M235.67,120.9c0,0-3.06-2.03-4.53-4.15c-1.47-2.12-6.68-4.33-7.33-5.47c-0.65-1.14,0.06-1.94,2.36-1.41
		c2.3,0.53,6,2.88,6.97,3.54c0.97,0.66,6.31,6.39,6.31,6.39S237.61,122.37,235.67,120.9z"/>
	<g>
		<path class="st6" d="M173.28,73.77L173.28,73.77c0.7-0.78,1.78-1.08,2.78-0.76l39.99,12.48c0.81,0.25,1.45,0.88,1.73,1.68
			l16.06,46.96l-0.83,0.41c-1.03,0.51-2.26,0.31-3.07-0.5l-56.56-56.6C172.37,76.43,172.33,74.82,173.28,73.77z"/>
		<path class="st7" d="M200.07,108.66l-22.55-26.14c-1.74-2.02,0.22-5.06,2.78-4.3c12.6,3.74,34.44,10.32,34.52,10.98
			c0.08,0.65,8.26,23.39,13.06,36.72c0.93,2.58-2.17,4.7-4.25,2.92l-23.27-19.89C200.25,108.86,200.16,108.77,200.07,108.66z"/>
		<path class="st6" d="M187.16,87.78c6.33,1.49,28.54,8.19,35.12,29.97c0.29,0.95-0.01,1.99-0.73,2.68l-4.39,4.21
			c-1.27,1.22-3.34,0.9-4.18-0.65c-2.04-3.72-6.62-9.66-15.93-12.7c-0.69-0.23-1.28-0.7-1.6-1.36c-1.3-2.71-5.44-10.21-12.81-13.63
			c-1.55-0.72-2.03-2.7-0.97-4.05l2.76-3.52C185.09,87.91,186.15,87.55,187.16,87.78z"/>
		<path class="st6" d="M178.93,73.06l1.85,37.42c0,0,1.85,0.65,1.77-1.02c-0.08-1.67-1.8-36.49-1.8-36.49L178.93,73.06z"/>
		<path class="st6" d="M181.84,111.88L181.84,111.88c-0.64,0.03-1.18-0.46-1.21-1.1l0,0c-0.03-0.64,0.46-1.18,1.1-1.21l0,0
			c0.64-0.03,1.18,0.46,1.21,1.1l0,0C182.97,111.31,182.47,111.85,181.84,111.88z"/>
		<path class="st6" d="M181.42,110c-0.28-0.06-2.18,4.67-1,6.1c1.18,1.43,1.18,1.43,1.18,1.43l0.15-0.75c0,0,0.68,1.82,0.68,2.19
			c0,0,2.53-4.02,0.51-8.01L181.42,110z"/>
	</g>
	<path class="st28" d="M240.71,140.66c0,0-8.51-3.45-9.35-4.85c-0.84-1.4,1.15-6.84-0.16-10.99c-1.3-4.15,7.11-8.25,7.98-8.39
		c0.87-0.14,8.36,17.33,8.36,17.33S244.39,139.57,240.71,140.66z"/>
	<path class="st6" d="M255.03,324.8c0,0-13.89,6.45-21.63,4.47c-7.74-1.98,17.39-38.4,17.39-38.4S263.22,315.25,255.03,324.8z"/>
	<path class="st15" d="M202.46,485.41l1.13,9.83c0,0,8.9,7.3,14.2,0.75l-1.9-12.14L202.46,485.41z"/>
	<path class="st15" d="M243.39,482.3l1.13,9.83c0,0,8.9,7.3,14.2,0.75l-1.9-12.15L243.39,482.3z"/>
	<path class="st17" d="M195.02,325.82c0,0-2.15,27.28,11.05,31.14c13.2,3.85,35.19,3.63,38.41-1.81c3.22-5.43,3.93-32.17,3.93-32.17
		L195.02,325.82z"/>
	<path class="st17" d="M194.99,326.3l-3.92,74.52l9.38,84.49c0,0,5.49,11.03,21.07,1.11c0,0-5.81-74.53-5.51-81.35
		c0.3-6.82,5.76-55.9,5.76-55.9L194.99,326.3z"/>
	<path class="st17" d="M248.4,322.98c0,0,12.5,80.12,11.6,88.82c-0.9,8.7-0.79,71.56-0.79,71.56s-6.15,7.14-19.45,4l-3.1-73.41
		c0,0-10.24-56.91-11.44-58.57C224.03,353.72,248.4,322.98,248.4,322.98z"/>
	<path class="st13" d="M244.36,490.8c0,0-3.07,10.82-0.75,14.36c2.31,3.54,18.37,4.71,20.11,4.03c1.74-0.68,23.22,4.16,27.98,1.82
		s-5.88-9-10.59-12.18c-4.72-3.18-23.1-10.49-23.1-10.49S247.8,493.97,244.36,490.8z"/>
	<path class="st13" d="M203.33,493c0,0,9.15,2.79,13.93-0.42c0,0,5.69,14.66,3.02,17.69c-2.68,3.03-7.78,2.52-7.13,4.26
		c0.64,1.74-11.4,7.95-20.45,3.56C183.64,513.72,193.55,508.08,203.33,493z"/>
	<path class="st15" d="M164.01,275.06c0,0-1.25,35.36,3.97,38.78c5.21,3.42,14.25-5.8,14.6-39.26
		C182.93,241.13,164.01,275.06,164.01,275.06z"/>
	<path class="st16" d="M197.69,203.93l1.68,22.28c0,0,6.98,4.25,12.29,2.3c5.31-1.94,5.59-3.03,5.59-3.03l-4.75-24.17L197.69,203.93
		z"/>
	<path class="st28" d="M181.21,179.52c0,0-3.91-10.89,0-20.6c3.91-9.71,32.39-11.36,36.3-2.44c3.91,8.92,3.91,14.48,3.91,14.48
		s4.47-5.62,7.54,0c3.07,5.62-4.47,11.03-4.47,11.03s2.23,27.26-14.24,29.49c-16.48,2.23-27.09-20.8-27.09-20.8s-6.14,0.36-8.1-4.22
		C173.12,181.89,174.51,176.6,181.21,179.52z"/>
	<path class="st21" d="M208.86,171.69c0,0,6-0.75,7.12-0.72c1.12,0.03,3.49,1.7,3.91,2.68c0.42,0.98-2.51-0.54-3.35-0.69
		c-0.84-0.15-6.98,1.9-7.68,1.58C208.16,174.21,206.93,171.92,208.86,171.69z"/>
	<path class="st21" d="M198.31,172.02c0,0-5.83,1.63-6.85,2.09c-1.02,0.46-2.56,2.92-2.57,3.98c-0.01,1.07,2.11-1.47,2.82-1.93
		c0.72-0.46,7.17-0.95,7.69-1.52C199.92,174.08,200.17,171.49,198.31,172.02z"/>
	<path class="st29" d="M207.83,175.13c0,0-0.92,1.39-0.36,3.44s5.03,11.27,3.91,12.11c-1.12,0.84-3.91,3.07-5.72,0.56"/>
	<path class="st21" d="M199.41,179.45c0,0.93-0.75,1.68-1.69,1.68s-1.69-0.75-1.69-1.68c0-0.93,0.75-1.69,1.69-1.69
		S199.41,178.52,199.41,179.45z"/>
	<path class="st21" d="M216.18,178.2c0,0.93-0.75,1.69-1.69,1.69c-0.93,0-1.68-0.75-1.68-1.69c0-0.93,0.75-1.68,1.68-1.68
		C215.42,176.51,216.18,177.27,216.18,178.2z"/>
	<path class="st3" d="M198.75,218.02c0,0-1.24,5.51,9.08,4.42c10.32-1.09,7.61-6.13,7.61-6.13s12.58-15,25.58-2.62
		c8.84,8.42,7.66,42.22,6.5,49.49c-1.17,7.27,0.45,59.7,0.45,59.7s-18.5,19.22-53.16,6.12c0,0-3.3-40.43-6.21-46.26
		c-2.91-5.83-21.05-42.62-17.55-49.23C174.53,226.88,198.75,218.02,198.75,218.02z"/>
	<path class="st13" d="M241.02,227.22"/>
	<path class="st15" d="M164.76,303.39c0,0-0.39,39.13,5.83,53.78c6.22,14.65,9.64-7.41,8.76-9.82c-0.88-2.41-0.41-43.95-0.41-43.95
		S166.63,293.69,164.76,303.39z"/>
	<path class="st28" d="M179.49,348.31c0,0,6.36,8.45,6.36,10.33c0,1.88-5.18,6.07-6.36,10.94c-1.17,4.87-11.9,3.93-12.84,3.55
		s2.01-22.06,2.01-22.06S175.2,347.2,179.49,348.31z"/>
	<path class="st28" d="M185.54,357.58c0,0,2.57,6.52,2.57,10.1c0,3.58,0,9.6,0,9.6s-3.58,1.32-3.58-2.26s-1.17-9.79-2.38-10.73
		C180.95,363.34,182.78,356.33,185.54,357.58z"/>
	<path class="st28" d="M178.69,369.39c0,0,1.82,3.82,2.01,6.78c0.19,2.96,4.03,8.23,3.99,9.74c-0.04,1.51-1.21,1.88-3.16,0
		c-1.95-1.88-4.21-6.4-4.78-7.62c-0.56-1.22-2.45-10.05-2.45-10.05S177.64,366.79,178.69,369.39z"/>
	<path class="st28" d="M176.51,371.18c0,0,1.82,3.82,2.01,6.78c0.19,2.96,4.03,8.23,3.99,9.74c-0.04,1.51-1.21,1.88-3.16,0
		c-1.95-1.88-4.21-6.4-4.78-7.62c-0.56-1.22-2.45-10.05-2.45-10.05S175.47,368.58,176.51,371.18z"/>
	<path class="st28" d="M172.75,370.8c0,0,1.82,3.82,2.01,6.78c0.19,2.96,4.03,8.23,3.99,9.74c-0.04,1.51-1.21,1.88-3.16,0
		c-1.96-1.88-4.21-6.4-4.78-7.62c-0.56-1.22-2.45-10.05-2.45-10.05S171.7,368.2,172.75,370.8z"/>
	<path class="st28" d="M171.03,366.77c0,0,0.38,4.16-0.41,7.02s0.9,9,0.38,10.41c-0.51,1.42-1.67,1.42-2.78-0.94
		c-1.12-2.36-1.65-7.32-1.76-8.64c-0.1-1.33,1.07-10.25,1.07-10.25S170.95,363.99,171.03,366.77z"/>
	<path class="st9" d="M222.48,182.72c0.33-0.86-0.31-7.74-0.76-12.09c-0.19,0.2-0.3,0.34-0.3,0.34s0-5.55-3.91-14.48
		c-3.91-8.92-32.39-7.27-36.3,2.44c-3.91,9.71,0,20.6,0,20.6s2.37,2.35,2.94,5.6c0.57,3.25,3.02,2.54,3.02,2.54
		s-2.66-14.69-2.98-14.9c-0.32-0.21,2.22-10.38,2.22-10.38s7.94-7.48,16.04-5.36c0,0,9.1-2.55,12.57-0.38c0,0,4.37,6.51,5.6,14.32
		C221.85,178.77,221.99,183.99,222.48,182.72z"/>
	<path class="st30" d="M180.48,161.11c-2.6,9.09,0.74,18.41,0.74,18.41s2.37,2.35,2.94,5.6c0.57,3.25,3.02,2.54,3.02,2.54
		s-2.66-14.69-2.98-14.9c-0.32-0.21,2.22-10.38,2.22-10.38s0.03-0.03,0.09-0.08c-3.33,0.49-5.39,0.65-5.39,0.65L180.48,161.11z"/>
	<path class="st30" d="M221.43,170.96c0,0-0.01-3.33-1.81-8.96c-0.01,0-0.78-0.33-2.08-0.76c1.2,2.57,2.5,5.99,3.09,9.71
		c1.23,7.8,1.37,13.03,1.87,11.76c0.33-0.86-0.31-7.74-0.76-12.09C221.54,170.83,221.43,170.96,221.43,170.96z"/>
	<path class="st21" d="M223.59,156.18c-0.52-7.91-7.81-11.58-7.81-11.58l3.25-0.14c-6.21-4.52-14.12-3.11-14.12-3.11l2.92-0.69
		c-8.23-3.23-18.03,2.1-18.03,2.1l3.25-2.97c-6.92,0.85-11.93,10.02-11.93,10.02l-2.13-4.24v8.05l-2.13-3l3.62,10.48l0.64,1.85
		c0,0,2.06-0.15,5.39-0.65c0.89-0.8,8.34-7.27,15.95-5.28c0,0,9.1-2.55,12.57-0.38c0,0,1.19,1.79,2.51,4.6
		c1.3,0.43,2.08,0.75,2.08,0.76l0,0c2.57-5.75,0.32-8.8,0.32-8.8L223.59,156.18z"/>
	<path class="st7" d="M198.64,215.16c0,0-4.44,9.23,0,18.18c4.43,8.95,16.47,35.21,16.38,51.87c-0.09,16.66,2.23,46.34-3.47,48.35
		c-5.69,2.01-20.46,4.03-22.66-10.58c-2.2-14.61,0.88-43.41-6.3-50.19c-7.19-6.78-15.47-33.04-11.47-40.94
		C175.12,223.95,198.64,215.16,198.64,215.16z"/>
	<path class="st7" d="M215.02,212.93c0,0,12.05,9.35,11.49,22.04c-0.56,12.69,23.44,74.53,24.85,83.42
		c1.41,8.89,1.78,6.64,6.68,5.51c4.9-1.13,5.74-15.81,4.33-29.08c-1.41-13.27-11.58-59.3-15.25-72.15
		C243.45,209.83,229.79,201.36,215.02,212.93z"/>
	<path class="st31" d="M198.25,211.35c0,0-7.44,10.4-0.95,18.35c0,0-0.51-4.17,1.57-10.11L198.25,211.35z"/>
	<path class="st7" d="M166.46,347.03c0,0,1.17,4.97,0.61,7.94c-0.56,2.96,13.89-3.37,14.71-4.37c0.82-1-1.72-4.67-1.72-8.2
		C180.06,338.87,166.46,347.03,166.46,347.03z"/>
	<path class="st31" d="M214.46,211.35l1.29,6.55c0,0,5.45,2.38,8.95,7.67C224.7,225.57,223.03,214.43,214.46,211.35z"/>
	<path class="st27" d="M171.12,231.85c0,0-15.47,6.39-11.25,34.39c4.22,28,2.07,56.67,4.88,75.04c2.82,18.37,17.57,5.31,18.58-2.98
		c1.01-8.28-1.02-35.8,1.35-43.67C187.06,286.76,196.3,250.02,171.12,231.85z"/>
	<path class="st28" d="M238.76,123.13c0,0-2.14-2.93-2.84-5.41c-0.7-2.48-4.69-6.3-4.94-7.58c-0.25-1.28,0.6-1.81,2.49-0.54
		c1.89,1.26,4.5,4.71,5.17,5.65c0.67,0.94,3.78,8.11,3.78,8.11S240.06,125.16,238.76,123.13z"/>
	<path class="st28" d="M232.06,136.47c0,0-4.83-3.71-6.43-6.37c-1.6-2.66-4.29-7.15-4.29-7.15s2.07-2.58,3.67,0.08
		c1.6,2.66,5.25,6.77,6.57,6.93C232.89,130.12,234.67,136.16,232.06,136.47z"/>
	<path class="st32" d="M241.19,145.73c0,0-0.5-3.61-2.19-5.07c-1.69-1.46,6.55-8.21,8.53-11.17c1.99-2.96,2.32,6.57,3.64,10.13
		C252.49,143.19,241.19,145.73,241.19,145.73z"/>
	<path class="st29" d="M199.01,194.12c0,0,3.39,4.76,8.41,2.69"/>
</g>
<g>
	<path class="st13" d="M497.14,82.02c0,0-6.12,4.96-25.12,13.29c-17.4,7.62-31.39,19.31-23.37,24.6c8.02,5.29,36.89-6.39,36.89-6.39
		S498.83,91.95,497.14,82.02z"/>
	<g>
		<path class="st16" d="M390.59,235.36c0,0-14.38,14.7-17.76,15.19c-3.38,0.49-29.86,14.63-28.09,17.62
			c1.77,2.99,7.34,2.15,7.34,2.15s7.93,2.08,11.8-1.37c3.87-3.45,17.13-6.6,22-6.37c4.86,0.23,10.73-4.52,9.74-10.53
			c-0.99-6,4.06-14.05,4.06-14.05S395.66,227.86,390.59,235.36z"/>
		<path class="st33" d="M482.3,161.97c0,0-26.96-29.41-35.07-25.75c-8.12,3.66-14.61,34.56-10.35,39.48
			C441.14,180.62,489.68,179.31,482.3,161.97z"/>
		<path class="st16" d="M559.37,181.82c0,0-1.02,8.52,4.73,8.78c5.75,0.26,15.51,3.77,20.12,0.9c0,0,15.56,2.82,14.05,0.63
			c-1.5-2.19-21.23-4.85-29.77-14.26C559.96,168.45,559.37,181.82,559.37,181.82z"/>
		<path class="st21" d="M483.63,19.6c0,0-2.33,9.02,0.05,11.01c2.38,1.99,3.98,20.6-9.41,32.16c0,0,5.53,1.85,11.85-9.32
			c6.31-11.17,7.57-21.68,7.87-28.03c0.3-6.35-3.92-10.45-3.92-10.45L483.63,19.6z"/>
		<path class="st21" d="M501.11,32.95c-0.17-6.55-2.4-12.46-5.54-17.24c-0.03,0.01-0.06,0.04-0.09,0.05
			c-2.14,0.95-4.31,1.55-6.51,1.97c-0.71,0.61-1.67,1.24-2.07,1.67c-0.11,0.12-0.18,0.19-0.25,0.26c-0.32,0.45-0.58,0.93-0.73,1.47
			c-0.31,0.63-0.56,1.28-0.82,1.93c3.5,8.78,1.22,18.8,1.4,24.84c0.3,10.31-10.79,36.85-10.79,36.85s12.65,0.19,19.69-4.23
			c7.03-4.42,7.8-9.49,7.92-12.1C503.43,65.81,501.53,49.02,501.11,32.95z"/>
		<path class="st17" d="M529.98,70.18l11.44,7.46c3.98,2.59,5.77,7.48,4.41,12.02c-3.33,11.14-10.2,31.4-18.54,40.97
			c-11.84,13.58,9.7,46.12,7.01,50.71c-2.69,4.59-62.14,1.16-61.21-7.42c0.93-8.58,15.5-42.39,14.48-48.71
			c-1.02-6.32-10.13-10.8-7.17-22.74c2.97-11.94,22.56-29.18,22.56-29.18S518.97,63.01,529.98,70.18z"/>
		<path class="st15" d="M519.01,43.25c0.68,1.32-0.58,14.92,5.16,26.17c5.74,11.25-18.96,27.09-23.42,24.07
			c-4.45-3.02,3.31-20.63-1.05-34.8C495.34,44.52,514.78,35.09,519.01,43.25z"/>
		<path class="st21" d="M491.12,9.43c0,0,5.23-4.94,18.97-3.38c15.43,1.76,22.41,12.4,22.82,28.47c0.42,16.07,2.32,32.86,2.2,35.47
			c-0.12,2.61-0.88,7.69-7.92,12.1c-7.03,4.42-19.69,4.23-19.69,4.23s11.08-26.54,10.79-36.85C518,39.18,518.07,16.95,491.12,9.43z"
			/>
		<path class="st16" d="M482.67,22.19c0,0-1.72,6.02-1.68,11.95c0.04,5.93-1.37,9.11-1.47,14.74c-0.1,5.63,4,14.6,8.82,18.93
			c4.82,4.32,15.62,0.41,23.17-4.71c7.55-5.11,7.43-12.18,7.43-12.18s0.96,2.08,4.21-1.41c3.25-3.49,6.71-13.56,2.09-15.74
			c-4.62-2.19-4.55,0.3-4.55,0.3s3.46-19.8-18.34-23.87C489.06,7.72,483.94,15.86,482.67,22.19z"/>
		<path class="st34" d="M491.06,34.89c0,0,0.49,3.02-0.73,6.02c-1.23,3-3.27,10.38-3.45,11.55c-0.18,1.17,4.6,3.91,5.86,1.17"/>
		<path class="st34" d="M487.62,58.35c0.27,0.26,5.12,3.16,9.37-1.01"/>
		<path class="st13" d="M497.21,35.26c0,0,6.34-0.14,7.83,0.16c1.49,0.3,4.57,2.42,4.67,1.72c0.09-0.7-3.84-2.97-5.48-3.66
			c-1.64-0.68-7-0.4-7-0.4S496.38,34.05,497.21,35.26z"/>
		<path class="st13" d="M488.88,35.15c0,0-4.56-0.98-5.62-0.88c-1.05,0.09-3.15,1.73-3.26,1.03c-0.11-0.69,2.59-2.36,3.72-2.8
			c1.14-0.44,5.01,0.55,5.01,0.55S489.4,34.09,488.88,35.15z"/>
		<path class="st13" d="M500.8,39.91c-0.33,0.9,0.13,1.9,1.03,2.23c0.9,0.33,1.9-0.13,2.23-1.03c0.33-0.9-0.13-1.9-1.03-2.23
			C502.13,38.55,501.13,39.01,500.8,39.91z"/>
		<path class="st13" d="M485.41,38.53c-0.33,0.9,0.13,1.9,1.03,2.23c0.9,0.33,1.9-0.13,2.23-1.03c0.33-0.9-0.13-1.9-1.03-2.23
			C486.74,37.17,485.74,37.63,485.41,38.53z"/>
		<path class="st35" d="M525.99,42.22c0,0,0.7-5.25-2.51-5.69c-3.21-0.44-2.37,6.44-2.37,6.44s2.15-0.93,2.36,0.29
			c0.21,1.23-1.47,1.51-1.47,1.51s-1.34,1.4-0.19,1.98c1.15,0.59,2.14-0.78,2.14-0.78"/>
		<path class="st21" d="M497.98,8.75c0,0-19.6-1.86-18.39,19.38c0,0,18.09,4.7,39.56-0.09C519.15,28.04,524.88,10.94,497.98,8.75z"
			/>
		<path class="st21" d="M510.35,22.78c0,0-0.5,9.31,2.23,10.78c2.73,1.48,7.99,19.41-2.84,33.38c0,0,5.79,0.72,9.77-11.48
			c3.97-12.2,3.12-22.75,2.16-29.03c-0.96-6.28-5.91-9.46-5.91-9.46L510.35,22.78z"/>
		<path class="st13" d="M526.46,87.27c0,0,6.36-11.02,14.7-9.15c8.34,1.86,16.73,57.88,16.73,57.88s13.93,39.28,12.51,42.31
			c-1.42,3.03-11.51,7.16-14.67,6.17c-3.16-0.99-8.21-45.57-10.01-48.28C543.92,133.49,525.79,102.28,526.46,87.27z"/>
		<path class="st7" d="M436.09,184.95c0,0,1.26-28.27,49.67-20.28c34.79,5.74,47.86,10.54,48.53,16.68
			c0.68,6.14,5.21,11.03-12.57,11.95C503.95,194.21,433.47,197.36,436.09,184.95z"/>
		<path class="st7" d="M446.47,168.92c0,0-9.94,1.46-15.57,5.65c-5.63,4.19-53.08,63.52-50.35,69.19
			c2.73,5.67,13.04,3.27,22.68,1.01c9.64-2.26,51.63-50.18,56.54-55.09C464.69,184.78,458.53,172.77,446.47,168.92z"/>
		<path class="st16" d="M425.23,206.67c0,0-7.36,19.2-10.27,20.99c-2.91,1.79-21.6,25.28-18.79,27.33c2.81,2.05,7.59-0.94,7.59-0.94
			s8.11-1.24,10.29-5.94c2.18-4.7,13.11-12.86,17.67-14.57c4.56-1.72,8.06-8.41,4.76-13.53c-3.29-5.12-1.85-14.5-1.85-14.5
			S426.9,197.78,425.23,206.67z"/>
		<path class="st33" d="M463.89,149.93c0,0-3.3-12.09-14.3-14.28c-11-2.19-35.72,65.58-33.92,77.08c0,0,5.8,5.75,23.49,2.61
			C456.85,212.2,462.17,159.84,463.89,149.93z"/>
	</g>
	<path class="st13" d="M456.91,112.62c0,0,0.72-6.54-2-19c-2.71-12.46-4.54-24.25-4.54-24.25s-13.04-2.27-13,1.84
		c0.04,4.11,5.44,44.36,9.81,48.01C451.53,122.85,457.16,120.95,456.91,112.62z"/>
	<g>
		<path class="st16" d="M449.85,71.15c0,0,1.94-9.11,1.24-10.61c-0.7-1.5-6.4-2.92-9.14-6.38c-2.75-3.45-10.96,1.28-11.58,1.93
			c-0.61,0.65,9.8,16.86,9.8,16.86S446.84,73.63,449.85,71.15z"/>
		<path class="st16" d="M451.24,61.51c0,0-0.37-6.16-1.7-9.02c-1.33-2.86-3.57-7.67-3.57-7.67s-3.35,0.28-2.02,3.13
			c1.33,2.86,2.7,8.25,2.09,9.45C445.44,58.61,449.5,63.53,451.24,61.51z"/>
		<path class="st16" d="M441.38,54.62c0,0,0.04-3.73-0.91-6.16s0.16-8.07-0.43-9.26c-0.59-1.19-1.66-1.05-2.53,1.18
			c-0.86,2.23-0.99,6.68-0.98,7.86c0,1.19,1.78,8.93,1.78,8.93S441.51,57.08,441.38,54.62z"/>
		<path class="st16" d="M438.98,54c0,0,0.04-3.73-0.91-6.16c-0.95-2.44,0.16-8.07-0.43-9.26c-0.59-1.19-1.66-1.05-2.53,1.18
			c-0.86,2.23-0.99,6.68-0.98,7.86c0,1.19,1.78,8.93,1.78,8.93S439.11,56.46,438.98,54z"/>
		<path class="st16" d="M436.12,55.7c0,0,0.04-3.73-0.91-6.16c-0.95-2.44,0.16-8.07-0.43-9.26c-0.59-1.19-1.66-1.05-2.53,1.18
			c-0.86,2.23-0.99,6.68-0.98,7.86c0,1.19,1.78,8.93,1.78,8.93S436.25,58.16,436.12,55.7z"/>
		<path class="st16" d="M436.24,59.56c0,0-1.24-3.46-2.93-5.46c-1.69-1.99-2.62-7.52-3.56-8.46c-0.94-0.94-1.86-0.52-1.87,1.79
			c-0.01,2.3,1.4,6.46,1.81,7.55c0.41,1.1,4.66,7.78,4.66,7.78S437.21,61.8,436.24,59.56z"/>
	</g>
</g>
</svg>
