<?xml version="1.0" encoding="UTF-8"?>
<svg xmlns="http://www.w3.org/2000/svg" xmlns:xlink="http://www.w3.org/1999/xlink" width="17px" height="17px" viewBox="0 0 17 17" version="1.1">
<g id="surface1">
<path style=" stroke:none;fill-rule:evenodd;fill:rgb(0%,0%,0%);fill-opacity:1;" d="M 4.25 1.417969 C 2.683594 1.417969 1.417969 2.683594 1.417969 4.25 L 1.417969 12.75 C 1.417969 14.316406 2.683594 15.582031 4.25 15.582031 L 12.75 15.582031 C 14.316406 15.582031 15.582031 14.316406 15.582031 12.75 L 15.582031 4.25 C 15.582031 2.683594 14.316406 1.417969 12.75 1.417969 Z M 2.832031 4.25 C 2.832031 3.46875 3.46875 2.832031 4.25 2.832031 L 12.75 2.832031 C 13.53125 2.832031 14.167969 3.46875 14.167969 4.25 L 14.167969 12.75 C 14.167969 13.53125 13.53125 14.167969 12.75 14.167969 L 4.25 14.167969 C 3.46875 14.167969 2.832031 13.53125 2.832031 12.75 Z M 6.375 7.792969 C 6.375 7.402344 6.058594 7.082031 5.667969 7.082031 C 5.277344 7.082031 4.957031 7.402344 4.957031 7.792969 L 4.957031 12.042969 C 4.957031 12.433594 5.277344 12.75 5.667969 12.75 C 6.058594 12.75 6.375 12.433594 6.375 12.042969 Z M 6.730469 5.3125 C 6.730469 5.898438 6.253906 6.375 5.667969 6.375 C 5.078125 6.375 4.605469 5.898438 4.605469 5.3125 C 4.605469 4.726562 5.078125 4.25 5.667969 4.25 C 6.253906 4.25 6.730469 4.726562 6.730469 5.3125 Z M 8.5 7.082031 C 8.742188 7.082031 8.953125 7.203125 9.082031 7.386719 C 9.445312 7.191406 9.847656 7.082031 10.269531 7.082031 C 11.800781 7.082031 12.75 8.449219 12.75 9.613281 L 12.75 12.042969 C 12.75 12.433594 12.433594 12.75 12.042969 12.75 C 11.652344 12.75 11.332031 12.433594 11.332031 12.042969 L 11.332031 9.613281 C 11.332031 9.070312 10.867188 8.5 10.269531 8.5 C 9.898438 8.5 9.488281 8.703125 9.207031 9.183594 L 9.207031 12.042969 C 9.207031 12.433594 8.890625 12.75 8.5 12.75 C 8.109375 12.75 7.792969 12.433594 7.792969 12.042969 L 7.792969 7.792969 C 7.792969 7.402344 8.109375 7.082031 8.5 7.082031 Z M 8.5 7.082031 "/>
</g>
</svg>
