<svg width="12" height="14" viewBox="0 0 12 14" fill="none" xmlns="http://www.w3.org/2000/svg">
<rect width="12" height="14" fill="#E5E5E5"/>
<g clip-path="url(#clip0)">
<rect width="1440" height="900" transform="translate(-468 -122)" fill="white"/>
<g clip-path="url(#clip1)">
<rect width="1440" height="1024" transform="translate(-468 -122)" fill="#E9EDF5"/>
<g filter="url(#filter0_d)">
<rect x="-469" y="-50" width="1441" height="72" fill="white"/>
</g>
</g>
<rect opacity="0.8" x="-468" y="-122" width="1440" height="900" fill="black"/>
<g filter="url(#filter1_d)">
<rect x="-143" y="-82" width="780" height="519" rx="5" fill="white"/>
</g>
<mask id="mask0" mask-type="alpha" maskUnits="userSpaceOnUse" x="-143" y="-82" width="780" height="275">
<rect x="-143" y="-82" width="780" height="275" fill="#F6F6F6"/>
</mask>
<g mask="url(#mask0)">
<rect x="-143" y="-82" width="780" height="304" fill="url(#paint0_linear)"/>
</g>
<g opacity="0.8" clip-path="url(#clip2)">
<path d="M11.25 5.83334C11.25 9.91668 6 13.4167 6 13.4167C6 13.4167 0.75 9.91668 0.75 5.83334C0.75 4.44096 1.30312 3.1056 2.28769 2.12103C3.27226 1.13647 4.60761 0.583344 6 0.583344C7.39239 0.583344 8.72774 1.13647 9.71231 2.12103C10.6969 3.1056 11.25 4.44096 11.25 5.83334Z" stroke="#403F3F" stroke-width="1.2" stroke-linecap="round" stroke-linejoin="round"/>
<path d="M6 7.58334C6.9665 7.58334 7.75 6.79984 7.75 5.83334C7.75 4.86685 6.9665 4.08334 6 4.08334C5.0335 4.08334 4.25 4.86685 4.25 5.83334C4.25 6.79984 5.0335 7.58334 6 7.58334Z" stroke="#403F3F" stroke-width="1.2" stroke-linecap="round" stroke-linejoin="round"/>
</g>
</g>
<defs>
<filter id="filter0_d" x="-474" y="-51" width="1451" height="82" filterUnits="userSpaceOnUse" color-interpolation-filters="sRGB">
<feFlood flood-opacity="0" result="BackgroundImageFix"/>
<feColorMatrix in="SourceAlpha" type="matrix" values="0 0 0 0 0 0 0 0 0 0 0 0 0 0 0 0 0 0 127 0"/>
<feOffset dy="4"/>
<feGaussianBlur stdDeviation="2.5"/>
<feColorMatrix type="matrix" values="0 0 0 0 0 0 0 0 0 0 0 0 0 0 0 0 0 0 0.04 0"/>
<feBlend mode="normal" in2="BackgroundImageFix" result="effect1_dropShadow"/>
<feBlend mode="normal" in="SourceGraphic" in2="effect1_dropShadow" result="shape"/>
</filter>
<filter id="filter1_d" x="-147" y="-82" width="788" height="527" filterUnits="userSpaceOnUse" color-interpolation-filters="sRGB">
<feFlood flood-opacity="0" result="BackgroundImageFix"/>
<feColorMatrix in="SourceAlpha" type="matrix" values="0 0 0 0 0 0 0 0 0 0 0 0 0 0 0 0 0 0 127 0"/>
<feOffset dy="4"/>
<feGaussianBlur stdDeviation="2"/>
<feColorMatrix type="matrix" values="0 0 0 0 0 0 0 0 0 0 0 0 0 0 0 0 0 0 0.25 0"/>
<feBlend mode="normal" in2="BackgroundImageFix" result="effect1_dropShadow"/>
<feBlend mode="normal" in="SourceGraphic" in2="effect1_dropShadow" result="shape"/>
</filter>
<linearGradient id="paint0_linear" x1="247" y1="-82" x2="247" y2="222" gradientUnits="userSpaceOnUse">
<stop offset="0.196068" stop-color="white" stop-opacity="0"/>
<stop offset="0.800143" stop-color="white"/>
</linearGradient>
<clipPath id="clip0">
<rect width="1440" height="900" fill="white" transform="translate(-468 -122)"/>
</clipPath>
<clipPath id="clip1">
<rect width="1440" height="1024" fill="white" transform="translate(-468 -122)"/>
</clipPath>
<clipPath id="clip2">
<rect width="14" height="14" fill="white" transform="translate(-1)"/>
</clipPath>
</defs>
</svg>
