<svg width="18" height="20" viewBox="0 0 18 20" fill="none" xmlns="http://www.w3.org/2000/svg">
<rect width="18" height="20" fill="#E5E5E5"/>
<g clip-path="url(#clip0)">
<rect width="1440" height="900" transform="translate(-1137 -26)" fill="white"/>
<g clip-path="url(#clip1)">
<rect width="1440" height="1024" transform="translate(-1137 -26)" fill="#E9EDF5"/>
<rect x="-1137" y="-26" width="1440" height="72" fill="white"/>
<path d="M14.3333 7.99996C14.3333 6.58547 13.7714 5.22892 12.7712 4.22872C11.771 3.22853 10.4145 2.66663 9 2.66663C7.58551 2.66663 6.22896 3.22853 5.22876 4.22872C4.22857 5.22892 3.66667 6.58547 3.66667 7.99996C3.66667 14.2222 1 16 1 16H17C17 16 14.3333 14.2222 14.3333 7.99996Z" stroke="#343434" stroke-linecap="round" stroke-linejoin="round"/>
<path d="M10.5378 18.5555C10.3816 18.8249 10.1573 19.0486 9.88737 19.204C9.61749 19.3595 9.31151 19.4413 9.00006 19.4413C8.68861 19.4413 8.38263 19.3595 8.11275 19.204C7.84286 19.0486 7.61856 18.8249 7.46228 18.5555" stroke="#343434" stroke-linecap="round" stroke-linejoin="round"/>
<circle cx="14" cy="4" r="3.5" fill="#DC3B44" stroke="white"/>
</g>
</g>
<defs>
<clipPath id="clip0">
<rect width="1440" height="900" fill="white" transform="translate(-1137 -26)"/>
</clipPath>
<clipPath id="clip1">
<rect width="1440" height="1024" fill="white" transform="translate(-1137 -26)"/>
</clipPath>
</defs>
</svg>
