<?xml version="1.0" encoding="UTF-8"?>
<svg id="_Слой_2" data-name="Слой 2" xmlns="http://www.w3.org/2000/svg" xmlns:xlink="http://www.w3.org/1999/xlink" viewBox="0 0 7000 1278.38">
  <defs>
    <style>
      .cls-1 {
        font-family: Arial-Black, 'Arial Black';
        font-size: 300px;
        font-weight: 800;
      }

      .cls-1, .cls-2 {
        fill: #fff;
      }

      .cls-3 {
        filter: url(#luminosity-noclip);
      }

      .cls-4 {
        letter-spacing: -.02em;
      }

      .cls-5 {
        fill: #66a2b5;
      }

      .cls-6 {
        fill: #e7ab7d;
      }

      .cls-7 {
        fill: #64aff9;
      }

      .cls-8 {
        fill: #9bc3fa;
      }

      .cls-9 {
        fill: #315793;
      }

      .cls-10 {
        fill: #e2925f;
      }

      .cls-11 {
        fill: #363b74;
      }

      .cls-12 {
        fill: #373c4a;
      }

      .cls-13 {
        fill: #5392f9;
      }

      .cls-14 {
        fill: #2d133b;
      }

      .cls-15 {
        fill: #496083;
      }

      .cls-16 {
        fill: #51889b;
      }

      .cls-17 {
        mask: url(#mask-1);
      }

      .cls-17, .cls-18 {
        fill: none;
      }

      .cls-18 {
        mask: url(#mask);
      }

      .cls-19 {
        letter-spacing: -.03em;
      }

      .cls-20 {
        fill: #5563fa;
        opacity: .2;
      }

      .cls-21 {
        fill: url(#_Безымянный_градиент_2);
        mix-blend-mode: multiply;
      }

      .cls-22 {
        fill: #2c5797;
        opacity: .9;
      }
    </style>
    <filter id="luminosity-noclip" x="4.72" y="63.96" width="4736.84" height="1046.87" color-interpolation-filters="sRGB" filterUnits="userSpaceOnUse">
      <feFlood flood-color="#fff" result="bg"/>
      <feBlend in="SourceGraphic" in2="bg"/>
    </filter>
    <filter id="luminosity-noclip-2" x="4.72" y="-9173.23" width="4736.84" height="32766" color-interpolation-filters="sRGB" filterUnits="userSpaceOnUse">
      <feFlood flood-color="#fff" result="bg"/>
      <feBlend in="SourceGraphic" in2="bg"/>
    </filter>
    <mask id="mask-1" x="4.72" y="-9173.23" width="4736.84" height="32766" maskUnits="userSpaceOnUse"/>
    <linearGradient id="_Безымянный_градиент_2" data-name="Безымянный градиент 2" x1="4581.99" y1="25.8" x2="36.81" y2="821.15" gradientUnits="userSpaceOnUse">
      <stop offset="0" stop-color="#333"/>
      <stop offset=".21" stop-color="#353535"/>
      <stop offset=".35" stop-color="#3f3f3f"/>
      <stop offset=".48" stop-color="#4e4e4e"/>
      <stop offset=".59" stop-color="#646464"/>
      <stop offset=".7" stop-color="#818181"/>
      <stop offset=".8" stop-color="#a3a3a3"/>
      <stop offset=".9" stop-color="#cdcdcd"/>
      <stop offset=".99" stop-color="#fcfcfc"/>
      <stop offset="1" stop-color="#fff"/>
    </linearGradient>
    <mask id="mask" x="4.72" y="63.96" width="4736.84" height="1046.87" maskUnits="userSpaceOnUse">
      <g class="cls-3">
        <g class="cls-17">
          <path class="cls-21" d="m4.72,63.96h4736.84s-635.29,84.91-894.15,514.13c-3.03,5.03-6.13,10.01-9.27,14.96-198.2,311.11-723.23,517.79-1309.43,517.79H4.72V63.96Z"/>
        </g>
      </g>
    </mask>
  </defs>
  <g>
    <rect class="cls-2" x="4.72" width="4474.03" height="1278.38"/>
    <path class="cls-12" d="m6992.79,1175.14H2248.94c-3.97,0-7.21-1.06-7.21-2.35h0c0-1.29,3.24-2.35,7.21-2.35h4743.85c3.97,0,7.21,1.06,7.21,2.35h0c0,1.29-3.25,2.35-7.21,2.35Z"/>
    <path class="cls-22" d="m7000,90.19V0H0v1178.93h2842.54c452.07,0,867.53-148.95,1071.39-386.8,29.38-34.27,54.65-70.44,74.07-108.35,211-412.04,789-522.86,1353-537,564-14.15,1659-56.59,1659-56.59Z"/>
    <g class="cls-18">
      <path class="cls-20" d="m4.72,63.96h4736.84s-635.29,84.91-894.15,514.13c-3.03,5.03-6.13,10.01-9.27,14.96-198.2,311.11-723.23,517.79-1309.43,517.79H4.72V63.96Z"/>
    </g>
  </g>
  <text class="cls-1" transform="translate(148.28 568.13)"><tspan x="0" y="0">Priva</tspan><tspan class="cls-4" x="833.06" y="0">c</tspan><tspan x="1028.03" y="0">y </tspan><tspan class="cls-19" x="1311.33" y="0">P</tspan><tspan x="1520.21" y="0">oli</tspan><tspan class="cls-4" x="1920.12" y="0">c</tspan><tspan x="2115.09" y="0">y</tspan></text>
  <path class="cls-9" d="m5402.77,219.98s-87.42-4.28-41.04,262.15c0,0,31.2,90.44-8.19,148.72h579.73V219.98h-530.5Z"/>
  <rect class="cls-8" x="5459.32" y="377.67" width="595.08" height="789.33"/>
  <path class="cls-7" d="m6054.41,377.66h0s-595.08,0-595.08,0c3.29-45-1.67-77.68-9.61-101.17-15.26-45.18-41.56-56.52-41.56-56.52h561.22c47.9,0,85.04,28.86,95.15,67.16.38,1.44.73,2.88,1.03,4.31,9.6,43.82-10.74,85.42-11.14,86.22Z"/>
  <path class="cls-13" d="m6054.41,377.66h0s-595.08,0-595.08,0c3.29-45-1.67-77.68-9.61-101.17,60.81,11.14,211.44,34.87,372.65,30.87,104.3-2.59,186.72-9.57,243.18-15.92,9.6,43.82-10.74,85.42-11.14,86.22Z"/>
  <g>
    <path class="cls-9" d="m5576.78,544.88h325.27c.58,0,1.05.47,1.05,1.05v12.71c0,.58-.47,1.05-1.05,1.05h-325.27c-.58,0-1.05-.47-1.05-1.05v-12.71c0-.58.47-1.05,1.05-1.05Z"/>
    <rect class="cls-9" x="5575.74" y="569.79" width="203.98" height="14.8" rx="1.05" ry="1.05"/>
    <path class="cls-9" d="m5545.34,582.19v-30.24h-3.99c-2.42,0-3.63-1.01-3.63-3.02,0-1.45.95-2.48,2.84-3.08.97-.32,2.51-.56,4.63-.73,2.12-.16,3.82-.24,5.11-.24s2.03.25,2.36.76c.32.5.48,1.78.48,3.84v32.72h4.11c2.66,0,3.99,1.15,3.99,3.45,0,2.42-1.33,3.63-3.99,3.63h-16.57c-1.17,0-2.15-.31-2.93-.94-.79-.63-1.18-1.5-1.18-2.63,0-2.34,1.35-3.51,4.05-3.51h4.72Z"/>
  </g>
  <g>
    <rect class="cls-9" x="5575.74" y="700.77" width="327.36" height="14.8" rx="1.05" ry="1.05"/>
    <rect class="cls-9" x="5575.74" y="725.68" width="203.98" height="14.8" rx="1.05" ry="1.05"/>
    <path class="cls-9" d="m5561.87,737.46c0,2.01-1.41,3.02-4.22,3.02h-17.53c-2.53,0-3.79-1.02-3.79-3.05,0-.64.34-1.39,1.02-2.24,1-1.14,2.46-2.85,4.38-5.13,2.92-3.67,5.36-6.84,7.32-9.51.68-.89,1.64-2.24,2.89-4.06,1.03-1.82,1.55-3.35,1.55-4.6,0-1.39-.45-2.54-1.34-3.45-.89-.91-2.03-1.36-3.42-1.36s-2.53.43-3.53,1.28c-.68.57-1.21,1.64-1.6,3.21-.5,2.03-.82,3.21-.96,3.53-.53,1.14-1.41,1.71-2.62,1.71-1.07,0-1.91-.39-2.51-1.18-.57-.68-.86-1.57-.86-2.67,0-1.25.2-2.51.59-3.8.86-2.74,2.37-4.84,4.54-6.31,2.07-1.39,4.58-2.08,7.54-2.08,3.24,0,5.95.98,8.12,2.94,2.24,2.07,3.37,4.71,3.37,7.92,0,2.39-.8,4.85-2.41,7.39-.89,1.39-2.72,3.85-5.5,7.39-1.42,1.82-3.67,4.46-6.73,7.92h11.54c2.78,0,4.17,1.04,4.17,3.13Z"/>
  </g>
  <g>
    <rect class="cls-9" x="5575.74" y="830.81" width="327.36" height="14.8" rx="1.05" ry="1.05"/>
    <path class="cls-9" d="m5576.78,855.72h201.89c.58,0,1.05.47,1.05,1.05v12.71c0,.58-.47,1.04-1.04,1.04h-201.89c-.58,0-1.05-.47-1.05-1.05v-12.71c0-.58.47-1.04,1.04-1.04Z"/>
    <path class="cls-9" d="m5561.87,858.12c0,3.79-1.33,6.83-3.99,9.12-2.51,2.18-5.7,3.28-9.56,3.28-2.99,0-5.54-.71-7.65-2.13-3.35-2.26-5.03-4.97-5.03-8.14,0-.91.29-1.69.87-2.35.58-.65,1.33-.98,2.24-.98s1.84.64,2.68,1.91c1.35,2.11,2.13,3.28,2.35,3.5,1.2,1.28,2.75,1.91,4.64,1.91,2.55,0,4.37-.95,5.46-2.84.51-.95.76-2.15.76-3.61,0-3.57-2.09-5.55-6.28-5.95-2.37-.22-3.55-1.22-3.55-3,0-1.31.69-2.24,2.06-2.79,2.57-.95,3.87-1.44,3.91-1.47,1.37-.91,2.06-2.49,2.06-4.75,0-1.35-.4-2.41-1.2-3.2-.8-.78-1.87-1.17-3.21-1.17-1.67,0-2.97.4-3.92,1.2-.8.69-1.47,1.88-2.01,3.55-.44,1.28-1.27,1.91-2.5,1.91-.87,0-1.59-.38-2.15-1.15-.56-.77-.84-1.6-.84-2.51,0-1.13.31-2.26.93-3.39,1.02-1.89,2.59-3.37,4.7-4.42,1.93-.98,4.04-1.47,6.34-1.47,3.09,0,5.67.94,7.73,2.81,2.06,1.88,3.09,4.34,3.09,7.4,0,3.68-1.53,6.59-4.59,8.74,4.44,1.78,6.66,5.12,6.66,10Z"/>
  </g>
  <g>
    <rect class="cls-9" x="5657.74" y="412.9" width="208.83" height="17.2" rx="1.21" ry="1.21"/>
    <rect class="cls-9" x="5605.09" y="439.42" width="314.13" height="17.2" rx="1.21" ry="1.21"/>
  </g>
  <path class="cls-11" d="m5739.09,639.5c-64.83,0-126.34-8.13-172.2-19.76-46.33-11.75-71.29-30.95-71.29-47.98,0-15.43,20.34-29.63,58.82-41.05h0c-36.88,10.95-56.6,27.02-56.6,41.05,0,15.57,25.56,30.98,70.14,42.28,45.7,11.59,106.48,17.97,171.14,17.97s125.44-6.38,171.14-17.97c44.57-11.3,70.14-26.71,70.14-42.28,0-16.49-26.92-36.98-70.25-53.48-49.27-18.76-110.01-25.72-171.02-25.72-114.55,0-161.7,13.37-202.62,30.13h0c41.09-16.83,87.66-35.9,202.61-35.9,61.26,0,122.26,10.38,171.76,29.23,44.25,16.85,71.73,38.21,71.73,55.75s-25.52,32.88-71.85,44.62c-45.86,11.63-106.82,23.11-171.64,23.11Z"/>
  <g>
    <path class="cls-6" d="m6132.75,794.32s-2.13,20.75-4.48,24.68c-2.34,3.93-12.31,16.47-16.56,18.93-4.25,2.46,2.59-16.53,1.73-20.22-.87-3.7-3.5,6.74-5.37,6.99-1.87.25-1.39-9.15-1.46-12.57-.07-3.42,9.11-11.86,12.35-19.14,3.23-7.28,13.79,1.33,13.79,1.33Z"/>
    <path class="cls-6" d="m5877.79,602.91l-4.77-9s2.37-16.04-17.73-26.18c0,0-7.34-2.99-11.49,3-3.82,5.52,7.28,4.52,6.68,13.96-.6,9.44,3.88,14.98,10.12,18.05l5.15,5.97,12.03-5.8Z"/>
    <path class="cls-15" d="m6067.68,581.4s-17.26,84.69-112.21,112.36c-29.64,8.64-96.98-88.95-96.98-88.95,0,0,2.37-9,17.2-6.93,0,0,65.57,43.41,73.82,48.12,7.33,4.18,55.49-53.79,77.45-63.14,21.96-9.35,40.72-1.47,40.72-1.47Z"/>
    <g>
      <rect class="cls-14" x="5848.88" y="535.67" width="17.74" height="89.21" transform="translate(4394.95 6282.04) rotate(-81.27)"/>
      <polygon class="cls-6" points="5793.15 570.36 5812.31 582.27 5815 564.74 5793.15 570.36"/>
      <path class="cls-6" d="m5912.54,585.67l-.85,5.54c-.52,3.41-3.71,5.75-7.12,5.22l-4.08-.63,2.69-17.53,4.44.68c3.21.49,5.42,3.5,4.92,6.71Z"/>
    </g>
    <g>
      <path class="cls-11" d="m6181.04,1113.8s11.78,10.75,9.48,18.39c-2.3,7.64-12.93,12.73-14.37,22.07-1.44,9.34-7.18,14.43-12.35,14.43h-24.66s-3.81-6.57,5.39-8.55c9.19-1.98,12.66-12.95,12.09-23.14-.58-10.18.86-23.76.86-23.76l19.54-4.53,4.02,5.09Z"/>
      <path class="cls-11" d="m6036.52,1141.6s2.11,24.47-3.06,27.01l-66.19-.14s0-7.64,10.63-9.34c10.63-1.7,29.31-7.92,32.47-21.78,3.16-13.86,26.15,4.24,26.15,4.24Z"/>
      <path class="cls-5" d="m5980.64,796s3.49,42.89,7.59,94.44c5.58,70.03,12.28,156.05,12.95,172.34,1.15,28.3,5.75,73.56,5.75,73.56,0,0,10.91,10.75,32.75,6.22,0,0,19.46-64.61,25.02-132.98.09-1.12.17-2.25.26-3.38,5.17-69.6,13.21-216.14,13.21-216.14l-97.54,5.94Z"/>
      <path class="cls-16" d="m5980.64,796s3.49,42.89,7.59,94.44l76.47,119.14c.09-1.12.17-2.25.26-3.38,5.17-69.6,13.21-216.14,13.21-216.14l-97.54,5.94Z"/>
      <path class="cls-5" d="m5996.59,801.09s62.92,155.32,104.3,228.31c41.37,72.99,54.3,93.36,54.3,93.36,0,0,23.7-9.34,25.86-15.7,0,0-15.82-140.91-43.53-175.26-15.66-19.41-34.05-77.66-34.91-98.03-.86-20.37-5.6-60.68-5.6-60.68l-100.42,28.01Z"/>
    </g>
    <path class="cls-6" d="m6079.38,561.74s-42.57,20.54-67.12,12.92c0,0,6.04-7.62,16.61-13.29-.85-4.93-1.51-9.2-1.89-12.83-1.04-8.37-1.04-13.11-1.04-13.11l16.42-12.92,15.58-12.36c-1.23,34.76,21.43,51.59,21.43,51.59Z"/>
    <path class="cls-15" d="m6101.81,781.04c.09,2.6-5.48,5.58-7.93,6.69-18.22,7.99-35.21,13.57-54.47,15.43-22.75,2.32-49.65-2.79-58.9-2.6-.94,0-1.79-.37-2.55-1.02-.66-.47-1.13-27.89-.66-62.37,0-1.4,0-2.79.09-4.18v-.46c.19-13.48.66-27.61,1.32-41.73,1.32-31.05,3.78-60.98,7.93-77.52,5-19.52,16.33-32.44,26.62-41.83l8.5-7.44c8.5,1.67,17.46,1.21,26.43-3.16,9.82-4.74,20.39-9.85,22.09-8.55,12.84,9.39,21.52,30.49,26.15,57.44,2.64,15.52,3.97,32.9,3.87,51.12,0,6.69-.19,13.57-.57,20.36-2.26,36.81,0,68.78,1.32,87.28.38,5.39.66,9.57.76,12.55Z"/>
    <path class="cls-11" d="m6101.05,779.35c-149.08-.3-27.5-161.77-27.5-161.77l24.15-7.84c1.91,16.58,2.87,35.15,2.8,54.62,0,7.15-.14,14.5-.41,21.75-1.64,39.32,0,73.49.95,93.25Z"/>
    <path class="cls-10" d="m6058.23,523.44s-10.76,19.61-31.25,25.1c-1.04-8.37-1.04-13.11-1.04-13.11l16.42-12.92,15.86.93Z"/>
    <path class="cls-6" d="m6018.45,534.87s40.61,6.64,44.43-18.32c3.81-24.97,11.62-40.93-14.15-46.22-25.77-5.3-32.28,3.48-35.61,11.51-3.33,8.03-5.14,50.67,5.33,53.04Z"/>
    <path class="cls-14" d="m6077.64,467.33c.37-.42,1.22-.76,3.11-.87,0,0-1.51-.95-3.53-1-.4-2.63-1.8-7.29-6.33-8.42,0,0,2.43,1.3,2.75,4.1-5.25-5.39-16.49-9.31-47.61-6.85-41.02,3.24-27.5,29.5-22.19,32.63,5.31,3.13,18.68-5.45,28.57-4.67,9.89.78,11.78,15.08,15.13,17.04,3.36,1.96,2.04-1.51,6.58-3.56,4.54-2.05,4.97,5.47,3.66,10.37-1.31,4.89,4.93,11.35,4.93,11.35l6.31-6.79c6.31-6.79,12.25-35.56,9.38-41.69-.25-.54-.5-1.09-.76-1.64Z"/>
    <path class="cls-15" d="m6070.26,552.08s25.7,12.17,38.02,30.88c19.11,29.02,41.27,134.77,41.67,144.57.41,9.79-16.17,78.93-16.17,78.93,0,0-16.81-1.11-21.15-9.59,0,0,3.36-71.04,1.23-75.6-2.13-4.57-70.1-95.29-62.45-114.65,7.64-19.36,18.85-54.52,18.85-54.52Z"/>
    <path class="cls-6" d="m5872.93,593.48s1.4-5.52-2.43-8c-3.83-2.48-7.35-9.23-8.97-8.31-3.34,1.89,1.83,7.78.88,15.13-.33,2.57,5.66,9.31,10.51,1.19Z"/>
  </g>
  <path class="cls-9" d="m5919.47,995.35h-365.92c-2.45,0-4.45-2-4.45-4.45h0c0-2.45,2-4.45,4.45-4.45h365.92c2.45,0,4.45,2,4.45,4.45h0c0,2.45-2,4.45-4.45,4.45Z"/>
  <path class="cls-9" d="m5919.47,1013.17h-365.92c-2.45,0-4.45-2-4.45-4.45h0c0-2.45,2-4.45,4.45-4.45h365.92c2.45,0,4.45,2,4.45,4.45h0c0,2.45-2,4.45-4.45,4.45Z"/>
  <path class="cls-9" d="m5919.47,1032.92h-365.92c-2.45,0-4.45-2-4.45-4.45h0c0-2.45,2-4.45,4.45-4.45h365.92c2.45,0,4.45,2,4.45,4.45h0c0,2.45-2,4.45-4.45,4.45Z"/>
  <path class="cls-9" d="m5549.73,1043.77h325.24c.35,0,.63.28.63.63v7.65c0,.35-.28.63-.63.63h-325.24c-.35,0-.63-.28-.63-.63v-7.65c0-.35.28-.63.63-.63Z"/>
</svg>