<?xml version="1.0" encoding="UTF-8"?>
<svg xmlns="http://www.w3.org/2000/svg" xmlns:xlink="http://www.w3.org/1999/xlink" width="17px" height="17px" viewBox="0 0 17 17" version="1.1">
<g id="surface1">
<path style=" stroke:none;fill-rule:nonzero;fill:rgb(0%,0%,0%);fill-opacity:1;" d="M 16.164062 2.269531 L 0.835938 2.269531 C 0.375 2.269531 0 2.644531 0 3.105469 L 0 13.894531 C 0 14.355469 0.375 14.730469 0.835938 14.730469 L 3.96875 14.730469 C 4.117188 14.730469 4.234375 14.609375 4.234375 14.460938 C 4.234375 14.316406 4.117188 14.195312 3.96875 14.195312 L 0.835938 14.195312 C 0.667969 14.195312 0.53125 14.0625 0.53125 13.894531 L 0.53125 3.105469 C 0.53125 2.9375 0.667969 2.804688 0.835938 2.804688 L 16.164062 2.804688 C 16.332031 2.804688 16.46875 2.9375 16.46875 3.105469 L 16.46875 13.894531 C 16.46875 14.0625 16.332031 14.195312 16.164062 14.195312 L 5.113281 14.195312 C 4.96875 14.195312 4.847656 14.316406 4.847656 14.460938 C 4.847656 14.609375 4.96875 14.730469 5.113281 14.730469 L 16.164062 14.730469 C 16.625 14.730469 17 14.355469 17 13.894531 L 17 3.105469 C 17 2.644531 16.625 2.269531 16.164062 2.269531 Z M 16.164062 2.269531 "/>
<path style=" stroke:none;fill-rule:nonzero;fill:rgb(0%,0%,0%);fill-opacity:1;" d="M 15.03125 3.691406 L 13.042969 3.691406 C 12.894531 3.691406 12.777344 3.808594 12.777344 3.957031 C 12.777344 4.105469 12.894531 4.222656 13.042969 4.222656 L 15.03125 4.222656 C 15.039062 4.222656 15.046875 4.230469 15.046875 4.242188 L 15.046875 12.757812 C 15.046875 12.769531 15.039062 12.777344 15.03125 12.777344 L 1.96875 12.777344 C 1.960938 12.777344 1.953125 12.769531 1.953125 12.757812 L 1.953125 4.242188 C 1.953125 4.230469 1.960938 4.222656 1.96875 4.222656 L 11.894531 4.222656 C 12.042969 4.222656 12.160156 4.105469 12.160156 3.957031 C 12.160156 3.808594 12.042969 3.691406 11.894531 3.691406 L 1.96875 3.691406 C 1.667969 3.691406 1.417969 3.9375 1.417969 4.242188 L 1.417969 12.757812 C 1.417969 13.0625 1.667969 13.308594 1.96875 13.308594 L 15.03125 13.308594 C 15.332031 13.308594 15.582031 13.0625 15.582031 12.757812 L 15.582031 4.242188 C 15.582031 3.9375 15.332031 3.691406 15.03125 3.691406 Z M 15.03125 3.691406 "/>
<path style=" stroke:none;fill-rule:nonzero;fill:rgb(0%,0%,0%);fill-opacity:1;" d="M 6.886719 9.035156 C 7.34375 8.621094 7.628906 8.027344 7.628906 7.363281 C 7.628906 6.121094 6.621094 5.109375 5.375 5.109375 C 4.132812 5.109375 3.125 6.121094 3.125 7.363281 C 3.125 8.027344 3.410156 8.621094 3.867188 9.035156 L 3.136719 11.171875 C 3.097656 11.28125 3.140625 11.402344 3.234375 11.472656 C 3.328125 11.542969 3.457031 11.539062 3.550781 11.46875 L 4.046875 11.085938 L 4.207031 11.691406 C 4.238281 11.804688 4.335938 11.886719 4.453125 11.890625 C 4.457031 11.890625 4.460938 11.890625 4.464844 11.890625 C 4.578125 11.890625 4.679688 11.816406 4.714844 11.710938 L 5.375 9.773438 L 6.039062 11.710938 C 6.074219 11.816406 6.175781 11.890625 6.289062 11.890625 C 6.292969 11.890625 6.296875 11.890625 6.296875 11.890625 C 6.414062 11.886719 6.515625 11.804688 6.546875 11.691406 L 6.707031 11.085938 L 7.203125 11.46875 C 7.296875 11.539062 7.429688 11.539062 7.523438 11.46875 C 7.613281 11.402344 7.652344 11.277344 7.617188 11.171875 Z M 4.496094 10.707031 C 4.460938 10.578125 4.441406 10.441406 4.300781 10.386719 C 4.210938 10.351562 4.113281 10.367188 4.035156 10.425781 C 4 10.453125 3.960938 10.480469 3.925781 10.511719 L 4.320312 9.355469 C 4.496094 9.449219 4.6875 9.519531 4.886719 9.5625 Z M 5.375 9.085938 C 4.425781 9.085938 3.65625 8.3125 3.65625 7.363281 C 3.65625 6.414062 4.425781 5.644531 5.375 5.644531 C 6.324219 5.644531 7.097656 6.414062 7.097656 7.363281 C 7.097656 8.3125 6.324219 9.085938 5.375 9.085938 Z M 6.714844 10.425781 C 6.640625 10.367188 6.542969 10.351562 6.453125 10.386719 C 6.3125 10.441406 6.292969 10.578125 6.257812 10.707031 L 5.867188 9.5625 C 6.066406 9.519531 6.257812 9.449219 6.433594 9.355469 L 6.828125 10.511719 C 6.792969 10.480469 6.753906 10.453125 6.714844 10.425781 Z M 6.714844 10.425781 "/>
<path style=" stroke:none;fill-rule:nonzero;fill:rgb(0%,0%,0%);fill-opacity:1;" d="M 5.375 5.960938 C 4.605469 5.960938 3.976562 6.589844 3.976562 7.363281 C 3.976562 8.136719 4.605469 8.765625 5.375 8.765625 C 6.148438 8.765625 6.777344 8.136719 6.777344 7.363281 C 6.777344 6.589844 6.148438 5.960938 5.375 5.960938 Z M 5.375 8.234375 C 4.898438 8.234375 4.507812 7.84375 4.507812 7.363281 C 4.507812 6.886719 4.898438 6.496094 5.375 6.496094 C 5.855469 6.496094 6.246094 6.886719 6.246094 7.363281 C 6.246094 7.84375 5.855469 8.234375 5.375 8.234375 Z M 5.375 8.234375 "/>
<path style=" stroke:none;fill-rule:nonzero;fill:rgb(0%,0%,0%);fill-opacity:1;" d="M 13.609375 7.664062 L 13.042969 7.664062 C 12.894531 7.664062 12.777344 7.785156 12.777344 7.933594 C 12.777344 8.078125 12.894531 8.199219 13.042969 8.199219 L 13.609375 8.199219 C 13.757812 8.199219 13.875 8.078125 13.875 7.933594 C 13.875 7.785156 13.757812 7.664062 13.609375 7.664062 Z M 13.609375 7.664062 "/>
<path style=" stroke:none;fill-rule:nonzero;fill:rgb(0%,0%,0%);fill-opacity:1;" d="M 9.917969 9.371094 L 9.066406 9.371094 C 8.921875 9.371094 8.800781 9.488281 8.800781 9.636719 C 8.800781 9.78125 8.921875 9.902344 9.066406 9.902344 L 9.917969 9.902344 C 10.066406 9.902344 10.1875 9.78125 10.1875 9.636719 C 10.1875 9.488281 10.066406 9.371094 9.917969 9.371094 Z M 9.917969 9.371094 "/>
<path style=" stroke:none;fill-rule:nonzero;fill:rgb(0%,0%,0%);fill-opacity:1;" d="M 12.191406 7.664062 L 11.339844 7.664062 C 11.191406 7.664062 11.074219 7.785156 11.074219 7.933594 C 11.074219 8.078125 11.191406 8.199219 11.339844 8.199219 L 12.191406 8.199219 C 12.339844 8.199219 12.457031 8.078125 12.457031 7.933594 C 12.457031 7.785156 12.339844 7.664062 12.191406 7.664062 Z M 12.191406 7.664062 "/>
<path style=" stroke:none;fill-rule:nonzero;fill:rgb(0%,0%,0%);fill-opacity:1;" d="M 10.488281 7.664062 L 9.066406 7.664062 C 8.921875 7.664062 8.800781 7.785156 8.800781 7.933594 C 8.800781 8.078125 8.921875 8.199219 9.066406 8.199219 L 10.488281 8.199219 C 10.632812 8.199219 10.753906 8.078125 10.753906 7.933594 C 10.753906 7.785156 10.632812 7.664062 10.488281 7.664062 Z M 10.488281 7.664062 "/>
<path style=" stroke:none;fill-rule:nonzero;fill:rgb(0%,0%,0%);fill-opacity:1;" d="M 13.609375 9.371094 L 10.769531 9.371094 C 10.625 9.371094 10.503906 9.488281 10.503906 9.636719 C 10.503906 9.78125 10.625 9.902344 10.769531 9.902344 L 13.609375 9.902344 C 13.757812 9.902344 13.875 9.78125 13.875 9.636719 C 13.875 9.488281 13.757812 9.371094 13.609375 9.371094 Z M 13.609375 9.371094 "/>
<path style=" stroke:none;fill-rule:nonzero;fill:rgb(0%,0%,0%);fill-opacity:1;" d="M 13.183594 5.109375 L 9.492188 5.109375 C 9.113281 5.109375 8.800781 5.421875 8.800781 5.800781 C 8.800781 6.183594 9.113281 6.496094 9.492188 6.496094 L 13.183594 6.496094 C 13.566406 6.496094 13.875 6.183594 13.875 5.800781 C 13.875 5.421875 13.566406 5.109375 13.183594 5.109375 Z M 13.183594 5.960938 L 9.492188 5.960938 C 9.40625 5.960938 9.335938 5.890625 9.335938 5.800781 C 9.335938 5.714844 9.40625 5.644531 9.492188 5.644531 L 13.183594 5.644531 C 13.273438 5.644531 13.34375 5.714844 13.34375 5.800781 C 13.34375 5.890625 13.273438 5.960938 13.183594 5.960938 Z M 13.183594 5.960938 "/>
<path style=" stroke:none;fill-rule:nonzero;fill:rgb(0%,0%,0%);fill-opacity:1;" d="M 11.339844 11.074219 L 9.066406 11.074219 C 8.921875 11.074219 8.800781 11.191406 8.800781 11.339844 C 8.800781 11.484375 8.921875 11.605469 9.066406 11.605469 L 11.339844 11.605469 C 11.484375 11.605469 11.605469 11.484375 11.605469 11.339844 C 11.605469 11.191406 11.484375 11.074219 11.339844 11.074219 Z M 11.339844 11.074219 "/>
<path style=" stroke:none;fill-rule:nonzero;fill:rgb(0%,0%,0%);fill-opacity:1;" d="M 13.609375 11.074219 L 12.191406 11.074219 C 12.042969 11.074219 11.925781 11.191406 11.925781 11.339844 C 11.925781 11.484375 12.042969 11.605469 12.191406 11.605469 L 13.609375 11.605469 C 13.757812 11.605469 13.875 11.484375 13.875 11.339844 C 13.875 11.191406 13.757812 11.074219 13.609375 11.074219 Z M 13.609375 11.074219 "/>
</g>
</svg>
