<?xml version="1.0" encoding="UTF-8"?>
<svg id="_Слой_2" data-name="Слой 2" xmlns="http://www.w3.org/2000/svg" xmlns:xlink="http://www.w3.org/1999/xlink" viewBox="0 0 7000 1278.38">
  <defs>
    <style>
      .cls-1 {
        letter-spacing: .05em;
      }

      .cls-2 {
        font-family: Arial-Black, 'Arial Black';
        font-size: 300px;
        font-weight: 800;
      }

      .cls-2, .cls-3 {
        fill: #fff;
      }

      .cls-4 {
        filter: url(#luminosity-noclip);
      }

      .cls-5 {
        fill: #678a9c;
      }

      .cls-6 {
        fill: #7ca3b6;
      }

      .cls-7 {
        fill: #85b7d6;
      }

      .cls-8 {
        fill: #7193fb;
      }

      .cls-9 {
        fill: #ce9566;
      }

      .cls-10 {
        fill: #d8b43d;
      }

      .cls-11 {
        fill: #c08960;
      }

      .cls-12 {
        fill: #c1702a;
      }

      .cls-13 {
        fill: #d1944f;
      }

      .cls-14 {
        fill: #ddf4ff;
      }

      .cls-15, .cls-16, .cls-17 {
        fill: #dc3e0f;
      }

      .cls-18 {
        fill: #d5a16e;
      }

      .cls-19 {
        fill: #daac7f;
      }

      .cls-20 {
        fill: #373c4a;
      }

      .cls-21 {
        fill: #3e5893;
      }

      .cls-22 {
        fill: #2c1a3c;
      }

      .cls-23 {
        fill: #3a3d72;
      }

      .cls-24 {
        fill: #394992;
      }

      .cls-25 {
        fill: #516084;
      }

      .cls-26 {
        letter-spacing: -.06em;
      }

      .cls-27 {
        mask: url(#mask-1);
      }

      .cls-27, .cls-28 {
        fill: none;
      }

      .cls-16 {
        opacity: .8;
      }

      .cls-16, .cls-17 {
        isolation: isolate;
      }

      .cls-17 {
        opacity: .9;
      }

      .cls-28 {
        mask: url(#mask);
      }

      .cls-29 {
        fill: #5563fa;
        opacity: .2;
      }

      .cls-30 {
        fill: url(#_Безымянный_градиент_2);
        mix-blend-mode: multiply;
      }

      .cls-31 {
        fill: #2c5797;
        opacity: .9;
      }
    </style>
    <filter id="luminosity-noclip" x="4.72" y="63.96" width="4736.84" height="1046.87" color-interpolation-filters="sRGB" filterUnits="userSpaceOnUse">
      <feFlood flood-color="#fff" result="bg"/>
      <feBlend in="SourceGraphic" in2="bg"/>
    </filter>
    <filter id="luminosity-noclip-2" x="4.72" y="-9173.23" width="4736.84" height="32766" color-interpolation-filters="sRGB" filterUnits="userSpaceOnUse">
      <feFlood flood-color="#fff" result="bg"/>
      <feBlend in="SourceGraphic" in2="bg"/>
    </filter>
    <mask id="mask-1" x="4.72" y="-9173.23" width="4736.84" height="32766" maskUnits="userSpaceOnUse"/>
    <linearGradient id="_Безымянный_градиент_2" data-name="Безымянный градиент 2" x1="4581.99" y1="25.8" x2="36.81" y2="821.15" gradientUnits="userSpaceOnUse">
      <stop offset="0" stop-color="#333"/>
      <stop offset=".21" stop-color="#353535"/>
      <stop offset=".35" stop-color="#3f3f3f"/>
      <stop offset=".48" stop-color="#4e4e4e"/>
      <stop offset=".59" stop-color="#646464"/>
      <stop offset=".7" stop-color="#818181"/>
      <stop offset=".8" stop-color="#a3a3a3"/>
      <stop offset=".9" stop-color="#cdcdcd"/>
      <stop offset=".99" stop-color="#fcfcfc"/>
      <stop offset="1" stop-color="#fff"/>
    </linearGradient>
    <mask id="mask" x="4.72" y="63.96" width="4736.84" height="1046.87" maskUnits="userSpaceOnUse">
      <g class="cls-4">
        <g class="cls-27">
          <path class="cls-30" d="m4.72,63.96h4736.84s-635.29,84.91-894.15,514.13c-3.03,5.03-6.13,10.01-9.27,14.96-198.2,311.11-723.23,517.79-1309.43,517.79H4.72V63.96Z"/>
        </g>
      </g>
    </mask>
  </defs>
  <g>
    <rect class="cls-3" x="4.72" width="4474.03" height="1278.38"/>
    <path class="cls-20" d="m6992.79,1175.14H2248.94c-3.97,0-7.21-1.06-7.21-2.35h0c0-1.29,3.24-2.35,7.21-2.35h4743.85c3.97,0,7.21,1.06,7.21,2.35h0c0,1.29-3.25,2.35-7.21,2.35Z"/>
    <path class="cls-31" d="m7000,90.19V0H0v1178.93h2842.54c452.07,0,867.53-148.95,1071.39-386.8,29.38-34.27,54.65-70.44,74.07-108.35,211-412.04,789-522.86,1353-537,564-14.15,1659-56.59,1659-56.59Z"/>
    <g class="cls-28">
      <path class="cls-29" d="m4.72,63.96h4736.84s-635.29,84.91-894.15,514.13c-3.03,5.03-6.13,10.01-9.27,14.96-198.2,311.11-723.23,517.79-1309.43,517.79H4.72V63.96Z"/>
    </g>
  </g>
  <text class="cls-2" transform="translate(148.28 568.13)"><tspan class="cls-26" x="0" y="0">T</tspan><tspan x="198.63" y="0">e</tspan><tspan class="cls-1" x="398.73" y="0">r</tspan><tspan x="546.83" y="0">ms and Conditons</tspan></text>
  <g>
    <path class="cls-21" d="m5544.35,603.09l-23.08-.54c7.42,9.77,9.08,18.77,4.46,26.38-4.62,7.77-15.67,14.15-32.17,19,12.49-33.77,18.77-69.38,18.77-105.91,0-40.92-7.87-80.61-23.46-117.91-14.99-36.07-36.48-68.53-63.88-96.3-27.4-27.84-59.26-49.69-94.76-64.99-36.78-15.77-75.84-23.77-116.03-23.77s-79.32,8-116.1,23.77c-4.39,1.92-8.78,3.92-13.02,6,0,0-.03,0-.04.02-12.82-3.98-25.31-7.24-37.36-9.72-60.83-12.54-104-3.87-121.53,24.41-16.69,26.9-7.6,67.4,25.51,114.63,0,0,0,.02,0,.02-4.47,8.38-8.48,17-12.19,25.92-2.8,6.69-5.3,13.38-7.57,20.23-62.21,3.77-95.52,14.9-107.63,35.05-14.08,23.46,5.15,54.94,66.68,85.55,8.48,4.23,17.56,8.38,27.1,12.54,3.18,28.38,10.37,55.99,21.42,82.45,14.99,36.07,36.48,68.53,63.88,96.37,27.4,27.77,59.26,49.61,94.76,64.92,36.78,15.77,75.84,23.77,116.1,23.77s79.24-8,116.03-23.77c35.5-15.31,67.36-37.15,94.76-64.92,26.64-27.07,47.76-58.61,62.67-93.53,30.35-6.38,50.33-16.38,58.28-29.61,5.53-9.15,4.84-19.31-1.59-30.07h0Zm-71.22,49.61c-20.21,3.69-45.41,5.85-74.85,6.15-45.69.57-98.15-3.1-153.45-10.51,4.65-10.29,9.21-20.87,13.66-31.69,17.16,5.83,33.81,10.45,49.69,13.73,18.19,3.75,34.8,5.61,49.62,5.61,34.74,0,59.62-10.19,71.92-30.02,2.02-3.27,3.67-6.73,4.94-10.39h-17.71c-.29.55-.61,1.09-.93,1.62-9.13,14.73-29.53,22.34-58.18,22.33-13.7,0-29.3-1.74-46.44-5.27-14.94-3.08-30.61-7.41-46.77-12.86,4.26-10.84,8.41-21.89,12.41-33.11,10.79-30.24,20.03-60.23,27.51-89.02,34.07,5.1,70.63,7.67,109.48,7.67,24.19,0,49.27-.99,75.18-2.98,3.85,18.95,5.79,38.35,5.79,58.05,0,38.38-7.34,75.61-21.87,110.68h0Zm-368.92,150.2c-8.61-3.17-12.98-15.74-15.13-25.71-3.4-15.77-4.01-37.92-1.78-64.06,1.13-13.22,2.95-27.27,5.4-41.97,35.3,9.56,70.26,21.86,104.3,36.67-7.67,13.44-15.42,25.89-23.17,37.19-14.77,21.52-29.21,38.12-41.77,48-7.95,6.26-19.22,13.05-27.84,9.88h-.01Zm100.58-109.13c-35.63-15.6-72.26-28.5-109.26-38.45,1.3-6.82,2.73-13.77,4.29-20.81,10.29,2.38,20.72,4.68,31.29,6.89,30.92,6.43,61.76,11.88,91.95,16.3-5.98,12.57-12.08,24.62-18.26,36.08h-.01Zm-66.87-63.75c-11.94-2.5-23.72-5.11-35.29-7.82,5.45-23.03,12.14-47.04,19.95-71.5,40.6,25.36,81.89,46,120.99,60.64-4.9,11.9-9.94,23.5-15.09,34.73-29.7-4.33-60.08-9.7-90.56-16.05h0Zm-99.17-310.88c2.59,5.39,6.16,12.06,10.98,19.63,20.53,32.24,47.64,55.6,66.76,69.53,10.98,8,22.7,15.41,35.13,22.23-11.34,25.11-22.14,51.91-32.07,79.73-1.85,5.19-3.65,10.37-5.41,15.53-59.32-39.24-109.54-84.26-142.48-127.83,0,0,0-.01,0-.02,8.25-14.3,17.7-27.83,28.29-40.51,4.39-5.23,8.93-10.31,13.7-15.23.68-.69,1.29-1.31,1.97-2,7.37-7.49,15.09-14.5,23.14-21.06h0Zm253.63-43.48c8.61,3.17,12.98,15.74,15.13,25.71,3.4,15.77,4.01,37.92,1.78,64.06-2.45,28.61-8.09,61.1-16.48,95.7-10.13-1.77-20.03-3.77-29.67-6.03-33.3-7.78-63.65-18.43-90.76-31.8,16.18-34.28,33.28-64.85,50.38-89.76,14.77-21.52,29.21-38.12,41.77-48.01,6.55-5.16,15.37-10.68,23.09-10.68,1.64,0,3.24.25,4.75.81h.01Zm-33.85,194.83c9.86,2.33,20,4.39,30.36,6.23-7.28,27.84-16.25,56.84-26.7,86.11-4.03,11.28-8.2,22.39-12.49,33.28-39.25-14.65-80.91-35.59-121.87-61.46,2.12-6.29,4.3-12.6,6.56-18.92,9.71-27.2,20.24-53.38,31.29-77.9,27.84,13.71,58.88,24.64,92.84,32.66h.01Zm154.2-130.29c25.81,26.23,46.09,56.76,60.25,90.76,5.05,12.15,9.24,24.56,12.56,37.19-64.73,4.81-124.05,3.3-177.07-4.5,8.41-34.94,14.08-67.8,16.56-96.83,2.74-32.06,2.41-70.03-10.38-91.39,2.96,1.16,5.92,2.36,8.85,3.63,33.45,14.38,63.5,34.92,89.23,61.15h0Zm-198.53-83.61c19.45,0,38.59,1.99,57.29,5.94-22.06,9.76-44.58,36.92-61.68,61.83-17.5,25.49-34.97,56.69-51.47,91.61-11.13-6.15-21.67-12.79-31.56-19.92-32.82-23.66-52.48-48.44-63.2-65.06-5.69-8.82-9.52-16.34-11.97-21.73,11.52-8.33,23.63-15.76,36.3-22.26h0c5.16-2.64,10.41-5.12,15.75-7.44.39-.17.77-.34,1.16-.51.09-.04.18-.08.27-.12,1.14-.49,2.28-.96,3.43-1.44.31-.12.62-.25.92-.37,33.23-13.61,68.5-20.54,104.75-20.54h0Zm-274.36,35.72c9.13-14.73,29.53-22.33,58.18-22.33,13.7,0,29.3,1.74,46.44,5.27,6.51,1.34,13.16,2.91,19.92,4.73h.02c-22.24,13.07-42.67,29.07-61.06,47.83-3.86,3.85-7.57,7.85-11.2,12-4.54,5.08-8.86,10.38-13.02,15.77-6.66,8.61-12.79,17.61-18.47,26.84,0,0,0,.02,0,.02-25.31-38.2-32.92-70.58-20.79-90.14h0Zm15.51,138.65c2.5-5.85,5.07-11.61,7.87-17.23h0c34.69,44.05,85.82,89.09,145.56,128.16-8.47,26.2-15.7,51.95-21.53,76.62-43.46-10.69-83.74-22.78-119.04-35.72-7.42-2.69-14.61-5.46-21.5-8.23-4.09-1.62-8.1-3.31-12.03-5-.61-6.15-1.06-12.38-1.21-18.61-.08-3-.15-5.92-.15-8.92,0-3.46.08-7,.15-10.46.98-25.92,5.3-51.22,12.87-75.68,1.29-4.15,2.65-8.23,4.16-12.31,1.51-4.23,3.1-8.46,4.84-12.61h0Zm-50.63,124.91c-53.66-26.61-78.18-52.3-67.21-70.53,8.86-14.77,41.1-24.77,90.45-28.46-6.05,20.77-9.76,42.23-11.2,63.99-.45,6.46-.68,12.92-.76,19.46v1.69c0,6.54.23,13.08.61,19.54-4.09-1.85-8.02-3.77-11.88-5.69h-.01Zm40.72,32.69c7.27,2.77,14.68,5.54,22.33,8.23,35.14,12.37,74.53,23.87,116.67,34.08-1.53,6.94-2.94,13.78-4.24,20.51-3.44-.85-6.89-1.68-10.34-2.48-58.25-13.47-101.97-16.22-122.23-16.68-5.02-15.36-8.71-31.08-11.05-47.12,2.95,1.15,5.9,2.31,8.86,3.46h0Zm9.92,64.53c-.63-1.53-1.25-3.06-1.85-4.59,21.61.88,61.68,4.21,112.86,16.05,3.66.85,7.32,1.73,10.98,2.64-2.63,15.61-4.58,30.53-5.78,44.55-2.27,26.57-2.43,57.2,4.86,79.08-22.19-12.7-42.55-28.4-60.81-46.97-25.81-26.23-46.09-56.76-60.25-90.76h0Zm368.14,151.91c-34.66,14.92-71.37,22.46-109.29,22.46-29.21,0-57.75-4.48-85.16-13.35,20.78-11.07,41.65-36.48,57.72-59.9,8.29-12.08,16.58-25.44,24.76-39.87,47.16,21.7,92.51,48.37,135.11,79.43-7.52,4.08-15.23,7.83-23.14,11.23h0Zm89.23-61.15c-15.52,15.82-32.62,29.57-51.08,41.14-44.75-33.24-92.56-61.68-142.37-84.71,6.85-12.75,13.6-26.22,20.19-40.28,45.59,6.14,89.43,9.82,129.44,10.78,10.45.31,20.59.31,30.43.23,25.51-.31,48.21-1.85,67.66-4.61-13.62,28.69-31.86,54.69-54.27,77.45h0Z"/>
    <g>
      <path class="cls-23" d="m6114.63,565.47s56.15,56.15,58.72,77.33c2.57,21.17-25.47,54.3-25.47,54.3l-33.25-131.62h0Z"/>
      <path class="cls-23" d="m6094.37,1148.7s-1.82,29.85-7.5,30.28c-.76.06-28.82.06-28.82.06l-35.83-.21s.23-8.77,10.71-10.63c10.47-1.86,28-9.34,34.35-23.4,6.67-14.8,27.1,3.91,27.1,3.91h-.01Z"/>
      <path class="cls-23" d="m6174.17,1148.7s-1.82,29.85-7.5,30.28c-.76.06-28.82.06-28.82.06l-35.83-.21s.23-8.77,10.71-10.63c10.47-1.86,28-9.34,34.35-23.4,6.67-14.8,27.1,3.91,27.1,3.91h-.01Z"/>
      <path class="cls-5" d="m6054.68,827.87s9.37,60.91,44.33,169.03c34.96,108.12,39.72,154.94,39.72,154.94l37.5-1.07s.32-118.17-15.79-172.54-3.48-196.01-3.48-196.01l-102.29,45.64h0Z"/>
      <path class="cls-6" d="m6036.43,785.56s-1.33,91.79,14.3,204.48c15.63,112.7,10.33,160.53,10.33,160.53l37.43,1.26s22.37-112.74,15.95-169.14c-6.41-56.41,30.63-193.56,30.63-193.56l-108.64-3.58h0Z"/>
      <path class="cls-19" d="m6108.89,570.77l-17.65,13.29-25.51-5.46c.35-2.36,2.04-12.16,3.57-21.04.09-.52.19-1.05.27-1.56,1.31-7.55,2.45-14.04,2.45-14.04l23.83-12.07,8.88-4.5c-.02.16-.69,8.38-.78,9.58-1.67,21.32,4.94,35.8,4.94,35.8h0Z"/>
      <path class="cls-5" d="m6067.51,564.07c.56-.24,34.7-10.48,38.41-9.23,3.71,1.24,5.91,8.54,5.91,8.54l-55.85,12.83s4.4-9.08,11.53-12.14Z"/>
      <path class="cls-25" d="m6159.46,796.89c-5.79,26.83-102.11,30.01-126.94,5.66-2.82-2.78-2.96-15.69-1.9-33.11,2.08-34.03,8.77-85.21,9.03-111.36.13-12.63,1.84-25.54,4.11-37.27,4.84-25,12.22-44.61,12.22-44.61,0,0,47.05-15.46,55.85-12.83,42.41,12.66,53.42,206.69,47.63,233.52Z"/>
      <path class="cls-23" d="m6030.61,769.44c2.08-34.03,8.77-85.21,9.03-111.36.13-12.63,1.84-25.54,4.11-37.27l28.3-5.08s27.67,114.86-41.45,153.71h.01Z"/>
      <path class="cls-19" d="m6045.94,722.02s1.93,4.69-2.12,7.83c-4.05,3.15-6.68,8.24-5.75,11.97.93,3.72,9.81,9.8,12.9,8.82,3.08-.98,9.35-5.89,8.68-7.85-.67-1.96,4.22-17.24-3.29-23.12-7.51-5.88-10.4,2.35-10.4,2.35h-.02Z"/>
      <path class="cls-25" d="m6077.53,570.25s-27.55,4.32-49.54,37.26-36.46,57.42-32.41,69.3c4.05,11.87,40.98,53.04,47.35,53.04s16.64-4.71,17.22-15.29c0,0-26-39.6-20.88-45.53,2.19-2.53,33.76-28.58,38.26-16.81,7.46,19.46,0-81.96,0-81.96h0Z"/>
      <path class="cls-18" d="m6102.16,535.35c-5.23,10.18-24.73,18.97-32.86,22.21.09-.52.19-1.05.27-1.56,1.31-7.55,2.45-14.04,2.45-14.04l23.83-12.07c5.27-.08,8.47,1.27,6.31,5.46h0Z"/>
      <path class="cls-19" d="m6060.43,540.55s42.99,13.63,50.93-13.71,18.83-43.99-8.28-53.84c-27.11-9.86-35.5-1.03-40.33,7.44s-13.3,55.87-2.32,60.12h0Z"/>
      <path class="cls-22" d="m6069.49,478.84s2.48,32.82,8.98,31.34,12.39-2.59,11.36,7.32c-1.03,9.91-10.12,21.42,9.86,23s49.16-52.65,43.75-62.82c-15.61-29.35-96.57-34.6-73.96,1.17h.01Z"/>
    </g>
    <g>
      <g>
        <path class="cls-9" d="m6372.85,778.79s-16.49,4.3-26.97,1.09c-10.48-3.21-28.52,2.06-31.43,5.94-2.9,3.88-1.84,5.43,3.35,6.77,5.18,1.34,23.55,9.3,35.62,4.69,12.07-4.61,27.81-4.77,27.81-4.77l-8.38-13.73h0Z"/>
        <path class="cls-5" d="m6515.35,633.23s-18.52,133.78-49.19,145.77c-15.13,5.91-82.02,19.31-101.8,20.66,0,0-4.85-4-3.67-20.26,0,0,70.07-26.14,80.03-40.36,14.82-21.16-9.2-86.44,9.39-106.32,18.59-19.87,49.9-28.41,65.24.51h0Z"/>
      </g>
      <path class="cls-17" d="m6512.99,1148.96v-29.42h45.19c1.22,0,2.22-1.01,2.22-2.25v-4.67c0-1.24-1-2.25-2.22-2.25h-45.19v-166.04c0-4.66-3.75-8.47-8.34-8.47h-8.94c-4.58,0-8.34,3.81-8.34,8.47v166.04h-45.19c-1.22,0-2.22,1.01-2.22,2.25v4.67c0,1.24,1,2.25,2.22,2.25h45.19v29.42c-32.7,2.51-58.89,14.48-66.24,29.94h158.09c-7.35-15.46-33.54-27.42-66.24-29.94h.01Z"/>
      <path class="cls-23" d="m6509.11,915.09c-5.4,9.31-11.65,18.04-18.09,26.31-19.91,25.54-41.58,46.6-45.35,66.5-.75,3.97-1.94,8.24-3.5,12.74-1.58,4.56-3.53,9.35-5.78,14.31-8.45,18.65-21.08,39.54-33.69,58.54-21.81,32.84-42.31,60.23-42.31,60.23l-37.6-1.63c1.51-3.83,17.91-49.17,39.85-104.57,8.91-22.49,18.38-46.42,27.52-69.49,1.22-3.08,2.44-6.15,3.64-9.19,2.79-7.06,5.54-14.01,8.23-20.78,20.6-52.02,37.01-93.45,37.01-93.45,0,0,82.34-31.7,90.89-11.16,7.05,16.93,1.31,33.52-20.81,71.63h-.01Z"/>
      <path class="cls-23" d="m6359.21,1146.77s-1.84,31.68-7.84,32.14c-.8.06-68.67,0-68.67,0,0,0,.54-9.58,11.6-11.54,11.06-1.96,29.58-9.86,36.28-24.72,7.05-15.63,28.63,4.12,28.63,4.12Z"/>
      <path class="cls-23" d="m6446.28,1056.69s26.15,17.08,23.62,22.63c-.34.74-14.79,27.05-14.79,27.05l-18.64,33.47s-7.84-4.74-4.13-15.51,5.95-31.05-3.55-44.24c-9.99-13.88,17.5-23.39,17.5-23.39h-.01Z"/>
      <path class="cls-25" d="m6411.54,839.21s-104,65.78-115.54,109.75c-11.54,43.96,137.48,137.75,137.48,137.75,0,0,16.34-14.65,19.23-25.4,0,0-67.36-82.01-81.97-100.39-8.97-11.29,132.68-39.08,149.98-66.44,17.31-27.36,11.11-50.37,11.11-50.37l-120.29-4.9h0Z"/>
      <path class="cls-15" d="m6605.94,923.58h-211.51c-4.23,0-7.69,3.52-7.69,7.82v42.99c0,4.3,3.46,7.82,7.69,7.82h211.51c4.23,0,7.69-3.52,7.69-7.82v-42.99c0-4.3-3.46-7.82-7.69-7.82Z"/>
      <path class="cls-9" d="m6508.74,607.99s-41.04,23.32-65.8,16.81c0,0,5.6-8.11,15.75-14.5-.54-2.45-1.02-4.75-1.42-6.9-2.37-12.29-2.79-19.43-2.79-19.43l18.91-17.22c5.23,1.13,10.12,2.18,12.71,2.74.24,1.27.51,2.5.82,3.71,5.9,23.91,21.83,34.79,21.83,34.79h-.01Z"/>
      <path class="cls-6" d="m6534.96,729.09c-3.55,48.48,1.12,122.19-2.9,134.96-3.48,11.02-43.04,4.47-58.83.79-5.84-1.36-12.92-3.31-20.23-5.61-20.39-6.42-42.62-15.58-45.01-22.39-.09-.27-.17-.53-.22-.78h0c-.04-.18-.07-.36-.09-.52-.11-.8-.04-1.56.13-2.33.79-3.47,3.86-7.22,4.22-15.81.4-9.58.34-20.87.7-33.01.02-1.37.04-2.86.18-4.22v-.5c0-.26.02-.52.02-.78.34-13.54,1.04-27.77,1.85-41.88.51-8.87,1.11-17.65,1.79-26.06,1.78-21.72,4.18-41.02,7.35-53.23,5.18-19.9,16.62-32.88,27.03-42.39l7.52-6.56c8.4,1.87,18.33.63,27.31-3.7,9.72-4.69,13.08-8.05,14.77-6.78,22.45,17.6,38.6,71.54,34.41,130.79h0Z"/>
      <path class="cls-5" d="m6453,859.24c-20.39-6.42-42.62-15.58-45.01-22.39-.09-.27-.17-.53-.22-.78h0c0-.18-.03-.35-.09-.52-.11-.8-.04-1.56.13-2.33.79-3.47,3.86-7.22,4.22-15.81.4-9.58.34-20.87.7-33.01.02-1.37.04-2.86.18-4.22v-.5c0-.26.02-.52.02-.78l77.04-35.51s4.44,63.1-36.98,115.84h0Z"/>
      <path class="cls-11" d="m6486.9,573.2c-2.8,7.19-11.18,24.14-29.64,30.2-2.37-12.29-2.79-19.43-2.79-19.43l18.91-17.22c5.23,1.13,10.12,2.18,12.71,2.74.24,1.27.51,2.5.82,3.71h0Z"/>
      <path class="cls-9" d="m6446.99,583.78s40.57,4.65,43.03-21.07c2.46-25.72,9.36-42.44-16.45-46.5-25.8-4.06-31.78,5.26-34.66,13.64-2.88,8.38-2.42,52.06,8.07,53.93h.01Z"/>
      <path class="cls-22" d="m6489.85,564.48s-2.57-34.14-39.51-37.68c-25.3-2.42-11.19-24.55-8.5-28.08,0,0,19.38,2.7,39.25,6.04,41.7,7,12.85,54.4,8.75,59.72h0Z"/>
      <polygon class="cls-12" points="6392.36 805.02 6291.82 807.2 6263.24 717.81 6259.68 718.98 6289.9 813.48 6392.49 811.26 6392.36 805.02"/>
      <g>
        <path class="cls-9" d="m6381.33,799.35s-15.92,6.12-26.69,4.11c-10.77-2.02-28.12,5.24-30.59,9.43-2.47,4.19-1.24,5.6,4.06,6.35,5.3.75,24.42,6.61,35.91.67,11.5-5.93,27.13-7.86,27.13-7.86l-9.82-12.7h0Z"/>
        <path class="cls-6" d="m6507.18,638.72s-3.9,135.04-33.08,150.39c-14.4,7.57-79.42,28.39-98.94,31.94,0,0-5.25-3.43-5.84-19.73,0,0,66.81-33.83,75.16-49.08,12.43-22.69-18.52-84.89-2.2-106.72,16.32-21.83,46.52-33.83,64.9-6.8h0Z"/>
      </g>
    </g>
    <g>
      <g>
        <path class="cls-12" d="m5406.36,650.37l-41.23,498.17s-4.32,30.2,17.78,30.25c36.34.09,180.89,0,180.89,0,0,0-27.35-6.29-27.02-20.43.39-16.67,48.19-512.71,48.19-512.71l-178.61,4.71h0Z"/>
        <path class="cls-13" d="m5575.54,1169.75c-7.15.02-145.21.46-180.6,0-15.42-.2-18.13-13.94-18.26-22.83-.06-4.26.47-7.42.47-7.42l1.07-12.95,2.73-33,2.41-29.16,3.1-37.47,2.61-31.62,29.29-353.98,178.61-4.71s-20.13,207.59-34.37,358.7c-1.59,16.84-3.1,32.98-4.5,48.05-.45,4.81-.89,9.51-1.31,14.09-1.32,14.3-2.53,27.43-3.58,39.02-.55,6.11-1.06,11.79-1.53,16.99-1.82,20.38-2.88,33.39-2.9,35.87,0,1.44.11,2.78.35,4.03,2.93,15.88,23.7,16.4,26.38,16.4h.03Z"/>
        <polygon class="cls-10" points="4972.59 379.28 5073.02 789.22 5086.77 845.36 5133.54 1036.29 6002.51 1036.29 5830.12 379.28 4972.59 379.28"/>
        <polygon class="cls-13" points="4972.59 379.28 4958.67 384 5115.04 1050.56 5133.54 1036.3 4972.59 379.28"/>
        <polygon class="cls-12" points="5115.04 1050.56 5978.66 1050.56 6002.51 1036.3 5133.54 1036.3 5115.04 1050.56"/>
        <rect class="cls-10" x="5418.32" y="1169.95" width="186.99" height="9.03"/>
        <polygon class="cls-10" points="5960.42 915.23 5819.42 387.97 4971.2 387.97 4971.2 379.28 5830.12 379.28 5970.65 914.06 5960.42 915.23"/>
        <polygon class="cls-12" points="5557.77 1050.55 5556.81 1057.46 5380.95 1093.56 5383.37 1064.4 5384.52 1050.55 5557.77 1050.55"/>
        <path class="cls-12" d="m5575.54,1169.75c-7.15.02-145.21.46-180.6,0-15.42-.2-18.13-13.94-18.26-22.83l175.02-33.46c-1.82,20.38-2.88,33.39-2.9,35.87,0,1.44.11,2.78.35,4.03,2.93,15.88,23.7,16.4,26.38,16.4h0Z"/>
        <polygon class="cls-12" points="5515.27 903.29 5133.54 1036.3 5086.77 845.36 5515.27 903.29"/>
        <polygon class="cls-16" points="4972.59 379.28 5830.12 379.28 5969.25 907.31 5097.53 907.31 4972.59 379.28"/>
      </g>
      <path class="cls-12" d="m5591.06,974.06c-2.48-12.95-14.82-23.45-27.56-23.45s-21.06,10.5-18.59,23.45c2.48,12.95,14.82,23.45,27.56,23.45s21.07-10.5,18.59-23.45Z"/>
      <polygon class="cls-14" points="5928.81 884.43 5125.9 884.43 5034.98 516.33 5028.01 488.1 5022.06 464.03 5008.11 407.57 5799.44 407.57 5814.76 464.03 5821.29 488.1 5828.95 516.33 5928.81 884.43"/>
      <polygon class="cls-8" points="5814.76 464.03 5022.06 464.03 5008.11 407.57 5799.44 407.57 5814.76 464.03"/>
      <g>
        <path class="cls-14" d="m5046.06,426.02c-3.84,0-6.17,3.16-5.21,7.06s4.84,7.06,8.68,7.06,6.17-3.16,5.21-7.06-4.84-7.06-8.68-7.06Z"/>
        <path class="cls-14" d="m5069.14,426.02c-3.84,0-6.17,3.16-5.21,7.06s4.84,7.06,8.68,7.06,6.17-3.16,5.21-7.06-4.84-7.06-8.68-7.06Z"/>
        <path class="cls-14" d="m5102.66,433.08c-.96-3.9-4.84-7.06-8.68-7.06s-6.17,3.16-5.21,7.06,4.84,7.06,8.68,7.06,6.17-3.16,5.21-7.06Z"/>
      </g>
      <g>
        <g>
          <path class="cls-25" d="m5677.23,628.94c-5.8-23.63-29.44-42.85-52.72-42.85-11.22,0-20.78,4.4-26.93,12.39-6.4,8.32-8.32,19.44-5.41,31.3,5.8,23.63,29.44,42.85,52.72,42.85,11.22,0,20.78-4.4,26.93-12.39,6.4-8.32,8.32-19.44,5.41-31.3Zm-8.09,29.17c-5.48,7.13-14.09,11.06-24.24,11.06-21.8,0-43.97-18.04-49.41-40.22-2.65-10.8-.95-20.86,4.79-28.33,5.48-7.13,14.09-11.06,24.24-11.06,21.8,0,43.97,18.04,49.41,40.22,2.65,10.8.95,20.86-4.79,28.33h0Z"/>
          <polygon class="cls-25" points="5640.05 639.03 5635.82 608.91 5635.48 607.55 5623.55 607.55 5623.88 608.91 5634.42 639.03 5640.05 639.03"/>
          <polygon class="cls-25" points="5633.11 644.35 5635.78 655.25 5646.65 655.25 5643.97 644.35 5633.11 644.35"/>
        </g>
        <g>
          <path class="cls-25" d="m5703.15,731.26c-5.8-23.63-29.45-42.85-52.72-42.85-11.22,0-20.78,4.4-26.93,12.39-6.4,8.32-8.32,19.44-5.41,31.3,5.8,23.63,29.44,42.85,52.72,42.85,11.22,0,20.78-4.4,26.93-12.39,6.4-8.32,8.32-19.44,5.41-31.3Zm-8.09,29.17c-5.48,7.13-14.09,11.06-24.24,11.06-21.8,0-43.97-18.04-49.41-40.22-2.65-10.8-.95-20.86,4.79-28.33,5.48-7.13,14.09-11.06,24.24-11.06,21.8,0,43.97,18.04,49.41,40.22,2.65,10.8.95,20.86-4.79,28.33Z"/>
          <polygon class="cls-25" points="5665.97 741.35 5661.73 711.23 5661.4 709.87 5649.46 709.87 5649.8 711.23 5660.34 741.35 5665.97 741.35"/>
          <polygon class="cls-25" points="5659.03 746.67 5661.7 757.57 5672.57 757.57 5669.89 746.67 5659.03 746.67"/>
        </g>
        <g>
          <path class="cls-8" d="m5792,615.78c2.64,0,4.26-2.19,3.6-4.88-.66-2.68-3.36-4.88-5.99-4.88h-85.45c-2.64,0-4.26,2.19-3.6,4.88.66,2.68,3.36,4.88,5.99,4.88h85.45Z"/>
          <path class="cls-8" d="m5781.42,546.52c-.66-2.68-3.36-4.88-5.99-4.88h-85.45c-2.64,0-4.26,2.19-3.6,4.88.66,2.68,3.36,4.88,5.99,4.88h85.45c2.64,0,4.26-2.19,3.6-4.88h0Z"/>
          <path class="cls-8" d="m5796.56,634.36c2.64,0,4.26-2.19,3.6-4.88-.66-2.68-3.36-4.88-5.99-4.88h-85.45c-2.64,0-4.26,2.19-3.6,4.88.66,2.68,3.36,4.88,5.99,4.88h85.45Z"/>
          <path class="cls-8" d="m5804.71,648.05c-.66-2.68-3.35-4.88-5.99-4.88h-85.45c-2.64,0-4.26,2.19-3.6,4.88.66,2.68,3.36,4.88,5.99,4.88h85.45c2.64,0,4.26-2.19,3.6-4.88Z"/>
          <path class="cls-8" d="m5817.92,718.1c2.64,0,4.26-2.19,3.6-4.88-.66-2.68-3.36-4.88-5.99-4.88h-85.45c-2.64,0-4.26,2.19-3.6,4.88.66,2.68,3.36,4.88,5.99,4.88h85.45Z"/>
          <path class="cls-8" d="m5822.47,736.68c2.64,0,4.26-2.19,3.6-4.88-.66-2.68-3.36-4.88-5.99-4.88h-85.45c-2.64,0-4.26,2.19-3.6,4.88.66,2.68,3.36,4.88,5.99,4.88h85.45Z"/>
          <path class="cls-8" d="m5830.63,750.37c-.66-2.68-3.36-4.88-5.99-4.88h-85.45c-2.64,0-4.26,2.19-3.6,4.88.66,2.68,3.36,4.88,5.99,4.88h85.45c2.64,0,4.26-2.19,3.6-4.88Z"/>
        </g>
        <path class="cls-8" d="m5777.82,526.02l-5.96-24.31c-1.09-4.46-5.58-8.1-9.96-8.1h-684.86c-4.39,0-7.08,3.65-5.99,8.1l5.96,24.31c1.09,4.46,5.58,8.1,9.96,8.1h684.86c4.39,0,7.08-3.65,5.99-8.1Z"/>
        <path class="cls-21" d="m5562.52,493.61l9.94,40.52h-485.49c-4.39,0-8.87-3.65-9.96-8.1l-5.96-24.31c-1.09-4.46,1.6-8.1,5.99-8.1h485.49-.01Z"/>
        <polygon class="cls-14" points="5649.73 506.42 5650.5 509.53 5658.07 509.53 5654.12 522.8 5658.13 522.8 5662.01 509.13 5661.34 506.42 5649.73 506.42"/>
        <path class="cls-14" d="m5670.41,506.14c-4.28,0-6.27,3.72-5.11,8.47,1.18,4.8,4.91,8.47,9.22,8.47s6.27-3.72,5.11-8.47c-1.18-4.8-4.96-8.47-9.22-8.47Zm3.36,13.69c-2.14,0-4.09-2.22-4.83-5.22-.75-3.04.1-5.22,2.22-5.22s4.1,2.25,4.83,5.22c.74,3.02-.08,5.22-2.22,5.22Z"/>
        <path class="cls-14" d="m5700.76,518.8c-.57-2.34-2.59-4.19-4.92-4.19s-3.48,1.87-2.91,4.19c.57,2.34,2.59,4.19,4.92,4.19s3.47-1.9,2.91-4.19Zm-3.39,2.06c-.92,0-1.76-.96-2.03-2.06-.28-1.12,0-2.06.97-2.06s1.76.96,2.03,2.06,0,2.06-.97,2.06Z"/>
        <polygon class="cls-14" points="5693.37 506.42 5685.62 522.8 5688.36 522.8 5696.11 506.42 5693.37 506.42"/>
        <path class="cls-14" d="m5688.8,510.42c-.57-2.34-2.59-4.19-4.92-4.19s-3.48,1.87-2.91,4.19c.57,2.34,2.59,4.19,4.92,4.19s3.47-1.9,2.91-4.19Zm-5.41,0c-.28-1.12,0-2.06.97-2.06s1.76.96,2.03,2.06,0,2.06-.97,2.06-1.76-.96-2.03-2.06Z"/>
        <g>
          <path class="cls-8" d="m5530.44,709.74c4.98,0,8-4.1,6.76-9.15h0c-1.24-5.06-6.28-9.15-11.25-9.15h-399.34c-4.98,0-8,4.1-6.76,9.15h0c1.24,5.06,6.28,9.15,11.26,9.15h399.34,0Z"/>
          <path class="cls-8" d="m5537.89,740.13c4.98,0,8-4.1,6.76-9.16s-6.28-9.15-11.25-9.15h-399.34c-4.98,0-8,4.1-6.76,9.15,1.24,5.06,6.28,9.16,11.26,9.16h399.34,0Z"/>
          <path class="cls-8" d="m5552.44,762.72c-1.24-5.06-6.28-9.15-11.26-9.15h-399.34c-4.98,0-8,4.1-6.76,9.15,1.24,5.06,6.28,9.16,11.26,9.16h399.34c4.98,0,8-4.1,6.76-9.16Z"/>
          <path class="cls-8" d="m5311.91,660.34c1.56,6.35,7.89,11.51,14.15,11.51h44.54c6.25,0,10.06-5.15,8.5-11.51l-21.53-87.75c-1.56-6.36-7.89-11.51-14.15-11.51h-44.54c-6.25,0-10.06,5.15-8.5,11.51l21.53,87.75Z"/>
          <path class="cls-8" d="m5389,660.34c1.56,6.35,7.89,11.51,14.15,11.51h44.54c6.25,0,10.06-5.15,8.5-11.51l-21.53-87.75c-1.56-6.36-7.89-11.51-14.15-11.51h-44.54c-6.25,0-10.06,5.15-8.5,11.51l21.53,87.75Z"/>
          <path class="cls-8" d="m5464.65,660.34c1.56,6.35,7.89,11.51,14.15,11.51h44.54c6.25,0,10.06-5.15,8.5-11.51l-21.53-87.75c-1.56-6.36-7.89-11.51-14.15-11.51h-44.54c-6.25,0-10.06,5.15-8.5,11.51l21.53,87.75Z"/>
        </g>
        <g>
          <path class="cls-8" d="m5296.81,652.56l-17.71-72.19c-2.61-10.65-13.23-19.29-23.71-19.29h-150.8c-10.48,0-16.86,8.63-14.25,19.29l17.71,72.19c2.61,10.65,13.23,19.29,23.71,19.29h150.8c10.48,0,16.86-8.64,14.25-19.29Z"/>
          <g>
            <path class="cls-14" d="m5253.48,588.77c2.38,0,3.84-1.98,3.24-4.39h0c-.59-2.41-3.02-4.39-5.4-4.39h-140.9c-2.38,0-3.84,1.98-3.24,4.39h0c.59,2.41,3.02,4.39,5.4,4.39h140.9Z"/>
            <path class="cls-14" d="m5257.63,605.65c2.38,0,3.84-1.98,3.24-4.39h0c-.59-2.41-3.02-4.39-5.4-4.39h-140.9c-2.38,0-3.84,1.98-3.24,4.39h0c.59,2.41,3.02,4.39,5.4,4.39h140.9Z"/>
            <path class="cls-14" d="m5265.01,618.15c-.59-2.41-3.02-4.39-5.4-4.39h-140.9c-2.38,0-3.84,1.98-3.24,4.39.59,2.41,3.02,4.39,5.4,4.39h140.9c2.38,0,3.84-1.98,3.24-4.39Z"/>
            <path class="cls-14" d="m5156.59,632.67h-33.24c-2.38,0-3.84,1.98-3.24,4.39.59,2.42,3.02,4.39,5.4,4.39h33.24c2.38,0,3.84-1.98,3.24-4.39-.59-2.41-3.02-4.39-5.4-4.39Z"/>
          </g>
        </g>
        <path class="cls-8" d="m5884.33,845.31l-9.29-37.87c-1.37-5.59-6.94-10.12-12.44-10.12h-79.1c-5.5,0-8.84,4.53-7.47,10.12l9.29,37.87c1.37,5.59,6.94,10.12,12.44,10.12h79.1c5.5,0,8.84-4.53,7.47-10.12Z"/>
        <g>
          <path class="cls-14" d="m5861.6,811.85c1.25,0,2.01-1.04,1.7-2.3-.31-1.27-1.58-2.3-2.83-2.3h-73.91c-1.25,0-2.01,1.04-1.7,2.3.31,1.27,1.58,2.3,2.83,2.3h73.91Z"/>
          <path class="cls-14" d="m5863.77,820.71c1.25,0,2.01-1.04,1.7-2.3-.31-1.27-1.58-2.3-2.83-2.3h-73.91c-1.25,0-2.01,1.04-1.7,2.3.31,1.27,1.58,2.3,2.83,2.3h73.91Z"/>
          <path class="cls-14" d="m5867.65,827.26c-.31-1.27-1.58-2.3-2.83-2.3h-73.91c-1.25,0-2.01,1.04-1.7,2.3.31,1.27,1.58,2.3,2.83,2.3h73.91c1.25,0,2.01-1.04,1.7-2.3Z"/>
          <path class="cls-14" d="m5810.78,834.88h-17.44c-1.25,0-2.01,1.04-1.7,2.3h0c.31,1.27,1.58,2.3,2.83,2.3h17.44c1.25,0,2.01-1.04,1.7-2.3-.31-1.27-1.58-2.3-2.83-2.3Z"/>
        </g>
        <g>
          <g>
            <path class="cls-21" d="m5335.85,817.6c1.88,0,3.02-1.55,2.55-3.45h0c-.47-1.91-2.37-3.45-4.25-3.45h-150.63c-1.88,0-3.02,1.55-2.55,3.45h0c.47,1.91,2.37,3.45,4.24,3.45h150.64Z"/>
            <path class="cls-21" d="m5338.66,829.07c1.88,0,3.02-1.55,2.55-3.45h0c-.47-1.91-2.37-3.45-4.24-3.45h-150.63c-1.88,0-3.02,1.55-2.55,3.45h0c.47,1.91,2.37,3.45,4.25,3.45h150.63,0Z"/>
            <path class="cls-21" d="m5339.9,834.13h-150.63c-1.88,0-3.02,1.55-2.55,3.45.47,1.91,2.37,3.45,4.25,3.45h150.63c1.88,0,3.02-1.55,2.55-3.45-.47-1.91-2.37-3.45-4.25-3.45Z"/>
            <path class="cls-21" d="m5530.24,817.6c1.88,0,3.02-1.55,2.55-3.45h0c-.47-1.91-2.37-3.45-4.25-3.45h-150.63c-1.88,0-3.02,1.55-2.55,3.45h0c.47,1.91,2.37,3.45,4.25,3.45h150.63Z"/>
            <path class="cls-21" d="m5533.05,829.07c1.88,0,3.02-1.55,2.55-3.45h0c-.47-1.91-2.37-3.45-4.25-3.45h-150.63c-1.88,0-3.02,1.55-2.55,3.45h0c.47,1.91,2.37,3.45,4.25,3.45h150.63Z"/>
            <path class="cls-21" d="m5534.29,834.13h-150.63c-1.88,0-3.02,1.55-2.55,3.45.47,1.91,2.37,3.45,4.24,3.45h150.63c1.88,0,3.02-1.55,2.55-3.45-.47-1.91-2.37-3.45-4.25-3.45h0Z"/>
            <path class="cls-21" d="m5718.65,817.6c1.88,0,3.02-1.55,2.55-3.45h0c-.47-1.91-2.37-3.45-4.25-3.45h-150.63c-1.88,0-3.02,1.55-2.55,3.45h0c.47,1.91,2.37,3.45,4.25,3.45h150.63Z"/>
            <path class="cls-21" d="m5721.46,829.07c1.88,0,3.02-1.55,2.55-3.45h0c-.47-1.91-2.37-3.45-4.24-3.45h-150.63c-1.88,0-3.02,1.55-2.55,3.45h0c.47,1.91,2.37,3.45,4.25,3.45h150.63,0Z"/>
            <path class="cls-21" d="m5726.95,837.59c-.47-1.91-2.37-3.45-4.24-3.45h-150.63c-1.88,0-3.02,1.55-2.55,3.45.47,1.91,2.37,3.45,4.24,3.45h150.63c1.88,0,3.02-1.55,2.55-3.45Z"/>
          </g>
          <path class="cls-21" d="m5756.09,860.66h-580.88c-5.13,0-10.34-4.22-11.62-9.42l-11.6-47.28c-.66-2.69-.18-5.35,1.31-7.3,1.47-1.91,3.71-2.96,6.32-2.96h580.88c5.13,0,10.34,4.22,11.62,9.42l11.6,47.28c.66,2.69.18,5.35-1.31,7.3-1.47,1.91-3.71,2.96-6.33,2.96h.01Zm-596.46-63.49c-1.54,0-2.83.58-3.64,1.63-.86,1.12-1.1,2.65-.69,4.33l11.6,47.28c.9,3.68,4.71,6.79,8.31,6.79h580.88c1.54,0,2.83-.58,3.64-1.63.86-1.12,1.1-2.65.69-4.33l-11.6-47.28c-.9-3.68-4.71-6.79-8.31-6.79h-580.88Z"/>
        </g>
      </g>
    </g>
    <g>
      <path class="cls-7" d="m5179.75,308.62c-.09-.66-.7-1.13-1.35-1.03l-13.03,1.85c-.47-4.2-2.8-8.15-6.66-10.42l-.79-.47c-4.03-2.38-8.79-2.39-12.72-.47l-5.15-13.12c-.24-.62-.94-.93-1.55-.68s-.91.95-.67,1.58l5.29,13.48c-.83.61-1.61,1.32-2.3,2.13-.55.64-1.04,1.34-1.47,2.09l-1.43,2.5c-6.76-3.99-11.8-6.96-11.97-7.07-.57-.34-1.3-.14-1.63.44-.33.58-.14,1.32.43,1.66.18.1,5.22,3.08,11.97,7.07l-.81,1.42c-.78,1.36-1.29,2.8-1.57,4.27l-16.37,2.33c-.65.09-1.11.71-1.02,1.37.08.61.6,1.05,1.18,1.05.06,0,.11,0,.17-.01l15.79-2.24c-.05,4.82,2.38,9.53,6.75,12.11l.79.47c4.2,2.48,9.19,2.39,13.2.23l5.61,14.31c.19.48.64.77,1.11.77.15,0,.3-.03.44-.09.61-.25.91-.96.67-1.58l-5.79-14.76c1.3-1.04,2.44-2.34,3.32-3.89l.81-1.42c6.88,4.06,11.97,7.07,11.97,7.07.19.11.39.16.6.16.41,0,.81-.22,1.03-.6.33-.58.14-1.32-.43-1.66,0,0-5.1-3.01-11.97-7.07l1.43-2.5c.43-.76.79-1.54,1.06-2.33.42-1.2.65-2.43.73-3.67l13.3-1.89c.65-.09,1.11-.71,1.02-1.37v-.02Z"/>
      <path class="cls-25" d="m5163.64,317.88l-3.44,6.03c-3.75,6.57-12.11,8.82-18.57,5l-.79-.47c-6.46-3.81-8.68-12.3-4.92-18.87l3.45-6.03c.43-.75.92-1.45,1.47-2.09l23.87,14.09c-.28.8-.63,1.58-1.06,2.33h-.01Z"/>
    </g>
    <g>
      <path class="cls-7" d="m4906.69,467.2l-15.04-4.34c-.02-1.69-.34-3.4-1-5.04l-.61-1.52,12.81-5.33c.61-.25.9-.96.65-1.58s-.95-.92-1.56-.66l-12.81,5.33-1.08-2.68c-.33-.81-.72-1.57-1.17-2.28-.68-1.07-1.5-2.01-2.42-2.83l6.63-11.86c.33-.58.13-1.32-.45-1.66-.57-.33-1.3-.13-1.63.46l-6.5,11.62c-3.56-2.19-8.06-2.71-12.19-.99l-.84.35c-4.31,1.79-7.22,5.62-8.12,9.95l-13.37-3.85c-.64-.18-1.3.19-1.48.84s.19,1.32.82,1.5l13.73,3.96c-.03,1.05.04,2.1.26,3.15.16.83.41,1.65.73,2.46l1.08,2.68-12.81,5.33c-.61.25-.9.96-.65,1.58.19.47.64.75,1.11.75.15,0,.3-.03.45-.09l12.81-5.33.61,1.52c.59,1.46,1.4,2.75,2.37,3.87l-8.17,14.6c-.33.58-.13,1.32.45,1.66.19.11.39.16.59.16.42,0,.82-.22,1.04-.61l7.88-14.09c3.73,2.97,8.89,3.9,13.56,1.95l.84-.35c4.49-1.87,7.47-5.94,8.23-10.49l14.58,4.2c.11.03.22.05.33.05.52,0,1-.35,1.15-.88.18-.65-.19-1.32-.82-1.5h.01Z"/>
      <path class="cls-25" d="m4888.04,451.37l2.6,6.45c2.83,7.03-.51,15.13-7.42,18.01l-.84.35c-6.91,2.88-14.89-.52-17.72-7.54l-2.6-6.45c-.33-.81-.57-1.63-.73-2.46l25.55-10.63c.45.71.85,1.47,1.17,2.28h0Z"/>
    </g>
    <g>
      <path class="cls-25" d="m5057.59,903.55c-.1.07-.2.16-.33.26-5.01,3.9-39.07,27.51-115.6,17.05-.52,2.99-1.01,5.95-1.47,8.88-.23,1.47-.46,2.92-.67,4.37-.22,1.43-.42,2.85-.62,4.27v.08c-.21,1.42-.41,2.83-.59,4.25-.19,1.41-.37,2.82-.54,4.22-.18,1.39-.34,2.77-.5,4.14v.07c-.16,1.37-.32,2.73-.46,4.09-.15,1.36-.28,2.72-.42,4.08-.13,1.35-.26,2.7-.38,4.04-.12,1.33-.24,2.66-.34,3.99-.08.97-.16,1.93-.23,2.89-.06.79-.12,1.59-.17,2.37-.05.67-.09,1.34-.14,2.01-.02.35-.05.7-.07,1.05-.07,1.12-.14,2.24-.2,3.36-.07,1.19-.13,2.39-.18,3.58,0,.23-.02.45-.03.68-.04.89-.08,1.77-.11,2.65-.03.7-.06,1.39-.07,2.08-.08,2.23-.13,4.42-.17,6.6-.02,1-.03,2-.04,2.98,0,1.17-.02,2.33-.02,3.48v.27c0,1.13,0,2.25.02,3.37,0,.93,0,1.85.03,2.77,0,.79.03,1.57.05,2.35,0,.27,0,.55,0,.82.02.82.05,1.62.07,2.43.03.87.06,1.73.09,2.58.04.93.08,1.85.13,2.76.05,1.07.1,2.14.16,3.2,0,.09,0,.19.02.29.06,1.05.13,2.08.19,3.11.07,1.09.15,2.17.23,3.23.08,1.07.17,2.14.26,3.19.09,1.06.18,2.11.29,3.15.1,1,.2,1.98.3,2.97,0,.12.03.24.04.35.1.96.21,1.91.32,2.86.12,1,.24,2,.37,3v.08c.13.98.25,1.96.39,2.94.13.97.27,1.95.42,2.92v.08c.14.95.29,1.88.44,2.82v.05c.15.96.31,1.9.47,2.84.16.95.33,1.89.5,2.83.21,1.15.42,2.29.63,3.42.14.71.28,1.41.42,2.11.18.88.36,1.75.54,2.61.03.11.05.23.08.34.17.81.35,1.63.53,2.42.19.89.4,1.76.61,2.63.42,1.79.85,3.56,1.31,5.29.2.79.41,1.58.62,2.36.22.82.44,1.63.67,2.43.16.59.33,1.18.5,1.77.16.59.33,1.16.51,1.74.13.46.27.91.41,1.37.24.79.48,1.58.72,2.36.5,1.56,1.01,3.1,1.52,4.62.25.76.52,1.51.78,2.25s.53,1.49.79,2.22c.73,2,1.48,3.97,2.25,5.89.23.57.46,1.14.69,1.71.33.82.67,1.63,1.01,2.44.27.63.54,1.26.81,1.88,1.48,3.38,3,6.62,4.56,9.71.31.61.61,1.21.93,1.81.74,1.42,1.48,2.81,2.23,4.17.26.48.53.96.8,1.43.25.44.5.88.75,1.31.29.51.58,1.01.87,1.5.67,1.14,1.34,2.25,2.03,3.34.23.38.47.76.7,1.12.74,1.17,1.48,2.31,2.22,3.43.26.4.53.8.79,1.19,1.75,2.58,3.49,5.01,5.24,7.3.32.42.65.85.97,1.26,1.69,2.16,3.35,4.2,5,6.11.52.61,1.05,1.21,1.57,1.79.04.05.09.09.13.15.31.34.62.69.94,1.03,1.87,2.05,3.69,3.93,5.46,5.65.29.29.58.57.88.85.58.56,1.15,1.1,1.72,1.62.54.5,1.07.98,1.59,1.45.03.02.05.05.08.07.52.46,1.03.91,1.52,1.34.86.74,1.69,1.44,2.5,2.1.23.18.45.36.67.54,1.46,1.18,2.83,2.22,4.09,3.13.38.27.75.54,1.1.79,1.05.73,2,1.37,2.83,1.9.25.17.49.32.72.46.51.32.97.6,1.37.84.09.05.18.1.26.15.09.06.17.11.25.16.92.54,1.43.79,1.43.79,4.89-1.62,9.62-3.4,14.21-5.35,28.94-12.31,51.83-31,69.95-52.66.05-.06.1-.11.14-.18,38.99-46.71,55.76-107.16,62.92-147.18.79-4.43,1.47-8.61,2.04-12.5-76.92-17.79-99.94-53.19-102.35-57.24l.04-.02Z"/>
      <g>
        <path class="cls-21" d="m5146.88,979.26c-6.53,36.49-21.81,91.59-57.36,134.18-.04.06-.08.1-.13.16-16.52,19.75-37.38,36.79-63.77,48.01-4.18,1.78-8.5,3.41-12.95,4.88,0,0-.46-.22-1.3-.72-.08-.04-.15-.09-.23-.14-.08-.04-.16-.08-.24-.14-.36-.21-.78-.47-1.24-.76-.21-.13-.43-.27-.66-.42-.76-.48-1.63-1.07-2.58-1.73-.32-.23-.66-.47-1-.72-1.14-.83-2.39-1.78-3.72-2.85-.21-.16-.41-.33-.61-.49-.73-.6-1.49-1.24-2.28-1.91-.45-.39-.91-.8-1.39-1.22-.02-.02-.05-.04-.07-.06-.47-.42-.96-.87-1.45-1.32-.52-.48-1.04-.97-1.57-1.48-.27-.25-.53-.51-.8-.77-1.61-1.57-3.27-3.28-4.97-5.15-.29-.31-.57-.63-.85-.94-.04-.05-.08-.09-.12-.13-.47-.53-.95-1.08-1.43-1.63-1.5-1.74-3.02-3.6-4.56-5.57-.29-.38-.59-.76-.89-1.15-1.59-2.09-3.18-4.3-4.78-6.66-.24-.35-.48-.71-.72-1.08-.68-1.02-1.36-2.06-2.03-3.13-.21-.33-.43-.68-.64-1.03-.62-1-1.23-2.01-1.85-3.04-.26-.45-.53-.91-.79-1.37-.23-.39-.46-.8-.68-1.2-.24-.43-.49-.86-.73-1.3-.69-1.25-1.36-2.51-2.04-3.8-.29-.55-.56-1.09-.85-1.65-1.42-2.82-2.81-5.77-4.16-8.85-.25-.57-.5-1.14-.74-1.71-.31-.73-.62-1.47-.92-2.22-.21-.52-.43-1.04-.63-1.56-.7-1.75-1.38-3.54-2.05-5.36-.24-.66-.48-1.34-.72-2.02s-.48-1.36-.71-2.05c-.47-1.38-.93-2.78-1.39-4.21-.22-.71-.44-1.43-.66-2.15-.13-.42-.26-.83-.38-1.25-.16-.53-.32-1.05-.47-1.59-.15-.54-.31-1.07-.46-1.61-.21-.74-.41-1.47-.61-2.22-.19-.71-.39-1.42-.57-2.15-.41-1.58-.81-3.19-1.19-4.83-.19-.8-.38-1.59-.55-2.4-.16-.73-.33-1.47-.48-2.21-.02-.1-.05-.21-.07-.31-.17-.78-.33-1.58-.49-2.38-.13-.64-.25-1.28-.38-1.92-.2-1.03-.39-2.07-.58-3.12-.15-.85-.31-1.71-.45-2.58-.15-.86-.29-1.72-.43-2.59v-.04c-.13-.86-.27-1.71-.4-2.57v-.07c-.13-.88-.26-1.77-.38-2.66-.13-.89-.24-1.78-.36-2.68v-.07c-.12-.91-.23-1.82-.33-2.73-.1-.86-.2-1.73-.29-2.61,0-.11-.02-.21-.03-.32-.1-.9-.19-1.8-.28-2.71-.1-.95-.18-1.91-.26-2.87-.09-.96-.16-1.93-.24-2.91-.08-.97-.15-1.96-.21-2.95-.06-.94-.12-1.88-.18-2.84,0-.09,0-.18-.02-.26-.06-.97-.11-1.94-.15-2.92-.04-.83-.08-1.67-.12-2.52-.03-.78-.06-1.56-.08-2.35-.02-.74-.04-1.47-.06-2.22,0-.25,0-.5,0-.75-.02-.71-.04-1.42-.04-2.14-.02-.83-.03-1.68-.03-2.52,0-1.02,0-2.04-.02-3.07v-.25c0-1.05,0-2.11,0-3.18,0-.9.02-1.81.04-2.72.03-1.99.08-3.99.15-6.02,0-.63.04-1.26.07-1.9.03-.8.07-1.6.1-2.41,0-.21.02-.41.03-.62.05-1.08.11-2.17.17-3.26.06-1.02.12-2.04.18-3.06l.06-.96c.04-.61.08-1.23.12-1.84.04-.72.1-1.44.15-2.16.07-.88.14-1.75.21-2.63.1-1.21.2-2.42.31-3.64.11-1.22.23-2.45.35-3.68.12-1.24.24-2.48.38-3.72.13-1.24.27-2.48.41-3.73v-.06c.16-1.26.3-2.51.47-3.78.16-1.28.32-2.56.49-3.85.17-1.29.35-2.57.53-3.87v-.07c.19-1.29.38-2.59.58-3.89.19-1.32.4-2.65.61-3.98.42-2.66.86-5.37,1.34-8.09,69.76,9.53,100.82-11.99,105.39-15.55.12-.09.22-.17.3-.23,2.2,3.69,23.18,35.97,93.31,52.18-.52,3.54-1.14,7.35-1.86,11.39l-.04-.02Z"/>
        <path class="cls-24" d="m5055.74,915.43l-44.36,250.34c-.46-.27-1.04-.61-1.72-1.04-.21-.13-.43-.27-.66-.42-.76-.48-1.63-1.07-2.58-1.73-.32-.23-.66-.47-1-.72-1.14-.83-2.39-1.78-3.72-2.85-.21-.16-.41-.33-.61-.49-.73-.6-1.49-1.24-2.28-1.91-.45-.39-.91-.8-1.39-1.22-.02-.02-.05-.04-.07-.06-.47-.42-.96-.87-1.45-1.32-.52-.48-1.04-.97-1.57-1.48-.27-.25-.53-.51-.8-.77-1.61-1.57-3.27-3.28-4.97-5.15-.29-.31-.57-.63-.85-.94-.04-.05-.08-.09-.12-.13-.47-.53-.95-1.08-1.43-1.63-1.5-1.74-3.02-3.6-4.56-5.57-.29-.38-.59-.76-.89-1.15-1.59-2.09-3.18-4.3-4.78-6.66-.24-.35-.48-.71-.72-1.08-.68-1.02-1.36-2.06-2.03-3.13-.21-.33-.43-.68-.64-1.03-.62-1-1.23-2.01-1.85-3.04-.26-.45-.53-.91-.79-1.37-.23-.39-.46-.8-.68-1.2-.24-.43-.49-.86-.73-1.3-.69-1.25-1.36-2.51-2.04-3.8-.29-.55-.56-1.09-.85-1.65-1.42-2.82-2.81-5.77-4.16-8.85-.25-.57-.5-1.14-.74-1.71-.31-.73-.62-1.47-.92-2.22-.21-.52-.43-1.04-.63-1.56-.7-1.75-1.38-3.54-2.05-5.36-.24-.66-.48-1.34-.72-2.02s-.48-1.36-.71-2.05c-.47-1.38-.93-2.78-1.39-4.21-.22-.71-.44-1.43-.66-2.15-.13-.42-.26-.83-.38-1.25-.16-.53-.32-1.05-.47-1.59-.15-.54-.31-1.07-.46-1.61-.21-.74-.41-1.47-.61-2.22-.19-.71-.39-1.42-.57-2.15-.41-1.58-.81-3.19-1.19-4.83-.19-.8-.38-1.59-.55-2.4-.16-.73-.33-1.47-.48-2.21-.02-.1-.05-.21-.07-.31-.17-.78-.33-1.58-.49-2.38-.13-.64-.25-1.28-.38-1.92-.2-1.03-.39-2.07-.58-3.12-.15-.85-.31-1.71-.45-2.58-.15-.86-.29-1.72-.43-2.59v-.04c-.13-.86-.27-1.71-.4-2.57v-.07c-.13-.88-.26-1.77-.38-2.66-.13-.89-.24-1.78-.36-2.68v-.07c-.12-.91-.23-1.82-.33-2.73-.1-.86-.2-1.73-.29-2.61,0-.11-.02-.21-.03-.32-.1-.9-.19-1.8-.28-2.71-.1-.95-.18-1.91-.26-2.87-.09-.96-.16-1.93-.24-2.91-.08-.97-.15-1.96-.21-2.95-.06-.94-.12-1.88-.18-2.84,0-.09,0-.18-.02-.26-.06-.97-.11-1.94-.15-2.92-.04-.83-.08-1.67-.12-2.52-.03-.78-.06-1.56-.08-2.35-.02-.74-.04-1.47-.06-2.22,0-.25,0-.5,0-.75-.02-.71-.04-1.42-.04-2.14-.02-.83-.03-1.68-.03-2.52,0-1.02,0-2.04-.02-3.07v-.25c0-1.05,0-2.11,0-3.18,0-.9.02-1.81.04-2.72.03-1.99.08-3.99.15-6.02,0-.63.04-1.26.07-1.9.03-.8.07-1.6.1-2.41,0-.21.02-.41.03-.62.05-1.08.11-2.17.17-3.26.06-1.02.12-2.04.18-3.06l.06-.96c.04-.61.08-1.23.12-1.84.04-.72.1-1.44.15-2.16.07-.88.14-1.75.21-2.63.1-1.21.2-2.42.31-3.64.11-1.22.23-2.45.35-3.68.12-1.24.24-2.48.38-3.72.13-1.24.27-2.48.41-3.73v-.06c.16-1.26.3-2.51.47-3.78.16-1.28.32-2.56.49-3.85.17-1.29.35-2.57.53-3.87v-.07c.19-1.29.38-2.59.58-3.89.19-1.32.4-2.65.61-3.98.42-2.66.86-5.37,1.34-8.09,75.92,10.38,105.99-16.03,105.99-16.03l-.03-.03Z"/>
      </g>
    </g>
  </g>
</svg>