<svg width="24" height="24" viewBox="0 0 24 24" fill="none" xmlns="http://www.w3.org/2000/svg">
<rect width="24" height="24" fill="#E5E5E5"/>
<g clip-path="url(#clip0)">
<rect width="1440" height="900" transform="translate(-740 -417)" fill="white"/>
<rect opacity="0.8" x="-740" y="-417" width="1440" height="900" fill="black"/>
<g filter="url(#filter0_d)">
<rect x="-415" y="-377" width="790" height="688" rx="5" fill="white"/>
</g>
<path opacity="0.8" d="M-16 -69C-16 -71.7614 -13.7614 -74 -11 -74H335C337.761 -74 340 -71.7614 340 -69V113C340 115.761 337.761 118 335 118H-11C-13.7614 118 -16 115.761 -16 113V-69Z" fill="#F6F6F6"/>
<circle cx="12" cy="12" r="12" fill="#E9EDF5"/>
<text fill="#403F3F" xml:space="preserve" style="white-space: pre" font-family="Noto Sans" font-size="12" font-weight="bold" letter-spacing="0em"><tspan x="7.46484" y="16.656">U</tspan></text>
</g>
<defs>
<filter id="filter0_d" x="-419" y="-377" width="798" height="696" filterUnits="userSpaceOnUse" color-interpolation-filters="sRGB">
<feFlood flood-opacity="0" result="BackgroundImageFix"/>
<feColorMatrix in="SourceAlpha" type="matrix" values="0 0 0 0 0 0 0 0 0 0 0 0 0 0 0 0 0 0 127 0"/>
<feOffset dy="4"/>
<feGaussianBlur stdDeviation="2"/>
<feColorMatrix type="matrix" values="0 0 0 0 0 0 0 0 0 0 0 0 0 0 0 0 0 0 0.25 0"/>
<feBlend mode="normal" in2="BackgroundImageFix" result="effect1_dropShadow"/>
<feBlend mode="normal" in="SourceGraphic" in2="effect1_dropShadow" result="shape"/>
</filter>
<clipPath id="clip0">
<rect width="1440" height="900" fill="white" transform="translate(-740 -417)"/>
</clipPath>
</defs>
</svg>
