<?xml version="1.0" encoding="UTF-8"?>
<svg xmlns="http://www.w3.org/2000/svg" xmlns:xlink="http://www.w3.org/1999/xlink" width="17px" height="17px" viewBox="0 0 17 17" version="1.1">
<g id="surface1">
<path style=" stroke:none;fill-rule:nonzero;fill:rgb(0%,0%,0%);fill-opacity:1;" d="M 16.449219 11.558594 L 16.449219 7.273438 L 16.71875 7.132812 C 16.890625 7.042969 17 6.863281 17.003906 6.667969 C 17.003906 6.472656 16.898438 6.292969 16.726562 6.195312 L 8.734375 1.921875 C 8.574219 1.832031 8.382812 1.832031 8.21875 1.921875 L 0.269531 6.203125 C 0.101562 6.296875 -0.00390625 6.476562 0 6.671875 C 0 6.867188 0.105469 7.042969 0.277344 7.136719 L 3.769531 8.996094 C 3.726562 9.070312 3.699219 9.160156 3.699219 9.253906 L 3.699219 13.75 C 3.699219 13.902344 3.765625 14.046875 3.878906 14.148438 C 3.992188 14.25 5.097656 15.144531 8.472656 15.144531 C 11.835938 15.144531 12.96875 14.296875 13.085938 14.203125 C 13.210938 14.101562 13.28125 13.949219 13.28125 13.792969 L 13.28125 9.179688 C 13.28125 9.105469 13.265625 9.035156 13.238281 8.96875 L 15.386719 7.835938 L 15.386719 11.5625 C 15.070312 11.746094 14.859375 12.085938 14.859375 12.476562 C 14.859375 13.0625 15.335938 13.539062 15.921875 13.539062 C 16.507812 13.539062 16.984375 13.0625 16.984375 12.476562 C 16.984375 12.082031 16.765625 11.742188 16.449219 11.558594 Z M 12.21875 13.488281 C 11.800781 13.6875 10.695312 14.082031 8.472656 14.082031 C 6.230469 14.082031 5.152344 13.664062 4.761719 13.460938 L 4.761719 9.523438 L 8.210938 11.359375 C 8.289062 11.402344 8.378906 11.421875 8.464844 11.421875 C 8.546875 11.421875 8.632812 11.402344 8.710938 11.363281 L 12.21875 9.507812 Z M 8.46875 10.289062 L 1.632812 6.660156 L 8.480469 2.992188 L 15.34375 6.652344 Z M 8.46875 10.289062 "/>
</g>
</svg>
