<?xml version="1.0" encoding="UTF-8"?>
<svg xmlns="http://www.w3.org/2000/svg" xmlns:xlink="http://www.w3.org/1999/xlink" width="18px" height="18px" viewBox="0 0 18 18" version="1.1">
<g id="surface1">
<path style=" stroke:none;fill-rule:nonzero;fill:rgb(0%,0%,0%);fill-opacity:1;" d="M 17.355469 11.347656 C 17.003906 11.347656 16.714844 11.632812 16.714844 11.988281 L 16.714844 16.714844 L 11.988281 16.714844 C 11.632812 16.714844 11.347656 17.003906 11.347656 17.355469 C 11.347656 17.710938 11.632812 18 11.988281 18 L 17.355469 18 C 17.710938 18 18 17.710938 18 17.355469 L 18 11.988281 C 18 11.632812 17.710938 11.347656 17.355469 11.347656 Z M 17.355469 11.347656 "/>
<path style=" stroke:none;fill-rule:nonzero;fill:rgb(0%,0%,0%);fill-opacity:1;" d="M 6.011719 16.714844 L 1.285156 16.714844 L 1.285156 11.988281 C 1.285156 11.632812 0.996094 11.347656 0.644531 11.347656 C 0.289062 11.347656 0 11.632812 0 11.988281 L 0 17.355469 C 0 17.710938 0.289062 18 0.644531 18 L 6.011719 18 C 6.367188 18 6.652344 17.710938 6.652344 17.355469 C 6.652344 17.003906 6.367188 16.714844 6.011719 16.714844 Z M 6.011719 16.714844 "/>
<path style=" stroke:none;fill-rule:nonzero;fill:rgb(0%,0%,0%);fill-opacity:1;" d="M 17.355469 0 L 11.988281 0 C 11.632812 0 11.347656 0.289062 11.347656 0.644531 C 11.347656 0.996094 11.632812 1.285156 11.988281 1.285156 L 16.714844 1.285156 L 16.714844 6.011719 C 16.714844 6.367188 17.003906 6.652344 17.355469 6.652344 C 17.710938 6.652344 18 6.367188 18 6.011719 L 18 0.644531 C 18 0.289062 17.710938 0 17.355469 0 Z M 17.355469 0 "/>
<path style=" stroke:none;fill-rule:nonzero;fill:rgb(0%,0%,0%);fill-opacity:1;" d="M 0.644531 6.652344 C 0.996094 6.652344 1.285156 6.367188 1.285156 6.011719 L 1.285156 1.285156 L 6.011719 1.285156 C 6.367188 1.285156 6.652344 0.996094 6.652344 0.644531 C 6.652344 0.289062 6.367188 0 6.011719 0 L 0.644531 0 C 0.289062 0 0 0.289062 0 0.644531 L 0 6.011719 C 0 6.367188 0.289062 6.652344 0.644531 6.652344 Z M 0.644531 6.652344 "/>
<path style=" stroke:none;fill-rule:nonzero;fill:rgb(0%,0%,0%);fill-opacity:1;" d="M 5.425781 6.363281 C 5.449219 8.25 6.25 9.394531 7.558594 9.375 C 7.558594 9.375 9.691406 9.460938 9.691406 6.363281 C 9.691406 4.980469 8.96875 4.265625 7.558594 4.265625 C 6.175781 4.265625 5.414062 4.980469 5.425781 6.363281 Z M 5.425781 6.363281 "/>
<path style=" stroke:none;fill-rule:nonzero;fill:rgb(0%,0%,0%);fill-opacity:1;" d="M 9.261719 9.988281 L 9.199219 9.960938 L 8.699219 9.539062 C 8.566406 9.429688 8.375 9.4375 8.25 9.558594 L 7.558594 10.25 L 6.863281 9.558594 C 6.742188 9.4375 6.546875 9.429688 6.414062 9.539062 L 5.917969 9.960938 L 3.789062 10.808594 C 3.101562 11.082031 3.101562 13.511719 3.042969 13.734375 L 11.570312 13.734375 C 11.300781 13.4375 10.902344 12.972656 10.503906 12.410156 C 10.039062 11.757812 9.511719 10.878906 9.261719 9.988281 Z M 9.261719 9.988281 "/>
<path style=" stroke:none;fill-rule:nonzero;fill:rgb(0%,0%,0%);fill-opacity:1;" d="M 12.324219 13.734375 C 12.363281 13.734375 12.402344 13.714844 12.433594 13.6875 C 12.675781 13.429688 13.152344 12.894531 13.632812 12.21875 C 14.234375 11.371094 14.957031 10.125 14.957031 9.011719 C 14.957031 7.5625 13.773438 6.378906 12.324219 6.378906 C 10.871094 6.378906 9.691406 7.5625 9.691406 9.011719 C 9.691406 10.125 10.410156 11.371094 11.015625 12.222656 C 11.492188 12.898438 11.972656 13.429688 12.214844 13.6875 C 12.242188 13.714844 12.28125 13.734375 12.324219 13.734375 Z M 10.714844 8.980469 C 10.714844 8.09375 11.4375 7.371094 12.324219 7.371094 C 13.210938 7.371094 13.929688 8.09375 13.929688 8.980469 C 13.929688 9.863281 13.210938 10.585938 12.324219 10.585938 C 11.4375 10.585938 10.714844 9.863281 10.714844 8.980469 Z M 10.714844 8.980469 "/>
</g>
</svg>
