<svg viewBox="0 0 238 180" fill="none" xmlns="http://www.w3.org/2000/svg">
<g clip-path="url(#clip0_432_483)">
<path d="M203.905 97.5092C203.905 125.195 187.708 149.688 162.879 164.598C146.959 174.159 127.489 179.781 106.466 179.781C78.4593 179.781 57.0957 169.174 41.0254 152.925C26.213 137.951 15.8992 118.183 9.0269 97.5092C-21.6527 5.20334 29.5979 -19.9789 106.466 15.2373C155.408 37.6622 203.905 52.073 203.905 97.5092Z" fill="#0B0F32"/>
<path d="M162.879 49.1865V164.817C146.959 174.378 127.489 180 106.466 180C78.4593 180 57.0956 169.393 41.0254 153.144V49.1865H162.879Z" fill="#F2F2F2"/>
<path d="M52.7457 105.528C59.1257 103.494 65.7452 102.312 72.4334 102.011C75.7848 101.868 79.1423 101.999 82.4723 102.404C85.7701 102.841 89.028 103.54 92.2154 104.495C95.3645 105.408 98.4701 106.464 101.609 107.412C104.797 108.388 108.038 109.181 111.317 109.786C114.578 110.378 117.872 110.771 121.18 110.965C124.457 111.156 127.765 111.193 131.032 110.843C134.084 110.549 137.073 109.789 139.896 108.591C142.529 107.44 144.963 105.876 147.105 103.958C147.64 103.479 148.154 102.98 148.648 102.46C148.939 102.154 148.477 101.689 148.185 101.995C144.008 106.37 138.519 109.083 132.565 109.989C129.321 110.483 126.016 110.511 122.744 110.384C119.399 110.255 116.064 109.917 112.761 109.373C109.497 108.831 106.269 108.094 103.092 107.168C99.9722 106.262 96.8945 105.217 93.7853 104.276C90.6488 103.289 87.4469 102.524 84.2033 101.988C80.9505 101.491 77.6625 101.263 74.3724 101.304C67.7979 101.409 61.2657 102.379 54.9429 104.188C54.1488 104.411 53.3583 104.647 52.5715 104.895C52.1706 105.021 52.3417 105.655 52.7457 105.528H52.7457Z" fill="#3F3D56"/>
<path d="M52.7457 122.16C59.1257 120.126 65.7452 118.944 72.4334 118.643C75.7848 118.5 79.1423 118.631 82.4723 119.036C85.7701 119.473 89.028 120.172 92.2154 121.127C95.3645 122.04 98.4701 123.096 101.609 124.045C104.797 125.02 108.038 125.813 111.317 126.419C114.578 127.01 117.872 127.403 121.18 127.597C124.457 127.788 127.765 127.825 131.032 127.475C134.084 127.181 137.073 126.421 139.896 125.223C142.529 124.072 144.963 122.508 147.105 120.59C147.64 120.111 148.154 119.612 148.648 119.092C148.939 118.786 148.477 118.321 148.185 118.627C144.008 123.003 138.519 125.715 132.565 126.621C129.321 127.115 126.016 127.143 122.744 127.016C119.399 126.887 116.064 126.549 112.761 126.005C109.497 125.463 106.269 124.726 103.092 123.8C99.9722 122.894 96.8945 121.85 93.7853 120.908C90.6488 119.921 87.4469 119.156 84.2033 118.62C80.9505 118.124 77.6625 117.895 74.3724 117.936C67.7979 118.042 61.2657 119.011 54.9429 120.82C54.1488 121.043 53.3583 121.279 52.5715 121.527C52.1706 121.653 52.3417 122.287 52.7457 122.16H52.7457Z" fill="#3F3D56"/>
<path d="M52.7457 90.4279C59.1257 88.3941 65.7452 87.2115 72.4334 86.9104C75.7848 86.7675 79.1423 86.8991 82.4723 87.304C85.7701 87.7411 89.028 88.4401 92.2154 89.3944C95.3645 90.3081 98.4701 91.3637 101.609 92.3123C104.797 93.2881 108.038 94.0808 111.317 94.6864C114.578 95.2778 117.872 95.6712 121.18 95.8646C124.457 96.0554 127.765 96.0926 131.032 95.7428C134.084 95.4484 137.073 94.6891 139.896 93.4911C142.529 92.3396 144.963 90.7755 147.105 88.8574C147.64 88.3792 148.154 87.8798 148.648 87.3594C148.939 87.0541 148.477 86.5891 148.185 86.8952C144.008 91.2703 138.519 93.9831 132.565 94.889C129.321 95.3825 126.016 95.4112 122.744 95.2839C119.399 95.1545 116.064 94.8169 112.761 94.2731C109.497 93.7307 106.269 92.9942 103.092 92.0676C99.9722 91.1617 96.8945 90.1173 93.7853 89.1756C90.6488 88.1886 87.4469 87.4241 84.2033 86.8878C80.9505 86.3913 77.6625 86.1626 74.3724 86.204C67.7979 86.3093 61.2657 87.2787 54.9429 89.0874C54.1488 89.3108 53.3583 89.5466 52.5715 89.7948C52.1706 89.9208 52.3417 90.5548 52.7457 90.4279H52.7457Z" fill="#3F3D56"/>
<path d="M51.9653 61.8778C53.5504 61.1741 55.3661 61.2968 57.0111 61.7048C58.7848 62.1448 60.4551 62.9099 62.2012 63.439C65.3265 64.3722 68.6464 64.4353 71.8048 63.6215C73.583 63.167 75.2798 62.4382 76.8344 61.4611C77.1905 61.2368 76.8621 60.6685 76.5038 60.8942C73.7326 62.6284 70.5293 63.5435 67.2622 63.5345C65.6237 63.5321 63.9942 63.2916 62.4244 62.8206C60.6911 62.2998 59.0342 61.5437 57.2783 61.0952C55.418 60.62 53.4229 60.517 51.6347 61.3109C51.25 61.4817 51.5829 62.0476 51.9653 61.8778Z" fill="#3F3D56"/>
<path d="M100.642 162.547C106.19 162.547 110.687 158.04 110.687 152.48C110.687 146.921 106.19 142.414 100.642 142.414C95.0941 142.414 90.5967 146.921 90.5967 152.48C90.5967 158.04 95.0941 162.547 100.642 162.547Z" fill="#3F3D56"/>
<path d="M46.4848 28.6152C49.4999 28.6152 51.9442 26.1657 51.9442 23.1441C51.9442 20.1225 49.4999 17.673 46.4848 17.673C43.4696 17.673 41.0254 20.1225 41.0254 23.1441C41.0254 26.1657 43.4696 28.6152 46.4848 28.6152Z" fill="#F2F2F2"/>
<path d="M94.3091 42.4023C96.3594 42.4023 98.0214 40.7367 98.0214 38.682C98.0214 36.6273 96.3594 34.9617 94.3091 34.9617C92.2588 34.9617 90.5967 36.6273 90.5967 38.682C90.5967 40.7367 92.2588 42.4023 94.3091 42.4023Z" fill="#F2F2F2"/>
<path d="M34.0376 78.0738C36.0879 78.0738 37.75 76.4081 37.75 74.3535C37.75 72.2988 36.0879 70.6331 34.0376 70.6331C31.9873 70.6331 30.3252 72.2988 30.3252 74.3535C30.3252 76.4081 31.9873 78.0738 34.0376 78.0738Z" fill="#F2F2F2"/>
<path d="M19.0905 46.7152H18.6812V120.081H19.0905V46.7152Z" fill="#3F3D56"/>
<path d="M18.965 113.794C23.374 113.794 26.9481 105.62 26.9481 95.5369C26.9481 85.4539 23.374 77.28 18.965 77.28C14.5561 77.28 10.9819 85.4539 10.9819 95.5369C10.9819 105.62 14.5561 113.794 18.965 113.794Z" fill="#3F3D56"/>
<path d="M18.965 72.1517C23.374 72.1517 26.9481 63.9778 26.9481 53.8948C26.9481 43.8119 23.374 35.638 18.965 35.638C14.5561 35.638 10.9819 43.8119 10.9819 53.8948C10.9819 63.9778 14.5561 72.1517 18.965 72.1517Z" fill="#3F3D56"/>
<path d="M19.1613 38.9791L18.7691 38.8613C18.7939 38.7783 21.2007 30.513 17.2488 25.1922C15.0167 22.1871 11.1866 20.6633 5.86475 20.6633V20.2531C11.3239 20.2531 15.2649 21.8329 17.5783 24.9488C21.6525 30.4364 19.1867 38.8943 19.1613 38.9791Z" fill="#3F3D56"/>
<path d="M5.86444 25.5865C8.69068 25.5865 10.9818 23.2905 10.9818 20.4582C10.9818 17.6259 8.69068 15.3298 5.86444 15.3298C3.03819 15.3298 0.74707 17.6259 0.74707 20.4582C0.74707 23.2905 3.03819 25.5865 5.86444 25.5865Z" fill="#3F3D56"/>
<path d="M168.311 136.706L164.482 172.006H190.9L192.048 169.32L193.58 172.006H218.466C218.466 172.006 216.552 135.555 213.106 134.404C209.66 133.253 168.311 136.706 168.311 136.706Z" fill="#2F2E41"/>
<path d="M190.9 59.2015C198.301 59.2015 204.3 53.1892 204.3 45.7725C204.3 38.3558 198.301 32.3434 190.9 32.3434C183.499 32.3434 177.5 38.3558 177.5 45.7725C177.5 53.1892 183.499 59.2015 190.9 59.2015Z" fill="#FFB8B8"/>
<path d="M183.242 54.2137C183.242 54.2137 184.391 66.4916 183.242 67.259C182.094 68.0264 201.62 67.6427 201.62 67.6427C201.62 67.6427 198.94 56.5158 201.62 51.1442L183.242 54.2137Z" fill="#FFB8B8"/>
<path d="M190.134 64.5732C190.134 64.5732 199.985 66.1109 200.803 63.0399L205.831 69.9448L206.214 139.009C206.214 139.009 165.247 143.996 163.716 135.939C162.185 127.882 179.414 64.1895 179.414 64.1895L183.751 63.9081C183.751 63.9081 189.368 64.5732 190.134 64.5732Z" fill="#D0CDE1"/>
<path d="M183.686 60.7571L177.117 63.0385L158.356 67.6427L159.122 113.685C159.122 113.685 143.041 159.728 150.316 163.181C157.59 166.634 167.928 158.577 170.991 152.821C174.054 147.066 184.774 67.259 184.774 65.7243C184.774 64.1895 183.686 60.7571 183.686 60.7571Z" fill="#3F3D56"/>
<path d="M200.557 60.7571L203.151 63.0385L221.529 71.4796L212.34 117.906C212.34 117.906 224.592 160.111 219.997 162.413C215.403 164.716 208.511 171.238 206.98 167.401C205.448 163.564 196.43 64.9985 200.557 60.7571Z" fill="#3F3D56"/>
<path d="M211.192 122.126C211.192 122.126 193.963 114.836 193.58 121.359C193.197 127.882 213.106 132.486 213.106 130.567C213.106 128.649 211.192 122.126 211.192 122.126Z" fill="#FFB8B8"/>
<path d="M169.076 119.44C169.076 119.44 188.986 134.404 181.328 138.241C173.671 142.078 163.716 124.812 163.716 124.812L169.076 119.44Z" fill="#FFB8B8"/>
<path d="M196.849 26.1011C196.912 25.9676 197.013 25.856 197.14 25.7806C197.267 25.7053 197.413 25.6696 197.56 25.6782C191.425 25.3104 184.963 26.027 179.831 29.415C178.393 30.3638 177.051 31.5241 175.415 32.0588L176.743 33.1027L175.156 33.5876L177.491 35.1003C177.256 35.369 176.953 35.5705 176.614 35.6841C176.276 35.7978 175.913 35.8197 175.563 35.7476C176.578 36.0448 177.326 36.95 177.705 37.9391C178.085 38.9283 178.153 40.0055 178.217 41.0633C178.61 39.537 180.272 38.6386 181.842 38.5473C183.412 38.456 184.943 38.9752 186.471 39.3484C189.799 40.1588 193.256 40.2921 196.636 39.7402C195.488 42.0488 196.457 44.8023 197.431 47.1896L199.377 51.9563C200.457 52.0652 201.22 50.9887 202.034 50.2686C202.776 49.6123 199.823 55.3844 200.28 55.1729C200.874 54.8982 207.142 47.9634 207.435 47.3775C208.774 44.7045 209.578 41.7231 209.457 38.7346C209.336 35.7462 208.245 32.7562 206.189 30.5876C204.794 29.1155 202.863 28.8576 201.44 27.6341C200.881 27.1525 200.878 26.7763 200.109 26.4955C199.853 26.4022 196.891 26.0071 196.849 26.1011Z" fill="#2F2E41"/>
<path d="M161.036 68.7938L158.356 67.6427L136.916 102.942C136.916 102.942 133.087 112.15 139.978 116.371C146.87 120.592 162.951 133.253 162.951 133.253L172.139 119.057C172.139 119.057 153.379 110.232 154.527 106.779C155.676 103.326 161.802 94.1171 161.802 94.1171L161.036 68.7938Z" fill="#3F3D56"/>
<path d="M216.552 70.7122L221.529 71.4796C221.529 71.4796 242.204 112.15 237.227 119.824C232.25 127.498 211.958 138.241 211.958 138.241C211.958 138.241 211.575 125.579 208.129 120.975L219.998 116.371L213.489 91.0476L216.552 70.7122Z" fill="#3F3D56"/>
</g>
<defs>
<clipPath id="clip0_432_483">
<rect width="238" height="180" fill="white"/>
</clipPath>
</defs>
</svg>
