<svg viewBox="0 0 98 84" fill="none" xmlns="http://www.w3.org/2000/svg">
<path d="M19.5954 29.8946V21.5254H17.9797C17.5935 21.5254 17.2239 21.4578 16.8783 21.339C15.2764 22.0592 14.0459 23.9153 14.0459 25.7477C14.0459 28.3684 16.6651 30.518 19.6028 30.1957C19.6001 30.0953 19.5954 29.9951 19.5954 29.8946Z" fill="#FFB1A0"/>
<path d="M19.5954 29.5121C18.2173 28.7091 17.283 27.3126 17.283 25.7475C17.283 24.1195 18.2552 22.4749 19.5954 21.6226V21.5253H17.9797C17.5935 21.5253 17.2239 21.4577 16.8783 21.3388C15.2764 22.059 14.0459 23.9152 14.0459 25.7475C14.0459 28.3682 16.6651 30.5178 19.6028 30.1955C19.6001 30.0951 19.5954 29.9952 19.5954 29.8944V29.5121Z" fill="#FFA68E"/>
<path d="M44.3693 26.4132H47.8912C47.8982 26.3138 47.903 25.8332 47.903 25.7323C47.903 23.7402 46.6057 21.6816 44.7122 21.0825C44.3468 21.359 43.894 21.5252 43.4033 21.5252C43.1089 21.5252 42.6311 21.4936 42.3535 21.4348V29C42.3535 27.9921 43.3612 26.4132 44.3693 26.4132Z" fill="#FFB1A0"/>
<path d="M45.7978 21.6279C45.4646 21.394 45.1019 21.2061 44.7119 21.0827C44.3465 21.3592 43.8937 21.5254 43.4028 21.5254C43.1084 21.5254 42.6307 21.4938 42.353 21.435V29.0002C42.353 27.9921 43.3607 26.4132 44.3688 26.4132H45.7977V21.6279H45.7978Z" fill="#FFA68E"/>
<path d="M48.4155 69.1086C47.1803 69.1086 46.1787 68.1072 46.1787 66.8718V47.2961C45.4547 47.0157 44.3543 46.7371 43.6618 46.469C37.3236 52.8071 37.6488 52.5213 36.9552 53.0564C33.0693 56.0539 27.525 55.7074 24.0378 52.2199L18.2619 46.444L7.68241 50.5759C5.00841 51.6763 1.42822 55.1386 1.42822 60.2764V80.4905C1.42822 81.6415 2.36126 82.5746 3.51232 82.5746H58.4365C59.5875 82.5746 60.5206 81.6415 60.5206 80.4905C60.5206 80.078 60.5206 74.0941 60.5206 69.1086H48.4155Z" fill="#695D67"/>
<path d="M6.54356 58.1617C6.54356 53.665 9.28593 50.4519 11.7631 48.9821L7.68263 50.5757C5.00843 51.6763 1.42822 55.1386 1.42822 60.2764V80.4906C1.42822 81.6417 2.36126 82.5747 3.51233 82.5747H6.54356C6.54356 73.7969 6.54356 59.5144 6.54356 58.1617Z" fill="#544E55"/>
<path d="M32.9033 48.9295L37.5087 43.7856C37.4207 43.6219 37.3695 43.4372 37.3689 43.2426L37.3659 38.8704C33.3009 41.5304 28.1573 41.171 24.5733 38.8535V43.2357C24.5733 43.4673 24.5185 43.652 24.4326 43.8018L29.0218 48.9295C29.1241 49.0307 29.1909 49.1523 29.23 49.2809H32.695C32.7342 49.1523 32.801 49.0307 32.9033 48.9295Z" fill="#FFB1A0"/>
<path d="M30.7918 49.0811V40.7287C28.5488 40.682 26.3659 40.0127 24.5733 38.8537V43.2359C24.5733 43.4674 24.5185 43.6522 24.4326 43.802L29.0218 48.9297C29.1241 49.0308 29.1909 49.1525 29.23 49.281H30.7857C30.7893 49.2155 30.7918 49.1495 30.7918 49.0811Z" fill="#FFA68E"/>
<path d="M45.7979 31.8644V67.2529C45.7979 68.4881 46.7992 69.4897 48.0347 69.4897H90.5742C91.8094 69.4897 92.8108 68.4883 92.8108 67.2529V31.8644H45.7979Z" fill="#DFEBFA"/>
<path d="M56.4612 67.2529V31.8644H45.7979V67.2529C45.7979 68.4883 46.7992 69.4897 48.0347 69.4897H58.698C57.4625 69.4897 56.4612 68.4883 56.4612 67.2529Z" fill="#B1DBFC"/>
<path d="M69.3042 76.4899C67.624 76.4899 66.2617 77.8521 66.2617 79.5323C66.2617 81.2126 67.624 82.5748 69.3042 82.5748C70.9844 82.5748 72.3467 81.2126 72.3467 79.5323C72.3467 77.8519 70.9846 76.4899 69.3042 76.4899Z" fill="#DFEBFA"/>
<path d="M69.0864 79.5323C69.0864 78.362 69.7479 77.3477 70.7165 76.8387C70.2942 76.6169 69.8143 76.4899 69.3042 76.4899C67.624 76.4899 66.2617 77.8519 66.2617 79.5323C66.2617 81.2126 67.624 82.5748 69.3042 82.5748C69.8143 82.5748 70.2942 82.4478 70.7165 82.226C69.7479 81.7168 69.0864 80.7024 69.0864 79.5323Z" fill="#B1DBFC"/>
<path d="M94.24 26.0324H44.3693C43.3612 26.0324 42.5439 26.8496 42.5439 27.8577V30.6103C42.5439 31.6184 43.3612 32.4357 44.3693 32.4357H94.2402C95.2482 32.4357 96.0655 31.6184 96.0655 30.6103V27.8577C96.0653 26.8496 95.248 26.0324 94.24 26.0324Z" fill="#8479C2"/>
<path d="M55.9683 30.6104V27.8577C55.9683 26.8496 56.7855 26.0324 57.7936 26.0324H44.3693C43.3612 26.0324 42.5439 26.8496 42.5439 27.8577V30.6104C42.5439 31.6184 43.3612 32.4357 44.3693 32.4357H57.7936C56.7855 32.4357 55.9683 31.6184 55.9683 30.6104Z" fill="#6E60B8"/>
<path d="M57.3277 50.7714H53.2309C52.744 50.7714 52.3491 51.1661 52.3491 51.6532V58.3414C52.3491 58.7232 52.6585 59.0328 53.0405 59.0328H58.2096V51.6534C58.2094 51.1661 57.8146 50.7714 57.3277 50.7714Z" fill="#43CB8E"/>
<path d="M55.379 51.6532C55.379 51.1663 55.7738 50.7714 56.2608 50.7714H53.2309C52.744 50.7714 52.3491 51.1661 52.3491 51.6532V58.3414C52.3491 58.7232 52.6585 59.0328 53.0405 59.0328H55.379V51.6532Z" fill="#00BA66"/>
<path d="M62.9977 47.2403H58.9009C58.414 47.2403 58.019 47.6351 58.019 48.1221V59.0326H63.8793V48.1221C63.8795 47.6353 63.4847 47.2403 62.9977 47.2403Z" fill="#FFE181"/>
<path d="M61.9308 47.2403H58.9009C58.414 47.2403 58.019 47.6351 58.019 48.122V59.0324H61.0489V48.122C61.0491 47.6352 61.4439 47.2403 61.9308 47.2403Z" fill="#FEC458"/>
<path d="M68.4679 43.5771H64.5615C64.0746 43.5771 63.6797 43.9719 63.6797 44.4589V59.0326H68.6583C69.0401 59.0326 69.3497 58.7232 69.3497 58.3412V44.4589C69.3495 43.9719 68.9548 43.5771 68.4679 43.5771Z" fill="#FF7F87"/>
<path d="M67.5914 43.5771H64.5615C64.0746 43.5771 63.6797 43.9719 63.6797 44.4589V59.0326H66.7096V44.4589C66.7096 43.9719 67.1043 43.5771 67.5914 43.5771Z" fill="#FF656F"/>
<path d="M32.6949 48.7094H29.2299C29.3167 48.9946 28.8711 49.3162 28.6463 49.5426L24.98 53.6172C28.4966 56.3395 33.4352 56.343 36.9554 53.6276L33.2787 49.5426C33.0538 49.3162 32.608 48.9946 32.6949 48.7094Z" fill="#FEC458"/>
<path d="M38.1078 44.318C37.845 44.2166 37.6367 44.024 37.5086 43.7856L32.9032 48.3583C32.5741 48.6837 32.5717 49.2146 32.8978 49.5429L36.9554 53.6279C37.2869 53.3721 37.607 53.0953 37.9109 52.7914L44.0737 46.6286C41.0328 45.4506 38.418 44.438 38.1078 44.318Z" fill="#FFE181"/>
<path d="M24.4324 43.8016C24.3416 43.9601 24.2159 44.0795 24.0805 44.1714L17.8511 46.6044L24.0379 52.7912C24.3376 53.0909 24.6533 53.3643 24.9799 53.6172L29.027 49.5427C29.3532 49.2144 29.3507 48.6835 29.0216 48.3581L24.4324 43.8016Z" fill="#FFE181"/>
<path d="M39.2443 16.9855C39.2443 16.7627 38.9459 16.6858 38.8408 16.8825C37.4848 19.4185 34.8127 21.1446 31.736 21.1446H26.6226V29.8656C26.6226 34.6731 29.5984 39.1477 34.4012 40.821C39.1049 39.4144 42.544 35.0495 42.544 29.8946V21.0541C40.6654 20.6554 39.2443 18.9786 39.2443 16.9855Z" fill="#FFCEBE"/>
<path d="M26.7946 29.8946V21.1446H19.4048V29.8946C19.4048 35.855 24.0749 41.2988 31.1392 41.2988C32.3883 41.2988 33.5898 41.0941 34.7156 40.7213C29.8339 39.1711 26.7946 34.7018 26.7946 29.8946Z" fill="#FFB1A0"/>
<path d="M41.8026 6.70403C40.7131 6.78781 39.7132 6.10269 39.5036 5.03008C39.1503 3.22379 38.256 1.43121 34.7628 1.43121H22.6426C18.1945 1.43121 14.5884 5.03712 14.5884 9.48543V18.3247C14.5884 20.1977 16.1068 21.716 17.9797 21.716H31.7355C34.8123 21.716 37.4844 19.9899 38.8403 17.454C38.9455 17.2575 39.2438 17.3342 39.2438 17.557C39.2438 19.8444 41.1154 21.716 43.4029 21.716C44.602 21.716 45.583 20.735 45.583 19.536C45.583 16.185 45.583 13.7374 45.583 10.3118C45.583 8.13862 43.687 6.55912 41.8026 6.70403Z" fill="#695D67"/>
<path d="M21.2533 18.5087V9.4285C21.2533 5.59333 23.8632 2.36901 27.4034 1.43121H22.6426C18.1945 1.43121 14.5884 5.03712 14.5884 9.48543V18.3247C14.5884 20.1977 16.1068 21.716 17.9797 21.716H23.3757C22.1283 21.1857 21.2533 19.9494 21.2533 18.5087Z" fill="#544E55"/>
<path d="M85.4533 49.8737H76.3134C75.5245 49.8737 74.8853 50.5132 74.8853 51.3019C74.8853 52.0906 75.5245 52.73 76.3134 52.73H85.4533C86.2422 52.73 86.8815 52.0906 86.8815 51.3019C86.8815 50.5132 86.2422 49.8737 85.4533 49.8737Z" fill="black"/>
<path d="M85.4533 55.7441H76.3134C75.5245 55.7441 74.8853 56.3835 74.8853 57.1722C74.8853 57.9609 75.5245 58.6003 76.3134 58.6003H85.4533C86.2422 58.6003 86.8815 57.9609 86.8815 57.1722C86.8815 56.3835 86.2422 55.7441 85.4533 55.7441Z" fill="black"/>
<path d="M85.4533 44.0034H76.3134C75.5245 44.0034 74.8853 44.6429 74.8853 45.4316C74.8853 46.2203 75.5245 46.8597 76.3134 46.8597H85.4533C86.2422 46.8597 86.8815 46.2203 86.8815 45.4316C86.8815 44.6429 86.2422 44.0034 85.4533 44.0034Z" fill="black"/>
<path d="M64.5618 42.1461C63.2882 42.1461 62.2519 43.1824 62.2519 44.4561V45.8093H58.901C57.6275 45.8093 56.5912 46.8456 56.5912 48.1191V49.3404H53.2311C51.9576 49.3404 50.9214 50.3767 50.9214 51.6502V58.3383C50.9214 59.5071 51.8721 60.4579 53.0407 60.4579H68.6588C69.8274 60.4579 70.7782 59.5071 70.7782 58.3383V44.4561C70.7782 43.1824 69.7421 42.1461 68.4684 42.1461H64.5618ZM56.5912 57.6016H53.7776V52.1967H56.5912V57.6016ZM62.2519 57.6016H59.4475C59.4475 55.8637 59.4475 50.4374 59.4475 48.6656H62.2519V57.6016ZM67.9217 57.6016H65.1173C65.1173 48.3647 65.108 45.4281 65.108 45.0024H67.9215V57.6016H67.9217Z" fill="black"/>
<path d="M3.51221 83.9996H27.642C28.4309 83.9996 29.0701 83.3602 29.0701 82.5715C29.0701 81.7828 28.4309 81.1434 27.642 81.1434H12.9677V61.9577C12.9677 61.169 12.3284 60.5296 11.5395 60.5296C10.7507 60.5296 10.1114 61.169 10.1114 61.9577V81.1434H3.51221C3.15061 81.1434 2.85623 80.8492 2.85623 80.4874V60.2735C2.85623 55.7542 6.05673 52.7917 8.21509 51.8981L17.5013 48.2714L23.0281 53.798C25.0545 55.825 27.88 57.0911 30.9743 57.0909C33.9571 57.0907 36.8101 55.9078 38.9207 53.7982L44.3696 48.3491V67.2499C44.3696 69.2708 46.0137 70.9148 48.0344 70.9148H48.9809V81.1438H34.3066C33.5177 81.1438 32.8784 81.7832 32.8784 82.5719C32.8784 83.3606 33.5177 84 34.3066 84H58.4364C60.3731 84 61.9486 82.4245 61.9486 80.4878V70.9148H67.8762V75.2942C66.1097 75.8915 64.8337 77.5638 64.8337 79.5294C64.8337 81.9945 66.8392 84 69.3043 84C71.7694 84 73.7749 81.9945 73.7749 79.5294C73.7749 77.5638 72.4991 75.8915 70.7324 75.2942V70.9148H90.5741C92.5948 70.9148 94.2388 69.2708 94.2388 67.2499V54.6345C94.2388 53.8458 93.5996 53.2064 92.8107 53.2064C92.0218 53.2064 91.3826 53.8458 91.3826 54.6345V67.2499C91.3826 67.6959 91.0199 68.0586 90.5741 68.0586H60.5205H48.0345C47.5888 68.0586 47.226 67.6959 47.226 67.2499C47.226 66.3502 47.226 34.7607 47.226 33.861H91.3826V47.97C91.3826 48.7587 92.0218 49.3981 92.8107 49.3981C93.5996 49.3981 94.2388 48.7587 94.2388 47.97V33.861H94.2398C96.0337 33.861 97.493 32.4014 97.493 30.6075V27.8549C97.493 26.061 96.0337 24.6017 94.2398 24.6017H49.2216C48.9291 23.0444 48.0481 21.6561 46.7965 20.7475C46.933 20.3674 47.0113 19.9597 47.0113 19.5332V10.3085C47.0113 7.28738 44.3936 5.06962 41.6931 5.27698C41.3571 5.30307 40.9791 5.13093 40.905 4.75277C40.2795 1.55474 38.2702 0 34.7626 0H22.6427C17.4141 0 13.1604 4.25369 13.1604 9.4823V18.3216C13.1604 19.56 13.6303 20.6907 14.4007 21.5453C13.2904 22.6707 12.6177 24.1852 12.6177 25.7447C12.6177 28.6564 14.8903 31.2473 18.0984 31.6089C18.5573 34.889 20.3164 38.0593 23.1448 40.1693V43.0007C21.5383 43.6283 8.86402 48.5782 7.16247 49.2427C7.15448 49.246 7.14648 49.2492 7.13848 49.2524C3.70053 50.6674 0 54.7198 0 60.2735V80.4876C0 82.4241 1.5755 83.9996 3.51221 83.9996ZM69.3043 77.9149C70.1945 77.9149 70.9187 78.639 70.9187 79.5292C70.9187 80.4194 70.1945 81.1436 69.3043 81.1436C68.4141 81.1436 67.69 80.4194 67.69 79.5292C67.69 78.639 68.4141 77.9149 69.3043 77.9149ZM51.8371 70.9147H59.0924V80.4876C59.0924 80.8492 58.798 81.1436 58.4364 81.1436H51.8373V70.9147H51.8371ZM27.2461 53.3589C28.95 51.6435 28.3311 52.2665 30.0403 50.5459C30.0422 50.544 30.0437 50.5419 30.0454 50.54C30.1713 50.4125 30.2905 50.2523 30.3634 50.1343H31.5608C31.6373 50.2594 31.7601 50.421 31.8843 50.5459L34.6862 53.3667C32.3457 54.5268 29.5843 54.5237 27.2461 53.3589ZM25.9991 43.3418C26.0005 43.3056 26.0012 43.2692 26.0012 43.2325V41.7661C28.9473 42.9417 32.6202 43.1325 35.9392 41.7885L35.9405 43.2433C35.9405 43.2705 35.9411 43.2978 35.942 43.325C34.2854 44.9698 33.5685 45.6816 31.9606 47.278H29.9641C28.9589 46.2804 26.8074 44.1444 25.9991 43.3418ZM37.0181 51.6614C36.7439 51.3855 34.6436 49.2709 34.3279 48.9529L37.6394 45.665C39.6527 46.4448 39.5426 46.4021 41.5138 47.1655L37.0181 51.6614ZM44.3698 45.2086L38.7967 43.0504L38.7943 40.1841C40.9427 38.5821 42.575 36.3248 43.3917 33.7104C43.7003 33.8079 44.0284 33.861 44.3689 33.861H44.3698V45.2086ZM94.2398 27.4575C94.4586 27.4575 94.6368 27.6357 94.6368 27.8545V30.6072C94.6368 30.8261 94.4586 31.0044 94.2398 31.0044C91.84 31.0044 46.8155 31.0044 44.3689 31.0044C44.1501 31.0044 43.9718 30.8261 43.9718 30.6072C43.9718 29.0376 43.9718 29.3771 43.9718 27.8545C43.9718 27.6355 44.1501 27.4573 44.3689 27.4573C47.3127 27.4575 91.3338 27.4575 94.2398 27.4575ZM44.8043 22.8575C45.4738 23.2291 45.9996 23.8625 46.2713 24.6011H44.3689C44.2394 24.6011 44.0591 24.6144 43.9718 24.6251V23.0957C44.2548 23.0509 44.5766 22.954 44.8043 22.8575ZM17.9769 28.6956C16.5543 28.3566 15.4739 27.1751 15.4739 25.7445C15.4739 24.6997 16.1046 23.6481 17.0517 23.0503C17.2768 23.0943 17.5072 23.1235 17.7419 23.1349C17.8202 23.1389 17.8985 23.1408 17.9767 23.141V28.6956H17.9769ZM17.9798 20.2846C16.9214 20.2846 16.0166 19.4216 16.0166 18.3214V9.4823C16.0166 5.82861 18.989 2.85623 22.6427 2.85623H34.7626C37.4084 2.85623 37.8403 3.96349 38.1019 5.30097C38.4443 7.05165 40.0847 8.26517 41.9121 8.12483C42.9701 8.04409 44.1548 8.97008 44.1548 10.3085V19.5326C44.1548 19.9435 43.8001 20.2846 43.4029 20.2846C41.882 20.2846 40.672 19.0284 40.672 17.5536C40.672 15.845 38.3792 15.2825 37.5809 16.7771C36.4244 18.9404 34.1843 20.2844 31.7356 20.2844C29.7402 20.2846 19.9784 20.2846 17.9798 20.2846ZM20.8331 29.8914V23.1408H31.7356C34.2965 23.1408 36.7465 22.1059 38.5258 20.2773C39.1102 21.3197 40.0202 22.1546 41.1156 22.6484V29.8912C41.1156 35.4565 36.5675 39.8673 31.1394 39.8673C24.9185 39.8674 20.8331 35.0332 20.8331 29.8914ZM24.254 45.634C26.4245 47.7891 25.5985 46.969 27.5969 48.9531C26.1471 50.4126 26.672 49.8842 24.9187 51.6494L20.4062 47.1369L24.254 45.634Z" fill="black"/>
</svg>