<svg viewBox="0 0 216 204" fill="none" xmlns="http://www.w3.org/2000/svg">
<g clip-path="url(#clip0_432_630)">
<path d="M156.817 115.762V172.115L166.215 187.477L166.93 188.646H204.013L204.763 115.762H156.817Z" fill="#E6E6E6"/>
<path opacity="0.1" d="M156.817 115.762V172.115L166.215 187.477L166.792 115.762H156.817Z" fill="black"/>
<path d="M67.2934 114.259V170.613L57.8951 185.975L57.1799 187.143H20.0969L19.3477 114.259H67.2934Z" fill="#E6E6E6"/>
<path opacity="0.1" d="M67.2933 114.259V170.613L57.8951 185.975L57.3184 114.259H67.2933Z" fill="black"/>
<path d="M216 113.132V116.513H14.478V111.629L33.2067 101.861H199.519L216 113.132Z" fill="#E6E6E6"/>
<path opacity="0.1" d="M216 113.132V116.513H14.478V111.629L216 113.132Z" fill="black"/>
<path d="M43.3207 130.038H34.3307L30.585 127.408H47.441L43.3207 130.038Z" fill="#3F3D56"/>
<path d="M43.3207 140.933H34.3307L30.585 138.303H47.441L43.3207 140.933Z" fill="#3F3D56"/>
<path d="M43.3207 156.337H34.3307L30.585 153.706H47.441L43.3207 156.337Z" fill="#3F3D56"/>
<path d="M43.3207 171.74H34.3307L30.585 169.11H47.441L43.3207 171.74Z" fill="#3F3D56"/>
<path d="M180.79 131.541H189.78L193.525 128.911H176.669L180.79 131.541Z" fill="#3F3D56"/>
<path d="M180.79 142.436H189.78L193.525 139.806H176.669L180.79 142.436Z" fill="#3F3D56"/>
<path d="M180.79 157.839H189.78L193.525 155.209H176.669L180.79 157.839Z" fill="#3F3D56"/>
<path d="M180.79 173.242H189.78L193.525 170.613H176.669L180.79 173.242Z" fill="#3F3D56"/>
<path d="M186.912 36.6936H111.23C110.854 36.6936 110.482 36.7678 110.134 36.912C109.787 37.0563 109.472 37.2677 109.206 37.5343C108.94 37.8009 108.729 38.1174 108.585 38.4657C108.442 38.814 108.368 39.1873 108.368 39.5643V90.6975C108.368 91.0745 108.442 91.4478 108.585 91.7961C108.729 92.1444 108.94 92.4609 109.206 92.7275C109.472 92.9941 109.787 93.2055 110.134 93.3498C110.482 93.494 110.854 93.5682 111.23 93.5682H139.959L138.883 100.461C138.883 100.461 132.732 103.738 137.057 103.835C141.382 103.931 161.758 103.835 161.758 103.835C161.758 103.835 165.698 103.835 159.451 100.364L158.438 93.5682H186.912C187.288 93.5682 187.66 93.494 188.007 93.3498C188.354 93.2055 188.67 92.9941 188.936 92.7275C189.202 92.4609 189.412 92.1444 189.556 91.7961C189.7 91.4478 189.774 91.0745 189.774 90.6975V39.5643C189.774 39.1873 189.7 38.814 189.556 38.4657C189.412 38.1174 189.202 37.8009 188.936 37.5343C188.67 37.2677 188.354 37.0563 188.007 36.912C187.66 36.7678 187.288 36.6936 186.912 36.6936Z" fill="#3F3D56"/>
<path d="M187.035 39.7301H111.107V82.3378H187.035V39.7301Z" fill="#F2F2F2"/>
<path d="M149.071 38.8625C149.336 38.8625 149.551 38.6467 149.551 38.3805C149.551 38.1144 149.336 37.8986 149.071 37.8986C148.805 37.8986 148.59 38.1144 148.59 38.3805C148.59 38.6467 148.805 38.8625 149.071 38.8625Z" fill="#F2F2F2"/>
<path d="M149.071 91.4956C150.079 91.4956 150.897 90.6756 150.897 89.6641C150.897 88.6525 150.079 87.8325 149.071 87.8325C148.062 87.8325 147.245 88.6525 147.245 89.6641C147.245 90.6756 148.062 91.4956 149.071 91.4956Z" fill="#F2F2F2"/>
<path d="M146.225 109.04V110.004H94.5176V109.233L94.5887 109.04L95.863 105.57H145.168L146.225 109.04Z" fill="#3F3D56"/>
<path d="M166.124 108.096C166.03 108.5 165.674 108.926 164.871 109.329C161.987 110.775 156.125 108.944 156.125 108.944C156.125 108.944 151.607 108.172 151.607 106.148C151.734 106.061 151.867 105.982 152.003 105.912C153.216 105.269 157.235 103.681 164.362 105.979C164.887 106.144 165.356 106.453 165.717 106.87C165.876 107.027 165.997 107.221 166.067 107.434C166.138 107.647 166.158 107.874 166.124 108.096Z" fill="#3F3D56"/>
<path opacity="0.1" d="M166.124 108.096C162.595 109.453 159.449 109.554 156.221 107.305C155 106.4 153.522 105.911 152.003 105.912C153.216 105.269 157.235 103.681 164.362 105.979C164.887 106.144 165.356 106.453 165.717 106.87C165.876 107.027 165.997 107.221 166.067 107.434C166.138 107.647 166.158 107.874 166.124 108.096Z" fill="black"/>
<path d="M161.699 107.305C162.389 107.305 162.949 107.132 162.949 106.919C162.949 106.706 162.389 106.534 161.699 106.534C161.009 106.534 160.45 106.706 160.45 106.919C160.45 107.132 161.009 107.305 161.699 107.305Z" fill="#F2F2F2"/>
<path opacity="0.1" d="M146.225 109.04V110.004H94.5176V109.233L94.5887 109.04H146.225Z" fill="black"/>
<path d="M28.7501 7.3337e-05C28.2254 -0.0431415 27.6999 0.0745963 27.2433 0.337686C26.795 0.645597 26.5125 1.18503 26.2241 1.687C25.1214 3.62915 23.6286 5.32045 21.8402 6.65375C20.5375 7.61087 18.8814 8.80428 19.1043 10.569C19.2219 11.1517 19.4365 11.7105 19.7392 12.2217C20.9409 14.6547 24.2202 16.5349 23.8976 19.3112C25.0915 17.3065 23.4946 16.3152 24.6885 14.3105C25.2571 13.3559 26.2448 12.2782 27.1032 12.8777C27.3906 13.0785 27.5794 13.4385 27.8786 13.6147C28.5927 14.035 29.3525 13.2315 29.9846 12.6623C32.1643 10.6998 35.2641 11.2139 37.9765 11.8254C39.2571 12.1141 40.6636 12.4928 41.4206 13.7204C42.4159 15.3343 40.475 17.0774 39.9846 18.9021C39.9446 19.0576 39.9427 19.2205 39.9791 19.3769C40.0155 19.5333 40.0891 19.6785 40.1937 19.8001C40.2983 19.9217 40.4306 20.0161 40.5795 20.0752C40.7284 20.1343 40.8893 20.1564 41.0485 20.1396C41.8624 20.059 42.8265 19.993 42.8747 19.6348C43.8987 19.6714 45.1534 19.5551 45.5921 18.4856C45.7262 18.0625 45.7971 17.6218 45.8025 17.1778C45.9635 15.3814 46.7237 13.7425 47.2273 12.0328C47.7309 10.323 47.9498 8.31929 47.1 6.8034C46.7967 6.29904 46.4216 5.8418 45.9865 5.44614C41.1638 0.76509 34.823 -0.00687509 28.7501 7.3337e-05Z" fill="#2F2E41"/>
<path d="M24.9466 22.8177C24.9466 22.8177 25.9954 31.5843 22.1496 32.2856C18.3038 32.9869 25.6458 44.9094 25.6458 44.9094L43.1268 47.0134L38.9314 32.9869C38.9314 32.9869 36.1344 31.9349 37.8825 24.9217C39.6306 17.9085 24.9466 22.8177 24.9466 22.8177Z" fill="#FFB8B8"/>
<path d="M14.2832 173.427L15.6818 192.713H23.0236L20.9261 173.427H14.2832Z" fill="#FFB8B8"/>
<path d="M68.1245 136.958L69.1732 153.088L77.2148 149.582L74.0679 136.257L68.1245 136.958Z" fill="#FFB8B8"/>
<path d="M9.03906 99.7879C9.03906 99.7879 9.38868 120.126 11.4864 126.789C13.5841 133.451 13.2345 133.802 12.8849 134.854C12.5353 135.906 12.1857 135.205 12.1857 136.958C12.1857 138.711 11.4864 166.414 12.1857 168.868C12.8849 171.323 10.0879 175.531 12.1857 175.881C14.2834 176.232 24.0727 175.881 24.4223 173.777C24.772 171.673 21.6254 170.972 23.0239 169.569C24.4224 168.167 26.5201 139.413 26.5201 139.413L31.4147 119.425L40.5049 108.905H59.7339L65.6775 132.049C65.6775 132.049 63.2301 138.711 64.9782 138.711C66.7264 138.711 77.2149 140.815 77.2149 133.101C77.2149 125.386 73.7187 102.593 73.0195 101.892C72.3203 101.191 73.3691 98.7359 72.3203 97.6839C71.2714 96.6319 59.0347 89.2681 54.4897 87.8654C49.9446 86.4628 43.5687 84.7933 43.5687 84.7933L9.03906 99.7879Z" fill="#2F2E41"/>
<path d="M77.2149 146.777C77.2149 146.777 71.9706 145.023 69.5233 150.283C67.0759 155.543 68.1248 156.946 68.1248 156.946C68.1248 156.946 76.1661 159.751 77.5645 158.348C78.173 157.738 80.105 157.526 82.0938 157.481C85.1227 157.413 85.9286 153.115 83.0679 152.114C82.9826 152.084 82.8962 152.058 82.8088 152.036C80.0119 151.335 77.2149 146.777 77.2149 146.777Z" fill="#2F2E41"/>
<path d="M32.8133 28.6036C38.606 28.6036 43.3019 23.8938 43.3019 18.0838C43.3019 12.2739 38.606 7.56396 32.8133 7.56396C27.0206 7.56396 22.3247 12.2739 22.3247 18.0838C22.3247 23.8938 27.0206 28.6036 32.8133 28.6036Z" fill="#FFB8B8"/>
<path d="M19.178 36.6688C19.178 36.6688 36.3094 40.1755 40.5048 34.5649C44.7003 28.9543 46.4484 50.3446 46.4484 50.3446L48.5461 72.7869L45.3995 85.0601C45.3995 85.0601 28.9674 98.3852 23.7231 99.4372C18.4788 100.489 10.4375 101.191 10.4375 101.191C10.4375 101.191 12.8849 62.2671 12.8849 61.5658C12.8849 60.8645 19.178 36.6688 19.178 36.6688Z" fill="#0B0F32"/>
<path d="M24.388 30.0923C24.388 30.0923 20.5764 27.9024 19.5275 30.0063C18.4787 32.1103 8.68931 37.3702 7.64045 37.3702C6.59159 37.3702 9.73817 66.4751 8.33969 69.9817C6.94121 73.4883 0.298434 99.0866 4.14425 101.191C7.99007 103.295 5.19311 99.0866 9.03893 104.347C12.8847 109.606 31.7642 109.606 32.8131 107.502C33.8619 105.399 24.4222 89.6187 26.1703 74.891C27.9184 60.1632 30.7154 39.8248 28.268 37.0195C25.8207 34.2143 24.388 30.0923 24.388 30.0923Z" fill="#2F2E41"/>
<path d="M37.0083 32.4609L37.4953 30.78C37.4953 30.78 52.042 35.6169 52.7412 38.7728C53.4404 41.9288 53.0908 64.0205 50.6435 65.7738C48.1961 67.5271 44.6999 70.3324 47.1473 74.5403C49.5946 78.7482 52.3916 83.3068 54.4893 83.6575C56.587 84.0081 60.4328 86.4628 59.384 88.9174C58.3351 91.372 45.7488 86.8134 45.7488 86.8134C45.7488 86.8134 37.3579 80.5015 37.7075 70.683C38.0572 60.8645 37.0083 32.4609 37.0083 32.4609Z" fill="#2F2E41"/>
<path d="M49.245 73.839L40.8541 89.6188C40.8541 89.6188 28.6174 102.243 35.6098 103.645C42.6022 105.048 46.448 92.0734 46.448 92.0734L55.5381 79.0989L49.245 73.839Z" fill="#FFB8B8"/>
<path d="M29.2612 2.7525C28.8385 2.72108 28.415 2.80346 28.0346 2.99112C27.6907 3.24307 27.4072 3.5689 27.2049 3.94481C26.2724 5.35172 25.0568 6.54747 23.6362 7.45527C22.5758 8.13177 21.2277 8.97525 21.4091 10.2225C21.5076 10.6407 21.6829 11.0368 21.926 11.3907C22.9076 13.1277 23.2984 15.1381 23.0392 17.1177L25.9549 12.8671C26.4177 12.1923 27.2218 11.4306 27.9206 11.8544C28.1545 11.9962 28.3082 12.2507 28.5518 12.3752C29.1331 12.6723 29.7515 12.1044 30.2661 11.7021C32.0405 10.315 34.5639 10.6784 36.7719 11.1106C37.8143 11.3146 38.9593 11.5823 39.5755 12.4499C40.5996 13.8917 39.5303 15.975 40.1279 17.6407C40.2952 17.5232 40.4373 17.3732 40.5458 17.1996C40.6542 17.0261 40.7268 16.8324 40.7592 16.6302C41.5928 16.656 42.6142 16.5738 42.9713 15.818C43.08 15.5217 43.1379 15.2092 43.1426 14.8936C43.2736 13.6239 43.8925 12.4656 44.3024 11.2571C44.7123 10.0487 44.8906 8.63246 44.1988 7.56104C43.9457 7.19801 43.6402 6.87472 43.2924 6.60173C39.3665 3.2932 34.2048 2.74759 29.2612 2.7525Z" fill="#2F2E41"/>
<path d="M49.2452 37.3702L52.5026 38.2375C52.5026 38.2375 60.0834 57.7086 58.3353 71.0337C56.5872 84.3589 55.5384 81.5536 55.5384 81.5536C55.5384 81.5536 52.7414 75.2417 46.4482 76.6443L49.2452 37.3702Z" fill="#2F2E41"/>
<path d="M14.7675 190.164C13.9244 191.313 14.0935 192.956 13.3467 194.17C12.6993 195.223 11.4793 195.775 10.6696 196.707C10.4112 197.017 10.1809 197.35 9.98131 197.7C9.23018 198.962 8.61965 200.58 9.35942 201.848C9.95451 202.869 11.2054 203.268 12.3525 203.539C13.8025 203.883 15.309 204.158 16.7757 203.896C18.2424 203.633 19.6759 202.732 20.1988 201.333C20.3016 200.981 20.4238 200.635 20.5648 200.297C21.3598 198.727 23.8533 198.71 24.6669 197.15C25.2363 196.058 24.7129 194.739 24.1897 193.624L22.5919 190.219C22.0616 189.089 19.912 189.739 18.7913 189.468C17.3298 189.115 15.819 188.726 14.7675 190.164Z" fill="#2F2E41"/>
<path d="M3.09521 80.8522L17.7793 103.645C17.7793 103.645 26.8694 115.217 29.6663 109.957C32.4633 104.697 19.877 95.9306 19.877 95.9306L10.4372 78.3976L3.09521 80.8522Z" fill="#FFB8B8"/>
<path d="M10.4374 38.0716L7.64044 37.3702C7.64044 37.3702 2.04653 39.1235 0.648049 46.4874C-0.750429 53.8513 0.298427 83.3069 2.04653 83.6575C3.79463 84.0082 10.6804 78.5287 11.7826 79.6905C12.8847 80.8522 9.38854 74.891 10.4374 71.735C11.4862 68.5791 10.4374 38.0716 10.4374 38.0716Z" fill="#2F2E41"/>
<path d="M141.884 53.724H132.848V55.9059H141.884V53.724Z" fill="#0B0F32"/>
<path d="M173.177 53.724H169.997V55.9059H173.177V53.724Z" fill="#0B0F32"/>
<path d="M179.535 53.724H176.356V55.9059H179.535V53.724Z" fill="#0B0F32"/>
<path d="M166.65 53.724H145.063V55.9059H166.65V53.724Z" fill="#0B0F32"/>
<path d="M130.505 67.8224H121.469V70.0043H130.505V67.8224Z" fill="#0B0F32"/>
<path d="M161.798 67.8224H158.618V70.0043H161.798V67.8224Z" fill="#0B0F32"/>
<path d="M168.156 67.8224H164.977V70.0043H168.156V67.8224Z" fill="#0B0F32"/>
<path d="M155.271 67.8224H133.685V70.0043H155.271V67.8224Z" fill="#0B0F32"/>
<path d="M167.821 58.5913H158.785V60.7732H167.821V58.5913Z" fill="#0B0F32"/>
<path d="M180.037 58.5913H171.001V60.7732H180.037V58.5913Z" fill="#0B0F32"/>
<path d="M124.648 58.5913H121.469V60.7732H124.648V58.5913Z" fill="#0B0F32"/>
<path d="M131.007 58.5913H127.828V60.7732H131.007V58.5913Z" fill="#0B0F32"/>
<path d="M155.773 58.5913H134.187V60.7732H155.773V58.5913Z" fill="#0B0F32"/>
<path d="M149.08 63.2908H140.043V65.4727H149.08V63.2908Z" fill="#0B0F32"/>
<path d="M136.864 63.2908H127.828V65.4727H136.864V63.2908Z" fill="#0B0F32"/>
<path d="M124.648 63.2908H121.469V65.4727H124.648V63.2908Z" fill="#0B0F32"/>
<path d="M180.037 63.2908H176.858V65.4727H180.037V63.2908Z" fill="#0B0F32"/>
<path d="M173.679 63.2908H152.092V65.4727H173.679V63.2908Z" fill="#0B0F32"/>
</g>
<defs>
<clipPath id="clip0_432_630">
<rect width="216" height="204" fill="white"/>
</clipPath>
</defs>
</svg>
