<svg viewBox="0 0 63 84" fill="none" xmlns="http://www.w3.org/2000/svg">
<path d="M47.0509 29.8347C46.788 30.575 46.2677 30.8821 45.557 31.2654C44.8353 31.6546 43.7663 32.0127 43.0103 32.3424V37.8461C43.0103 37.9501 43.0052 38.0528 43.0024 38.156C46.0082 38.4756 48.8269 36.2744 48.8269 33.5834C48.8269 32.1255 48.146 30.735 47.0509 29.8347Z" fill="#FFB1A0"/>
<path d="M46.4961 30.6618C46.2398 30.8894 45.924 31.0675 45.557 31.2654C44.8353 31.6546 43.7662 32.0128 43.0103 32.3424V37.8461C43.0103 37.9501 43.0052 38.0528 43.0024 38.156C44.2654 38.2904 45.4945 37.9783 46.4961 37.3732V30.6618Z" fill="#FFA68E"/>
<path d="M19.9694 32.3425C19.2136 32.0127 18.1445 31.6547 17.4227 31.2656C16.7494 30.9025 16.2473 30.6411 15.9729 29.9509C14.8916 30.8296 14.1528 32.1637 14.1528 33.5994C14.1528 36.2833 16.9684 38.4849 19.977 38.1547C19.9742 38.052 19.9694 37.9494 19.9694 37.8464V32.3425Z" fill="#FFB1A0"/>
<path d="M19.9694 37.3901C18.5789 36.5589 17.6242 35.1614 17.6242 33.5991C17.6242 32.8913 17.8044 32.2086 18.1161 31.5927C17.8674 31.4861 17.6301 31.3771 17.4229 31.2654C16.7496 30.9023 16.2477 30.641 15.973 29.9507C14.8918 30.8295 14.1528 32.1635 14.1528 33.5993C14.1528 36.2831 16.9684 38.4848 19.977 38.1545C19.9742 38.0518 19.9694 37.9493 19.9694 37.8462V37.3901Z" fill="#FFA68E"/>
<path d="M55.9756 59.3175C55.4883 59.0696 55.2828 59.0028 53.6847 58.3787V58.3841C51.6868 57.6103 48.2455 56.2776 45.171 55.0868L32.6837 76.0632C32.1592 76.9927 30.8205 76.9928 30.2957 76.0634L17.789 55.061L7.63557 59.0266C4.89725 60.1536 1.23047 63.6994 1.23047 68.9613V80.6214C1.23047 81.8091 2.19339 82.772 3.38109 82.772H59.5983C60.786 82.772 61.7489 81.8091 61.7489 80.6214V68.9613C61.7491 64.095 58.6132 60.6924 55.9756 59.3175Z" fill="#6E60B8"/>
<path d="M35.1628 72.8189L44.1349 56.9222L38.6155 62.1135C37.9753 62.7537 36.9279 62.7537 36.2877 62.1135L34.1782 60.3324C33.8456 59.9998 33.6875 59.5575 33.7004 59.1193H29.2927C29.3057 59.5575 29.1475 59.9998 28.815 60.3324L26.7055 61.9495C26.0653 62.5897 25.0179 62.5897 24.3777 61.9495L18.8154 56.8794L27.8151 72.819H35.1628V72.8189Z" fill="#B1DBFC"/>
<path d="M34.5064 58.3325L39.3501 52.8326C39.0603 52.7204 38.8669 52.6454 38.7952 52.6177C38.3414 52.4423 38.0397 52.0056 38.0384 51.5163L38.0351 47.1316C33.872 49.8558 28.6042 49.4876 24.934 47.1142V51.5092C24.934 51.997 24.6994 52.2845 24.4295 52.4677L23.6016 52.7911L28.4867 58.3325C28.7944 58.6402 28.9525 59.042 28.9645 59.4472H34.0287C34.0406 59.042 34.1988 58.6402 34.5064 58.3325Z" fill="#FFB1A0"/>
<path d="M31.4897 49.0351C29.1271 49.0218 26.8196 48.3335 24.934 47.1142V51.5092C24.934 51.997 24.6994 52.2845 24.4295 52.4677L23.6016 52.7911L28.4867 58.3325C28.7944 58.6402 28.9525 59.042 28.9645 59.4472H31.4895V49.0351H31.4897Z" fill="#FFA68E"/>
<path d="M33.477 63.5764H29.4737L27.769 72.7368L30.2957 77.212C30.8204 78.1414 32.159 78.1413 32.6837 77.2118L35.1887 72.7734L33.477 63.5764Z" fill="#FF7F87"/>
<path d="M31.543 73.9724C31.0923 73.1743 30.9372 72.2428 31.1049 71.3418L32.55 63.5764H29.4737L27.769 72.7368L30.2957 77.212C30.8204 78.1414 32.159 78.1413 32.6837 77.2118L33.0278 76.6023L31.543 73.9724Z" fill="#FF656F"/>
<path d="M34.3427 60.3322C34.0101 59.9997 33.6879 59.5573 33.7008 59.1191H29.2931C29.3061 59.5573 28.9838 59.9997 28.6513 60.3322L27.2764 61.707L29.363 63.6379C29.4342 63.7039 29.5277 63.7404 29.6249 63.7404H33.3259C33.4231 63.7404 33.5166 63.7037 33.5879 63.6377L35.6961 61.6855L34.3427 60.3322Z" fill="#FF656F"/>
<path d="M31.2391 62.5585C30.7461 62.1024 30.7312 61.328 31.206 60.853L31.7896 60.2696C32.1077 59.9514 32.4142 59.5381 32.46 59.1193H29.2931C29.3061 59.5575 28.9838 59.9998 28.6513 60.3324L27.2764 61.7071L29.363 63.6381C29.4342 63.704 29.5277 63.7406 29.6249 63.7406H32.5164L31.2391 62.5585Z" fill="#FF4756"/>
<path d="M23.6017 52.7911L17.7891 55.0613L18.8155 56.8794L24.3778 62.4417C25.018 63.0819 26.0654 63.0819 26.7056 62.4417L28.815 60.3324C29.4552 59.6922 29.4552 58.6448 28.815 58.0046L23.6017 52.7911Z" fill="#DFEBFA"/>
<path d="M39.3502 52.8326L34.1784 58.0044C33.5382 58.6446 33.5382 59.6922 34.1784 60.3322L36.2878 62.4415C36.928 63.0817 37.9754 63.0817 38.6156 62.4415L44.1351 56.922L45.171 55.0866C42.6535 54.112 40.3822 53.2323 39.3502 52.8326Z" fill="#DFEBFA"/>
<path d="M31.4895 34.6444C29.7235 34.6444 27.9945 34.4874 26.314 34.1908V37.9474C26.314 42.9148 29.4278 47.5342 34.4388 49.1883C39.5406 47.9373 43.3379 43.3279 43.3379 37.8461V32.1783C39.7082 33.7619 35.7031 34.6444 31.4895 34.6444Z" fill="#FFCEBE"/>
<path d="M26.4659 37.8462V34.2167C24.0823 33.8086 21.7952 33.1181 19.6411 32.1784V37.8462C19.6411 43.9504 24.4239 49.5257 31.6587 49.5257C32.8055 49.5257 33.9132 49.3567 34.9611 49.0472C29.7383 47.576 26.4659 42.8936 26.4659 37.8462Z" fill="#FFB1A0"/>
<path d="M33.0972 23.7041C32.0855 24.2109 30.894 24.2109 29.8824 23.7041L15.7358 16.6161V26.1605C15.9152 26.3131 16.1058 26.4541 16.3178 26.5684C20.834 29.0037 25.9989 30.3898 31.4896 30.3898C36.9803 30.3898 42.1452 29.0037 46.6614 26.5684C46.8734 26.4541 47.0642 26.3131 47.2434 26.1605V16.6161L33.0972 23.7041Z" fill="#6E60B8"/>
<path d="M21.8627 19.6859L15.7358 16.6161V26.1605C15.9152 26.3131 16.1058 26.4541 16.3178 26.5684C18.074 27.5154 19.9293 28.3013 21.8625 28.9112V19.6859H21.8627Z" fill="#6353B2"/>
<path d="M46.6619 26.2403C42.1457 28.6756 36.9808 30.0616 31.4901 30.0616C25.9993 30.0616 20.8345 28.6757 16.3183 26.2403C16.1061 26.1259 15.9155 25.985 15.7363 25.8324V28.7182C15.7363 29.9113 16.3729 31.0273 17.4231 31.5937C21.6105 33.8516 26.3992 35.1366 31.4901 35.1366C36.581 35.1366 41.3697 33.8515 45.557 31.5937C46.6073 31.0273 47.2438 29.9113 47.2438 28.7182V25.8324C47.0647 25.985 46.8739 26.1259 46.6619 26.2403Z" fill="#9790CC"/>
<path d="M21.8625 28.583C19.9291 27.9732 18.0738 27.1873 16.3178 26.2403C16.1058 26.1259 15.915 25.985 15.7358 25.8324V28.7182C15.7358 29.9113 16.3724 31.0273 17.4226 31.5937C18.8374 32.3565 20.3221 33.0052 21.8627 33.534V28.583H21.8625Z" fill="#8479C2"/>
<path d="M7.31448 66.5775C7.31448 62.5555 9.55206 59.3978 11.1503 57.6541L7.63557 59.0267C4.89725 60.1537 1.23047 63.6996 1.23047 68.9614V80.6215C1.23047 81.8092 2.19339 82.7721 3.38109 82.7721H7.31432C7.31448 77.0625 7.31448 69.9948 7.31448 66.5775Z" fill="#6353B2"/>
<path d="M53.4589 11.8125L33.0971 1.61055C32.0854 1.10374 30.894 1.10374 29.8823 1.61055L9.52066 11.8125C8.35249 12.3979 8.35249 14.0652 9.52066 14.6504L29.8825 24.8524C30.8941 25.3592 32.0856 25.3592 33.0972 24.8524L53.4591 14.6504C54.6271 14.0652 54.6271 12.3979 53.4589 11.8125Z" fill="#9790CC"/>
<path d="M37.1345 21.4508L16.007 10.865C15.2614 10.4915 14.9765 9.69359 15.1479 8.99301L9.52066 11.8125C8.35249 12.3979 8.35249 14.065 9.52066 14.6504L29.8823 24.8524C30.894 25.3592 32.0854 25.3592 33.0971 24.8524L39.1314 21.829C38.4521 21.8893 37.7603 21.7643 37.1345 21.4508Z" fill="#8479C2"/>
<path d="M57.9222 35.8397L56.3524 29.5228C55.8753 30.1136 55.1537 30.4992 54.3352 30.4992C53.5164 30.4992 52.795 30.1136 52.3179 29.5228L50.7481 35.8395C50.4303 37.0518 51.3448 38.2369 52.598 38.2369H56.0722C57.3255 38.237 58.24 37.052 57.9222 35.8397Z" fill="#FEC458"/>
<path d="M53.7071 36.0037L55.1054 30.3766C54.8621 30.4538 54.6047 30.4992 54.3351 30.4992C53.5164 30.4992 52.7952 30.1136 52.3179 29.5228L50.7481 35.8395C50.4303 37.0518 51.3448 38.2369 52.5978 38.2369H54.7862C53.9612 37.8728 53.4597 36.9479 53.7071 36.0037Z" fill="#F9AB49"/>
<path d="M31.4897 15.9136C32.9709 15.9136 34.1717 14.7128 34.1717 13.2316C34.1717 11.7503 32.9709 10.5495 31.4897 10.5495C30.0084 10.5495 28.8076 11.7503 28.8076 13.2316C28.8076 14.7128 30.0084 15.9136 31.4897 15.9136Z" fill="#8479C2"/>
<path d="M54.3352 30.8273C55.773 30.8273 56.9385 29.6618 56.9385 28.224C56.9385 26.7863 55.773 25.6208 54.3352 25.6208C52.8975 25.6208 51.7319 26.7863 51.7319 28.224C51.7319 29.6618 52.8975 30.8273 54.3352 30.8273Z" fill="#FFE181"/>
<path d="M54.0558 28.2241C54.0558 27.2045 54.6433 26.3241 55.497 25.8969C55.1469 25.7217 54.7531 25.6206 54.3349 25.6206C52.8972 25.6206 51.7314 26.7862 51.7314 28.2239C51.7314 29.6616 52.897 30.8272 54.3349 30.8272C54.7531 30.8272 55.1469 30.7261 55.497 30.5509C54.6433 30.1238 54.0558 29.2436 54.0558 28.2241Z" fill="#FEC458"/>
<path d="M3.38114 84H59.5983C61.4626 84 62.9795 82.4832 62.9795 80.6189V77.4012C62.9795 76.7216 62.4287 76.1707 61.7489 76.1707C61.0692 76.1707 60.5184 76.7216 60.5184 77.4012V80.6189C60.5184 81.1262 60.1056 81.539 59.5983 81.539H52.6242V70.6837C52.6242 70.0041 52.0734 69.4532 51.3937 69.4532C50.714 69.4532 50.1632 70.0041 50.1632 70.6837V81.539H12.8163V70.6837C12.8163 70.0041 12.2655 69.4532 11.5857 69.4532C10.906 69.4532 10.3552 70.0041 10.3552 70.6837V81.539H3.38114C2.87367 81.539 2.46104 81.1262 2.46104 80.6189V68.9588C2.46104 64.2156 5.82593 61.1047 8.09403 60.1662L17.2422 56.5933C18.6622 59.1084 26.1174 72.3122 29.224 77.8145C30.2201 79.5784 32.7589 79.5795 33.7551 77.8141C34.2367 76.961 44.9901 57.9079 45.719 56.6164C55.2685 60.3147 54.9015 60.1493 55.4067 60.4062C57.9511 61.7324 60.5184 64.8914 60.5184 68.9588V71.6588C60.5184 72.3383 61.0692 72.8893 61.7489 72.8893C62.4287 72.8893 62.9795 72.3383 62.9795 71.6588V68.9588C62.9795 63.5111 59.5128 59.7711 56.5333 58.2182C55.8613 57.8763 56.9294 58.3171 39.2688 51.4791L39.2662 48.2649C42.0847 46.2019 44.0368 43.0259 44.4729 39.389C46.6058 39.2021 48.514 37.9803 49.4642 36.0703C49.3156 37.8631 50.7294 39.4649 52.5976 39.4649H56.0718C58.1317 39.4649 59.6349 37.5186 59.112 35.525V35.5251L57.6853 30.082C57.9927 29.5305 58.1686 28.8962 58.1686 28.2214C58.1686 26.5379 57.0772 25.1053 55.5653 24.5912V13.2289V13.2288C55.5652 12.1556 54.9694 11.1905 54.0101 10.7098H54.0099L33.6483 0.507835C32.2967 -0.169278 30.6829 -0.169278 29.3313 0.507835L8.96934 10.7098C8.00986 11.1905 7.41412 12.1558 7.41412 13.2289C7.41412 14.3021 8.01019 15.2672 8.9695 15.7481L14.5054 18.5218V28.7154C14.5054 29.0039 14.5339 29.2874 14.5858 29.5637C13.5339 30.6789 12.9223 32.1355 12.9223 33.5965C12.9223 36.5601 15.2968 39.1169 18.5057 39.3903C18.9301 42.9621 20.812 46.1568 23.7036 48.2503V51.4275C23.6972 51.43 7.70272 57.6768 7.18804 57.8778C7.18115 57.8806 7.17426 57.8833 7.16736 57.8861C3.71535 59.3068 0 63.3777 0 68.9587V80.6187C0 82.4834 1.51682 84 3.38114 84ZM27.1863 69.1995L24.1265 63.7803C24.537 64.012 25.0342 64.1496 25.5418 64.1496C26.2468 64.1496 26.9103 63.8966 27.4337 63.4381L28.1436 64.1478L27.1863 69.1995ZM33.3082 57.1317C33.0896 57.3503 32.8911 57.6346 32.7668 57.886H30.2266C30.1044 57.6387 29.9056 57.3519 29.6852 57.1317L25.6064 53.053C25.9699 52.6312 26.1646 52.0992 26.1646 51.5066V49.6512C27.8959 50.3992 29.7492 50.7534 31.6588 50.7534C33.488 50.7534 35.2283 50.3686 36.8065 49.6795L36.8079 51.5168C36.8096 52.1012 37.0158 52.6443 37.3725 53.0672L33.3082 57.1317ZM33.7915 61.6832L32.9672 62.5075H29.9833L29.1804 61.7045L29.685 61.1997C29.9439 60.9406 30.148 60.6215 30.2709 60.347H32.7221C32.8467 60.6251 33.049 60.9406 33.3079 61.1997L33.7915 61.6832ZM31.612 76.6045C31.5566 76.7018 31.4217 76.7016 31.3672 76.6045L29.0617 72.5213L30.4929 64.9685H32.4578L33.8959 72.558L31.612 76.6045ZM35.771 69.2353L34.8071 64.148L35.5374 63.4177C36.0641 63.8891 36.7364 64.1496 37.4518 64.1496C37.9546 64.1496 38.4352 64.0179 38.8421 63.7941L35.771 69.2353ZM39.6534 54.2671L43.4001 55.7181C43.2678 55.9522 43.3215 55.8574 43.1458 56.1685L37.7453 61.5692C37.5855 61.729 37.3175 61.7288 37.1577 61.5692L35.0485 59.4599C34.8951 59.3065 34.8869 59.0335 35.0485 58.8722L39.6534 54.2671ZM44.5689 36.8986V33.4626C46.0857 32.7553 46.6573 32.4246 47.1755 31.8989C47.4472 32.4152 47.5963 32.9945 47.5963 33.5809C47.5963 35.2633 46.2588 36.6187 44.5689 36.8986ZM56.072 37.0041H52.5978C52.1509 37.0041 51.8249 36.5827 51.9382 36.1493L53.0679 31.8393C53.8879 32.1273 54.7806 32.1278 55.6017 31.8393L56.7314 36.1493C56.8452 36.5821 56.5197 37.0041 56.072 37.0041ZM54.335 26.8487C55.0918 26.8487 55.7077 27.4646 55.7077 28.2216C55.7077 28.9986 55.0364 29.6014 54.3238 29.5939C53.6305 29.588 52.962 29.0101 52.962 28.2216C52.9622 27.4646 53.5781 26.8487 54.335 26.8487ZM53.1044 24.5914C51.5924 25.1054 50.5012 26.5379 50.5012 28.2216C50.5012 28.8964 50.677 29.5307 50.9845 30.0821L50.0562 33.6237C50.0564 33.6095 50.0574 33.5952 50.0574 33.5811C50.0574 32.0519 49.4534 30.5537 48.4157 29.4347C48.4529 29.1993 48.4743 28.9594 48.4743 28.7156C48.4743 27.5655 48.4743 19.5466 48.4743 18.522L53.1046 16.202V24.5914H53.1044ZM10.0719 13.5477C9.90929 13.4662 9.87516 13.3294 9.87516 13.2289C9.87516 13.1285 9.90929 12.9915 10.0719 12.9102L30.4335 2.70817C31.0949 2.37691 31.8846 2.37675 32.5459 2.70817L51.088 11.9984H35.2029C34.6859 10.4422 33.2173 9.31638 31.4896 9.31638C29.3323 9.31638 27.5769 11.0716 27.5769 13.2289C27.5769 15.3863 29.3321 17.1415 31.4896 17.1415C33.2171 17.1415 34.6857 16.0157 35.2029 14.4595H51.0879C50.7392 14.6342 37.522 21.2565 32.5459 23.7497C31.8846 24.0811 31.0949 24.0811 30.4335 23.7497C29.3628 23.2134 10.834 13.9295 10.0719 13.5477ZM32.9412 13.2289C32.9412 14.0293 32.29 14.6805 31.4896 14.6805C30.6891 14.6805 30.038 14.0293 30.038 13.2289C30.038 12.4286 30.6891 11.7774 31.4896 11.7774C32.2901 11.7774 32.9412 12.4286 32.9412 13.2289ZM18.4107 36.9015C16.72 36.6278 15.3833 35.2743 15.3833 33.5965C15.3833 33.0308 15.5493 32.4603 15.8507 31.9455C16.2499 32.3364 16.6386 32.6357 18.4107 33.4625V36.9015ZM18.0068 30.5079C17.3771 30.1684 16.9664 29.4767 16.9664 28.7156V27.9532C20.5915 29.7189 24.4678 30.7949 28.5093 31.155C29.183 31.216 29.784 30.7156 29.8444 30.0387C29.9046 29.3617 29.4048 28.764 28.7279 28.7038C24.5831 28.3345 20.6268 27.1512 16.9664 25.1884V19.755L29.3311 25.9502C30.6727 26.6219 32.2847 26.6329 33.6481 25.9502L46.0129 19.755V25.1884C42.3527 27.1512 38.3961 28.3345 34.2514 28.7038C33.5745 28.7642 33.0747 29.3617 33.1349 30.0387C33.1953 30.7156 33.7948 31.2159 34.47 31.155C38.5116 30.7949 42.3883 29.7187 46.0129 27.953V28.7154C46.0129 29.4764 45.6037 30.1676 44.9725 30.5077C40.7011 32.8016 36.037 33.9033 31.4895 33.9033C26.8384 33.9035 22.179 32.7514 18.0068 30.5079ZM20.8717 37.8436V34.4871C24.3275 35.7553 27.9141 36.3645 31.4898 36.3645C35.0639 36.3645 38.6506 35.756 42.1079 34.4871V37.8436C42.1079 43.6223 37.3924 48.2925 31.6588 48.2925C25.1326 48.2923 20.8717 43.2131 20.8717 37.8436ZM23.3001 54.2274L27.9448 58.872C28.1026 59.0299 28.1005 59.304 27.9448 59.4597L25.8355 61.5692C25.6757 61.729 25.4078 61.7288 25.248 61.5692L19.8046 56.126L19.558 55.6891L23.3001 54.2274Z" fill="black"/>
</svg>
